<svg id="8c879b28-f062-4002-b196-0cbb9b806ac1" data-name="レイヤー 1" xmlns="http://www.w3.org/2000/svg" width="120" height="120" viewBox="0 0 120 120"><defs><style>.\36 7c8b5d4-2a1e-43e1-a976-7e280ea62c9c{fill:none;stroke:#fff;stroke-linejoin:round;stroke-width:6px;}.aa4188e8-11be-457f-98b7-c264bde3d840{fill:#e50012;}</style></defs><title>ico-nihon</title><path class="67c8b5d4-2a1e-43e1-a976-7e280ea62c9c" d="M39.11,31.59l5.11-16-9.39-.24-9,28.07a10,10,0,0,1,4.6-.18l1.91-5.11,4.64.12,1.27-4.16c-.19-.31-2.06-2.33-2.06-2.33C36.74,31.38,39.11,31.59,39.11,31.59ZM34.78,33,34,33l3.68-11.32.62,0Z"/><path class="67c8b5d4-2a1e-43e1-a976-7e280ea62c9c" d="M40,31.7l5.16-16.07,4.44.18-4,12.8.91,0L50.64,15.7l4.34,0L48.65,35.66S43.54,32.53,40,31.7Z"/><path class="67c8b5d4-2a1e-43e1-a976-7e280ea62c9c" d="M39,34.67l-2.76,8.89a9.3,9.3,0,0,1,4.15,1.08l2-6S40.46,35.59,39,34.67Z"/><path class="67c8b5d4-2a1e-43e1-a976-7e280ea62c9c" d="M42.91,40.06l-1.62,5.25a1.18,1.18,0,0,1,1.42-.17,16.27,16.27,0,0,0,2.1,1.07,3.18,3.18,0,0,0,0-2.6C44.2,42.05,43.67,40.42,42.91,40.06Z"/><path class="67c8b5d4-2a1e-43e1-a976-7e280ea62c9c" d="M49.31,35.9l6.53-20.2,9.5.24L56.93,42.36a26.28,26.28,0,0,0-3.45-3.48L59,21.59l-.86,0L52.79,38.36A26.29,26.29,0,0,0,49.31,35.9Z"/><path class="67c8b5d4-2a1e-43e1-a976-7e280ea62c9c" d="M57.57,43,66.2,15.86l9.65.2L74,21.67l-5.15-.13-2.36,7.37,5.25.13-1.6,5-5.3,0L62.4,41.79l5.36.14L66,47.39l-5.11.07A15.18,15.18,0,0,0,57.57,43Z"/><path class="67c8b5d4-2a1e-43e1-a976-7e280ea62c9c" d="M66.76,47.36,76.61,16l4.24.11-.29,11.16L84.29,16l4.24.06L78.85,46.71s-1.92.1-2.44.7l-1.57,0L75.41,35,71.3,47.38Z"/><polygon class="67c8b5d4-2a1e-43e1-a976-7e280ea62c9c" points="79.39 47.48 89.39 16.15 94.55 16.19 84.94 47.62 79.39 47.48"/><polygon class="67c8b5d4-2a1e-43e1-a976-7e280ea62c9c" points="85.22 48.49 89.47 34.6 92.33 31.49 91.68 27.58 95.69 15 97.66 24.91 105.99 15.21 101.9 28.86 98.88 32.32 99.53 36.38 95.58 48.66 93.61 38.9 85.22 48.49"/><path class="67c8b5d4-2a1e-43e1-a976-7e280ea62c9c" d="M18.3,45.87s16.22-2.08,21.64,15.24l6.93,2.81a13.82,13.82,0,0,1-1-7.31s1.22-5.56.09-8.75a8.59,8.59,0,0,0-3.66-1.92l1.42,2.6s-.21.46-1.27-.64a16.74,16.74,0,0,0-2.83-2.57A22.23,22.23,0,0,0,33,44s1.24,1.31,2.36,2.28A47.53,47.53,0,0,0,29.93,44C28.59,43.71,19.88,44.62,18.3,45.87Z"/><path class="67c8b5d4-2a1e-43e1-a976-7e280ea62c9c" d="M80.48,76.47c-2.24-.4-5.67.49-6.28.61a17.65,17.65,0,0,1-3.48.28c-.87-.09-.36-.51-.36-.51a10.14,10.14,0,0,1,3.17-1.43c2.91-.4,3.44-1.33,3.24-1.3a8.26,8.26,0,0,1-3.3-.26,9.66,9.66,0,0,0-3.33-.28,12.85,12.85,0,0,0,1.56-4.24,5.53,5.53,0,0,1,2.35-3.55c1.28-1.08,4.09-.57,4.09-.57.17-.06.23-1,.23-1,.53.22.5,1.4.5,1.4a8.07,8.07,0,0,1,2.56,1.31c.1,0,.43.48.09-.84s.06-1,.06-1a7.81,7.81,0,0,0,1.8,3.38C85.74,70.94,88,69.69,88,69.69c1.72-1.17.66-4.4-.79-5.95a6.29,6.29,0,0,0-3.83-1.68c0-.44,1.77-.8,1.77-.8-.58-1-1.92-1.19-2.49-1.38s-2.38.85-2.38.85c-.09-.37.57-1.1.57-1.1-7.13-1.86-9.63,4.88-9.63,4.88C70.59,67,69,70.73,69,70.73c-1,2-2.29,1.86-2.29,1.86a10,10,0,0,0,2.08-2.92c.73-1.37.56-5.86.56-5.86a8.34,8.34,0,0,1,2.23-5.13A12.43,12.43,0,0,1,74.29,57a2.82,2.82,0,0,0-.07-.73c.17-.15.42,0,.42,0a1.32,1.32,0,0,0,1.42.25,18.31,18.31,0,0,1,3.13-.7c1-.17.92-.11.94-.43s-.9-.45-.9-.45c-1.55-.36-1.87-.91-1.87-.91a13.06,13.06,0,0,0,3.29-.17c4.09-.79,4.12-3,4.12-3,.35-2.15-4.46-1.91-4.46-1.91a9.34,9.34,0,0,0-4.1,1.14c.15-.84,2.27-2.43,2.27-2.43a12.46,12.46,0,0,0-5.34,1.21c-.26.87-.61.88-.61.88-.27.09-.28-.42-.28-.42C70,49.89,67,53.65,67,53.65c-2.8,4.17-.37,9-.37,9,1.42,2.47.86,6,.86,6a5,5,0,0,1-5.09,3.91c-3,5.72-5.59,5.32-5.59,5.32-3.16-.48-3.44-2.58-3.44-2.58,2.24,2.08,3.32,1.84,3.32,1.84,3.58-.32,5.18-5,5.18-5l-3-.15a7.63,7.63,0,0,0,3.54-1.39c.91-1.12,1.8-6.83,1.8-6.83a8,8,0,0,1-3.15,1.75,44.29,44.29,0,0,0,3.47-4,18.7,18.7,0,0,0-1.6-8.6,5.68,5.68,0,0,1-1.43,3.34c.44-1.41.15-5.86.15-5.86a22.29,22.29,0,0,0-3.83-5.69l-.2,2.48c0-.47-1.11-4-1.11-4a22.83,22.83,0,0,0-4.47-4.22l.14,2.49-2-4c-9.15-6-13.07-5.19-13.07-5.19,3.85,2,6.74,7.8,6.74,7.8,3.74,8.92,3,11.59,3,11.59A63,63,0,0,1,46.13,59a12.37,12.37,0,0,0,1.47,5.76c-7.65-4.17-17.76-4-17.76-4-1.95-.18-.75-2.24-.75-2.24.44-1.2,2.47-1.75,2.47-1.75-1.8-1.24-7.49,3.77-7.49,3.77a12.67,12.67,0,0,1-4,2.74A2.44,2.44,0,0,1,17.92,63c-.37,1.23,2.95,1,2.95,1a3.55,3.55,0,0,1,2.41.42,2,2,0,0,1,1,2.22c-.42,1.46-1.16.91-1.16.91-.27-.49-.4-.14-.4-.14,0,.78,1.39,1,1.39,1,1.53.17,2.54-1.55,2.54-1.55A4.9,4.9,0,0,1,29,65.27c3.23-1.13,8.35,1.25,8.35,1.25,5,2.35,5,6.24,5,6.24.1,1-.37,2.6-1.58,2.79a1.8,1.8,0,0,1-1.8-1c-.59,3.55,3,5.56,3,5.56,3.66,2.22,6,2.15,6,2.15a4.63,4.63,0,0,0-.23,2.07c-.48.89-3.86,2.4-4.88,3a3,3,0,0,1-2.41.32,18.17,18.17,0,0,0-4.58-.72c-1.94,0-2,1-2,1,.08.81,1.3.49,1.3.49a6.51,6.51,0,0,1,5.51,1.78A6.33,6.33,0,0,0,42.9,92c.81,0,.79.53.79.53.3.94,1,.49,1,.49a4.11,4.11,0,0,1,2.75-1c1.42-.06,5.25,1.52,5.25,1.52,2,.76,2.26-.11,2.26-.11.25-.4,0-.78-.64-1s-1.2-.4-1.19-1.21,1.23-.44,1.9-.46.62-.42.42-.53-1.59.33-1.18-1.31a3.83,3.83,0,0,1,2.38-2.29,8.74,8.74,0,0,0,3.08-3.09,7,7,0,0,0,.6-3.63c1.81.45,1.48,2.81,1.48,2.81a20.35,20.35,0,0,0-.22,4.6c.4,4.13,3.1,4,3.1,4,2-.18,2.45-2.49,2.45-2.49a3.72,3.72,0,0,1-2.4-.73,4.54,4.54,0,0,1-1.54-4.46c.73-3.35,4.27-2.08,4.27-2.08A3.74,3.74,0,0,1,70,85.7c-.71,2.64-2.81,2-2.81,2,3.23,2.58,6.32-1.18,6.32-1.18,1.58-2.35-1.34-5.67-1.34-5.67,3.59.67,7.82-1.21,8.81-1.66a11.91,11.91,0,0,1,5.94-.52A18.69,18.69,0,0,1,91,80.21C88,77.47,82.73,76.86,80.48,76.47ZM25.8,63.24a.74.74,0,1,1,.87-.75A.82.82,0,0,1,25.8,63.24ZM50.54,90.38a11.33,11.33,0,0,1-3.71,0,3.33,3.33,0,0,0-2,.54s-.83.86-1.27-.64c0,0-.52-1.46.89-1.22s.82.6,1.35.46-.06-.55-.06-.6-.71-.73.89-2,2.11-.81,2.59-.67,3.06,1.07,4.61-.66C53.87,85.62,53.43,89.35,50.54,90.38Z"/><path class="67c8b5d4-2a1e-43e1-a976-7e280ea62c9c" d="M39.71,90.89l-4.29,13.79,3.68.14L40.75,100l.63,4.71,3.28.09L48.41,93a2.75,2.75,0,0,0-3.56.42l-1,3.1-.66-3.8a5.58,5.58,0,0,1-2.27-1.83S40.23,90.44,39.71,90.89Z"/><path class="67c8b5d4-2a1e-43e1-a976-7e280ea62c9c" d="M49.21,93.1l-3.63,11.53,3.89.15,3.4-10.62S50.88,92.79,49.21,93.1Z"/><path class="67c8b5d4-2a1e-43e1-a976-7e280ea62c9c" d="M53.67,94.38l-3.19,10.38h3.69l1.59-5,1.26.08-1.59,5h3.64l4.19-13.69-3.43,0-1.76,5.41-1.27,0L58.46,91l-3.08-.07a.65.65,0,0,0-.13,1.21,1.16,1.16,0,0,1,.32,1.42A1.75,1.75,0,0,1,53.67,94.38Z"/><path class="67c8b5d4-2a1e-43e1-a976-7e280ea62c9c" d="M66,91.11s-.28.8-2,.55l-4.13,13.09,8.18,0,4.24-13.53Zm-.31,10.1-1.16,0,2.18-6.31,1,0Z"/><polygon class="67c8b5d4-2a1e-43e1-a976-7e280ea62c9c" points="73.01 91.29 68.67 104.82 72.36 104.81 73.72 100.86 74.53 104.97 77.66 105 81.85 91.31 78.72 91.33 76.76 96.84 75.89 91.31 73.01 91.29"/><path class="67c8b5d4-2a1e-43e1-a976-7e280ea62c9c" d="M6.64,89.83l.75,0-.55,2.7a1.78,1.78,0,0,0,0,.66q.06.38.51.39A.71.71,0,0,0,8,93.24a2,2,0,0,0,.22-.67l.54-2.7h.75l-.54,2.71a3,3,0,0,1-.39,1.09,1.55,1.55,0,0,1-1.39.7,1,1,0,0,1-1.11-.74,2.8,2.8,0,0,1,0-1.1Z"/><path class="67c8b5d4-2a1e-43e1-a976-7e280ea62c9c" d="M10.22,89.86H11l.8,3.09.61-3.07h.69l-.88,4.42-.74,0-.82-3.15L10,94.28l-.68,0Z"/><path class="67c8b5d4-2a1e-43e1-a976-7e280ea62c9c" d="M13.58,94.34l-.74,0,.88-4.4h.74Z"/><path class="67c8b5d4-2a1e-43e1-a976-7e280ea62c9c" d="M17.22,90,18,90,15.9,94.38h-.7l-.32-4.43h.8l.09,3.36Z"/><path class="67c8b5d4-2a1e-43e1-a976-7e280ea62c9c" d="M20.86,90.82l-1.83,0-.19.93,1.68,0-.16.76-1.67,0-.23,1.15,1.92,0-.16.79-2.64,0L18.46,90,21,90Z"/><path class="67c8b5d4-2a1e-43e1-a976-7e280ea62c9c" d="M22.93,94.5v-.24a2.58,2.58,0,0,1,0-.38l.08-.4a1,1,0,0,0,0-.57c-.06-.09-.19-.14-.4-.15h-.72l-.35,1.72h-.72l.88-4.41,1.7,0a1.12,1.12,0,0,1,.53.12.71.71,0,0,1,.27.32,1.45,1.45,0,0,1,.11.37,2,2,0,0,1,0,.47,2,2,0,0,1-.25.62,1,1,0,0,1-.51.42.54.54,0,0,1,.28.35,1.55,1.55,0,0,1,0,.69l-.05.3a1.88,1.88,0,0,0-.07.41v.35Zm-.62-3.68L22.07,92h.8a.76.76,0,0,0,.37-.07.65.65,0,0,0,.32-.49c.05-.28,0-.46-.1-.55a.55.55,0,0,0-.33-.08Z"/><path class="67c8b5d4-2a1e-43e1-a976-7e280ea62c9c" d="M25.21,93.16a.89.89,0,0,0,0,.46.57.57,0,0,0,.58.28,1,1,0,0,0,.45-.06.67.67,0,0,0,.42-.51.36.36,0,0,0-.1-.34,1,1,0,0,0-.45-.21l-.36-.11a1.83,1.83,0,0,1-.71-.36,1.07,1.07,0,0,1-.17-1,1.81,1.81,0,0,1,.55-1A1.59,1.59,0,0,1,26.57,90a1.11,1.11,0,0,1,.89.38,1.26,1.26,0,0,1,.21,1.08H27a.52.52,0,0,0-.17-.57.8.8,0,0,0-.41-.12.82.82,0,0,0-.5.14.58.58,0,0,0-.25.4.33.33,0,0,0,.1.35,1.17,1.17,0,0,0,.43.19l.59.2a1,1,0,0,1,.54.33,1,1,0,0,1,.14.91,1.74,1.74,0,0,1-.58,1,1.67,1.67,0,0,1-1.14.38,1.14,1.14,0,0,1-1.21-1.5Z"/><path class="67c8b5d4-2a1e-43e1-a976-7e280ea62c9c" d="M28.36,94.59h-.74l.89-4.41h.74Z"/><path class="67c8b5d4-2a1e-43e1-a976-7e280ea62c9c" d="M32.51,90.23l-.15.79-1.07,0-.72,3.63-.74,0L30.55,91l-1.06,0,.16-.78Z"/><path class="67c8b5d4-2a1e-43e1-a976-7e280ea62c9c" d="M35,90.28h.85L34.07,93l-.33,1.64H33L33.33,93l-.67-2.78h.87l.35,1.93Z"/><path class="aa4188e8-11be-457f-98b7-c264bde3d840" d="M39.11,31.59l5.11-16-9.39-.24-9,28.07a10,10,0,0,1,4.6-.18l1.91-5.11,4.64.12,1.27-4.16c-.19-.31-2.06-2.33-2.06-2.33C36.74,31.38,39.11,31.59,39.11,31.59ZM34.78,33,34,33l3.68-11.32.62,0Z"/><path class="aa4188e8-11be-457f-98b7-c264bde3d840" d="M40,31.7l5.16-16.07,4.44.18-4,12.8.91,0L50.64,15.7l4.34,0L48.65,35.66S43.54,32.53,40,31.7Z"/><path class="aa4188e8-11be-457f-98b7-c264bde3d840" d="M39,34.67l-2.76,8.89a9.3,9.3,0,0,1,4.15,1.08l2-6S40.46,35.59,39,34.67Z"/><path class="aa4188e8-11be-457f-98b7-c264bde3d840" d="M42.91,40.06l-1.62,5.25a1.18,1.18,0,0,1,1.42-.17,16.27,16.27,0,0,0,2.1,1.07,3.18,3.18,0,0,0,0-2.6C44.2,42.05,43.67,40.42,42.91,40.06Z"/><path class="aa4188e8-11be-457f-98b7-c264bde3d840" d="M49.31,35.9l6.53-20.2,9.5.24L56.93,42.36a26.28,26.28,0,0,0-3.45-3.48L59,21.59l-.86,0L52.79,38.36A26.29,26.29,0,0,0,49.31,35.9Z"/><path class="aa4188e8-11be-457f-98b7-c264bde3d840" d="M57.57,43,66.2,15.86l9.65.2L74,21.67l-5.15-.13-2.36,7.37,5.25.13-1.6,5-5.3,0L62.4,41.79l5.36.14L66,47.39l-5.11.07A15.18,15.18,0,0,0,57.57,43Z"/><path class="aa4188e8-11be-457f-98b7-c264bde3d840" d="M66.76,47.36,76.61,16l4.24.11-.29,11.16L84.29,16l4.24.06L78.85,46.71s-1.92.1-2.44.7l-1.57,0L75.41,35,71.3,47.38Z"/><polygon class="aa4188e8-11be-457f-98b7-c264bde3d840" points="79.39 47.48 89.39 16.15 94.55 16.19 84.94 47.62 79.39 47.48"/><polygon class="aa4188e8-11be-457f-98b7-c264bde3d840" points="85.22 48.49 89.47 34.6 92.33 31.49 91.68 27.58 95.69 15 97.66 24.91 105.99 15.21 101.9 28.86 98.88 32.32 99.53 36.38 95.58 48.66 93.61 38.9 85.22 48.49"/><path class="aa4188e8-11be-457f-98b7-c264bde3d840" d="M18.3,45.87s16.22-2.08,21.64,15.24l6.93,2.81a13.82,13.82,0,0,1-1-7.31s1.22-5.56.09-8.75a8.59,8.59,0,0,0-3.66-1.92l1.42,2.6s-.21.46-1.27-.64a16.74,16.74,0,0,0-2.83-2.57A22.23,22.23,0,0,0,33,44s1.24,1.31,2.36,2.28A47.53,47.53,0,0,0,29.93,44C28.59,43.71,19.88,44.62,18.3,45.87Z"/><path class="aa4188e8-11be-457f-98b7-c264bde3d840" d="M80.48,76.47c-2.24-.4-5.67.49-6.28.61a17.65,17.65,0,0,1-3.48.28c-.87-.09-.36-.51-.36-.51a10.14,10.14,0,0,1,3.17-1.43c2.91-.4,3.44-1.33,3.24-1.3a8.26,8.26,0,0,1-3.3-.26,9.66,9.66,0,0,0-3.33-.28,12.85,12.85,0,0,0,1.56-4.24,5.53,5.53,0,0,1,2.35-3.55c1.28-1.08,4.09-.57,4.09-.57.17-.06.23-1,.23-1,.53.22.5,1.4.5,1.4a8.07,8.07,0,0,1,2.56,1.31c.1,0,.43.48.09-.84s.06-1,.06-1a7.81,7.81,0,0,0,1.8,3.38C85.74,70.94,88,69.69,88,69.69c1.72-1.17.66-4.4-.79-5.95a6.29,6.29,0,0,0-3.83-1.68c0-.44,1.77-.8,1.77-.8-.58-1-1.92-1.19-2.49-1.38s-2.38.85-2.38.85c-.09-.37.57-1.1.57-1.1-7.13-1.86-9.63,4.88-9.63,4.88C70.59,67,69,70.73,69,70.73c-1,2-2.29,1.86-2.29,1.86a10,10,0,0,0,2.08-2.92c.73-1.37.56-5.86.56-5.86a8.34,8.34,0,0,1,2.23-5.13A12.43,12.43,0,0,1,74.29,57a2.82,2.82,0,0,0-.07-.73c.17-.15.42,0,.42,0a1.32,1.32,0,0,0,1.42.25,18.31,18.31,0,0,1,3.13-.7c1-.17.92-.11.94-.43s-.9-.45-.9-.45c-1.55-.36-1.87-.91-1.87-.91a13.06,13.06,0,0,0,3.29-.17c4.09-.79,4.12-3,4.12-3,.35-2.15-4.46-1.91-4.46-1.91a9.34,9.34,0,0,0-4.1,1.14c.15-.84,2.27-2.43,2.27-2.43a12.46,12.46,0,0,0-5.34,1.21c-.26.87-.61.88-.61.88-.27.09-.28-.42-.28-.42C70,49.89,67,53.65,67,53.65c-2.8,4.17-.37,9-.37,9,1.42,2.47.86,6,.86,6a5,5,0,0,1-5.09,3.91c-3,5.72-5.59,5.32-5.59,5.32-3.16-.48-3.44-2.58-3.44-2.58,2.24,2.08,3.32,1.84,3.32,1.84,3.58-.32,5.18-5,5.18-5l-3-.15a7.63,7.63,0,0,0,3.54-1.39c.91-1.12,1.8-6.83,1.8-6.83a8,8,0,0,1-3.15,1.75,44.29,44.29,0,0,0,3.47-4,18.7,18.7,0,0,0-1.6-8.6,5.68,5.68,0,0,1-1.43,3.34c.44-1.41.15-5.86.15-5.86a22.29,22.29,0,0,0-3.83-5.69l-.2,2.48c0-.47-1.11-4-1.11-4a22.83,22.83,0,0,0-4.47-4.22l.14,2.49-2-4c-9.15-6-13.07-5.19-13.07-5.19,3.85,2,6.74,7.8,6.74,7.8,3.74,8.92,3,11.59,3,11.59A63,63,0,0,1,46.13,59a12.37,12.37,0,0,0,1.47,5.76c-7.65-4.17-17.76-4-17.76-4-1.95-.18-.75-2.24-.75-2.24.44-1.2,2.47-1.75,2.47-1.75-1.8-1.24-7.49,3.77-7.49,3.77a12.67,12.67,0,0,1-4,2.74A2.44,2.44,0,0,1,17.92,63c-.37,1.23,2.95,1,2.95,1a3.55,3.55,0,0,1,2.41.42,2,2,0,0,1,1,2.22c-.42,1.46-1.16.91-1.16.91-.27-.49-.4-.14-.4-.14,0,.78,1.39,1,1.39,1,1.53.17,2.54-1.55,2.54-1.55A4.9,4.9,0,0,1,29,65.27c3.23-1.13,8.35,1.25,8.35,1.25,5,2.35,5,6.24,5,6.24.1,1-.37,2.6-1.58,2.79a1.8,1.8,0,0,1-1.8-1c-.59,3.55,3,5.56,3,5.56,3.66,2.22,6,2.15,6,2.15a4.63,4.63,0,0,0-.23,2.07c-.48.89-3.86,2.4-4.88,3a3,3,0,0,1-2.41.32,18.17,18.17,0,0,0-4.58-.72c-1.94,0-2,1-2,1,.08.81,1.3.49,1.3.49a6.51,6.51,0,0,1,5.51,1.78A6.33,6.33,0,0,0,42.9,92c.81,0,.79.53.79.53.3.94,1,.49,1,.49a4.11,4.11,0,0,1,2.75-1c1.42-.06,5.25,1.52,5.25,1.52,2,.76,2.26-.11,2.26-.11.25-.4,0-.78-.64-1s-1.2-.4-1.19-1.21,1.23-.44,1.9-.46.62-.42.42-.53-1.59.33-1.18-1.31a3.83,3.83,0,0,1,2.38-2.29,8.74,8.74,0,0,0,3.08-3.09,7,7,0,0,0,.6-3.63c1.81.45,1.48,2.81,1.48,2.81a20.35,20.35,0,0,0-.22,4.6c.4,4.13,3.1,4,3.1,4,2-.18,2.45-2.49,2.45-2.49a3.72,3.72,0,0,1-2.4-.73,4.54,4.54,0,0,1-1.54-4.46c.73-3.35,4.27-2.08,4.27-2.08A3.74,3.74,0,0,1,70,85.7c-.71,2.64-2.81,2-2.81,2,3.23,2.58,6.32-1.18,6.32-1.18,1.58-2.35-1.34-5.67-1.34-5.67,3.59.67,7.82-1.21,8.81-1.66a11.91,11.91,0,0,1,5.94-.52A18.69,18.69,0,0,1,91,80.21C88,77.47,82.73,76.86,80.48,76.47ZM25.8,63.24a.74.74,0,1,1,.87-.75A.82.82,0,0,1,25.8,63.24ZM50.54,90.38a11.33,11.33,0,0,1-3.71,0,3.33,3.33,0,0,0-2,.54s-.83.86-1.27-.64c0,0-.52-1.46.89-1.22s.82.6,1.35.46-.06-.55-.06-.6-.71-.73.89-2,2.11-.81,2.59-.67,3.06,1.07,4.61-.66C53.87,85.62,53.43,89.35,50.54,90.38Z"/><path class="aa4188e8-11be-457f-98b7-c264bde3d840" d="M39.71,90.89l-4.29,13.79,3.68.14L40.75,100l.63,4.71,3.28.09L48.41,93a2.75,2.75,0,0,0-3.56.42l-1,3.1-.66-3.8a5.58,5.58,0,0,1-2.27-1.83S40.23,90.44,39.71,90.89Z"/><path class="aa4188e8-11be-457f-98b7-c264bde3d840" d="M49.21,93.1l-3.63,11.53,3.89.15,3.4-10.62S50.88,92.79,49.21,93.1Z"/><path class="aa4188e8-11be-457f-98b7-c264bde3d840" d="M53.67,94.38l-3.19,10.38h3.69l1.59-5,1.26.08-1.59,5h3.64l4.19-13.69-3.43,0-1.76,5.41-1.27,0L58.46,91l-3.08-.07a.65.65,0,0,0-.13,1.21,1.16,1.16,0,0,1,.32,1.42A1.75,1.75,0,0,1,53.67,94.38Z"/><path class="aa4188e8-11be-457f-98b7-c264bde3d840" d="M66,91.11s-.28.8-2,.55l-4.13,13.09,8.18,0,4.24-13.53Zm-.31,10.1-1.16,0,2.18-6.31,1,0Z"/><polygon class="aa4188e8-11be-457f-98b7-c264bde3d840" points="73.01 91.29 68.67 104.82 72.36 104.81 73.72 100.86 74.53 104.97 77.66 105 81.85 91.31 78.72 91.33 76.76 96.84 75.89 91.31 73.01 91.29"/><path class="aa4188e8-11be-457f-98b7-c264bde3d840" d="M6.64,89.83l.75,0-.55,2.7a1.78,1.78,0,0,0,0,.66q.06.38.51.39A.71.71,0,0,0,8,93.24a2,2,0,0,0,.22-.67l.54-2.7h.75l-.54,2.71a3,3,0,0,1-.39,1.09,1.55,1.55,0,0,1-1.39.7,1,1,0,0,1-1.11-.74,2.8,2.8,0,0,1,0-1.1Z"/><path class="aa4188e8-11be-457f-98b7-c264bde3d840" d="M10.22,89.86H11l.8,3.09.61-3.07h.69l-.88,4.42-.74,0-.82-3.15L10,94.28l-.68,0Z"/><path class="aa4188e8-11be-457f-98b7-c264bde3d840" d="M13.58,94.34l-.74,0,.88-4.4h.74Z"/><path class="aa4188e8-11be-457f-98b7-c264bde3d840" d="M17.22,90,18,90,15.9,94.38h-.7l-.32-4.43h.8l.09,3.36Z"/><path class="aa4188e8-11be-457f-98b7-c264bde3d840" d="M20.86,90.82l-1.83,0-.19.93,1.68,0-.16.76-1.67,0-.23,1.15,1.92,0-.16.79-2.64,0L18.46,90,21,90Z"/><path class="aa4188e8-11be-457f-98b7-c264bde3d840" d="M22.93,94.5v-.24a2.58,2.58,0,0,1,0-.38l.08-.4a1,1,0,0,0,0-.57c-.06-.09-.19-.14-.4-.15h-.72l-.35,1.72h-.72l.88-4.41,1.7,0a1.12,1.12,0,0,1,.53.12.71.71,0,0,1,.27.32,1.45,1.45,0,0,1,.11.37,2,2,0,0,1,0,.47,2,2,0,0,1-.25.62,1,1,0,0,1-.51.42.54.54,0,0,1,.28.35,1.55,1.55,0,0,1,0,.69l-.05.3a1.88,1.88,0,0,0-.07.41v.35Zm-.62-3.68L22.07,92h.8a.76.76,0,0,0,.37-.07.65.65,0,0,0,.32-.49c.05-.28,0-.46-.1-.55a.55.55,0,0,0-.33-.08Z"/><path class="aa4188e8-11be-457f-98b7-c264bde3d840" d="M25.21,93.16a.89.89,0,0,0,0,.46.57.57,0,0,0,.58.28,1,1,0,0,0,.45-.06.67.67,0,0,0,.42-.51.36.36,0,0,0-.1-.34,1,1,0,0,0-.45-.21l-.36-.11a1.83,1.83,0,0,1-.71-.36,1.07,1.07,0,0,1-.17-1,1.81,1.81,0,0,1,.55-1A1.59,1.59,0,0,1,26.57,90a1.11,1.11,0,0,1,.89.38,1.26,1.26,0,0,1,.21,1.08H27a.52.52,0,0,0-.17-.57.8.8,0,0,0-.41-.12.82.82,0,0,0-.5.14.58.58,0,0,0-.25.4.33.33,0,0,0,.1.35,1.17,1.17,0,0,0,.43.19l.59.2a1,1,0,0,1,.54.33,1,1,0,0,1,.14.91,1.74,1.74,0,0,1-.58,1,1.67,1.67,0,0,1-1.14.38,1.14,1.14,0,0,1-1.21-1.5Z"/><path class="aa4188e8-11be-457f-98b7-c264bde3d840" d="M28.36,94.59h-.74l.89-4.41h.74Z"/><path class="aa4188e8-11be-457f-98b7-c264bde3d840" d="M32.51,90.23l-.15.79-1.07,0-.72,3.63-.74,0L30.55,91l-1.06,0,.16-.78Z"/><path class="aa4188e8-11be-457f-98b7-c264bde3d840" d="M35,90.28h.85L34.07,93l-.33,1.64H33L33.33,93l-.67-2.78h.87l.35,1.93Z"/></svg>