<?xml version="1.0" encoding="utf-8"?>
<!-- Generator: Adobe Illustrator 22.1.0, SVG Export Plug-In . SVG Version: 6.00 Build 0)  -->
<svg version="1.1" id="ico-kyotosangyo" xmlns="http://www.w3.org/2000/svg" xmlns:xlink="http://www.w3.org/1999/xlink" x="0px"
	 y="0px" viewBox="0 0 120 120" style="enable-background:new 0 0 120 120;" xml:space="preserve">
<style type="text/css">
	.st0{fill:#231815;}
	.st1{fill:#FFFFFF;}
</style>
<path class="st0" d="M91.64,110.16c-0.18,0-0.36-0.06-0.5-0.16l-31.7-22.98l-32.4,22.8c-0.3,0.22-0.72,0.22-1.02-0.02
	c-0.31-0.22-0.42-0.62-0.3-0.98l12.8-36.98L6.83,48.88c-0.31-0.22-0.44-0.62-0.32-0.97c0.13-0.36,0.46-0.6,0.83-0.6h0.01l39.61,0.11
	l12.8-37c0.12-0.35,0.45-0.57,0.84-0.58c0.37,0.01,0.7,0.25,0.81,0.61L73.07,47.5l39.6,0.11c0.38,0,0.71,0.24,0.82,0.6
	c0.11,0.36-0.01,0.75-0.32,0.97L80.79,71.98l11.67,37.05c0.12,0.36-0.01,0.74-0.32,0.97C91.99,110.11,91.82,110.16,91.64,110.16
	L91.64,110.16z"/>
<path class="st1" d="M59.44,85.08c0.18,0,0.35,0.05,0.51,0.17l30.07,21.8L78.95,71.9c-0.12-0.36,0.02-0.75,0.33-0.97l30.67-21.58
	l-37.51-0.11c-0.38,0-0.71-0.25-0.82-0.6L60.53,13.48l-12.14,35.1c-0.12,0.35-0.45,0.59-0.82,0.59h-0.01l-37.55-0.11l30.03,21.77
	c0.31,0.22,0.44,0.62,0.32,0.98l-12.12,35.05l30.7-21.62C59.09,85.14,59.26,85.08,59.44,85.08L59.44,85.08z"/>
<path class="st0" d="M51.71,55.72c-1.03,2.39-2.57,8.02-2.57,8.02l3.47,12.89c0.13,0.51,1.12,1.27,1.55,1.35
	c0.22,0.04,0.3,0.33,0.04,0.33h-6.13c-0.23,0-0.43,0.03-0.43-0.23c0-0.06,1.13-0.23,0.93-1.33c-0.01-0.07-2.86-9.32-2.86-9.32
	l-0.01,8.21c-0.06,2.21,0.75,2.34,1.13,2.47c0.04,0.01,0.02,0.2-0.3,0.2l-5.7-0.03c-0.23,0-0.23-0.18-0.03-0.26
	c0.12-0.05,0.47-0.28,0.6-0.46c0.46-0.61,0.57-1.36,0.57-1.76V55.83c0-0.45-0.08-0.95-0.45-1.18c-0.24-0.15-0.44-0.16-0.49-0.26
	c-0.05-0.1-0.09-0.19-0.04-0.29c0.06-0.12,0.2-0.17,0.45-0.17h5.03c0.33,0,0.47,0.16,0.45,0.28c-0.03,0.13-0.17,0.3-0.45,0.43
	c-0.83,0.38-0.73,2.14-0.73,2.54l-0.01,7.9l2.45-7.64c0.19-0.42,0.26-0.73,0.28-0.94c0.07-0.58,0.18-1.26-0.37-1.78
	c-0.24-0.22-0.43-0.34-0.49-0.48c-0.06-0.13,0.06-0.3,0.36-0.3h5c0.21,0,0.42,0.05,0.43,0.06c0.06,0.09,0.04,0.18-0.02,0.28
	c-0.07,0.1-0.3,0.19-0.62,0.37C52.63,54.7,51.97,55.12,51.71,55.72z"/>
<path class="st0" d="M78.05,57.31l-0.1,16.81c-0.08,2.33-0.29,2.83-1.2,3.76c-0.91,0.93-1.95,1.35-3.59,1.35
	c-1.82-0.01-2.9-0.43-3.86-1.41c-0.96-1-0.84-2.61-0.84-4.46c0,0,0.07-15.32,0.07-15.85c0-0.52,0.22-2.86-1-3.06
	c-0.14-0.03-0.18-0.16-0.12-0.31c0.07-0.16,0.3-0.2,0.64-0.2h5.11c0.21,0,0.29,0.37,0.21,0.4c-0.76,0.27-0.95,1.14-0.95,1.44
	c0,0.3,0,1.6,0,1.6l-0.05,18.48c0,1,0.65,1.51,1.07,1.51c0.38,0,1.19-0.39,1.21-1.51l0.04-18.72c0,0-0.06-1.36-0.06-1.72
	c0-0.37-0.21-0.76-0.65-1c-0.13-0.19-0.15-0.48,0.16-0.48c0.3,0,4.57-0.05,4.66,0c0.08,0.05,0.37,0.19,0.23,0.51
	c-0.51,0.21-0.96,0.81-0.96,1.1C78.05,55.82,78.05,56.97,78.05,57.31z"/>
<path class="st0" d="M60.62,55.87c-0.29-0.44-0.75-0.55-1.07-0.03c-0.32,0.52-0.23,1.73-0.23,3.27c0,1.53-0.38,2.37,1.71,4.34
	c2.08,1.97,4.09,4.11,4.72,6.39c0.64,2.29,0.32,4.42,0.29,5.03C66,75.48,65.41,77.42,64,78.34c-1.42,0.93-3.18,0.99-4.89,0.64
	c-1.71-0.35-3.13-1.85-3.65-3.39c-0.52-1.53-0.26-4.75-0.08-5.85c0,0,4.16-1.62,4.98-1.96l0.14,0.4c-0.81,0.32-0.93,3.24-1.07,4.71
	c-0.14,1.48,0.46,3.82,0.98,4.25c0.52,0.43,0.81-0.14,1-0.81c0.21-0.67,0.27-4.19,0.01-5.64c-0.27-1.45-1.01-2.49-1.68-3.27
	c-0.66-0.78-1.85-1.79-3.56-4.05c-1.7-2.26-1.24-4.34-1.24-5.87s0.47-2.14,1.61-3.04c1.16-0.9,3.31-1.01,5.16-0.78
	c1.85,0.23,2.66,1.58,3.04,2.37c0.38,0.78,0.6,2.98,0.23,4.75l-4.54,1.58C61.8,58.21,60.9,56.3,60.62,55.87z"/>
<path class="st0" d="M49.85,82.68c0.01,0.15,0.04,0.28,0.1,0.38c0.12,0.17,0.32,0.26,0.62,0.26c0.13,0,0.25-0.02,0.35-0.06
	c0.21-0.07,0.32-0.21,0.32-0.4c0-0.14-0.05-0.24-0.13-0.31c-0.09-0.06-0.24-0.11-0.43-0.16l-0.35-0.08
	c-0.23-0.05-0.39-0.11-0.48-0.18c-0.17-0.11-0.25-0.28-0.25-0.5c0-0.24,0.08-0.45,0.24-0.6c0.16-0.15,0.39-0.23,0.69-0.23
	c0.28,0,0.51,0.07,0.69,0.21c0.19,0.14,0.29,0.35,0.29,0.65h-0.34c-0.02-0.14-0.05-0.25-0.12-0.33c-0.1-0.14-0.28-0.21-0.53-0.21
	c-0.21,0-0.36,0.05-0.44,0.13c-0.09,0.09-0.14,0.19-0.14,0.31c0,0.13,0.05,0.23,0.16,0.29c0.07,0.04,0.23,0.09,0.47,0.14l0.36,0.09
	c0.18,0.04,0.32,0.09,0.41,0.17c0.17,0.12,0.24,0.31,0.24,0.55c0,0.29-0.11,0.51-0.31,0.63c-0.21,0.12-0.46,0.19-0.74,0.19
	c-0.33,0-0.58-0.09-0.76-0.25c-0.19-0.17-0.28-0.4-0.27-0.69H49.85z"/>
<rect x="52.17" y="80.88" class="st0" width="0.37" height="2.67"/>
<polygon class="st0" points="53.13,80.88 53.56,80.88 54.9,83.04 54.9,80.88 55.23,80.88 55.23,83.55 54.83,83.55 53.48,81.39 
	53.48,83.55 53.13,83.55 "/>
<path class="st0" d="M57.72,81.07c0.18,0.18,0.28,0.38,0.3,0.61h-0.35c-0.04-0.17-0.12-0.32-0.23-0.41c-0.12-0.1-0.28-0.16-0.5-0.16
	c-0.26,0-0.47,0.09-0.63,0.28c-0.16,0.18-0.23,0.47-0.23,0.85c0,0.32,0.07,0.57,0.21,0.76c0.14,0.2,0.36,0.29,0.64,0.29
	c0.26,0,0.46-0.1,0.61-0.31c0.07-0.11,0.12-0.25,0.16-0.42h0.35c-0.03,0.28-0.14,0.51-0.31,0.71c-0.21,0.22-0.49,0.34-0.85,0.34
	c-0.3,0-0.56-0.09-0.77-0.29c-0.28-0.25-0.42-0.63-0.4-1.15c0-0.39,0.1-0.71,0.3-0.97c0.22-0.27,0.53-0.41,0.92-0.41
	C57.27,80.81,57.53,80.89,57.72,81.07z"/>
<polygon class="st0" points="58.56,80.88 60.49,80.88 60.49,81.2 58.9,81.2 58.9,82.01 60.37,82.01 60.37,82.33 58.9,82.32 
	58.9,83.23 60.52,83.23 60.52,83.55 58.56,83.55 "/>
<rect x="61.13" y="81.63" class="st0" width="0.39" height="0.4"/>
<path class="st0" d="M61.13,83.93c0.09-0.02,0.14-0.07,0.18-0.17c0.01-0.05,0.03-0.11,0.03-0.17c0,0,0-0.02,0-0.02
	c0,0-0.01-0.02-0.01-0.03h-0.19v-0.4h0.39l-0.01,0.36c0,0.13-0.02,0.24-0.06,0.33c-0.06,0.14-0.17,0.23-0.33,0.25V83.93z"/>
<path class="st0" d="M62.11,81.71v-0.25c0.23-0.03,0.4-0.07,0.49-0.13c0.1-0.05,0.16-0.17,0.21-0.38h0.25v2.6h-0.34v-1.84H62.11z"/>
<path class="st0" d="M64.04,82.92c0.01,0.19,0.09,0.31,0.21,0.37c0.07,0.04,0.15,0.05,0.23,0.06c0.16,0,0.29-0.07,0.4-0.19
	c0.11-0.13,0.18-0.4,0.24-0.8c-0.08,0.12-0.17,0.2-0.28,0.24c-0.11,0.05-0.22,0.08-0.35,0.08c-0.25,0-0.45-0.08-0.59-0.23
	c-0.15-0.16-0.22-0.36-0.22-0.61c0-0.23,0.07-0.44,0.22-0.62c0.14-0.18,0.35-0.27,0.63-0.27c0.39,0,0.65,0.17,0.79,0.52
	c0.08,0.18,0.12,0.42,0.12,0.7c0,0.32-0.05,0.59-0.14,0.84c-0.16,0.41-0.43,0.62-0.81,0.62c-0.25,0-0.45-0.07-0.58-0.2
	c-0.13-0.13-0.2-0.3-0.2-0.5H64.04z"/>
<path class="st1" d="M64.89,82.26c0.11-0.09,0.17-0.24,0.17-0.45c-0.01-0.19-0.06-0.32-0.15-0.42c-0.1-0.1-0.22-0.14-0.37-0.14
	c-0.16,0-0.28,0.05-0.38,0.16c-0.1,0.11-0.14,0.25-0.14,0.43c0,0.17,0.04,0.3,0.12,0.4c0.09,0.1,0.22,0.14,0.4,0.14
	C64.67,82.38,64.79,82.34,64.89,82.26z"/>
<path class="st0" d="M67.33,81.16c0.11,0.16,0.17,0.31,0.17,0.47h-0.33c-0.02-0.1-0.05-0.19-0.09-0.24
	c-0.09-0.11-0.2-0.17-0.36-0.17c-0.18,0-0.33,0.08-0.44,0.26c-0.1,0.16-0.17,0.4-0.18,0.72c0.07-0.11,0.17-0.2,0.29-0.25
	c0.1-0.05,0.22-0.08,0.34-0.08c0.22,0,0.41,0.07,0.58,0.21c0.16,0.14,0.24,0.35,0.24,0.63c0,0.23-0.08,0.44-0.23,0.62
	c-0.16,0.19-0.37,0.27-0.66,0.27c-0.24,0-0.45-0.08-0.63-0.27c-0.18-0.19-0.27-0.5-0.27-0.94c0-0.33,0.04-0.61,0.12-0.83
	c0.16-0.43,0.43-0.65,0.83-0.65C67,80.93,67.21,81.01,67.33,81.16z"/>
<path class="st1" d="M67.08,83.16c0.08-0.12,0.12-0.26,0.12-0.41c0-0.14-0.04-0.26-0.11-0.38c-0.08-0.12-0.21-0.17-0.42-0.17
	c-0.14,0-0.27,0.04-0.37,0.13c-0.11,0.09-0.15,0.24-0.15,0.43c0,0.17,0.04,0.3,0.14,0.41c0.1,0.11,0.23,0.17,0.4,0.17
	C66.86,83.33,66.99,83.27,67.08,83.16z"/>
<path class="st0" d="M68.44,82.89c0.02,0.19,0.1,0.31,0.26,0.39c0.08,0.04,0.16,0.05,0.27,0.05c0.19,0,0.34-0.06,0.43-0.19
	c0.09-0.12,0.13-0.25,0.13-0.4c0-0.18-0.05-0.33-0.17-0.43c-0.11-0.1-0.25-0.14-0.39-0.14c-0.12,0-0.22,0.02-0.29,0.06
	c-0.08,0.04-0.14,0.1-0.21,0.18l-0.29-0.02l0.2-1.4h1.36v0.31h-1.11l-0.1,0.72c0.06-0.05,0.11-0.08,0.16-0.1
	c0.1-0.04,0.21-0.06,0.34-0.06c0.24,0,0.44,0.08,0.6,0.23c0.18,0.15,0.25,0.35,0.25,0.58c0,0.25-0.07,0.47-0.23,0.65
	c-0.14,0.19-0.39,0.28-0.73,0.28c-0.2,0-0.39-0.05-0.55-0.18c-0.16-0.12-0.25-0.3-0.28-0.55H68.44z"/>
</svg>
