<svg id="9ec0b130-3e4b-4847-8316-4d99733c81b3" data-name="レイヤー 1" xmlns="http://www.w3.org/2000/svg" width="120" height="120" viewBox="0 0 120 120"><defs><style>.ee396805-c746-487f-a457-03a69ef08875{fill:#382368;}.\35 551a8e4-fa47-438c-ae3d-5677246a4fb8,.\38 fddbebf-6adb-405d-8fa6-2c415dfb9190,.c3bba197-113a-4baa-b2d6-681197bf161e,.d0e9541c-409c-4e47-b5a8-d6c9ecc6cdd1{fill:none;}.\35 551a8e4-fa47-438c-ae3d-5677246a4fb8,.c3bba197-113a-4baa-b2d6-681197bf161e,.d0e9541c-409c-4e47-b5a8-d6c9ecc6cdd1{stroke:#382368;}.c3bba197-113a-4baa-b2d6-681197bf161e{stroke-linejoin:round;stroke-width:2.15px;}.\35 551a8e4-fa47-438c-ae3d-5677246a4fb8,.\38 fddbebf-6adb-405d-8fa6-2c415dfb9190,.d0e9541c-409c-4e47-b5a8-d6c9ecc6cdd1{stroke-miterlimit:9;}.\38 fddbebf-6adb-405d-8fa6-2c415dfb9190,.d0e9541c-409c-4e47-b5a8-d6c9ecc6cdd1{stroke-width:1.06px;}.\39 f413805-484b-4081-baa9-9bf2bf35bc9d{fill:#fff;}.\38 fddbebf-6adb-405d-8fa6-2c415dfb9190{stroke:#fff;}.\35 551a8e4-fa47-438c-ae3d-5677246a4fb8{stroke-width:0.92px;}</style></defs><title>ico-momoyama</title><path class="ee396805-c746-487f-a457-03a69ef08875" d="M59.91,94c-.17-1.53-3.39-4.41-5.76-4.75s-26.79-2.37-28-21.7c-.42-6.77-.85-51.71-.85-51.71C48.72,21.06,59.91,7.5,59.91,7.5S71.1,21.06,94.5,15.81c0,0-.44,44.94-.85,51.71-1.19,19.33-25.6,21.36-28,21.7S60.08,92.43,59.91,94"/><path class="c3bba197-113a-4baa-b2d6-681197bf161e" d="M59.91,94c-.17-1.53-3.39-4.41-5.76-4.75s-26.79-2.37-28-21.7c-.42-6.77-.85-51.71-.85-51.71C48.72,21.06,59.91,7.5,59.91,7.5S71.1,21.06,94.5,15.81c0,0-.44,44.94-.85,51.71-1.19,19.33-25.6,21.36-28,21.7S60.08,92.43,59.91,94Z"/><path class="ee396805-c746-487f-a457-03a69ef08875" d="M101.75,77.27l-1.3-8.42a42.12,42.12,0,0,1-81.33-1.06l-1.46,9.48L10.54,71.8a51.46,51.46,0,0,0,98.91-.45Z"/><path class="d0e9541c-409c-4e47-b5a8-d6c9ecc6cdd1" d="M101.75,77.27l-1.3-8.42a42.12,42.12,0,0,1-81.33-1.06l-1.46,9.48L10.54,71.8a51.46,51.46,0,0,0,98.91-.45Z"/><path class="9f413805-484b-4081-baa9-9bf2bf35bc9d" d="M83.15,17,60,40,36.88,17a46.87,46.87,0,0,1-11.55-1.18s0,2.77.07,7.06L51.32,48.61l-24.19,24a19.64,19.64,0,0,0,7.43,9.88L60,57.25,85.38,82.43a19.54,19.54,0,0,0,7.37-9.95l-24-23.88L94.43,23.08c0-4.4.07-7.27.07-7.27A47.1,47.1,0,0,1,83.15,17"/><path class="8fddbebf-6adb-405d-8fa6-2c415dfb9190" d="M83.15,17,60,40,36.88,17a46.87,46.87,0,0,1-11.55-1.18s0,2.77.07,7.06L51.32,48.61l-24.19,24a19.64,19.64,0,0,0,7.43,9.88L60,57.25,85.38,82.43a19.54,19.54,0,0,0,7.37-9.95l-24-23.88L94.43,23.08c0-4.4.07-7.27.07-7.27A47.1,47.1,0,0,1,83.15,17Z"/><path class="9f413805-484b-4081-baa9-9bf2bf35bc9d" d="M91.61,85.1a42.09,42.09,0,0,1-63.35,0l-9.8,8.58a55.13,55.13,0,0,0,83,0Z"/><path class="5551a8e4-fa47-438c-ae3d-5677246a4fb8" d="M91.61,85.1a42.09,42.09,0,0,1-63.35,0l-9.8,8.58a55.13,55.13,0,0,0,83,0Z"/><path class="ee396805-c746-487f-a457-03a69ef08875" d="M24.85,96.44a.17.17,0,0,1-.05-.12s0-.14.19-.35c.34-.44.86-1,1.17-1.47,0-.07.08,0,.12.07l.17.09s.06.08,0,.17-.39.46-.43.77a2.51,2.51,0,0,0,.89,1.82,1.22,1.22,0,0,0,1.7-.05,1.12,1.12,0,0,0,.21-1,5.18,5.18,0,0,0-.42-1.06,4.35,4.35,0,0,1-.62-1.83,1.87,1.87,0,0,1,.45-1.11,2.07,2.07,0,0,1,1.83-.59,2.54,2.54,0,0,1,1.34.65,4.4,4.4,0,0,1,.51.66c.07.08.35.39.5.32a1.89,1.89,0,0,1,.22.2,11.25,11.25,0,0,0-1.23,1.65c0,.08-.08.09-.11.1a1.26,1.26,0,0,1-.27,0,.07.07,0,0,1,0-.11,1.91,1.91,0,0,0,.37-1.44,1.58,1.58,0,0,0-.59-.92.92.92,0,0,0-1.35,0,1.07,1.07,0,0,0-.27.76,2.6,2.6,0,0,0,.36,1.18c.33.65.68,1,.71,1.47a1.76,1.76,0,0,1-.44,1.39,2.24,2.24,0,0,1-1.87.84,4,4,0,0,1-1.53-.72A4.6,4.6,0,0,1,25.6,97a2.18,2.18,0,0,0-.31-.37c-.06,0-.17-.13-.25-.12a.26.26,0,0,1-.18-.06Z"/><path class="ee396805-c746-487f-a457-03a69ef08875" d="M33.84,97.49c.36.24.15.13.33.24.47.26.59.41,1.07,0,.05,0,.25.08.33.16a11.82,11.82,0,0,0-.74,1c-.22.34-.33.54-.5.85a.66.66,0,0,1-.2-.1.12.12,0,0,1-.08-.13c0-.09.11-.33.13-.45s0-.44-.25-.65.05,0-.31-.28a3,3,0,0,0-.43-.27.13.13,0,0,0-.14,0,12.38,12.38,0,0,0-1.22,1.51c-.39.59-.34.6-.35.74s.38.56.81.85c.82.56,1.23.91,2.18.12a.68.68,0,0,1,.23.15s0,0,0,.08a5.5,5.5,0,0,1-1.2,1.2c-.06,0-.09,0-.13,0l-.38-.27c-.27-.2-.69-.5-1.46-1s-1.51-1-2.13-1.36c0,0,.1-.21.15-.26s0,0,.07,0c.45.18.54.18.66,0s.56-.7,1.13-1.55l1.28-1.89a8.28,8.28,0,0,0,.77-1.27c0-.08.07-.15,0-.22s-.17-.2-.38-.44c0,0,0,0,0-.05l.15-.18s0-.06.08,0l.27.19c.25.17.59.44,1.17.83l.69.47c.63.42,1.17.71,1.65,1,.11.07.15.12.16.18s0,.12-.11.26a7.81,7.81,0,0,0-.89,1.27C36,98,36,98,36,97.9c.28-.83.34-1.32-.14-1.65l-.4-.27c-.48-.32-.72-.46-.82-.51s-.27.07-.36.2c-.43.64-.47.69-.87,1.3-.07.11-.08.2,0,.23Z"/><path class="ee396805-c746-487f-a457-03a69ef08875" d="M88.76,95.34c.38-.26.19-.1.37-.24.45-.36.65-.42.4-1,0-.06.17-.21.29-.26.16.25.48.73.72,1s.44.5.7.77a.67.67,0,0,1-.18.16.14.14,0,0,1-.16,0l-.43-.29a.62.62,0,0,0-.78,0c-.22.13,0-.06-.41.2a3.47,3.47,0,0,0-.44.33.13.13,0,0,0,0,.14A11.34,11.34,0,0,0,90,97.89c.47.58.49.52.64.59s.72-.18,1.18-.49c.88-.6,1.41-.87.92-2.05a.91.91,0,0,1,.24-.16s0,0,.08,0a5.44,5.44,0,0,1,.81,1.55c0,.07,0,.1,0,.13l-.42.27c-.31.2-.77.5-1.59,1.06s-1.56,1.13-2.2,1.59c0,0-.19-.17-.22-.24s0-.07,0-.08c.34-.38.38-.46.26-.62s-.53-.76-1.2-1.6L86.92,96a8.5,8.5,0,0,0-1-1.16.19.19,0,0,0-.23-.08l-.59.22s0,0-.05,0l-.13-.21s0-.05,0-.08l.28-.2c.27-.18.68-.42,1.3-.84l.74-.51c.68-.46,1.17-.88,1.68-1.23.11-.08.17-.11.25-.1s.13,0,.23.2a7.76,7.76,0,0,0,1,1.27c-.26.19-.3.18-.37.13-.77-.55-1.27-.76-1.78-.42l-.44.3c-.51.35-.75.53-.84.61s0,.27.09.41c.51.63.54.68,1,1.27.09.11.18.14.23.11Z"/><path class="ee396805-c746-487f-a457-03a69ef08875" d="M42.22,107.6c.23.11.74.28.72.38s-.35.17-.71,0a13.63,13.63,0,0,1-5-2.86,10.07,10.07,0,0,1-.83-1,2.22,2.22,0,0,0-.31-.31,2.43,2.43,0,0,1-.68-1.76,4.94,4.94,0,0,1,.89-2.83,3.49,3.49,0,0,1,2.39-1.62,2.82,2.82,0,0,1,2,.55h0a3.31,3.31,0,0,1,1.12,2.28A4.25,4.25,0,0,1,41,103a3.47,3.47,0,0,1-2.3,1.59c-.76.08-.74.1-.69.15a12.57,12.57,0,0,0,4.17,2.86m-1.94-8.91a1.12,1.12,0,0,0-.93-.22,3,3,0,0,0-2.12,1.47,4.24,4.24,0,0,0-.56,2,1.84,1.84,0,0,0,.58,1.67,1.37,1.37,0,0,0,1.3.22c.61-.21.94-.6,1.54-1.48a4.14,4.14,0,0,0,.71-2.12c.08-.8,0-1.13-.51-1.55Z"/><path class="ee396805-c746-487f-a457-03a69ef08875" d="M48.57,101.61a1.91,1.91,0,0,1-.33,0c-.09,0-.15,0-.25.18a25.71,25.71,0,0,0-1.12,2.57,5.23,5.23,0,0,1-1.27,2.22,2.38,2.38,0,0,1-2.42.5,2.73,2.73,0,0,1-1.63-1.44,2.82,2.82,0,0,1,.08-2.19c.21-.59.42-1.14.76-2,.52-1.3.56-1.43.54-1.58s-.15-.23-.44-.42l.09-.2c0-.1.09-.1.21-.05s.77.33,1,.39c.44.15.87.28,1.32.45,0,0,.06,0,.06.05a.91.91,0,0,1-.15.3c-.51-.08-.77-.16-.94.12a7.56,7.56,0,0,0-.42.91c-.22.56-.62,1.55-.89,2.29a2.14,2.14,0,0,0,0,1.87,1.49,1.49,0,0,0,1,.72,1.26,1.26,0,0,0,1.42-.31,5.55,5.55,0,0,0,1.16-2.08c.39-1,.71-1.86.86-2.32.08-.23,0-.39-.6-.66,0,0,0-.08,0-.16l.2-.13s.09,0,.16,0l.83.3,1,.36s0,0,0,.11Z"/><path class="ee396805-c746-487f-a457-03a69ef08875" d="M51.9,102.43c-.83-.06-.91,0-1,.19a11.84,11.84,0,0,0-.41,1.67l-.36,1.77a18.39,18.39,0,0,0-.3,1.85c0,.2,0,.28.15.33s.3.12.46.19.07,0,.06.06a1.45,1.45,0,0,1-.12.31l-1.47-.33c-.64-.13-1.12-.19-1.15-.19a.12.12,0,0,1-.1-.11,2,2,0,0,1,0-.29c.58.08.78.06.91-.21a9.29,9.29,0,0,0,.47-1.81l.44-2.18c.28-1.39.31-1.53,0-1.66a2.82,2.82,0,0,0-.43-.13c-.06,0-.07,0-.06-.09a.44.44,0,0,1,.09-.18c.05-.07.06-.09.09-.08l.29,0c.13,0,.39.1,1.11.24.47.1,1.06.2,1.17.21s.12,0,.13.07Z"/><path class="ee396805-c746-487f-a457-03a69ef08875" d="M53.35,109.31c-.65-.12-1.26-.19-1.89-.25-.06,0-.08,0-.09-.07a.73.73,0,0,1,0-.32c.4,0,.61-.09.72-.55.17-.72.3-1.68.47-2.79l.35-2.37c.06-.39-.11-.49-.76-.64a1.67,1.67,0,0,1,.12-.28.11.11,0,0,1,.12,0l1,.14,1,.05a1.86,1.86,0,0,0,.07.56c.32,1.12.8,3.33,1.32,4.64,0,.07.07.08.12,0,.82-1.3,1.31-3.07,1.94-4.22a2.11,2.11,0,0,0,.16-.51c.76.08,1.9-.05,2.2,0a2.32,2.32,0,0,1,0,.4c-.58,0-.53.27-.58.59a12.64,12.64,0,0,0-.15,2.47,20.79,20.79,0,0,0,.2,2.54c.09.74.12.63.72.82a.7.7,0,0,1,0,.29c0,.06,0,.08-.07.08-.31,0-.67-.12-1-.15s-1.56-.07-2-.06l0-.25c0-.09,0-.13.08-.13.42-.07.7,0,.8-.4s-.12-1.59-.14-4.59c0-.12-.06-.07-.09,0s-.9,2.3-1.48,3.32a4.13,4.13,0,0,0-.6,1.6.91.91,0,0,1-.71.32s-.08,0-.11-.14-.21-.65-.39-1.22c-.66-2.23-1.17-3.78-1.44-4.68-.13,1-.31,2.48-.43,3.66a12.48,12.48,0,0,0-.12,1.42c0,.2.14.29.48.4.12,0,.15.06.16.12Z"/><path class="ee396805-c746-487f-a457-03a69ef08875" d="M81.67,104.5c-.61.24-1.16.49-1.74.77-.06,0-.08,0-.11,0s-.17-.23-.15-.29c.34-.22.48-.39.34-.84-.23-.7-.62-1.6-1.05-2.63L78,99.3c-.15-.36-.35-.36-1-.15a1.36,1.36,0,0,1,0-.3.11.11,0,0,1,.07-.1l1-.42c.21-.09.73-.39.85-.45a1.8,1.8,0,0,0,.35.44c.85.79,2.41,2.44,3.53,3.28.06.05.1,0,.1-.06,0-1.54-.48-3.31-.52-4.61a2.52,2.52,0,0,0-.13-.52c.7-.33,1.6-1,1.87-1.15a1.59,1.59,0,0,1,.19.36c-.49.29-.32.5-.19.79a12,12,0,0,0,1.15,2.19,19.66,19.66,0,0,0,1.48,2.06c.45.59.42.48,1,.33,0,0,.12.15.16.24s0,.09,0,.1c-.29.13-.64.24-.92.38s-1.38.75-1.75,1l-.1-.23c0-.08,0-.13,0-.15.32-.28.58-.39.47-.76s-.93-1.3-2.5-3.86c-.06-.09-.09,0-.09,0,0,.24.43,2.44.46,3.61a4.54,4.54,0,0,0,.31,1.67.86.86,0,0,1-.44.64s-.09,0-.17-.05l-1-.84c-1.73-1.56-3-2.63-3.66-3.25.4.9,1,2.28,1.54,3.35.34.71.53,1.1.64,1.27s.28.17.61.09c.12,0,.17,0,.2,0Z"/><path class="ee396805-c746-487f-a457-03a69ef08875" d="M63.82,102.8c-.82.2-.88.28-.89.49a11,11,0,0,0,.13,1.71l.2,1.79c.09.76.2,1.48.29,1.86,0,.2.11.27.24.27s.32,0,.5,0,.08,0,.08,0a2,2,0,0,1,0,.33l-1.5.14c-.64.07-1.12.18-1.15.18a.12.12,0,0,1-.12-.07,1.6,1.6,0,0,1-.07-.28c.57-.11.77-.19.8-.49a9,9,0,0,0-.13-1.86l-.25-2.22c-.16-1.41-.19-1.55-.52-1.58a3.62,3.62,0,0,0-.45,0c-.06,0-.08,0-.08-.06a.39.39,0,0,1,0-.19c0-.08,0-.1.07-.11l.28,0c.13,0,.4,0,1.13-.12l1.17-.16c.13,0,.13,0,.15,0Z"/><path class="ee396805-c746-487f-a457-03a69ef08875" d="M64.45,102.43c.39,0,.55,0,1.33-.17a.19.19,0,0,1,.16,0,.24.24,0,0,1,.09.15,3.3,3.3,0,0,0,.6.77c.5.51,1.64,1.64,3.43,3.23,0-.37-.06-.89-.14-1.67-.11-1.07-.19-1.71-.26-2.13,0-.2-.09-.45-.25-.49s-.4,0-.49,0a.09.09,0,0,1-.06-.09l0-.28.94-.16c.31,0,.7-.15.91-.2,0,0,.09,0,.11,0l.07.26a2,2,0,0,0-.48.3c-.16.17-.2.51-.12,1.84a22,22,0,0,0,.38,2.73,5.61,5.61,0,0,0,.34,1.17,4.2,4.2,0,0,1-.81,1.08s-.08,0-.13-.05a14.59,14.59,0,0,0-2-2.72c-1-1-1.66-1.62-2.22-2.15,0,.44.08,1.11.13,1.7a25.06,25.06,0,0,0,.35,2.69c.09.26.48.29.71.31l.09.28s0,.09-.06.09c-.31.05-.72.07-1.06.13s-.56.11-.68.14-.08-.22-.12-.33c.51-.23.53-.33.54-.69s0-1.21-.14-2.35l-.12-1.16c-.13-1.31-.19-1.5-.3-1.65a.74.74,0,0,0-.61-.26c-.06,0-.09,0-.09-.1Z"/><path class="ee396805-c746-487f-a457-03a69ef08875" d="M74,100.9c-.78.3-.83.39-.82.6a11.16,11.16,0,0,0,.36,1.68l.44,1.75c.19.75.39,1.44.53,1.8.07.19.14.25.28.24l.49,0s.08,0,.09,0a1.65,1.65,0,0,1,0,.34c-.7.15-1.1.24-1.48.34-.63.15-1.09.31-1.11.32a.12.12,0,0,1-.13-.05,1.38,1.38,0,0,1-.11-.27c.55-.18.73-.28.73-.59a9.22,9.22,0,0,0-.36-1.83l-.54-2.16c-.35-1.38-.39-1.51-.73-1.49a2.26,2.26,0,0,0-.45.07c-.05,0-.08,0-.09-.05a.55.55,0,0,1,0-.2c0-.08,0-.1.05-.11l.28-.08c.13,0,.4-.08,1.1-.27l1.15-.31c.12,0,.13,0,.15,0Z"/></svg>