<svg id="50888f97-9f7b-4480-8d8d-778281770937" data-name="レイヤー 1" xmlns="http://www.w3.org/2000/svg" width="120" height="120" viewBox="0 0 120 120"><defs><style>.c49c68b0-dfce-4767-8a73-cdd7ab59a44c{fill:#fff;}.af9c7854-63d0-4b8d-9e1c-5fb19052d536{fill:#a42047;}</style></defs><title>ico-ritsumei</title><path class="c49c68b0-dfce-4767-8a73-cdd7ab59a44c" d="M32.65,80.39a7,7,0,0,0-2.86,3.54c-.74,1.66-3.2,7-2.34,8.85a35.86,35.86,0,0,1,1.88,5.36c.11.57,4.4,7.48,8.11,7.59a18.81,18.81,0,0,1,6.11,1.09,16,16,0,0,0,6.11-.92c1.37-.74,4.56-2.57,7.71-1.89a13.83,13.83,0,0,0,5.93.17,9.6,9.6,0,0,1,5.54.92c2.46,1.14,3.08,1.89,7.08,1.49s4.57.17,7-1.31,4.28-4.73,4.85-5.19A6.62,6.62,0,0,0,90,96a28.19,28.19,0,0,1,1.88-5.53c.4-.92.46-2.4-.4-4.56s-1.83-3.26-1.94-4.57-1-2.5-3.88-3.93S81,74.91,80.13,73.71,78,72.05,76,70.81a6.26,6.26,0,0,1-2.85-4.69c-.12-1.26-2.17-6.1-5.25-6.85s-3.37-.8-4.17-1.6a2.05,2.05,0,0,0-2.57-.51,25.32,25.32,0,0,1-4.4.92A5,5,0,0,0,54,59.44c-.91.91-2.06.57-3.25,1.2s-2.11.57-3,3S45,65.15,44.69,69.26s-1.25,4.39-3,5.08-3.48,1.09-4.51,2.92S34.13,79.42,32.65,80.39Z"/><path class="c49c68b0-dfce-4767-8a73-cdd7ab59a44c" d="M34.76,73.14c1-1.48,2.34-3.48,2-5a4.73,4.73,0,0,1,.68-3.55c.4-.46.06-3.14-.45-4.16a10.9,10.9,0,0,1-.8-3.43c-.06-.74-3-5.53-3.48-7.19s-2.63-3.37-3.48-4.79a17,17,0,0,1-1.71-3.37c-.34-1-2.91-2.69-4.8-1s-3.94,1.59-5.77,4.23-2.23,3.31-2.23,6.33S13,54.53,12.89,57.79s-.85,7.59,0,9.36,2.17,5.76,2.86,6.85,1,2.06,3.25,1.66,1.88.4,4.11.86,5.71,1.31,6.91.06,2-1,2.74-1.43A4.9,4.9,0,0,0,34.76,73.14Z"/><path class="c49c68b0-dfce-4767-8a73-cdd7ab59a44c" d="M53.48,51.57c-.51,1.65-1.77,3.88-4.28,2.34a3.3,3.3,0,0,0-3.42,0,4.81,4.81,0,0,1-5.14-1.08A6.16,6.16,0,0,0,37,51c-1.14-.29-2.17-1.71-3-3.54s-2.28-5.82-2.62-6.56-.4-1.09,0-3.2a6.91,6.91,0,0,0-.4-4.34c-.4-.91-.17-2.57.23-4.28s.51-3.37,1.43-4.28.8-1.77.91-3.31,1.09-2.12,2.11-3,2.34-3.6,5.82-2.52,6.28,2,7.36,2.29,2.51,1.82,3.88,2.45a4.26,4.26,0,0,1,3,4C56,27.36,56.5,30.33,57,31a3.76,3.76,0,0,1,.51,2.57c-.11,1,.86,5.13.06,7a15,15,0,0,0-1.26,4.28,10.9,10.9,0,0,1-1.6,4.28A4.41,4.41,0,0,0,53.48,51.57Z"/><path class="c49c68b0-dfce-4767-8a73-cdd7ab59a44c" d="M64,52.48a4.88,4.88,0,0,1-2.17-2.8A15.7,15.7,0,0,1,60.56,46c-.46-2.4-.4-3.37-.11-4.39a3.11,3.11,0,0,0-.17-2.29,6.37,6.37,0,0,1,.4-3.08c.23-.86,2-7.54,2.45-8.51a4.5,4.5,0,0,0,.17-2.4c0-.63-.06-1.43,1.77-2.91s.23-2.4,1.66-3.6,4.91-3.77,6.56-3.71,3.25-1,4.17-1.54,3-1.14,4.74,1.32,4.16,5,4.79,6.73a8.63,8.63,0,0,1,.17,6c-.8,1.94-.06,5.2.17,6.11a5.34,5.34,0,0,1-.57,3.77,13.59,13.59,0,0,0-1.09,5.53c.06,1.32.63,5-4.11,8.22-1.26.57-3.88,3.2-4.62,4.05a2.87,2.87,0,0,1-3.08.91c-1.48-.29-3.26-.4-4.17-.57a3.64,3.64,0,0,1-2.17-1.26c-.51-.63-2.74-1.48-3.31-1.82"/><path class="c49c68b0-dfce-4767-8a73-cdd7ab59a44c" d="M105.08,44.77c0-1.71-.63-2.57-2.06-3.65a6.5,6.5,0,0,0-7.08-.74c-3.31,1.49-6.56,3.31-6.51,5.14a4.5,4.5,0,0,1-2.11,3.54c-.69.51-2.23,4-3,5.42a5.92,5.92,0,0,0-.57,3,3.75,3.75,0,0,1-1.49,2.86c-1.14.8-1.94,6.33.69,8.45s2.62,2.51,2.74,3.25,1,1.31,2.57,2a11,11,0,0,1,3,2.23c.63.51,2.11,1.2,4.17-.29s3.77-1,5.71-3.43,3.94-5.08,4.45-7.76,1.94-2.85,1.83-6,.4-7.71-.29-8.68A10.54,10.54,0,0,1,105.08,44.77Z"/><path class="af9c7854-63d0-4b8d-9e1c-5fb19052d536" d="M32.65,80.39a7,7,0,0,0-2.86,3.54c-.74,1.66-3.2,7-2.34,8.85a35.86,35.86,0,0,1,1.88,5.36c.11.57,4.4,7.48,8.11,7.59a18.81,18.81,0,0,1,6.11,1.09,16,16,0,0,0,6.11-.92c1.37-.74,4.56-2.57,7.71-1.89a13.83,13.83,0,0,0,5.93.17,9.6,9.6,0,0,1,5.54.92c2.46,1.14,3.08,1.89,7.08,1.49s4.57.17,7-1.31,4.28-4.73,4.85-5.19A6.62,6.62,0,0,0,90,96a28.19,28.19,0,0,1,1.88-5.53c.4-.92.46-2.4-.4-4.56s-1.83-3.26-1.94-4.57-1-2.5-3.88-3.93S81,74.91,80.13,73.71,78,72.05,76,70.81a6.26,6.26,0,0,1-2.85-4.69c-.12-1.26-2.17-6.1-5.25-6.85s-3.37-.8-4.17-1.6a2.05,2.05,0,0,0-2.57-.51,25.32,25.32,0,0,1-4.4.92A5,5,0,0,0,54,59.44c-.91.91-2.06.57-3.25,1.2s-2.11.57-3,3S45,65.15,44.69,69.26s-1.25,4.39-3,5.08-3.48,1.09-4.51,2.92S34.13,79.42,32.65,80.39Z"/><path class="af9c7854-63d0-4b8d-9e1c-5fb19052d536" d="M34.76,73.14c1-1.48,2.34-3.48,2-5a4.73,4.73,0,0,1,.68-3.55c.4-.46.06-3.14-.45-4.16a10.9,10.9,0,0,1-.8-3.43c-.06-.74-3-5.53-3.48-7.19s-2.63-3.37-3.48-4.79a17,17,0,0,1-1.71-3.37c-.34-1-2.91-2.69-4.8-1s-3.94,1.59-5.77,4.23-2.23,3.31-2.23,6.33S13,54.53,12.89,57.79s-.85,7.59,0,9.36,2.17,5.76,2.86,6.85,1,2.06,3.25,1.66,1.88.4,4.11.86,5.71,1.31,6.91.06,2-1,2.74-1.43A4.9,4.9,0,0,0,34.76,73.14Z"/><path class="af9c7854-63d0-4b8d-9e1c-5fb19052d536" d="M53.48,51.57c-.51,1.65-1.77,3.88-4.28,2.34a3.3,3.3,0,0,0-3.42,0,4.81,4.81,0,0,1-5.14-1.08A6.16,6.16,0,0,0,37,51c-1.14-.29-2.17-1.71-3-3.54s-2.28-5.82-2.62-6.56-.4-1.09,0-3.2a6.91,6.91,0,0,0-.4-4.34c-.4-.91-.17-2.57.23-4.28s.51-3.37,1.43-4.28.8-1.77.91-3.31,1.09-2.12,2.11-3,2.34-3.6,5.82-2.52,6.28,2,7.36,2.29,2.51,1.82,3.88,2.45a4.26,4.26,0,0,1,3,4C56,27.36,56.5,30.33,57,31a3.76,3.76,0,0,1,.51,2.57c-.11,1,.86,5.13.06,7a15,15,0,0,0-1.26,4.28,10.9,10.9,0,0,1-1.6,4.28A4.41,4.41,0,0,0,53.48,51.57Z"/><path class="af9c7854-63d0-4b8d-9e1c-5fb19052d536" d="M64,52.48a4.88,4.88,0,0,1-2.17-2.8A15.7,15.7,0,0,1,60.56,46c-.46-2.4-.4-3.37-.11-4.39a3.11,3.11,0,0,0-.17-2.29,6.37,6.37,0,0,1,.4-3.08c.23-.86,2-7.54,2.45-8.51a4.5,4.5,0,0,0,.17-2.4c0-.63-.06-1.43,1.77-2.91s.23-2.4,1.66-3.6,4.91-3.77,6.56-3.71,3.25-1,4.17-1.54,3-1.14,4.74,1.32,4.16,5,4.79,6.73a8.63,8.63,0,0,1,.17,6c-.8,1.94-.06,5.2.17,6.11a5.34,5.34,0,0,1-.57,3.77,13.59,13.59,0,0,0-1.09,5.53c.06,1.32.63,5-4.11,8.22-1.26.57-3.88,3.2-4.62,4.05a2.87,2.87,0,0,1-3.08.91c-1.48-.29-3.26-.4-4.17-.57a3.64,3.64,0,0,1-2.17-1.26c-.51-.63-2.74-1.48-3.31-1.82"/><path class="af9c7854-63d0-4b8d-9e1c-5fb19052d536" d="M105.08,44.77c0-1.71-.63-2.57-2.06-3.65a6.5,6.5,0,0,0-7.08-.74c-3.31,1.49-6.56,3.31-6.51,5.14a4.5,4.5,0,0,1-2.11,3.54c-.69.51-2.23,4-3,5.42a5.92,5.92,0,0,0-.57,3,3.75,3.75,0,0,1-1.49,2.86c-1.14.8-1.94,6.33.69,8.45s2.62,2.51,2.74,3.25,1,1.31,2.57,2a11,11,0,0,1,3,2.23c.63.51,2.11,1.2,4.17-.29s3.77-1,5.71-3.43,3.94-5.08,4.45-7.76,1.94-2.85,1.83-6,.4-7.71-.29-8.68A10.54,10.54,0,0,1,105.08,44.77Z"/></svg>