<svg id="e2728576-bf94-4d5b-a87f-f068aff1199c" data-name="レイヤー 1" xmlns="http://www.w3.org/2000/svg" width="120" height="120" viewBox="0 0 120 120"><defs><style>.\30 48f8159-b684-45a1-9e26-1616db1e4d40{fill:#015aa6;}.\39 0a8a572-1717-42f1-b9ae-3f5fe75ff6a3{fill:#fff;}</style></defs><title>ico-kansai</title><path class="048f8159-b684-45a1-9e26-1616db1e4d40" d="M73.06,13.12c.91-.09,1.71.13,2.53.11.34.16.8,0,1.18.11.21.17.55,0,.77.16.53-.07.9.19,1.44.15s.86.15,1.29.21c.23.09.53.06.73.18.56,0,1.07.22,1.62.22a0,0,0,0,1,0,0c.07.07.19,0,.27.06,0,.38-.34.63-.34,1-.49,1-.86,2-1.38,3.08-.19.49-.39,1-.56,1.44-.1.15-.19.35-.29.52-.17.64-.53,1.18-.73,1.83a7.79,7.79,0,0,1-.39.73c-.25.63-.48,1.24-.76,1.88h0l-.18.54-.06,0a2.18,2.18,0,0,0-.25.69c-.14.06-.05.23-.19.27-.5,1.14-1,2.26-1.45,3.42-.36.75-.71,1.53-1,2.28-.16.39-.46.91-.12,1.32a2.14,2.14,0,0,0,.36.34,1.27,1.27,0,0,0,1-.11c.27-.33.29-.74.57-1.06.18-.76.68-1.37.89-2.11.07-.21.21-.37.27-.54.36-.8.63-1.6,1-2.41.59-1.38,1.24-2.72,1.83-4.12,0-.15.17-.23.13-.4.15,0,0-.2.16-.21.06-.24.19-.47.26-.71s.15-.44.31-.6c.24-.75.59-1.42.87-2.15l.06,0a4.25,4.25,0,0,0,.23-.73c.36-.65.61-1.33.92-2s.51-1.15.74-1.75c.29,0,.66.14,1,.18.67.27,1.34.33,2,.54.1.18.46,0,.6.2.21,0,.37.12.59.1s.66.24,1,.38c.27,0,.43.2.69.17.08.1.27,0,.32.14.24,0,.41.16.65.15.53.21,1.11.35,1.64.54.12.1.3,0,.42.2.37.14.68.18,1,.31,0,.14.21,0,.25.15.2,0,.34.19.56.16,0,.14.27,0,.31.17.28.06.51.27.83.27a8.67,8.67,0,0,1,.84.39,8.91,8.91,0,0,0,.87.33c1.06.45,2.11,1,3.18,1.45.18,0,.19.17.36.12.09.21.39.12.52.31.15,0,.19.19.35.13.18.14.43.21.61.38.59.26,1.06.62,1.65.87s.94.59,1.39.92h.09a10,10,0,0,1,.76.65c.09.1.22.19.23.35l-.11.09c-.46,0-.91,0-1.35,0s-1.13.08-1.71.07c-.32.18-.72,0-1,.2a6,6,0,0,1-1,.11c-.21.15-.57,0-.73.2-.32,0-.54.15-.85.13-.08.15-.37,0-.44.2-.34,0-.56.16-.89.11a4.86,4.86,0,0,0-.79.33c-.19,0-.31.13-.5.1a10,10,0,0,1-1,.4c-.21,0-.33.14-.52.13-.29.16-.58.29-.84.41-.52.21-1,.47-1.56.65,0,.12-.23.08-.25.19a2.36,2.36,0,0,0-.72.34c-.28.07-.49.32-.73.42a4.83,4.83,0,0,0-.54.24c-1,.36-1.67,1.12-2.63,1.56a10.22,10.22,0,0,0-1.14.85c-.16-.08-.08.16-.25.07-.19.29-.56.38-.76.63a6.1,6.1,0,0,0-.85.56c-.1.19-.37.17-.45.4-.29,0-.37.38-.65.44-.53.44-1,.87-1.58,1.33s-1.19,1.12-1.83,1.63v.06a17.35,17.35,0,0,0-1.48,1.41c-.63.64-1.2,1.27-1.81,1.9-1-.23-2.05-.71-3.1-.92-.31.07-.48-.18-.78-.15-.13-.14-.35,0-.48-.16-.51-.16-1-.21-1.54-.35-.35.08-.59-.14-.9-.07-.09.36,0,.83-.11,1.18,0,.3-.13.58.15.75a10.43,10.43,0,0,1,1.68.33c.36.12.71.17,1.07.31.07.14.27,0,.35.16.28-.08.36.21.63.15.12.12.3.08.43.18s.31.15.51.13a8.44,8.44,0,0,1,.87.38c.2,0,.33.16.54.18.44.14.77.4,1.19.58h.11c0,.13.2.07.21.17a4.17,4.17,0,0,1,.83.39c.8.5,1.66.91,2.46,1.45.63.48,1.24,1,1.9,1.41.16.28.48.35.67.58h.06c.18.39.65.48.85.81.83-.07,1.6-.49,2.42-.49a11.5,11.5,0,0,1,1.66.09c.35-.06.58.17,1,.12.53.1,1.06.37,1.58.51.32.16.56.34.87.49.14.1.28.29.46.35a8,8,0,0,1,1.1,1.37c.42.33.38.91.73,1.31a8.42,8.42,0,0,1-.07,4.18c0,.22-.14.33-.11.6-.16.17,0,.37-.21.55-.24,1-.64,2-.89,3-.55,1.5-1.05,3-1.58,4.52,0,.23-.39.2-.56.18l-1.54,0-.07,0c-2.75,0-5.49,0-8.24,0l-.08,0c-1.68,0-3.36,0-5,0L65,63.87a12.93,12.93,0,0,1-2.41-.31c-.48-.2-1-.25-1.46-.45a6,6,0,0,0-.77-.31A16.5,16.5,0,0,1,58,61.23c-.11-.12-.16-.26-.33-.31a6,6,0,0,0-.85-1c-.06-.27-.33-.46-.46-.69a13.22,13.22,0,0,1-.73-1.45c0-.35-.27-.54-.23-.91a6.89,6.89,0,0,1,0-3.35c0-.22.18-.34.15-.56a12.63,12.63,0,0,1,.85-1.71c.21-.13.21-.35.4-.52a10.21,10.21,0,0,1,1.43-1.29c.2.07.15-.21.34-.14.08-.18.33-.15.41-.29.26,0,.39-.3.69-.29a7.47,7.47,0,0,1,1.07-.35,5.23,5.23,0,0,0,.54,0l.06-.07a11.64,11.64,0,0,1,2,0l1.54.42a8.74,8.74,0,0,1,1.19.62c.4.39,1,.59,1.29,1a4.92,4.92,0,0,1,.92,1.23c.22.12.18.43.38.6,0,.32.32.46.29.8,0,.11,0,.24.16.29s.27-.14.46-.07c.08-.15.3,0,.35-.19a8.65,8.65,0,0,0,1.48-.54c.15-.07.37,0,.45-.21a.21.21,0,0,0,.22,0v-.06a4.53,4.53,0,0,0,1.1-.35,2.6,2.6,0,0,0,.4-.2c.51-.27,1.12-.32,1.6-.6.17,0,.29-.18.49-.13.06-.21.32,0,.36-.23.2.06.34-.14.56-.09.06-.19.28,0,.35-.22.57-.06,1-.43,1.54-.52.1-.16.34-.07.45-.23.17.09.17-.17.33-.08.16-.09.41-.07.52-.23.26,0,.45-.21.69-.21a5.21,5.21,0,0,1,.69-.32c.19,0,.26-.18.47-.1.17-.22-.13-.28-.2-.42-.77-.48-1.46-1.06-2.27-1.5-.58-.28-1.11-.63-1.7-.94-.24,0-.37-.21-.6-.23-.3-.28-.68-.19-.94-.49-.86-.21-1.64-.69-2.5-.83-.14-.2-.44,0-.56-.23-.92-.25-1.93-.38-2.84-.62a15.08,15.08,0,0,0-1.56-.15l-.07-.06c-.74,0-1.41,0-2.15-.09a18.23,18.23,0,0,1-2.59.09c-.22.21-.63,0-.85.18-.45,0-.92.16-1.42.15-.12.15-.39,0-.51.18-.29,0-.5.17-.79.15a11.36,11.36,0,0,1-1.31.34c-.62.15-1.18.52-1.79.62-1,.41-1.9.88-2.89,1.32-.34.23-.7.41-1,.67s-.73.31-1,.52-.8.64-1.19,1c-.17,0-.21.22-.38.23-.56.42-1,1-1.57,1.42h-.07c-.8.77-1.49,1.66-2.27,2.46a21.9,21.9,0,0,0-1.43,2,10.71,10.71,0,0,0-.87,1.45c-.13.12-.13.31-.29.4-.33.81-.72,1.58-1.07,2.39s-.52,1.55-.85,2.29a25.05,25.05,0,0,0-.81,3.93,21.35,21.35,0,0,0-.07,5.41c.15.26,0,.58.2.83,0,.48.22.91.22,1.38.2.87.41,1.72.66,2.6s.5,1.59.69,2.43a5.31,5.31,0,0,1,.27.69c0,.2.19.35.15.58.12.3.28.62.41,1-.05.27.16.32.15.58.24.66.47,1.28.69,1.92.49,1.35,1.18,2.61,1.6,4,.21.33.25.67.44,1,.08.06.06.21.18.27.14.43.38.86.57,1.29.21.17.13.4.32.58,0,.14.16.2.07.35a20.51,20.51,0,0,1-2.21.27l-.08.08c-.64-.09-1.18.22-1.85.17-.35.11-.68-.07-1,.16-.67.08-1.31.06-2,.2s-1.32.23-2,.31c-.49,0-1,.18-1.54.14-.07.13-.27,0-.33.15A9.26,9.26,0,0,0,38,92.32c.36.3.72.6,1.07.92v.06c.52.47,1,1,1.58,1.43,0,.11.09.16.18.23.4.22.64.65,1.05.91.9,0,1.74.26,2.64.22l.13.1c.63-.07,1.13.15,1.68.07.17.09.45,0,.6.11,1.37.11,2.75.25,4.13.35.41.18.92,0,1.29.18.73,0,1.46.18,2.21.09.1-.18-.13-.21-.07-.38-.2-.66-.6-1.27-.76-1.92-.23-.48-.36-1-.61-1.45.06-.2-.16-.28-.13-.46-.18-.27-.24-.59-.39-.83-.32-.84-.55-1.66-.89-2.48a9.57,9.57,0,0,1-.49-1.2c-.07-.32-.24-.59-.33-.88s-.19-.34-.16-.56c-.33-.9-.64-1.76-.92-2.68-.14-.08,0-.34-.19-.42,0-.24-.15-.4-.14-.63s0-.33-.17-.43c-.29-1.17-.83-2.29-1.06-3.46.07-.25-.21-.41-.13-.69-.13-.08-.06-.28-.16-.38,0-.28-.21-.44-.15-.74-.18-.11,0-.38-.2-.51-.13-.93-.4-1.81-.54-2.73L47,74.1c-.1-.31.06-.65-.13-.92a12.33,12.33,0,0,1,0-3.1c0-.37.25-.69.25-1.05.08-.08,0-.25.15-.33,0-.21.16-.31.13-.5a16.16,16.16,0,0,1,1.1-1.94c.46-.53,1-1,1.46-1.48a5.13,5.13,0,0,1,.78-.52c.14-.14.27-.19.41-.32a.45.45,0,0,0,.33-.2c.2,0,.2-.15.38-.13.07-.15.28-.06.36-.19A14.82,14.82,0,0,1,54,63l.13-.09a1.35,1.35,0,0,0,.68-.1,9.24,9.24,0,0,1,2.38.1c.34-.07.54.18.87.13.53.11,1,.36,1.5.5a18.65,18.65,0,0,1,1.66,1v.06a16.29,16.29,0,0,1,1.49,1.29v.06a10.28,10.28,0,0,1,1,1.43,9,9,0,0,1,.92,2.42,3.63,3.63,0,0,0,.11.77l0,1.47,0,4.68a.52.52,0,0,1-.35.27,2.38,2.38,0,0,0-.45.24,10.26,10.26,0,0,0-1.13.79,4.84,4.84,0,0,0-.89,1.1,2.48,2.48,0,0,0-.36.64c-.21.21-.18.57-.39.8a3.38,3.38,0,0,0-.13.65,13.42,13.42,0,0,0-.16,3.09l0,5.19A15,15,0,0,0,61,91a18.86,18.86,0,0,0,.83,2.79c.21.43.44.84.63,1.29.35.56.74,1.14,1.14,1.68l.19.15c.19.42.58.62.81,1,.68.49,1.2,1.14,1.87,1.62A25.57,25.57,0,0,0,68.62,101a1.31,1.31,0,0,1,.76.4c.21.07.34.22.54.21,0,.12.19.13.29.21s.15.15.31.08c.06.21.31.06.4.23a7.13,7.13,0,0,0,.87.35c.21.13.39.11.56.29.21,0,.3.17.48.12a3.57,3.57,0,0,1,.76.31c.27-.08.46.15.74.09.13.19.45,0,.58.21a23,23,0,0,0,2.27.42,2.23,2.23,0,0,1,.75.06c.31.08.19-.28.35-.36a8.71,8.71,0,0,1,.35-1.25c.11-.35.32-.68.4-1s.17-.49.21-.75.07-.46.24-.63a5.6,5.6,0,0,0,.23-1l.08-.07a8.21,8.21,0,0,0,.36-1.37c-.12-.15-.4,0-.52-.19-.48-.07-.93-.17-1.41-.2a5.48,5.48,0,0,0-1-.33c-.23,0-.33-.17-.54-.11-.53-.25-1.09-.42-1.63-.61,0-.19-.26,0-.31-.21-.21,0-.24-.17-.45-.12,0,0,0-.08-.09-.07h-.11c0-.14-.21-.1-.25-.23-.34-.08-.58-.38-.9-.49-.46-.42-.89-.79-1.32-1.18v-.05c-.22-.13-.3-.36-.51-.47-.06-.21-.26-.33-.34-.54-.18,0,0-.24-.2-.2-.15-.35-.37-.63-.51-1s-.32-1-.52-1.48c0-.41-.22-.8-.21-1.19l0-1.75c.19-.33.62-.44.79-.76h.11a15,15,0,0,0,1-1.3c.21-.43.3-.85.52-1.27a.72.72,0,0,1,.11-.44c-.1-.55.31-1,0-1.48a4.21,4.21,0,0,0-.11-1c-.16-.24-.15-.55-.31-.79s-.37-.65-.54-.92a5.11,5.11,0,0,0-1.19-1.37.85.85,0,0,1-.38-.33l.06-6.81c.12-.26,0-.65.18-.87.09-.43.34-.84.46-1.25.35-.4.55-.93.92-1.29.1-.09.28-.1.29-.29.31-.22.55-.49.87-.69s.5-.34.79-.5A5.06,5.06,0,0,1,74,65.29c.18,0,.28-.09.42-.12,1.3-.06,2.58,0,3.87-.07a8.9,8.9,0,0,0,1.48.06c.07-.1.15,0,.22,0l.9,0c.16,0,.42.07.58-.06.72.11,1.44-.06,2.17,0,0,.09.15,0,.22,0l.13,0a0,0,0,0,0,0,0l.12,0s0,0,.06,0a3.94,3.94,0,0,0,.6,0c.32,0,.45,0,.76.06a8.58,8.58,0,0,1,1-.06l0,0c.32-.06.63,0,1,0l0,0c.43,0,.86,0,1.29,0,.08.1.15-.06.22,0a4,4,0,0,1,.58,0v0c.2,0,.43,0,.63,0,0,.17.14-.11.22,0,.12-.1.27.1.41-.06a.13.13,0,0,0,.17,0l0,0c.42,0,.85,0,1.27,0,.19,0,.35,0,.54,0,.42-.09.37.51.56.76.06.5.45.87.5,1.37.08.23.24.47.13.73a.23.23,0,0,0-.23.1q-9.46,0-18.91,0c-.22.14-.46.19-.67.33a5.46,5.46,0,0,0-1.32,1.17c0,.19-.23.27-.25.46-.5.66-.23,1.72-.31,2.52.13.13.16-.1.29-.11.76-.75,1.65-1.29,2.44-2.06,0-.09.21-.16.25-.27.33-.18.57-.51.9-.73,5.54-.07,11.09,0,16.64,0l1.16,0,.23.07c-.21.32-.61.42-.83.69-.12.06-.2.18-.35.21-.24.21-.6.41-.83.65-.13-.08-.1.14-.23.07-.12.19-.34.25-.5.41-.57.25-1,.76-1.58,1.07a.2.2,0,0,0,0,.21,8.56,8.56,0,0,1,.29,1.19c.15.14,0,.39.2.52,0,.23.12.48.09.71.31,1,.62,2.11.87,3.19s.69,2.37.9,3.62c.15.9.45,1.74.62,2.66.14.24,0,.47.05.73-.19.46-.69.17-1.05.29-1,.11-2.09,0-3.08.08l-.14.14v.9c.22.1.44.22.65.34s.27.12.41.1c.07.14.24,0,.29.17.21.14.46.12.65.29s.29.26.36.44c-.3.36-.77.43-1.07.77-.18,0-.16.16-.33.15-.08.19-.3.1-.39.29-.35.12-.65.37-1,.48s-.73.38-1,.67l-.06.11c0,.65.18,1.18.18,1.85.16.37,0,.87.27,1.2,0,.14.14.22.13.37.37.62.7,1.28,1.06,1.88a2.61,2.61,0,0,1-.12,1.25c-.23,1.61-.53,3.24-.78,4.85,0,.19-.07.24-.2.33l-1.73,0c-.17,0-.39.07-.55-.07H81.53a8.73,8.73,0,0,0-.4,1c-.38,1.23-.85,2.43-1.23,3.67a6.71,6.71,0,0,1-2.41,0c-.55.05-1-.19-1.5-.16a31.11,31.11,0,0,1-3.08-.71c-.08-.15-.32-.07-.42-.18-.25,0-.37-.16-.62-.15-.08-.15-.3,0-.39-.18a13.34,13.34,0,0,0-1.27-.42c-.08-.16-.29-.07-.35-.23a4.11,4.11,0,0,1-.42-.11c0-.14-.19,0-.21-.16-.25,0-.45-.22-.69-.27,0-.11-.22-.08-.27-.21-.22,0-.28-.22-.5-.2a1.76,1.76,0,0,0-.58-.31c-.15-.13-.32-.22-.48-.35a3.6,3.6,0,0,0-.72-.4c-.59-.46-1.18-.88-1.74-1.35-.12,0-.13-.1-.23-.11a17.92,17.92,0,0,0-1.45-1.27c0-.15-.18,0-.13-.2-.35-.21-.46-.6-.81-.83-.22-.43-.63-.68-.85-1.11a4.27,4.27,0,0,1-.8-1.39c-.21,0-.11-.21-.27-.31,0-.15-.2-.16-.12-.31-.14-.07-.1-.25-.22-.33a19.72,19.72,0,0,1-.77-2,21.35,21.35,0,0,1-.6-2.42c-.06-.52-.13-1.09-.15-1.65l0-6.29a10.6,10.6,0,0,1,.44-3.75,14.56,14.56,0,0,1,.87-1.88,10.21,10.21,0,0,1,1-1.21c.2-.35.64-.6.87-.88.12,0,.07-.17.21-.13.18-.19.42-.28.53-.51a39,39,0,0,0-.09-4.58c-.18-.09,0-.35-.22-.46.06-.31-.16-.49-.21-.76-.16,0-.08-.23-.21-.27-.06-.33-.34-.51-.42-.8a2.45,2.45,0,0,1-.58-.66,14,14,0,0,0-1.54-1.07c-.42-.32-1-.3-1.43-.54a14.69,14.69,0,0,0-1.94-.06c-.25.11-.61,0-.81.17a5.31,5.31,0,0,0-1.1.35,6.67,6.67,0,0,0-1.58,1.11c-.32.3-.62.67-.92,1a8.71,8.71,0,0,1-.49,1,10.48,10.48,0,0,0-.35,1.19,6.46,6.46,0,0,0,0,1.81,5.37,5.37,0,0,1,.06.76c0,.46.16.77.2,1.2.27,1.14.57,2.27.85,3.4.08.14.06.32.17.45,0,.22.2.33.14.58a6,6,0,0,0,.36,1.11c.05.36.19.69.27,1,.14.09.09.32.21.44.09.57.44,1.06.49,1.61.17.15.06.42.23.56.15.57.42,1.13.54,1.7.11.07.08.22.17.33.31.94.66,1.87,1,2.83.08.1.12.26.21.38.42,1.26,1,2.44,1.41,3.69.11.3.25.58.38.87a5,5,0,0,1,.23.74c.12.06.08.24.2.31a11.14,11.14,0,0,0,.65,1.76c.35.69.59,1.43.92,2.12a3.38,3.38,0,0,0,.34.91c0,.17.19.32.13.48a12.59,12.59,0,0,1-1.67-.19,8.29,8.29,0,0,1-1.08-.06c-.38-.11-.93,0-1.3-.15-.65,0-1.34-.17-2-.14,0-.11-.13,0-.18-.07a7.32,7.32,0,0,1-1,0c0-.07-.08-.08-.14-.07-.74,0-1.42-.11-2.15-.12v-.06c-2.17-.24-4.34-.33-6.48-.6-.38-.11-.91.07-1.23-.16a4,4,0,0,1-1.21-.07c-.47.05-.62-.5-1-.65a13.76,13.76,0,0,0-1.41-1.36,5.22,5.22,0,0,1-.83-.74c-.09,0-.06-.17-.19-.11,0-.15-.17,0-.12-.18-.1-.13-.28-.22-.36-.34h-.06c-.77-.76-1.63-1.39-2.39-2.19a10.57,10.57,0,0,0-.91-.77c-.74-.73-1.54-1.37-2.27-2.11.13-.13.39,0,.49-.14l.63,0c.88-.21,1.79-.35,2.68-.5.37,0,.7-.12,1.1-.13s.65,0,.94-.2c.36,0,.76-.1,1.14-.11.17-.21.57,0,.75-.19.49.07.85-.22,1.31-.15.2-.16.59,0,.79-.18.45.06.72-.19,1.16-.15.13-.17.54.12.44-.25-.13-.11-.06-.31-.21-.4-.11-.43-.3-.8-.42-1.21a3.4,3.4,0,0,1-.4-.85c0-.2-.15-.3-.14-.48-.16-.12-.08-.27-.21-.4-.29-.7-.45-1.45-.76-2.14-.14-.44-.36-.87-.49-1.29.07-.24-.21-.29-.13-.52-.18-.06,0-.32-.19-.42-.18-.63-.42-1.26-.53-1.89-.15-.11-.06-.34-.19-.46.07-.27-.19-.41-.15-.67-.13-.14,0-.37-.2-.49.08-.24-.15-.36-.1-.6-.19-.11,0-.37-.19-.5-.13-1-.49-2-.62-3a26,26,0,0,1-.33-4.92l0-1A8.46,8.46,0,0,0,35.2,66a5.53,5.53,0,0,1-.13,1.71,15.23,15.23,0,0,0-1.65,1.87,8.46,8.46,0,0,0-1,1.23c-.5.72-1,1.41-1.46,2.16-.17.08-.16.31-.31.38-.19.31-.35.64-.52.94a2.33,2.33,0,0,1-.38.58c-.44.92-1,1.72-1.39,2.65-.07.28-.33.46-.35.77-.14.05,0,.26-.2.31-.45.88-.75,1.85-1.19,2.73,0,.19-.13.32-.11.52-.18.07,0,.27-.21.35-.31,1-.74,2-1,3.08-.29.78-.41,1.61-.65,2.45-.16.55-.23,1.13-.39,1.67-.35,1.56-.51,3.18-.75,4.78s-.12,3-.13,4.56h-.16c-.09-.17-.28-.29-.35-.49-.39-.34-.69-.77-1-1.13a21.12,21.12,0,0,0-1.3-1.72c-.08-.21-.29-.36-.33-.6-.2-.09-.13-.32-.31-.4a6.26,6.26,0,0,1-.54-1l-.09-.08c-.17-.37-.42-.62-.56-1a4,4,0,0,0-.29-.38c0-.17-.22-.24-.13-.41-.21-.16-.17-.48-.38-.65,0-.23-.24-.37-.24-.62s-.43-.72-.54-1.07c-.36-.68-.53-1.44-.92-2.12-.33-1-.68-1.92-1-2.91-.12-.36-.23-.73-.35-1.09s-.11-.47-.14-.7-.24-.7-.33-1.05-.23-.59-.17-.92l-.08-.06c0-.47-.2-.91-.22-1.37-.21-.16,0-.49-.2-.66-.08-.62-.21-1.25-.33-1.84s-.23-1.08-.23-1.67c-.14-.24,0-.59-.18-.83a17.88,17.88,0,0,0-.2-2.37c0-.23-.1-.52,0-.77.07,0,.18,0,.21-.14.25,0,.37-.12.61-.09.13-.2.41,0,.52-.23.21.08.35-.12.54-.13v0c.3.08.38-.24.65-.16.14-.13.36-.05.51-.2.21,0,.28-.16.49-.09a8.15,8.15,0,0,1,.81-.31c.34,0,.62-.27.94-.31s.39-.21.65-.13c.06-.23.33,0,.38-.22.26,0,.41-.12.64-.09,0-.23.27,0,.36-.21.24.07.39-.2.65-.13s.47-.22.71-.29c.88-.17,1.67-.52,2.55-.77.32,0,.52-.22.84-.22.13-.15.41,0,.54-.19.19,0,.33-.14.52-.12.05-.17.3,0,.36-.17l.63-.14c.09-.18.37,0,.47-.2.31.13.32-.24.62-.14a2.2,2.2,0,0,0,.71-.29,5.79,5.79,0,0,0,.69-.11c.06-.17.33,0,.43-.2.4-.16.87-.14,1.29-.31.18-.22.62-.05.71-.42.15,0,.1-.17.22-.22a1.11,1.11,0,0,0-.1-.87.51.51,0,0,0-.48-.33c-.12-.14-.34,0-.5-.07-.27.12-.6.16-.82.29a10.35,10.35,0,0,1-1.32.35c-.2.13-.5.14-.67.29-.26,0-.44.18-.71.14-.5.14-1,.35-1.5.51-.27-.07-.39.21-.65.14a4.24,4.24,0,0,0-.39.17c-.29,0-.56.21-.88.22-.11.2-.39,0-.49.21-.27-.09-.37.22-.63.13-.56.18-1.13.37-1.7.52-.07.17-.33,0-.34.17-.25,0-.4.17-.65.12-.09.19-.37,0-.48.2-.52.17-1,.29-1.54.45-.09.11-.31,0-.36.17-.28-.06-.38.2-.65.16-.56.13-1.09.41-1.67.5l-.74.31c-.24,0-.41.13-.65.11-.07.17-.32.06-.42.21a3.86,3.86,0,0,1-1,.19,18.72,18.72,0,0,0,0-2.92,2,2,0,0,1,.07-.87l0-2.35c.1-.63.09-1.16.15-1.81l.05-.07c0-.69.09-1.43.14-2.13.12-1.56.55-3.07.79-4.62.1-.39.18-.79.31-1.16,0-.12,0-.2,0-.31a.27.27,0,0,1,.21.07c.24,0,.51,0,.69.1l.74,0v.06c.26,0,.49,0,.71.13.72.08,1.45.08,2.15.21v0a11.35,11.35,0,0,0,1.37.16c.28.15.62,0,.89.18a18.76,18.76,0,0,1,2,.29c.51-.07.93.24,1.45.16.82.08,1.64.33,2.44.42.45-.08.74.15,1.21.1.31.21.65,0,1,.19.69,0,1.38.18,2.08.23,0,.09.11,0,.15.08.21.06.51-.06.65.12.42-.09.76.17,1.14,0,.14.07.1-.12.23-.12a1,1,0,0,0,.38-.89,1.37,1.37,0,0,0-.38-.6A.17.17,0,0,1,33,53.5c-.19,0-.39,0-.53-.09-.42,0-.85-.17-1.3-.12-.3-.15-.63,0-.92-.19A13.18,13.18,0,0,1,28.93,53c-.23-.16-.62,0-.83-.19l-.71,0s0-.07-.07-.06c-.74,0-1.46-.19-2.17-.22-.21-.19-.57,0-.77-.2-.51,0-1-.14-1.46-.14s-1-.22-1.5-.26-.85-.2-1.32-.16c-.24-.14-.59,0-.83-.18-.69,0-1.37-.17-2.05-.24-.9-.16-1.8-.34-2.68-.45.3-1.18.69-2.37,1-3.53.51-1.5,1.16-2.91,1.72-4.41.19-.05,0-.31.21-.37.3-.8.69-1.56,1.06-2.33.23-.25.3-.59.54-.88,0-.08.11-.16.11-.26.35-.63.74-1.21,1.06-1.83.11,0,.07-.23.19-.25s.1-.1.18-.1.41.23.6.35c.12-.06.14.17.27.09,0,.11.17.09.23.15s.24.19.41.16c0,.13.17.13.24.21a3.83,3.83,0,0,0,.76.33c.2.19.5.21.69.4.2,0,.31.16.5.21.26.23.63.3.9.53s.53.2.75.32c.37.32.9.41,1.29.73a7.63,7.63,0,0,1,1.3.64c.1,0,.18.12.31.09.3.34.8.3,1.13.65.1,0,.19.09.29.12s.22,0,.21.15l.34.12c.08.16.29.06.35.22.39.11.71.41,1.1.52s.55.44.88.52c.16,0,.23.15.37.13.34.27.75.35,1.1.61.12,0,.14.2.31.12.37.13.64.42,1,.6.6.23,1.1.63,1.72.89.11.15.32.09.46.19a.94.94,0,0,0,.83-.38.88.88,0,0,0,.15-.85c-.12-.13-.19-.34-.36-.4-.49-.39-1.07-.58-1.6-.92l-.14,0c-.39-.28-.84-.43-1.23-.72-.21,0-.37-.17-.58-.23s-.17-.15-.28-.21H34.8c-.46-.36-1-.48-1.46-.85l-.13,0a12.36,12.36,0,0,0-1.23-.6,7.39,7.39,0,0,1-.87-.52c-.83-.34-1.59-.86-2.43-1.16-.19-.08-.27-.23-.48-.31a2.9,2.9,0,0,0-.54-.21,14.54,14.54,0,0,0-1.83-.94c-.07-.12-.25-.07-.31-.22-.26-.1-.49-.22-.74-.31a1,1,0,0,0-.6-.33c-.16-.2-.4-.22-.59-.36s-.39-.24-.64-.29-.3-.19-.44-.29-.21-.12-.35-.09c0-.1-.07-.1-.12-.12s-.15-.18-.31-.15-.12-.21-.09-.32c.38-.5.75-1,1.18-1.52.11-.32.48-.47.56-.81a7.2,7.2,0,0,0,.87-1.05c.57-.5.9-1.19,1.52-1.68s1.19-1.19,1.76-1.79c.28,0,.27-.4.56-.46l0-.07a1.8,1.8,0,0,0,.58-.54c.26-.11.4-.39.67-.5.36-.41.83-.71,1.21-1.07.64-.47,1.23-1,1.91-1.37a8.93,8.93,0,0,1,.6.71c1.6,1.65,3,3.42,4.6,5.18.28.37.59.65.84,1,1.12,1.14,2,2.41,3.14,3.51v.06c1.32,1.36,2.48,2.88,3.82,4.23a1,1,0,0,0,1-.13,1.05,1.05,0,0,0,.27-1c-.86-1.24-2-2.29-2.9-3.51a13.22,13.22,0,0,1-1-1.09c-.52-.73-1.18-1.3-1.71-2-.29-.12-.37-.52-.63-.67,0-.09-.12-.13-.12-.23-.18-.08-.24-.28-.4-.36s-.32-.23-.35-.49c-.65-.61-1.06-1.24-1.7-1.87-.08-.24-.44-.35-.49-.63-1.07-1.12-2-2.3-3.08-3.42,0-.2-.37-.23-.29-.49s.44-.22.63-.4c.15,0,.11-.15.27-.11a6.46,6.46,0,0,1,.65-.52,3.34,3.34,0,0,0,.71-.45c.17,0,.28-.15.46-.2.5-.31,1.05-.69,1.58-.94.24-.18.58-.25.78-.43s.38-.14.54-.22a8.3,8.3,0,0,1,1.39-.74,7.15,7.15,0,0,1,1-.42c.51-.19.94-.48,1.46-.72s1.11-.33,1.63-.65c.23.07.33-.21.56-.13a4.82,4.82,0,0,1,.63-.29c.53-.15,1.08-.38,1.59-.52,0,.21.19.27.14.49.16,0,0,.24.17.27.08.27.16.53.23.8.28.45.36,1,.63,1.43s.4,1.06.56,1.59C50.13,22,50.56,23,51,24.16c.19.41.33.82.52,1.23a1.62,1.62,0,0,1,.11.48c.16.13.15.42.31.56,0,.49.42.81.45,1.3a4.2,4.2,0,0,0,.31.62,7.58,7.58,0,0,0,.51,1.36c0,.19.16.27.12.46.12.16.13.45.29.62s.17.48.22.73.13.34.23.5a3.42,3.42,0,0,1,.2.62c.17.07,0,.26.2.34s.14.34.18.51.3.47.35.78c.14,0,.24.21.38.18.11.13.31,0,.47.08.07-.15.27,0,.33-.18a.65.65,0,0,0,.37-.44,1.74,1.74,0,0,0-.09-.79c0-.18-.15-.29-.14-.47s-.13-.46-.28-.62c-.27-.6-.38-1.25-.68-1.85-.08-.09,0-.27-.17-.37a1.31,1.31,0,0,1-.12-.44c-.07-.22-.21-.44-.31-.65A18.34,18.34,0,0,0,54,26.81a5.09,5.09,0,0,1-.23-.74c-.73-1.51-1.19-3.14-1.9-4.65.07-.18-.16-.23-.11-.4-.48-1-.77-2.16-1.25-3.16,0-.27-.24-.47-.23-.75-.17-.43-.35-.8-.52-1.19-.07-.18.16-.16.23-.23.53-.15,1.1-.27,1.65-.44.19-.17.43,0,.62-.2.29,0,.53-.15.83-.13.13-.18.49,0,.62-.23.33,0,.63-.12,1-.09a9.09,9.09,0,0,0,1-.31,5.13,5.13,0,0,0,1.12-.14c.18-.11.45,0,.6-.17.51,0,1-.15,1.45-.14.24-.14.51-.06.78-.13v0c.29,0,.63,0,.87-.14,1-.07,2-.16,3-.29.55,0,1.29-.09,1.81-.09.16,0,.1.16.11.23,0,1.45,0,2.92-.11,4.38l0,4.4-.07.27c0,2.13-.08,4.71-.08,6.83l-.07.19,0,2.68c.14.06,0,.26.2.25,0,.22.27.22.42.29s.58.07.77-.12a1,1,0,0,0,.36-.82c.07-1.55,0-3.1.18-4.64,0-.38,0-.65,0-1L67,26c.05-1.87,0-3.75.07-5.62a3,3,0,0,0,.06-1.11c0-1.7,0-3.39.11-5.08a4.8,4.8,0,0,0,0-1c.08-.05.06-.16.2-.18l5.56,0,.11.1"/><path class="90a8a572-1717-42f1-b9ae-3f5fe75ff6a3" d="M65.91,37.43l0,1.17c-.2.16,0,.47-.16.63l-1.3,0-.11.08a8.77,8.77,0,0,0-1.7.09c-.35,0-.69.18-1.05.13,0,0-.14,0-.16.08-.43,0-.75.2-1.19.17s-.52.21-.82.2c-1.05.31-2.14.56-3.18.93,0,.19-.33,0-.38.19-.22-.08-.3.21-.52.14-.41,0-.62.42-1,.44a2.44,2.44,0,0,0-.52.29,3.36,3.36,0,0,0-.56.22c-.17.1-.37.21-.57.31-.21-.09-.15.19-.35.11-.08.16-.31.15-.4.31-.18-.08-.14.19-.31.12-.17.21-.48.25-.63.44-.21,0-.25.18-.44.23-.76.39-1.36,1-2.08,1.43-.87.74-1.73,1.45-2.6,2.21-.3.45-.75.7-1,1.14-.8.76-1.34,1.74-2.1,2.54-.54.77-1.06,1.58-1.56,2.37a9.24,9.24,0,0,1-.71,1.15,4.91,4.91,0,0,1-.25.63c-.24.46-.45,1-.72,1.41a6.92,6.92,0,0,1-.33.79c0,.33-.33.54-.27.89-.08.1-.08.24-.17.34s-.16.33-.16.51-.06.31-.23.25c-.58-.06-1.09-.19-1.68-.21,0,0-.12-.05-.13-.12.07-.37.23-.7.31-1.07l.09-.14a17,17,0,0,1,.58-1.79c.34-.91.85-1.74,1.23-2.63.16-.12.16-.32.33-.47s.3-.4.34-.67c.31-.4.5-.89.83-1.29A29,29,0,0,1,42,48.57a31.23,31.23,0,0,1,3.5-3.51l.25-.31c1.14-.83,2.15-1.79,3.4-2.54.47-.27.9-.57,1.37-.87.18,0,.31-.15.48-.19a6.61,6.61,0,0,1,.87-.52,15.34,15.34,0,0,0,1.54-.75,6.85,6.85,0,0,0,1-.35,5,5,0,0,0,.81-.36c.42-.11.79-.22,1.19-.36l0-.06a9,9,0,0,0,1.41-.43c.33.07.52-.19.84-.15.17-.15.46,0,.6-.18.36,0,.64-.16,1-.15.25-.15.56,0,.8-.2.9-.07,1.78-.24,2.71-.23l.21-.07h1.87l0,.07"/><path class="90a8a572-1717-42f1-b9ae-3f5fe75ff6a3" d="M90.16,49.24c0,.14.29,0,.37.16.24,0,.42.22.67.17a2.3,2.3,0,0,1,.48.31c.24,0,.36.27.52.42s.24.37.4.49A3.28,3.28,0,0,1,93.15,52l0,1.44c-.16.21,0,.56-.21.75.13.32-.23.48-.13.81-.14.08,0,.28-.18.36,0,.35-.21.71-.26,1.1-.2.6-.35,1.18-.56,1.76a12.06,12.06,0,0,1-.49,1.3c0,.45-.27.81-.35,1.27-.19,0,0,.33-.21.36-8.54,0-17.09,0-25.63.07a9.3,9.3,0,0,0-1.18-.11,5.37,5.37,0,0,1-.81-.27,2,2,0,0,1-.83-.21,1.39,1.39,0,0,0-.6-.23c-.32-.15-.67-.37-.92-.52s-.56-.38-.82-.61a6.44,6.44,0,0,1-1.41-1.75A8.41,8.41,0,0,1,58,56.17c.06-.49-.19-.93,0-1.37,0-.22,0-.52.12-.69A4.15,4.15,0,0,1,58.61,53c.14-.3.42-.47.58-.76.17,0,.27-.21.38-.31A4.75,4.75,0,0,1,63.15,51a2.27,2.27,0,0,0,.71.21,5.13,5.13,0,0,1,1.52,1c.18,0,.2.32.34.38.33.14.28.57.54.8s.06.4.21.54a3.46,3.46,0,0,1,.15.94l.07.12v2.1c0,.06.08.08.13.09s.34,0,.42-.2c.41-.17.87-.26,1.28-.44a5.1,5.1,0,0,0,.67-.31c.34-.08.65-.21,1-.33.09-.13.31-.05.4-.21.16,0,.31-.09.47-.13s.27,0,.33-.16c.26,0,.4-.19.67-.21s.35-.07.47-.22l1.56-.54c.07-.14.3,0,.36-.2L76,53.65c.07-.16.3,0,.33-.19.56-.16,1.1-.35,1.66-.52,0-.15.26,0,.31-.19.22.06.33-.18.55-.15.51-.17,1-.38,1.47-.58.3,0,.52-.24.83-.27.35-.21.78-.29,1.16-.48.21.07.29-.21.5-.14a4.73,4.73,0,0,0,.63-.31c.21,0,.31-.16.5-.11s.43-.21.66-.29a2,2,0,0,0,.77-.25c.61-.2,1.24-.48,1.86-.67a4.14,4.14,0,0,1,1.21-.31c.57,0,1.14,0,1.72.06"/><path class="048f8159-b684-45a1-9e26-1616db1e4d40" d="M86.28,51.47c0,.09.13.1.2.12a1.2,1.2,0,0,1,.41.62,6.08,6.08,0,0,1-.41,1.65c-.09.2-.08.44-.22.62,0,.26-.15.43-.14.67-.28.65-.36,1.36-.63,2-.18.39-.2.81-.35,1.21s-.25.87-.46,1.31c-.8,0-1.62,0-2.42,0-.21-.11,0-.28,0-.44s0-.29.17-.33c0-.28.15-.46.14-.72.15-.09,0-.35.19-.42.38-1.69,1-3.3,1.41-5l.35-.69c.22-.17.35-.36.54-.48.12.07.14-.1.25-.11a1.64,1.64,0,0,1,1-.08"/><path class="048f8159-b684-45a1-9e26-1616db1e4d40" d="M90.84,51.9a4.11,4.11,0,0,1-.23,1.83,6.46,6.46,0,0,1-.27.76c0,.23-.15.42-.15.65s-.09.32-.18.47a4.94,4.94,0,0,0-.25.94,6.61,6.61,0,0,0-.25.73c0,.3-.19.47-.17.77a8.22,8.22,0,0,0-.43,1.18.56.56,0,0,1-.11.44c-.84.11-1.69,0-2.52,0,.25-1.23.76-2.39,1-3.62.11-.08,0-.25.18-.35-.06-.25.17-.43.13-.69.08-.08.05-.31.18-.42.13-.48.27-1,.4-1.46.07-.07,0-.22.13-.25,0-.22.15-.36.18-.56s.43-.39.62-.67c.2.07.17-.21.36-.13l.16-.12a1.14,1.14,0,0,1,1.21.47"/><path class="048f8159-b684-45a1-9e26-1616db1e4d40" d="M56.35,67.34a4.55,4.55,0,0,1,1.36.27c0,.14.23,0,.29.2.17,0,.3.16.47.21s.34.4.6.43a8.65,8.65,0,0,1,1,1.19c0,.26.3.35.25.63a5.07,5.07,0,0,1,.36,1.61v.2c-.84,0-1.64,0-2.48,0,0-.25,0-.48-.14-.67A2.13,2.13,0,0,0,57,70.1c0-.18-.23,0-.27-.19a3.67,3.67,0,0,0-1.46-.08c-.06.11-.2,0-.27.1a3.45,3.45,0,0,0-.92.67c-.16.15-.22.39-.35.56s-.13.83-.19,1.21a7.44,7.44,0,0,0,.22,1.71c.09.5.22,1,.33,1.48a2.2,2.2,0,0,1,.2.4c.14.63.48,1.18.63,1.83a16.83,16.83,0,0,0,1,1.81,4.5,4.5,0,0,0,.76,1c0,.15.24.18.31.31,0,.81,0,1.65,0,2.48-.24.09-.46-.1-.72-.05-.34-.17-.65-.36-1-.54,0-.13-.19-.17-.29-.25a6.49,6.49,0,0,1-1-1.31,3.66,3.66,0,0,1-.33-.37c0-.14-.15-.21-.11-.36l-.09,0a12.52,12.52,0,0,1-.65-1.34c-.13-.06-.09-.24-.21-.33a3.75,3.75,0,0,0-.22-.7c-.15-.06,0-.26-.2-.31a10.91,10.91,0,0,1-.54-1.83c-.21-.07,0-.33-.19-.42,0-.54-.24-1.07-.33-1.6S51,72.78,51,72.21c.08-.38,0-.86.18-1.19a7.09,7.09,0,0,1,.35-1.11c.08-.19.37-.31.35-.58a1.17,1.17,0,0,0,.38-.47,5.79,5.79,0,0,0,.85-.73c.23-.2.57-.2.79-.43a8.8,8.8,0,0,1,1.59-.42,3.16,3.16,0,0,1,.9.05"/><path class="90a8a572-1717-42f1-b9ae-3f5fe75ff6a3" d="M79.28,70.44c.05.15.25,0,.32.18.2,0,.3.18.5.13,0,.09.07.1.11.12.45.12.9.31,1.32.42,0,0,0,0,0,.06-.88.15-1.74.2-2.61.29-.68.06-1.42,0-2.14.1.08-.1.22-.16.31-.27s.06,0,.07,0v-.06a15.33,15.33,0,0,0,1.45-1c.26-.2.36.2.63.09"/><path class="90a8a572-1717-42f1-b9ae-3f5fe75ff6a3" d="M87.17,72.66c0,.07.07,0,.09.07.09.51.27,1,.37,1.56.17.1,0,.37.16.49,0,.28.18.4.13.69.12.28.18.6.29.89-.06.33.22.46.16.78l.06.06c.29,1.71.84,3.36,1.13,5.07-.07.34.22.53.12.89-.27.1-.5-.06-.74.13-1.05,0-2.11.13-3.15.2-.83,0-1.7,0-2.5,0-.22.21-.09.62-.21.89a8.12,8.12,0,0,0-.23,1.7c.53.07,1.06,0,1.59,0s1,0,1.47,0c.2.06.42-.06.58.11V88a4.81,4.81,0,0,1-.55.42.68.68,0,0,1-.27,0c0-.32-.19-.52-.18-.84-.41.08-.74.44-1.12.55-.1.12-.29.11-.37.27s-.48.2-.71.35c-.35.36-.9.46-1.25.8-.07,0-.21,0-.27,0,.08-.41-.19-.66-.11-1.1-.07,0-.11,0-.18,0-1.08,1.1-2.1,2.27-3.13,3.43a1.63,1.63,0,0,0,.82.06c.43,0,1-.11,1.46-.14.28-.14.66,0,.92-.15s.35-.16.6-.16a7.19,7.19,0,0,1,.77-.38c.61-.15,1.25-.22,1.83-.42l.21,0c0,1.08.14,2,.12,3.13.2.32.24.68.51,1,0,.22.19.27.16.49s.18.21.23.34.14.22.15.38.2.36.31.48c.1.41-.18.71-.13,1.11-.15.27,0,.65-.2.9.06.46-.18.85-.15,1.32l-.1.17-1.4,0-.12.08-2,0c-.16,0,0-.28,0-.41.24-.69.43-1.4.71-2.1,0-.61.46-1,.44-1.67a5.34,5.34,0,0,0,.31-1c-.78-.08-1.57-.16-2.32-.25a17.32,17.32,0,0,1-1.95-.12c-.15-.12-.42-.07-.64-.11a6.89,6.89,0,0,1-.87-.27c-.26,0-.49-.19-.74-.13-.45-.13-.88-.42-1.34-.54-.31-.26-.77-.34-1.08-.63a8.41,8.41,0,0,1-1-.94,3.58,3.58,0,0,1-.67-.9,1.71,1.71,0,0,1-.29-.5,5.12,5.12,0,0,1-.48-1.83c-.19-.23.21-.44.31-.62.29-.26.51-.62.77-.89.18-.44.47-.73.65-1.17A8.86,8.86,0,0,0,74.72,84c.18-.39,0-.9.21-1.32a5.19,5.19,0,0,0-.1-1.33c0-.35-.15-.64-.13-1-.12-.66-.44-1.17-.61-1.81-.18-.32-.43-.63-.58-.94s-.51-.7-.76-1a2.67,2.67,0,0,1-.46-.5V73a4.08,4.08,0,0,1,1.05,0c.07.17.31.32.43.51.31.27.56.64.85.88.11,0,.09.3.26.18.28-.5.17-1.08.45-1.58a14.61,14.61,0,0,1,1.81,0,5.87,5.87,0,0,0,1.05,1.2c.09-.07.19,0,.23.07l.71,0c0,.1.13,0,.18.09.53-.08.91.15,1.46.1,0,.09.11.06.17.09.49-.1.84.18,1.32.13.18,0,.17-.15.33-.17.17-.19.46-.24.55-.49.48-.36,1-.67,1.46-1.05.76,0,1.49-.25,2.26-.23a.35.35,0,0,1,.31-.07"/><path class="048f8159-b684-45a1-9e26-1616db1e4d40" d="M78.54,77.1a17.07,17.07,0,0,1,0,2.17c-.36.32-.48.84-.73,1.19a5.53,5.53,0,0,1-.44,1.25h-.07c-.17-.84-.31-1.72-.44-2.54-.12-.1-.07-.33-.2-.42,0-.22-.17-.37-.13-.6a7.38,7.38,0,0,0-.47-1.1c.07-.12.28,0,.37,0a17.57,17.57,0,0,0,2.09.07"/><path class="048f8159-b684-45a1-9e26-1616db1e4d40" d="M67.06,78.37a2.14,2.14,0,0,0,.78.2c.25.23.64.29.9.54h.08c.07.23.35.24.49.44a3.84,3.84,0,0,1,.77,1.19c.11.09.08.25.17.36,0,.27.23.5.18.79a3.67,3.67,0,0,1,0,1.56,4.44,4.44,0,0,1-.54,1.18,5,5,0,0,1-.77,1,5.94,5.94,0,0,1-1.09.65,8.32,8.32,0,0,0-.81.31,15.92,15.92,0,0,1-1.77,0,1.86,1.86,0,0,0-.69-.21c0-.15-.25,0-.29-.19-.18.06-.14-.19-.33-.12-.07-.11-.2-.15-.33-.22a13.11,13.11,0,0,0-.94-.94,2.26,2.26,0,0,0-.38-.74c0-.24-.17-.35-.16-.6-.18-.23,0-.59-.11-.87a3.38,3.38,0,0,1,.11-1.19,2.28,2.28,0,0,1,.47-1.1c0-.41.45-.47.6-.83a8.14,8.14,0,0,1,1-.77c.41-.11.79-.36,1.18-.43l1.5,0"/><path class="90a8a572-1717-42f1-b9ae-3f5fe75ff6a3" d="M66.79,80.85c.11,0,.29,0,.33.12s.37.17.46.33.52.53.44,1c.18.31-.08.58-.07.89-.14.15-.19.39-.35.48s-.24.16-.29.29c-.2-.06-.14.22-.36.13-.18.14-.44.08-.65.15-.17-.12-.47,0-.62-.15-.23,0-.3-.23-.53-.29-.26-.35-.6-.67-.54-1.17.07-.35,0-.87.36-1.11,0-.39.49-.32.63-.58a1.6,1.6,0,0,1,1.17,0"/></svg>