<svg id="9c9494f8-0829-41e3-b1a4-de1170de5a79" data-name="レイヤー 1" xmlns="http://www.w3.org/2000/svg" width="120" height="120" viewBox="0 0 120 120"><defs><style>.\36 c221711-1e86-4604-8022-184f5d8e641f{fill:none;stroke:#fff;stroke-linecap:round;stroke-linejoin:round;stroke-width:4px;}.\39 3dc3e60-5375-40fb-93ff-dfcd923d9557{fill:#fff;}</style></defs><title>ico-ryukoku</title><path class="6c221711-1e86-4604-8022-184f5d8e641f" d="M65.65,27.71,71.94,34c-1.23,1.23-3.64.83-5.37-.91S64.42,28.95,65.65,27.71Z"/><path class="6c221711-1e86-4604-8022-184f5d8e641f" d="M77.77,34.06c-5.92-6.35-10.24-9.29-18.35-13.55-15.18-8-10.46-17-10.46-17C50,9.1,58.57,13.7,61.74,15.45c5.91,3.26,12.4,6.49,15.77,9.6C81.89,29.08,77.77,34.06,77.77,34.06Z"/><path class="6c221711-1e86-4604-8022-184f5d8e641f" d="M73.57,102c-2.76-1.29-5.43-.84-7.91-1,0,0,5-2.89,7.52-2C73.73,99.25,74.2,102.31,73.57,102Z"/><path class="6c221711-1e86-4604-8022-184f5d8e641f" d="M72,20.08s-5.92-3.35-11.67-6.52A7.94,7.94,0,0,1,58.05,2.5s.82,6.33,10.63,11.06A6,6,0,0,1,72,20.08Z"/><path class="6c221711-1e86-4604-8022-184f5d8e641f" d="M59.59,53.18C80.77,65.44,65.85,89.8,65.85,89.8c2-15.78-.25-25.21-10.2-31.22-15-9.08-10.38-20.49-10.38-20.49C46,42.72,49.67,47.43,59.59,53.18Z"/><path class="6c221711-1e86-4604-8022-184f5d8e641f" d="M73,98.54c-1.63-.34-3.2-.13-6.4,1.48.24-.2,3.55-3,2.5-6.88C68.57,91.3,74.21,98.8,73,98.54Z"/><path class="6c221711-1e86-4604-8022-184f5d8e641f" d="M73.57,106.77c-1.8-1.92-6.27-4-8.94-5.2,0,0,8,.12,9.26,1.35C74.15,103.18,74.67,107.95,73.57,106.77Z"/><path class="6c221711-1e86-4604-8022-184f5d8e641f" d="M71.38,111.86c-1.09-2.64-5.49-7.59-7.77-10,.22.07,7.39,2.44,9.83,6.1C74.08,109,72.08,113.53,71.38,111.86Z"/><path class="6c221711-1e86-4604-8022-184f5d8e641f" d="M66.11,115.33c.23-4.29-2.65-10-4-13.68.31.27,6.91,6.27,8.61,11.3C70.84,113.43,66,116.55,66.11,115.33Z"/><path class="6c221711-1e86-4604-8022-184f5d8e641f" d="M60.64,100.86s5.15,11.12,4.63,15c-.08.62-5.76,1.62-4.95-1C62.06,109.41,61.2,105.55,60.64,100.86Z"/><path class="6c221711-1e86-4604-8022-184f5d8e641f" d="M59.59,99.74s3.68,15.53-4.11,17.75c-.6.18-.74-3.68.51-6.08C57.43,108.64,58.22,104.46,59.59,99.74Z"/><path class="6c221711-1e86-4604-8022-184f5d8e641f" d="M59.16,22.19a64.86,64.86,0,0,1,8.24,4.75c5,3.38,12.24,10.11,13.89,11.45a53.2,53.2,0,0,0,14.15,8.49s-3,3.3-3.09,5.36c0,0-7.85-10.64-11.58-11.66-5.45-1.51-6,.81-10.8-1.42C65.85,37.23,57.12,31.06,59.16,22.19Zm6.49,5.52c-1.23,1.24-.82,3.64.92,5.38s4.14,2.14,5.37.91Z"/><path class="6c221711-1e86-4604-8022-184f5d8e641f" d="M76.83,70.07c-.94-15.78-5.4-19.38-19.64-30-6.84-5.11-5.49-13.88.31-17.52-.13.33-2.69,7,6.21,13.75C85.49,52.75,76.83,70.07,76.83,70.07Z"/><path class="6c221711-1e86-4604-8022-184f5d8e641f" d="M54,23.94s-9.24,9.53,4,18.35C86.69,61.33,71.77,80,71.77,80c.51-16,0-21.09-16.08-31C45.8,42.93,40,32,54,23.94Z"/><path class="6c221711-1e86-4604-8022-184f5d8e641f" d="M50,79.68c-2.57-9.09-1.12-15.61-1.12-15.61,4,5.15,11.4,9,10.89,22.3-.68,18-6.34,23.49-6.34,23.49C55,99.57,54.26,94.78,50,79.68Z"/><path class="6c221711-1e86-4604-8022-184f5d8e641f" d="M44.46,48.55c1.41,5.74,6.52,7.84,13.76,13.63,15.44,12.35,2,36.62,2,36.62C61.57,85.59,63,75.9,52.9,66.3S44.46,48.55,44.46,48.55Z"/><path class="6c221711-1e86-4604-8022-184f5d8e641f" d="M58.26,21.56C54,21,47.33,25.1,43.47,32.17c0,0-.45-11.64,7.72-16,.29-.15,1.38,1.16,2.76,2.28C55.91,20,58.56,21.6,58.26,21.56Z"/><path class="6c221711-1e86-4604-8022-184f5d8e641f" d="M43,51.66s1,7.4,4.83,10.93c.5.46-.2,11.19-12.61,18.2C41.16,71.62,37.38,66.47,43,51.66Z"/><path class="6c221711-1e86-4604-8022-184f5d8e641f" d="M24.56,63.69c5.73-.07,16.76-8.9,16-7.57-1.79,3.19-2,9.3-2,9.3C32.6,68.19,24.56,63.69,24.56,63.69Z"/><path class="6c221711-1e86-4604-8022-184f5d8e641f" d="M41.09,54.36c1.52-.41-7.39,4.37-7.39,4.37a8.12,8.12,0,0,1-6.52-5.55C31.55,55.75,38.92,54.94,41.09,54.36Z"/><path class="93dc3e60-5375-40fb-93ff-dfcd923d9557" d="M65.65,27.71,71.94,34c-1.23,1.23-3.64.83-5.37-.91S64.42,28.95,65.65,27.71Z"/><path d="M77.77,34.06c-5.92-6.35-10.24-9.29-18.35-13.55-15.18-8-10.46-17-10.46-17C50,9.1,58.57,13.7,61.74,15.45c5.91,3.26,12.4,6.49,15.77,9.6C81.89,29.08,77.77,34.06,77.77,34.06Z"/><path d="M73.57,102c-2.76-1.29-5.43-.84-7.91-1,0,0,5-2.89,7.52-2C73.73,99.25,74.2,102.31,73.57,102Z"/><path d="M72,20.08s-5.92-3.35-11.67-6.52A7.94,7.94,0,0,1,58.05,2.5s.82,6.33,10.63,11.06A6,6,0,0,1,72,20.08Z"/><path d="M59.59,53.18C80.77,65.44,65.85,89.8,65.85,89.8c2-15.78-.25-25.21-10.2-31.22-15-9.08-10.38-20.49-10.38-20.49C46,42.72,49.67,47.43,59.59,53.18Z"/><path d="M73,98.54c-1.63-.34-3.2-.13-6.4,1.48.24-.2,3.55-3,2.5-6.88C68.57,91.3,74.21,98.8,73,98.54Z"/><path d="M73.57,106.77c-1.8-1.92-6.27-4-8.94-5.2,0,0,8,.12,9.26,1.35C74.15,103.18,74.67,107.95,73.57,106.77Z"/><path d="M71.38,111.86c-1.09-2.64-5.49-7.59-7.77-10,.22.07,7.39,2.44,9.83,6.1C74.08,109,72.08,113.53,71.38,111.86Z"/><path d="M66.11,115.33c.23-4.29-2.65-10-4-13.68.31.27,6.91,6.27,8.61,11.3C70.84,113.43,66,116.55,66.11,115.33Z"/><path d="M60.64,100.86s5.15,11.12,4.63,15c-.08.62-5.76,1.62-4.95-1C62.06,109.41,61.2,105.55,60.64,100.86Z"/><path d="M59.59,99.74s3.68,15.53-4.11,17.75c-.6.18-.74-3.68.51-6.08C57.43,108.64,58.22,104.46,59.59,99.74Z"/><path d="M59.16,22.19a64.86,64.86,0,0,1,8.24,4.75c5,3.38,12.24,10.11,13.89,11.45a53.2,53.2,0,0,0,14.15,8.49s-3,3.3-3.09,5.36c0,0-7.85-10.64-11.58-11.66-5.45-1.51-6,.81-10.8-1.42C65.85,37.23,57.12,31.06,59.16,22.19Zm6.49,5.52c-1.23,1.24-.82,3.64.92,5.38s4.14,2.14,5.37.91Z"/><path d="M76.83,70.07c-.94-15.78-5.4-19.38-19.64-30-6.84-5.11-5.49-13.88.31-17.52-.13.33-2.69,7,6.21,13.75C85.49,52.75,76.83,70.07,76.83,70.07Z"/><path d="M54,23.94s-9.24,9.53,4,18.35C86.69,61.33,71.77,80,71.77,80c.51-16,0-21.09-16.08-31C45.8,42.93,40,32,54,23.94Z"/><path d="M50,79.68c-2.57-9.09-1.12-15.61-1.12-15.61,4,5.15,11.4,9,10.89,22.3-.68,18-6.34,23.49-6.34,23.49C55,99.57,54.26,94.78,50,79.68Z"/><path d="M44.46,48.55c1.41,5.74,6.52,7.84,13.76,13.63,15.44,12.35,2,36.62,2,36.62C61.57,85.59,63,75.9,52.9,66.3S44.46,48.55,44.46,48.55Z"/><path d="M58.26,21.56C54,21,47.33,25.1,43.47,32.17c0,0-.45-11.64,7.72-16,.29-.15,1.38,1.16,2.76,2.28C55.91,20,58.56,21.6,58.26,21.56Z"/><path d="M43,51.66s1,7.4,4.83,10.93c.5.46-.2,11.19-12.61,18.2C41.16,71.62,37.38,66.47,43,51.66Z"/><path d="M24.56,63.69c5.73-.07,16.76-8.9,16-7.57-1.79,3.19-2,9.3-2,9.3C32.6,68.19,24.56,63.69,24.56,63.69Z"/><path d="M41.09,54.36c1.52-.41-7.39,4.37-7.39,4.37a8.12,8.12,0,0,1-6.52-5.55C31.55,55.75,38.92,54.94,41.09,54.36Z"/></svg>