<svg id="20196f56-8e9e-48b9-910f-17add11617da" data-name="レイヤー 1" xmlns="http://www.w3.org/2000/svg" width="120" height="120" viewBox="0 0 120 120"><defs><style>.\36 a926b07-171b-4ff1-8467-5cfc4998f90d{fill:none;}.d0969194-c968-43ad-b30a-194afbec356a{fill:#fff;}.\35 3bf616f-cb2f-4bc9-8658-51f69940348a{fill:#231815;}</style></defs><title>ico-konan</title><path class="6a926b07-171b-4ff1-8467-5cfc4998f90d" d="M55,75.19H57.8L55,73.11Z"/><path class="d0969194-c968-43ad-b30a-194afbec356a" d="M74.46,24.64H79V16.78H61.26v7.86h4.56V54.08l8.64-5.57Z"/><path class="d0969194-c968-43ad-b30a-194afbec356a" d="M35.8,77a4.2,4.2,0,0,1-4.4-3.77V24.64H36V16.78H18.2v7.86h4.56V80c0,5,5.34,5.66,5.34,5.66H42.66V77Z"/><path class="53bf616f-cb2f-4bc9-8658-51f69940348a" d="M99.58,44h2.22a1.78,1.78,0,0,0,1.78-1.78V34.07a1.78,1.78,0,0,0-1.78-1.78h-19A1.78,1.78,0,0,0,81,34.07v8.17a1.75,1.75,0,0,0,.86,1.49l-5.63,3.63V26.42H79a1.78,1.78,0,0,0,1.78-1.78V16.78A1.78,1.78,0,0,0,79,15H61.26a1.78,1.78,0,0,0-1.78,1.78v7.86a1.78,1.78,0,0,0,1.78,1.78H64V55.23L55,61V44h2.46a1.78,1.78,0,0,0,1.78-1.78V34.07a1.78,1.78,0,0,0-1.78-1.78H40a1.78,1.78,0,0,0-1.78,1.78v8.17A1.78,1.78,0,0,0,40,44h2.62V75.19H35.8a2.34,2.34,0,0,1-2.62-2.11V26.42H36a1.78,1.78,0,0,0,1.78-1.78V16.78A1.78,1.78,0,0,0,36,15H18.2a1.78,1.78,0,0,0-1.78,1.78v7.86a1.78,1.78,0,0,0,1.78,1.78H21V80c0,5.23,4.52,7.15,6.92,7.43H42.66v5.87H40A1.78,1.78,0,0,0,38.26,95v8.17A1.78,1.78,0,0,0,40,105H57.49a1.78,1.78,0,0,0,1.78-1.78V95a1.78,1.78,0,0,0-1.78-1.78H55V87.4h14.3a8.88,8.88,0,0,0,3.26-1.11l9.5,7.13A1.78,1.78,0,0,0,81,95v8.17A1.78,1.78,0,0,0,82.79,105h19a1.78,1.78,0,0,0,1.78-1.78V95a1.78,1.78,0,0,0-1.78-1.78h-1.4L76.24,75.14V59.08ZM61.26,24.64V16.78H79v7.86H74.46V48.51l-8.64,5.57V24.64Zm-33.16,61S22.75,85,22.75,80V24.64H18.2V16.78H36v7.86H31.4V73.2A4.2,4.2,0,0,0,35.8,77h6.86v8.64Zm44.53-1.53a6.59,6.59,0,0,1-1.64,1,7.52,7.52,0,0,1-1.87.54H55V77h6.39a5.32,5.32,0,0,0,1.47-.19,4.23,4.23,0,0,0,2.93-3.58V65.8l8.64-5.57V80A5.13,5.13,0,0,1,72.62,84.08ZM55,75.19V73.11l2.77,2.08ZM99.81,95h2v8.17h-19V95h4.45L74.08,85.17A6.9,6.9,0,0,0,76.24,80V77.37ZM74.46,58.11l-8.64,5.57L64,64.83l-2.42,1.56L64,68.21v4.87a2.34,2.34,0,0,1-2.62,2.11h-.65l-5.92-4.44-1.61,1V95h4.24v8.17H40V95h4.4V42.24H40V34.07H57.49v8.17H53.24V64.31l10.79-7,1.78-1.15,8.64-5.57,1.78-1.15,11.22-7.24H82.79V34.07h19v8.17H99.06L76.24,57Z"/><path class="d0969194-c968-43ad-b30a-194afbec356a" d="M65.82,65.8v7.4a4.23,4.23,0,0,1-2.93,3.58,5.32,5.32,0,0,1-1.47.19H55v8.64H69.12A7.52,7.52,0,0,0,71,85.08a6.59,6.59,0,0,0,1.64-1A5.13,5.13,0,0,0,74.46,80V60.23Z"/></svg>