<?xml version="1.0" encoding="utf-8"?>
<!-- Generator: Adobe Illustrator 22.1.0, SVG Export Plug-In . SVG Version: 6.00 Build 0)  -->
<svg version="1.1" id="ico-kyotofuritsu" xmlns="http://www.w3.org/2000/svg" xmlns:xlink="http://www.w3.org/1999/xlink" x="0px"
	 y="0px" viewBox="0 0 120 120" style="enable-background:new 0 0 120 120;" xml:space="preserve">
<style type="text/css">
	.st0{fill:#006730;}
	.st1{fill:#231815;}
	.st2{fill:#FFFFFF;}
</style>
<path class="st0" d="M60.32,62.87c-0.06-11.1-5.88-14.06-7.87-15.6c-0.78-0.6-1.38-1.18-1.53-2.49c-0.15-1.31,0.73-2.29,1.09-2.61
	c0.37-0.34,13.53-15.15,13.71-15.34c0.18-0.2,0.36-0.64,0.21-0.86c-0.15-0.2-0.5-0.06-0.78,0.04c-0.27,0.11-16.31,10.58-19.93,12.84
	c0,0,7.58-11.62,7.83-12.08c0.27-0.48,0.32-1,0.06-1.13c-0.27-0.12-0.73,0.07-1.17,0.49c-2.32,2.27-12.43,12.04-14.13,13.29
	c-3.33,2.46-11.43,6.12-13.81,7.26c-1,0.47-1.54,1.46-1.66,2.59c-0.12,1.12-0.21,1.76-0.6,4.65c-3.02,1.76-11.69,6.84-11.69,6.84
	c-1.07-0.07-2.43-0.16-2.9,0.16c-0.49,0.33-2.73,3.25-2.21,4.87c0.52,1.64,1.23,2.03,2.95,2.22c1.74,0.2,2.12,0.69,3,0.03
	c0.7-0.51,0.51-1.69,1.58-1.9c1.09-0.19,1.87,1.1,2.98,0.66c0.98-0.41,0.98-2.16,1.69-2.49c0.74-0.33,1.77,1.23,2.7,0.74
	c1.29-0.68,0.91-2.21,2.14-3.07c1.1-0.77,2.24,0.3,2.98-0.21c0.73-0.51,0.4-1.71,0.82-1.97c0.42-0.26,1.01,0.22,1.34-0.06
	c0.88-0.71-1.02-4.1-1.44-4.57c-0.43-0.47-0.17-1.07,0.6-1c0.99,0.08,2.07,0.55,2.5,1.4c0.16,0.3,0.03,0.89,1.07,1.15
	c0.84,0.22,2.79-0.03,4.05,2.61c0.43,0.9-0.29,1.31-0.8,1.21c-0.5-0.1-1.19-0.25-1.3-0.23c-0.11,0.01-0.69,0.38-0.88,0.43
	c-0.33-0.89-2.23-4.43-3.05-5.1c-0.45-0.38-0.87-0.38-0.69,0.35c0.16,0.71,1.38,6.07,0.66,6.5c-0.49,0.29-1.38-0.58-1.72-0.29
	c-0.58,0.5-0.27,1.94-0.67,2.19c-0.38,0.25-2.01-0.3-2.65,0.02c-1.1,0.54-1.04,1.93-2.21,2.41c-1.06,0.44-2.71-0.72-3.43-0.42
	c-1,0.4-0.51,2.05-1.07,2.24c-0.55,0.2-1.15,0.13-1.72,0.02c-0.72-0.14-1.15,0.17-1.24,0.74c-0.1,0.57,0.31,1.96,1.05,2.32
	c0.95,0.47,2.15,0.03,2.8-0.17c6.94-2.12,11.42-4.57,17.93-8.05c0.92-0.49,1.82-0.54,2.31-0.03c0.49,0.51,1.1,1.87,0.01,3.46
	c-2.42,3.56-11.06,16.81-13.34,19.84c-2.28,3.04-0.99,8.4,2.41,10.6c7.05,4.58,15.78,1.15,21.82-3.33
	C54.19,89.6,60.39,73.97,60.32,62.87z M8.79,66.52c-0.69-0.66-1.2-1.57-1.12-1.86c0.09-0.3,1.35-1.11,1.89-1.27
	C9.5,64.11,9.2,65.79,8.79,66.52z M27,52.01L25.89,50c0,0,2.96-1.41,4.26-1.97C29.94,48.6,28.24,50.88,27,52.01z"/>
<path class="st0" d="M90.07,11.73c4.43,9.75,4.08,30.96-9.42,44.53C72.21,64.72,66,67.87,61.44,69.29
	c-1.54,9.75-6.23,20.53-11.22,25.19l0.56-0.18c8.57-2.77,14.77-2.59,17.98-0.46c4.25,2.83,3.93,9.15,1.98,14.43
	c19.66-9.06,39.24-32.81,37.76-58.53C107.3,29.01,94.17,15.83,90.07,11.73z"/>
<path class="st0" d="M60.96,55.61c0.6,1.98,0.98,4.37,1,7.25c0.02,1.57-0.11,3.22-0.31,4.91c5.67-1.92,11.58-6.01,18.03-12.49
	c2.24-2.25,4.05-4.64,5.5-7.08c0.7-15.11-6.59-23.98-10.96-29.35c0.56,5.43,0.21,12.16-1.83,18.52
	C69.92,45.06,65.33,51.62,60.96,55.61z"/>
<path class="st1" d="M59.74,101.42c-0.23,0-0.44-0.04-0.65-0.12c-0.55-0.21-0.95-0.69-1.1-1.25c-1.27-5.24-5.81-7.76-14.3-7.92
	c-0.9-0.01-1.65-0.7-1.76-1.6c-0.09-0.9,0.49-1.73,1.38-1.94c2.52-0.6,6.19-1.24,10.93-1.9c-0.08-0.29-0.12-0.59-0.12-0.89
	c-0.09-0.03-0.19-0.06-0.3-0.1c-0.03-0.02-0.06-0.03-0.11-0.05c-0.5-0.23-0.92-0.62-1.26-1.14c-0.33-0.48-0.59-1.01-0.78-1.59
	c-0.11-0.29-0.21-0.6-0.27-0.92c-0.05,0.08-0.1,0.15-0.14,0.22c-0.75,1.19-1.6,2.53-2.71,3.6l-0.1,0.09
	c-0.22,0.21-0.55,0.52-1.07,0.72c-0.05,0.02-0.12,0.05-0.18,0.06c-0.28,0.07-0.57,0.11-0.87,0.11c-0.16,0-0.31-0.02-0.47-0.03
	c-0.05-0.01-0.1-0.02-0.15-0.03c-0.86-0.2-1.33-0.69-1.56-1.07c-0.53-0.84-0.32-1.72-0.25-2.02c0.04-0.2,0.18-0.72,0.39-1.11
	c0.26-0.52,0.45-1.31,0.63-2.07c0,0,0.09-0.38,0.13-0.53c0.12-0.66,0.11-1.52,0.1-2.34c-0.02-0.42-0.03-0.84-0.05-1.27
	c-0.02-0.43-0.02-0.86-0.04-1.33c-0.48,0.19-0.98,0.29-1.53,0.29c-0.1,0-0.21-0.01-0.33-0.01c-1.56-0.1-2.94-1.28-3.34-2.86
	c-0.21-0.71-0.24-1.49-0.13-2.27c0.08-0.78,0.32-1.37,0.53-1.85c0.59-1.29,1.6-2.47,2.7-3.15L43,65.13c0.39-0.24,0.99-0.6,1.72-0.64
	c0.02,0,0.1,0,0.12,0c0.37,0,0.73,0.09,1.07,0.26c0.02,0.02,0.05,0.03,0.07,0.05c0.37,0.22,0.68,0.52,0.87,0.91
	c0.04,0.04,0.06,0.1,0.09,0.15c0.12,0.31,0.19,0.64,0.19,0.99c0.08-0.1,0.16-0.21,0.24-0.32c0.19-0.24,0.38-0.49,0.58-0.72
	c0.24-0.3,0.93-1.05,1.79-1.46c0.08-0.03,0.16-0.07,0.24-0.09c0.12-0.04,0.4-0.12,0.77-0.12c0.76,0,1.44,0.37,1.86,1
	c0.17,0.28,0.3,0.57,0.38,0.86c0.01-0.01,0.02-0.04,0.03-0.05c0.29-0.47,0.68-0.79,1.14-0.96c0.15-0.05,0.3-0.08,0.46-0.09
	c0.06-0.01,0.11-0.01,0.17-0.01c0.45,0,0.89,0.14,1.27,0.41c0.02,0.01,0.04,0.03,0.06,0.04c0.38,0.3,0.73,0.66,1.05,1.06
	c0.14,0.19,0.48,0.67,0.72,1.27c0.08-0.16,0.17-0.33,0.25-0.49c0.32-0.58,1.34-2.31,1.92-3c0.18-0.23,0.46-0.53,0.66-0.72
	c0.35-0.38,0.79-0.63,1.27-0.72c0.08-0.02,0.17-0.03,0.24-0.03c0.04,0,0.11,0,0.15,0c0.6,0,1.17,0.22,1.62,0.67
	c0.06,0.05,0.12,0.11,0.16,0.16c0.22,0.28,0.38,0.58,0.48,0.9c0.08,0.26,0.13,0.53,0.13,0.82c0.01,0.07,0.01,0.13,0.01,0.2
	c0.04,0.69,0.09,1.6-0.82,2.83c-0.95,1.29-2.49,3.76-3.18,5.02c0.07-0.1,0.13-0.17,0.2-0.24c0.75-0.75,1.5-1.12,2.26-1.12
	c0.32,0,0.6,0.06,0.87,0.17c0.58-0.79,1.35-1.19,2.29-1.19c0.1,0,0.21,0.01,0.33,0.02c0.05,0,0.09,0,0.13,0.01
	c0.91,0.15,1.49,0.77,1.69,0.97c0.28,0.31,0.46,0.62,0.59,0.91c0.36-0.51,0.78-0.96,1.24-1.34c0.4-0.32,0.88-0.55,1.36-0.62
	l0.07-0.01c0.17-0.03,0.43-0.08,0.71-0.08c0.27,0,0.51,0.04,0.73,0.12c0.3,0.11,0.56,0.25,0.8,0.43c0.32-0.27,0.71-0.48,1.12-0.59
	c0.02-0.01,0.06-0.02,0.11-0.03c0.2-0.04,0.42-0.07,0.64-0.07c0.21,0,0.41,0.02,0.61,0.06l0.08,0.02c0.37,0.09,0.73,0.27,1.05,0.51
	c0.39,0.32,0.68,0.73,0.9,1.26c0.24-0.26,0.48-0.51,0.73-0.75c0.12-0.1,0.23-0.2,0.34-0.29c0.26-0.2,0.53-0.39,0.84-0.57
	c0.36-0.22,0.77-0.45,1.36-0.58c0.28-0.07,0.57-0.1,0.86-0.1c0.29,0,0.59,0.03,0.89,0.1c0.03,0.01,0.05,0.02,0.07,0.02
	c0.29,0.08,0.56,0.21,0.82,0.36c0.2-0.62,0.56-1.24,1.16-1.77c0.44-0.41,1.01-0.64,1.64-0.69c0.06,0,0.1,0,0.15,0
	c0.36,0,1.02,0.05,1.6,0.5c0.44,0.32,0.69,0.75,0.86,1.14c0.22-0.09,0.46-0.16,0.73-0.19c0.06-0.01,0.14-0.01,0.22-0.01
	c0.37,0,0.91,0.09,1.45,0.52c0.04,0.03,0.08,0.07,0.13,0.1c0.2,0.19,0.36,0.41,0.5,0.65c0.37-0.68,1.07-1.6,2.24-1.6
	c0.51,0,1,0.14,1.45,0.41c0.44,0.3,0.78,0.63,1.03,1.02c0.14-0.15,0.29-0.29,0.46-0.43c0.44-0.42,1.31-1.22,2.45-1.22
	c0.28,0,0.55,0.04,0.8,0.15c0.77,0.28,1.47,0.95,1.8,1.75c0.03,0.08,0.06,0.16,0.08,0.22c0.32-0.47,0.66-0.88,0.96-1.22
	c0.2-0.22,1.33-1.49,2.73-1.91c0.32-0.09,0.63-0.13,0.94-0.13c0.26,0,0.54,0.03,0.8,0.11c0.71,0.18,1.31,0.6,1.74,1.2
	c0.25,0.37,0.42,0.75,0.55,1.21c0.24,0.91,0.03,1.92-0.53,2.68c0.45-0.16,0.89-0.24,1.35-0.24c0.44,0,0.86,0.08,1.27,0.23
	c0.83,0.29,1.47,0.96,1.81,1.86c0.5,1.32,0.33,3.11-0.42,4.46c-0.93,1.67-1.92,3.03-6.12,5.33c-1.96,1.09-7.82,3.08-13.73,4.03
	c-6.2,0.99-12.5,2.91-15.54,3.83l-0.27,0.08c-5.41,1.65-14.18,5.71-18.03,8.36C60.46,101.3,60.1,101.42,59.74,101.42z M65.94,83.56
	c-0.34,0.55-0.86,1.2-1.45,1.86c1.29-0.15,2.55-0.28,3.79-0.41c-0.15-0.12-0.29-0.26-0.42-0.4c-0.38-0.44-0.67-1-0.86-1.63
	C66.65,83.2,66.29,83.4,65.94,83.56z M75.03,83.18c-0.37,0.4-0.86,0.85-1.41,1.27c0.88-0.09,2.89-0.29,3.07-0.31
	c-0.3-0.32-0.55-0.7-0.74-1.13C75.64,83.11,75.34,83.17,75.03,83.18z M84.46,82.61c-0.27,0.31-0.5,0.57-0.7,0.78
	c0.35-0.04,0.69-0.07,1.04-0.11C84.67,83.07,84.55,82.85,84.46,82.61z M58.19,81.19c0.35-0.15,0.73-0.29,1.11-0.4
	c0.01-0.01,0.02-0.01,0.04-0.02c-0.31-0.07-0.61-0.21-0.87-0.41c-0.03-0.03-0.06-0.05-0.1-0.07c-0.01,0.03-0.07,0.31-0.07,0.31
	C58.26,80.8,58.22,81,58.19,81.19z"/>
<path class="st2" d="M114.01,75.33c-0.24-0.66-0.69-1.12-1.27-1.33c-0.32-0.12-0.64-0.17-0.97-0.17c-1.26,0-2.29,0.81-3.04,1.57
	c-0.09-0.3-0.21-0.57-0.32-0.84c-0.11-0.27-0.21-0.52-0.29-0.78c-0.04-0.1-0.05-0.2-0.07-0.29c0.46,0,0.87-0.15,1.25-0.44
	c0.68-0.52,1-1.5,0.78-2.32c-0.1-0.35-0.23-0.66-0.41-0.93c-0.31-0.43-0.74-0.72-1.24-0.85c-0.19-0.06-0.39-0.08-0.58-0.08
	c-0.23,0-0.45,0.03-0.68,0.1c-1.17,0.35-2.19,1.49-2.33,1.65c-0.95,1.03-2.14,3.02-2.97,4.52c0.09-0.34,0.19-0.62,0.24-0.81
	l0.03-0.11c0.28-0.87,0.54-1.98,0.17-2.87c-0.24-0.57-0.74-1.06-1.27-1.25c-0.16-0.06-0.32-0.09-0.5-0.09
	c-0.74,0-1.34,0.52-1.86,0.98c-0.5,0.46-0.96,0.96-1.34,1.45c-0.09-0.43-0.24-0.85-0.44-1.17c-0.19-0.3-0.43-0.55-0.77-0.77
	c-0.3-0.19-0.63-0.29-0.97-0.29c-0.94,0-1.43,1.07-1.66,1.58c-0.36,0.76-0.91,1.81-1.49,2.86c0.15-0.5,0.27-1.07,0.34-1.79
	c0.04-0.27,0.08-0.6-0.01-0.97c-0.08-0.39-0.28-0.7-0.54-0.96c-0.01-0.02-0.03-0.04-0.06-0.05c-0.34-0.28-0.68-0.33-0.89-0.33
	c-0.06,0-0.1,0-0.15,0.01c-0.36,0.04-0.77,0.25-0.91,0.34c-0.19,0.13-0.38,0.22-0.52,0.29c-0.01-0.36-0.08-0.68-0.15-0.86
	c-0.14-0.33-0.3-0.67-0.63-0.91c-0.38-0.28-0.87-0.32-1.06-0.32c-0.02,0-0.06,0-0.09,0c-0.42,0.03-0.8,0.19-1.1,0.48
	c-0.98,0.84-1.15,2.05-1.13,3.17c-0.11-0.27-0.26-0.52-0.45-0.75c-0.01-0.01-0.01-0.02-0.02-0.03c-0.36-0.4-0.77-0.67-1.24-0.8
	c-0.01,0-0.02-0.01-0.03-0.01c-0.23-0.06-0.45-0.08-0.68-0.08c-0.22,0-0.44,0.02-0.65,0.08c-0.47,0.1-0.77,0.28-1.1,0.48
	c-0.28,0.16-0.51,0.33-0.73,0.5c-0.1,0.08-0.21,0.16-0.31,0.26c-0.74,0.69-1.38,1.51-1.93,2.32c0.05-0.66-0.01-1.22-0.17-1.73
	c-0.16-0.48-0.38-0.82-0.68-1.05c-0.22-0.17-0.46-0.29-0.72-0.35c-0.01-0.01-0.03-0.01-0.04-0.01c-0.14-0.02-0.28-0.04-0.43-0.04
	c-0.15,0-0.3,0.02-0.45,0.04c-0.01,0.01-0.03,0.01-0.04,0.01c-0.41,0.12-0.77,0.35-1.04,0.66c-0.12,0.12-0.24,0.25-0.34,0.4
	c-0.05-0.09-0.12-0.17-0.18-0.26c-0.01-0.01-0.01-0.02-0.02-0.03c-0.23-0.28-0.52-0.48-0.87-0.62c-0.13-0.04-0.28-0.06-0.44-0.06
	c-0.21,0-0.41,0.04-0.55,0.06l-0.07,0.02c-0.33,0.06-0.68,0.21-0.94,0.43c-0.61,0.5-1.13,1.14-1.54,1.9
	c-0.22,0.41-0.5,0.92-0.8,1.44c0.08-0.69,0.05-1.35-0.15-1.93c-0.1-0.33-0.26-0.7-0.57-1.04c-0.25-0.25-0.64-0.61-1.18-0.7
	c-0.03-0.01-0.05-0.01-0.07-0.01c-0.08-0.01-0.16-0.01-0.24-0.01c-0.97,0-1.45,0.6-1.73,1.06c-0.1,0.17-0.18,0.36-0.24,0.56
	c-0.14-0.17-0.32-0.33-0.6-0.47c-0.01-0.01-0.02-0.01-0.04-0.02c-0.16-0.07-0.35-0.11-0.54-0.11c-0.63,0-1.21,0.44-1.6,0.84
	c-0.17,0.18-0.41,0.54-0.89,1.25c-0.56,0.85-1.34,2.02-1.94,2.68c-0.27,0.31-0.39,0.7-0.35,1.09c0.03,0.38,0.24,0.73,0.54,0.96
	c0.25,0.18,0.53,0.28,0.82,0.28c0.32,0,0.64-0.13,0.88-0.36c-0.04,0.59-0.11,1.26-0.17,1.77c-0.31,0.09-0.66,0.21-0.97,0.31
	c-0.56,0.17-1.08,0.37-1.62,0.63c-0.19,0.1-0.36,0.21-0.5,0.29c-0.08,0.06-0.15,0.1-0.23,0.15c-0.01,0.01-0.02,0.01-0.04,0.02
	c-0.09,0.07-0.19,0.14-0.28,0.21c0.15-0.62,0.28-1.24,0.41-1.85c0.04-0.24,0.09-0.46,0.14-0.7l0.05-0.22c0.33-1.29,0.51-2,0.95-3.26
	c0.09-0.27,0.19-0.54,0.28-0.82c0.32-0.94,0.65-1.92,1.05-2.79c0.55-1.1,2.38-4.05,3.48-5.56c0.72-0.97,0.69-1.61,0.65-2.23
	c0-0.08-0.01-0.16-0.01-0.24c-0.01-0.21-0.04-0.4-0.1-0.59c-0.06-0.21-0.16-0.41-0.32-0.59c-0.03-0.03-0.05-0.06-0.07-0.09
	c-0.29-0.27-0.63-0.42-1-0.42c-0.02,0-0.06,0-0.08,0c-0.04,0.01-0.09,0.01-0.13,0.02c-0.3,0.07-0.58,0.22-0.81,0.47
	c-0.19,0.18-0.46,0.47-0.62,0.67c-0.5,0.6-1.47,2.21-1.81,2.85c-0.68,1.27-1.26,2.54-1.81,3.85c0.01-0.05,0.01-0.09,0.01-0.14
	c0.03-0.59,0.06-1.21,0.1-1.83c0-0.06,0.01-0.1,0.01-0.14c0.01-0.15,0.02-0.31,0.01-0.51c-0.05-0.84-0.66-1.7-0.79-1.87
	c-0.27-0.35-0.56-0.66-0.89-0.9c-0.01-0.01-0.02-0.01-0.03-0.02c-0.22-0.16-0.48-0.24-0.75-0.24c-0.03,0-0.07,0-0.1,0.01
	c-0.08,0-0.15,0.02-0.22,0.04c-0.42,0.14-0.62,0.47-0.69,0.57c-0.01,0.03-0.02,0.04-0.03,0.06c-0.28,0.53-0.73,1.76-0.9,2.28
	l-0.28,0.91c-0.17,0.55-0.35,1.13-0.54,1.71c-0.14,0.43-0.38,1.04-0.66,1.7l0,0c-0.1-1.03-0.34-3.77,0.01-4.6
	c0.1-0.25,0.2-0.4,0.33-0.61c0.08-0.14,0.17-0.27,0.25-0.42c0.19-0.32,0.25-0.68,0.19-1.03c-0.05-0.27-0.15-0.53-0.3-0.76
	c-0.26-0.39-0.66-0.61-1.11-0.61c-0.23,0-0.42,0.06-0.51,0.08c-0.03,0.02-0.08,0.03-0.11,0.05c-0.73,0.34-1.32,1.01-1.49,1.22
	c-0.18,0.23-0.36,0.46-0.55,0.69c-0.29,0.38-0.57,0.73-0.86,1.06c-0.52,0.58-0.92,0.96-1.52,1.27c-0.08,0.04-0.18,0.07-0.29,0.07
	h-0.04c-0.05,0-0.1-0.03-0.14-0.04c0,0-0.01-0.01-0.02-0.01c-0.17-0.38-0.02-0.73-0.02-0.74c0.19-0.46,0.29-0.56,0.61-0.86
	c0.25-0.24,0.43-0.66,0.43-0.97c0.01-0.22-0.04-0.43-0.13-0.64c-0.01-0.03-0.02-0.06-0.04-0.08c-0.12-0.24-0.32-0.42-0.54-0.56
	c-0.01-0.01-0.02-0.02-0.04-0.02c-0.21-0.11-0.42-0.17-0.65-0.17c-0.01,0-0.06,0-0.08,0c-0.5,0.02-0.94,0.3-1.3,0.51l-0.05,0.03
	c-0.96,0.58-1.85,1.61-2.36,2.75c-0.19,0.44-0.4,0.94-0.47,1.6c-0.1,0.66-0.05,1.33,0.12,1.93c0.31,1.22,1.36,2.12,2.54,2.18
	c0.09,0.01,0.18,0.01,0.26,0.01c0.85,0,1.54-0.28,2.27-0.91c0.05-0.04,0.1-0.08,0.15-0.12c-0.02,0.5-0.02,0.98,0,1.42
	c0.03,0.58,0.04,1.06,0.05,1.53c0.01,0.43,0.01,0.84,0.04,1.27c0.02,0.87,0.04,1.79-0.1,2.55c-0.04,0.18-0.1,0.37-0.14,0.55
	c-0.19,0.82-0.39,1.67-0.71,2.28c-0.17,0.31-0.29,0.8-0.32,0.9c-0.05,0.22-0.19,0.81,0.14,1.34c0.15,0.23,0.43,0.54,1,0.66
	c0.02,0,0.04,0.01,0.07,0.02c0.11,0.01,0.23,0.02,0.35,0.02c0.22,0,0.44-0.03,0.66-0.08c0.03,0,0.06-0.02,0.09-0.03
	c0.34-0.13,0.58-0.35,0.77-0.53l0.09-0.09c1.04-1,1.86-2.29,2.57-3.43c0.48-0.75,0.95-1.59,1.42-2.49c0.06,0.64,0.14,1.3,0.26,1.95
	c0.06,0.49,0.18,0.97,0.35,1.43c0.17,0.5,0.4,0.96,0.69,1.37c0.25,0.39,0.55,0.67,0.9,0.83c0.02,0,0.03,0.01,0.06,0.02
	c0.23,0.09,0.46,0.14,0.7,0.14c0.1,0,0.23-0.01,0.33-0.03c-0.07,0.19-0.12,0.38-0.15,0.58c-0.1,0.64,0.11,1.31,0.54,1.86
	c-4.7,0.64-9.04,1.32-12.08,2.05c-0.44,0.1-0.73,0.52-0.68,0.96c0.04,0.46,0.42,0.8,0.88,0.8c8.96,0.17,13.76,2.91,15.16,8.6
	c0.07,0.29,0.28,0.52,0.56,0.62c0.1,0.04,0.21,0.06,0.32,0.06c0.18,0,0.35-0.05,0.5-0.15c3.91-2.68,12.79-6.8,18.29-8.48l0.25-0.07
	c3.05-0.93,9.4-2.87,15.67-3.87c5.81-0.93,11.54-2.87,13.44-3.93c3.99-2.18,4.89-3.45,5.76-4.98
	C114.27,77.92,114.42,76.41,114.01,75.33z M59.28,85.15c-0.01,0.01-0.06,0.06-0.07,0.08c-0.28,0.35-0.57,0.53-0.87,0.54
	c0.03-0.09,0.08-0.18,0.15-0.28c0.15-0.22,0.29-0.38,0.44-0.5c0.21-0.17,0.47-0.32,0.76-0.44C59.59,84.75,59.45,84.95,59.28,85.15z
	 M80.71,84.62c-1.6,0.17-3.08,0.33-4.43,0.46l-0.09,0.01c-3.76,0.38-8.92,0.9-14.19,1.52c1.47-1.26,2.8-2.81,3.31-3.76
	c0.9-0.38,1.68-0.9,2.33-1.47c0.01,0.89,0.28,1.91,0.9,2.63c0.48,0.56,1.1,0.84,1.79,0.84c0.04,0,0.09,0,0.14,0
	c1.73-0.1,3.43-1.76,4.16-2.58c0.08,0,0.14,0.01,0.21,0.01c0.59,0,1.13-0.21,1.6-0.52c0.28,1.13,0.97,2.25,2.25,2.62
	c0.37,0.11,0.71,0.16,1.01,0.16c0.81,0,1.38-0.34,2.05-0.74c0.33-0.19,0.66-0.42,0.98-0.69c0.27-0.22,0.6-0.6,1.11-1.19l0.12-0.15
	c0.12-0.11,0.27-0.28,0.44-0.5l0.08-0.09c0.05-0.07,0.1-0.12,0.14-0.19c0.17-0.24,0.37-0.53,0.57-0.85
	c-0.06,0.29-0.09,0.64-0.1,1.08c-0.01,0.77,0.29,1.47,0.8,2.01c0.36,0.35,0.82,0.62,1.26,0.71C84.93,84.17,82.75,84.4,80.71,84.62z
	 M88.29,83.83c0.75-0.31,1.45-0.8,2.08-1.43c0.15-0.15,0.32-0.33,0.45-0.49c-0.01,0.48,0.11,0.89,0.35,1.22
	c0.12,0.16,0.26,0.29,0.42,0.4C90.49,83.63,89.38,83.73,88.29,83.83z M93.85,83.36c-0.06,0-0.11,0.01-0.18,0.01
	c0.49-0.32,0.93-0.81,1.28-1.45c0.15-0.23,0.43-0.73,0.77-1.33c0,0.25,0.02,0.49,0.07,0.73c0.07,0.46,0.23,0.87,0.47,1.21
	c0.01,0.03,0.03,0.03,0.04,0.06c0.19,0.23,0.4,0.39,0.6,0.51C95.9,83.19,94.88,83.27,93.85,83.36z M99.49,82.81
	c0.61-0.38,1.14-0.96,2.04-2.12c0.15,0.5,0.42,0.98,0.84,1.4c0.06,0.06,0.13,0.12,0.2,0.19C101.57,82.49,100.55,82.66,99.49,82.81z
	 M104.41,76.37c0.06-0.1,0.11-0.19,0.17-0.29c0,0.1,0,0.21,0,0.31C104.52,76.37,104.47,76.37,104.41,76.37z M110.88,77.7
	c-0.49,0.68-1.29,1.52-2.24,2.24c0.08-0.2,0.15-0.41,0.2-0.62c0.66-0.41,1.27-1.09,1.61-1.62c0.09-0.14,0.43-0.38,0.65-0.44
	C111.07,77.35,111.02,77.5,110.88,77.7z"/>
<path class="st1" d="M46.88,71.46l0.13,0.04c-0.14,0.91-0.24,2.31-0.19,3.24c0.06,1.11,0.04,1.87,0.1,2.83
	c0.02,0.92,0.04,1.9-0.13,2.77c-0.26,1.04-0.48,2.19-0.94,3.08c-0.08,0.13-0.17,0.45-0.22,0.66c-0.09,0.36-0.14,0.79,0.46,0.93
	c0.22,0.03,0.44,0.02,0.66-0.03c0.22-0.09,0.38-0.27,0.56-0.43c0.95-0.91,1.69-2.08,2.43-3.26c0.97-1.52,1.91-3.53,2.91-5.41h0.01
	c-0.03,1.72,0.12,3.5,0.39,5.21c0.06,0.46,0.17,0.88,0.32,1.28c0.14,0.42,0.34,0.81,0.58,1.18c0.16,0.24,0.34,0.41,0.54,0.51
	c0.24,0.09,0.46,0.1,0.68,0.01c0.14-0.08,0.28-0.19,0.4-0.33c0.11-0.13,0.22-0.3,0.3-0.51c0.3-0.97,0.47-1.97,0.68-3.01
	c0.37-1.44,0.55-2.19,1.03-3.58c0.43-1.21,0.83-2.5,1.38-3.71c0.57-1.15,2.41-4.12,3.56-5.69c0.6-0.82,0.48-1.21,0.46-1.91
	c0-0.13-0.02-0.24-0.06-0.35c-0.03-0.1-0.08-0.2-0.16-0.3c-0.13-0.11-0.25-0.17-0.41-0.17c-0.11,0.03-0.23,0.09-0.33,0.21
	c-0.17,0.17-0.42,0.43-0.58,0.63c-0.43,0.52-1.38,2.07-1.7,2.69c-1,1.91-1.83,3.78-2.62,5.96c-0.35,0.97-0.49,1.47-0.79,2.46
	l-0.11-0.01c-0.1-0.63-0.12-1.02-0.11-1.64c0.01-1.62,0.16-3.44,0.25-5.36c0-0.18,0.03-0.36,0.02-0.55
	c-0.04-0.53-0.49-1.2-0.61-1.38c-0.22-0.29-0.46-0.53-0.72-0.73c-0.1-0.06-0.18-0.09-0.27-0.09c-0.09,0.03-0.15,0.11-0.21,0.2
	c-0.23,0.46-0.68,1.6-0.84,2.13c-0.26,0.83-0.52,1.71-0.82,2.61c-0.4,1.3-1.96,4.69-2.38,5.17l-0.02-0.01
	c0.17-0.95,0.12-2.03,0.06-2.98c-0.06-0.95-0.49-4.44,0.01-5.69c0.2-0.49,0.39-0.71,0.64-1.13c0.08-0.14,0.11-0.3,0.07-0.44
	c-0.01-0.15-0.07-0.29-0.15-0.41c-0.19-0.3-0.5-0.19-0.61-0.16c-0.42,0.2-0.88,0.6-1.18,0.98c-0.48,0.59-0.94,1.22-1.44,1.77
	c-0.6,0.68-1.07,1.11-1.8,1.48c-0.22,0.11-0.45,0.16-0.69,0.16c-0.23,0.01-0.45-0.06-0.66-0.17c-0.12-0.07-0.26-0.23-0.32-0.35
	c-0.32-0.67-0.15-1.29-0.06-1.51c0.26-0.62,0.45-0.81,0.82-1.16c0.06-0.06,0.15-0.26,0.15-0.34c0-0.09-0.02-0.18-0.05-0.27
	c-0.05-0.09-0.12-0.16-0.21-0.22c-0.09-0.04-0.18-0.07-0.27-0.06c-0.3,0.02-0.65,0.24-0.93,0.41c-0.78,0.47-1.55,1.35-2.01,2.35
	c-0.21,0.44-0.34,0.84-0.4,1.36c-0.08,0.55-0.05,1.07,0.09,1.58c0.19,0.75,0.86,1.46,1.74,1.51c0.73,0.05,1.27-0.15,1.89-0.68
	C45.65,72.44,46.36,71.84,46.88,71.46z"/>
<path class="st1" d="M112.44,74.84c-1.93-0.71-3.6,1.91-4.14,2.31c-0.04,0.03-0.1,0.05-0.14,0.08c-0.02-0.37-0.07-0.71-0.12-0.97
	c-0.17-0.77-0.53-1.47-0.77-2.18c-0.07-0.17-0.1-0.35-0.12-0.53c-0.01-0.19,0-0.37,0.05-0.53c0.05-0.13,0.08-0.23,0.15-0.3
	c0.06-0.07,0.13-0.2,0.25-0.19c0.41,0.11,0.76,0.11,1.14-0.19c0.39-0.3,0.59-0.92,0.46-1.38c-0.07-0.27-0.16-0.48-0.27-0.64
	c-0.19-0.26-0.43-0.43-0.74-0.51c-0.26-0.07-0.5-0.06-0.77,0.01c-0.81,0.24-1.65,1.08-1.92,1.4c-1.41,1.54-3.54,5.63-3.88,6.15
	c-0.28,0.43-0.54,0.75-0.78,1v0.03c-0.27,0.29-0.55,0.54-0.74,0.56c-0.08,0.01-0.12-0.07-0.17-0.11c-0.04-0.05-0.08-0.14-0.1-0.28
	c-0.01-0.17,0.02-0.33,0.06-0.49c0.28-0.82,1.14-3.24,1.35-3.99c0.09-0.3,0.57-1.59,0.23-2.39c-0.15-0.34-0.47-0.64-0.77-0.76
	c-0.45-0.17-1.07,0.37-1.43,0.73c-0.48,0.43-0.93,0.91-1.33,1.45c-0.5,0.63-0.95,1.25-1.47,1.91L96.46,75
	c0.14-0.37,0.25-2.34-0.33-3.25c-0.14-0.21-0.31-0.37-0.49-0.49c-0.16-0.09-0.32-0.14-0.48-0.14c-0.36,0-0.72,0.74-0.85,1.05
	c-1.02,2.18-3.62,6.63-3.98,7.03c-0.19,0.22-0.32,0.25-0.38,0.18c-0.11-0.15-0.04-0.73,0.05-1.19c0.24-1.32,0.6-2.16,0.9-3
	c0.24-0.71,0.46-1.41,0.57-2.41c0.03-0.23,0.05-0.45,0-0.68c-0.05-0.23-0.15-0.4-0.28-0.52c-0.13-0.11-0.25-0.14-0.39-0.13
	c-0.12,0.01-0.39,0.13-0.5,0.2c-0.62,0.42-1.15,0.55-1.36,0.58c-0.25,0.03-0.48,0-0.69-0.1V72.1c0.13-0.11,0.22-1.05,0.07-1.42
	c-0.1-0.22-0.19-0.42-0.35-0.53c-0.14-0.11-0.39-0.14-0.57-0.13c-0.2,0.01-0.4,0.09-0.55,0.24c-0.75,0.63-0.88,1.61-0.8,2.86
	c0.04,0.36,0.29,0.35,0.42,0.68c-0.34,1.14-2.1,4.06-2.91,5.32l0,0c0,0.01-0.01,0.01-0.01,0.02c-0.1,0.17-0.19,0.3-0.26,0.39
	c-0.48,0.67-1.21,1.39-1.58,1.62c-0.21,0.14-0.43,0.23-0.66,0.24c-0.17,0.01-0.33-0.04-0.48-0.15c-0.12-0.11-0.22-0.26-0.29-0.42
	c-0.05-0.16-0.09-0.22-0.1-0.38c-0.01-0.15-0.01-0.3,0.01-0.44c1.26-0.36,3.07-2.63,3.34-3c0.23-0.32,0.42-0.66,0.59-1.04
	c0.18-0.38,0.3-0.78,0.36-1.22c0.06-0.39,0.05-0.77-0.04-1.18c-0.09-0.37-0.25-0.69-0.48-0.98c-0.23-0.26-0.5-0.44-0.82-0.54
	c-0.3-0.07-0.6-0.08-0.9,0.01c-0.33,0.07-0.55,0.19-0.86,0.38c-0.22,0.12-0.43,0.27-0.62,0.42c-0.09,0.07-0.17,0.15-0.26,0.22
	c-1.74,1.6-2.93,4.07-3.57,5.28c-0.41,0.78-1.16,1.28-1.46,1.14l-0.01-0.02c0.51-0.89,0.68-1.42,1.03-2.36
	c0.5-1.47,0.75-2.84,0.44-3.81c-0.11-0.32-0.25-0.53-0.39-0.64c-0.11-0.08-0.25-0.16-0.39-0.19c-0.17-0.04-0.33-0.04-0.49,0
	c-0.23,0.06-0.45,0.19-0.64,0.4c-0.15,0.17-0.31,0.37-0.45,0.58c-0.47,0.7-0.83,1.81-1.11,2.69c-0.15,0.42-0.24,0.82-0.3,1.23
	c-0.05,0.43-0.09,1.03-0.04,1.47c0.03,0.26,0.1,0.51,0.17,0.78c0.07,0.25,0.11,0.51,0.24,0.73c-0.27,0.5-0.81,0.96-1.21,1.35
	c-0.15,0.13-0.34,0.19-0.53,0.19c-0.1-0.01-0.18-0.06-0.27-0.14c-0.07-0.08-0.13-0.19-0.16-0.33c-0.17-0.61,0.96-3.2,1.3-4.27
	c0.35-1.1,0.9-2.87,0.81-3.48c-0.05-0.28-0.17-0.52-0.34-0.74c-0.12-0.15-0.28-0.26-0.46-0.33c-0.15-0.06-0.47,0.02-0.64,0.05
	c-0.16,0.02-0.35,0.1-0.51,0.24c-0.53,0.43-0.97,0.98-1.32,1.63c-0.41,0.75-0.83,1.5-1.26,2.23c-0.47,0.73-0.95,1.44-1.42,2.11
	c-0.49,0.65-0.98,1.17-1.47,1.59l-0.15,0.04v-0.2c0.29-0.37,2.42-4.36,1.72-6.42c-0.09-0.26-0.19-0.5-0.36-0.69
	c-0.19-0.2-0.42-0.4-0.69-0.44c-0.51-0.05-0.81,0.11-1.13,0.62c-0.21,0.37-0.28,0.9-0.19,1.31c0.11,0.44,0.54,1.47,0.41,2.29
	c-0.26,1.65-0.88,4.45-1.82,4.51c0.08-0.51,0.51-3.76,0.5-5.2c0-0.54-0.08-1.09-0.25-1.62c-0.06-0.19-0.15-0.36-0.27-0.53
	c-0.11-0.15-0.19-0.25-0.41-0.35c-0.39-0.18-0.95,0.35-1.11,0.52c-0.35,0.37-1.78,2.76-2.81,3.91c-0.23,0.27-0.14,0.59,0.05,0.72
	c0.19,0.15,0.42,0.17,0.59-0.04c0.28-0.35,0.61-0.79,0.99-1.06c0.03-0.03,0.15-0.11,0.2-0.11c0.04,0,0.08,0,0.1,0.01
	c0.04,0.03,0.21,0.15,0.23,0.64c0.04,0.31-0.15,2.87-0.3,3.68c-0.43,0.11-1.09,0.33-1.52,0.46c-0.51,0.15-1.01,0.35-1.47,0.58
	c-0.26,0.13-0.46,0.29-0.69,0.42c-0.6,0.38-1.07,0.82-1.4,1.36c-0.17,0.26-0.28,0.55-0.32,0.82c-0.15,1.04,1.01,2.17,2.39,2.02
	c2.1-0.22,6.01-4.48,6.33-5.56c2.52-0.92,4.07-3.2,4.81-4.28l0.03,0.02c-0.17,0.35-0.88,2.52-0.92,2.93
	c-0.19,1.27,0.39,3.24,1.85,3.15c1.65-0.1,3.6-2.27,3.88-2.66h0.01c1.18,0.39,2.15-0.59,2.89-1.5l0.02,0.06
	c-0.18,0.99,0.13,3.2,1.72,3.66c1.03,0.29,1.47,0.05,2.38-0.49c0.28-0.17,0.59-0.37,0.87-0.61c0.25-0.2,0.7-0.73,1.16-1.25
	c0.09-0.1,0.23-0.25,0.38-0.46c0.03-0.05,0.07-0.09,0.11-0.13v-0.02c1.11-1.5,3.19-5.07,3.52-6.03c0.15-0.46,0.31-0.47,0.56-0.34
	c0.25,0.13,0.49,0.81,0.24,1.29c-0.25,0.48-1.48,2.89-1.79,3.92c-0.13,0.44-0.34,0.86-0.35,1.81c-0.01,1.3,1.14,1.99,1.76,1.85
	c0.69-0.26,1.36-0.69,1.98-1.33c0.21-0.19,0.46-0.48,0.68-0.74l0,0l0,0c0.13-0.17,0.25-0.33,0.34-0.45v-0.01
	c0.89-1.26,1.99-3.23,2.3-3.82c0.03-0.06,0.06-0.1,0.09-0.13c0.03-0.04,0.06-0.05,0.11-0.04c0.03,0.04,0.04,0.07,0.04,0.1
	c0,0.1-0.02,0.17-0.03,0.22c-0.43,1.27-0.91,2.7-1.35,4.03c-0.51,1.53,0.08,1.99,0.52,1.96c0.65-0.04,1.29-0.59,1.73-1.41
	c0.38-0.61,2.17-3.79,2.66-4.67c0.25-0.46,0.58-1,0.89-1.4c0.03-0.06,0.07-0.08,0.12-0.1c0.06-0.02,0.11-0.03,0.15-0.01
	c0.04,0.03,0.08,0.06,0.1,0.09c0.04,0.08,0.05,0.15,0.04,0.22c-0.01,0.11-0.03,0.21-0.07,0.29c-0.19,0.45-0.41,1.03-0.57,1.48
	c-0.3,0.8-0.56,1.61-0.75,2.45c-0.11,0.45-0.14,0.92-0.06,1.38c0.05,0.34,0.17,0.62,0.32,0.83c0.24,0.28,0.5,0.42,0.82,0.41
	c0.28,0,0.55-0.06,0.78-0.16c0.66-0.29,1.13-0.68,2.28-2.18l0,0c0.07-0.07,0.26-0.32,0.5-0.65c0.15-0.21,0.31-0.42,0.48-0.66v-0.04
	c0.67-0.99,1.44-2.17,1.5-2.26c0.24-0.47,0.49-0.93,0.78-1.37c0.3-0.53,0.79-1.3,1.16-1.69l0.04,0.02c0.06,0.57,0.22,2.48,0.12,3.97
	c-0.34-0.05-0.66-0.09-0.94-0.13c-1.12-0.14-1.83,0.59-2.06,1.22c-0.23,0.63-0.4,1.97,0.57,2.96c0.98,0.99,2.74,0.83,4.04-0.59
	c0.58-0.63,0.88-1.4,1.03-2.17c0.02-0.01,0.07-0.02,0.1-0.03c0.59-0.27,1.23-0.96,1.52-1.43c0.29-0.48,1.29-1.14,1.88-0.79
	c0.59,0.35,0.53,1.08,0.03,1.78c-0.84,1.16-2.6,2.94-4.73,3.75c-3.82,1.45-7.96,1.88-12.96,2.27c-6.26,0.48-12.72,1.25-17.54,1.74
	c-8.72,0.87-24.96,2.51-32.65,4.35c6.7,0.13,14.14,1.58,16.02,9.29c4.09-2.8,13.08-6.93,18.53-8.59c2.82-0.86,9.52-2.94,16.04-3.97
	c5.68-0.9,11.31-2.8,13.15-3.81c4-2.21,4.71-3.39,5.4-4.64C113.55,77.35,113.55,75.24,112.44,74.84z M81.12,76.63
	c0.13-0.37,0.3-0.71,0.46-1.04c0.07-0.14,0.13-0.28,0.21-0.41c0.1-0.22,0.23-0.44,0.37-0.65c0.11-0.17,0.22-0.3,0.35-0.42
	c0.07-0.06,0.13-0.08,0.19-0.08c0.26,0.03,0.25,0.3,0.24,0.64c-0.03,0.29-0.11,0.56-0.21,0.81c-0.24,0.55-0.52,1.03-0.86,1.45
	c-0.04,0.04-0.08,0.1-0.12,0.15C81.21,77.74,80.84,77.45,81.12,76.63z M59.93,85.76c-0.01,0-0.01,0.01-0.02,0.03
	c-0.92,1.14-1.87,0.85-2.03,0.82c-0.12-0.02-0.21-0.08-0.28-0.17c-0.06-0.07-0.12-0.18-0.16-0.32c-0.02-0.12-0.03-0.25-0.01-0.39
	c0.05-0.25,0.16-0.49,0.33-0.75c0.21-0.28,0.4-0.51,0.62-0.68c0.7-0.58,1.79-0.91,2.75-1.17l0.02,0.02
	C60.84,83.99,60.71,84.92,59.93,85.76z M105.22,78.73c-0.42,1.36-1.13,1.35-1.35,1.05c-0.23-0.3-0.41-0.95,0.21-1.09
	c0.3-0.08,0.7-0.05,1.16-0.02C105.24,78.69,105.24,78.71,105.22,78.73z"/>
</svg>
