<svg id="3656de57-722a-4c74-bbf9-786fe064e0cf" data-name="レイヤー 1" xmlns="http://www.w3.org/2000/svg" width="120" height="120" viewBox="0 0 120 120"><title>ico-ryukoku</title><path d="M33.7,58.73s8.92-4.78,7.4-4.37c-2.17.58-9.54,1.39-13.91-1.18A8.13,8.13,0,0,0,33.7,58.73Z"/><path d="M38.58,65.42s.19-6.11,2-9.3c.75-1.33-10.28,7.5-16,7.56C24.56,63.68,32.6,68.19,38.58,65.42Z"/><path d="M59.42,20.51c8.11,4.26,12.43,7.2,18.35,13.55,0,0,4.12-5-.26-9-3.38-3.11-9.86-6.35-15.78-9.6C58.57,13.7,50,9.1,49,3.53,49,3.53,44.24,12.53,59.42,20.51Z"/><path d="M60.36,13.56C66.11,16.73,72,20.08,72,20.08a6,6,0,0,0-3.34-6.52C58.87,8.83,58,2.5,58,2.5A7.93,7.93,0,0,0,60.36,13.56Z"/><path d="M43.47,32.17C47.33,25.1,54,21,58.26,21.56c.3,0-2.35-1.57-4.31-3.15-1.38-1.12-2.48-2.43-2.77-2.27C43,20.53,43.47,32.17,43.47,32.17Z"/><path d="M57.19,40.06c14.23,10.63,18.69,14.23,19.64,30,0,0,8.66-17.32-13.12-33.79-9.11-6.89-6.2-13.76-6.2-13.76C51.7,26.17,50.35,34.95,57.19,40.06Z"/><path d="M55.69,49c16.08,9.9,16.59,15,16.08,31,0,0,14.92-18.69-13.72-37.73-13.27-8.82-4-18.35-4-18.35C40,32,45.8,42.92,55.69,49Z"/><path d="M55.65,58.58c9.95,6,12.18,15.44,10.2,31.21,0,0,14.92-24.35-6.26-36.62C49.67,47.43,46,42.72,45.27,38.09,45.27,38.09,40.6,49.5,55.65,58.58Z"/><path d="M52.9,66.3C63,75.9,61.57,85.59,60.19,98.8c0,0,13.46-24.27-2-36.62C51,56.39,45.87,54.29,44.46,48.55,44.46,48.55,42.83,56.74,52.9,66.3Z"/><path d="M50,79.68c4.28,15.1,5,19.9,3.43,30.19,0,0,5.66-5.49,6.35-23.5.51-13.3-6.86-17.15-10.89-22.3C48.87,64.07,47.42,70.59,50,79.68Z"/><path d="M56,111.4c-1.25,2.41-1.11,6.26-.51,6.09,7.79-2.23,4.11-17.75,4.11-17.75C58.22,104.46,57.43,108.64,56,111.4Z"/><path d="M60.32,114.94c-.81,2.59,4.87,1.58,5,1,.51-3.92-4.63-15-4.63-15C61.2,105.55,62.06,109.41,60.32,114.94Z"/><path d="M66.11,115.33c-.07,1.22,4.73-1.9,4.56-2.38-1.74-5.15-8.62-11.32-8.62-11.32C63.45,105.36,66.34,111,66.11,115.33Z"/><path d="M71.38,111.86c.7,1.67,2.7-2.89,2.06-3.86-2.48-3.72-9.84-6.11-9.84-6.11C65.88,104.26,70.29,109.22,71.38,111.86Z"/><path d="M73.57,106.77c1.1,1.18.58-3.6.32-3.86-1.22-1.22-9.26-1.35-9.26-1.35C67.3,102.75,71.77,104.85,73.57,106.77Z"/><path d="M73.57,102c.63.29.15-2.76-.39-3-2.51-.9-7.52,2-7.52,2C68.14,101.18,70.81,100.73,73.57,102Z"/><path d="M73,98.54c1.24.26-4.41-7.24-3.9-5.4,1.09,4-2.51,6.88-2.51,6.88C69.77,98.41,71.34,98.2,73,98.54Z"/><path d="M43,51.66c-5.64,14.81-1.86,20-7.78,29.13,12.41-7,13.11-17.74,12.61-18.2C44,59.05,43,51.66,43,51.66Z"/><path d="M81.29,38.39c-1.65-1.34-8.9-8.07-13.89-11.45a66,66,0,0,0-8.23-4.76c-2.06,8.88,6.69,15,10.81,17,4.76,2.23,5.35-.09,10.8,1.42,3.73,1,11.58,11.66,11.58,11.66.13-2.06,3.09-5.36,3.09-5.36A53,53,0,0,1,81.29,38.39Zm-14.72-5.3c-1.74-1.74-2.15-4.14-.91-5.38L71.94,34C70.71,35.23,68.3,34.83,66.57,33.09Z"/></svg>