<svg id="7a9b66d2-fee7-4720-94e2-cc8e3ff79017" data-name="レイヤー 1" xmlns="http://www.w3.org/2000/svg" width="120" height="120" viewBox="0 0 120 120"><defs><style>.\38 7936678-5510-47fc-9348-5eb642cbc9ed{fill:none;stroke:#fff;stroke-linecap:round;stroke-linejoin:round;stroke-width:4px;}.\35 6eda271-149d-4d49-a4cd-a2f968a41359{fill:#0e3407;}.\38 cb27144-851a-4979-bf59-c08c2500f935{fill:#fff;}</style></defs><title>ico-kyoto</title><polygon class="87936678-5510-47fc-9348-5eb642cbc9ed" points="107.9 54.75 115 35.61 100.48 20.15 62.67 20.71 13.32 47.78 29.5 47.78 10.96 61.33 24.46 61.33 5 75 24.42 75 20.98 84.47 34.17 99.85 72.94 99.85 96.44 85.27 106.47 58.96 68.47 58.96 63.57 73.42 73.24 73.42 71.72 77.37 51.56 77.37 63.87 43.44 83.87 43.44 80.19 54.75 107.9 54.75"/><polygon class="87936678-5510-47fc-9348-5eb642cbc9ed" points="106.62 52.91 112.88 36.04 99.69 22 63.15 22.54 20.5 45.94 35.15 45.94 16.61 59.48 30.28 59.48 10.82 73.16 27.04 73.16 23.08 84.08 35.02 98.01 72.42 98.01 94.94 84.04 103.8 60.8 69.79 60.8 66.14 71.58 75.92 71.58 72.98 79.21 48.94 79.21 62.58 41.6 86.41 41.6 82.73 52.91 106.62 52.91"/><polygon class="87936678-5510-47fc-9348-5eb642cbc9ed" points="63.5 23.85 25.63 44.63 39.17 44.63 20.63 58.17 34.44 58.17 14.98 71.84 28.92 71.84 24.58 83.81 35.62 96.7 72.05 96.7 93.87 83.15 101.89 62.11 70.73 62.11 67.97 70.27 77.83 70.27 73.89 80.52 47.06 80.52 61.66 40.29 88.22 40.29 84.54 51.59 105.71 51.59 111.36 36.34 99.13 23.32 63.5 23.85"/><polygon class="87936678-5510-47fc-9348-5eb642cbc9ed" points="63.5 23.85 25.63 44.63 39.17 44.63 20.63 58.17 34.44 58.17 14.98 71.84 28.92 71.84 24.58 83.81 35.62 96.7 72.05 96.7 93.87 83.15 101.89 62.11 70.73 62.11 67.97 70.27 77.83 70.27 73.89 80.52 47.06 80.52 61.66 40.29 88.22 40.29 84.54 51.59 105.71 51.59 111.36 36.34 99.13 23.32 63.5 23.85"/><polygon class="56eda271-149d-4d49-a4cd-a2f968a41359" points="107.9 54.75 115 35.61 100.48 20.15 62.67 20.71 13.32 47.78 29.5 47.78 10.96 61.33 24.46 61.33 5 75 24.42 75 20.98 84.47 34.17 99.85 72.94 99.85 96.44 85.27 106.47 58.96 68.47 58.96 63.57 73.42 73.24 73.42 71.72 77.37 51.56 77.37 63.87 43.44 83.87 43.44 80.19 54.75 107.9 54.75"/><polygon class="8cb27144-851a-4979-bf59-c08c2500f935" points="106.62 52.91 112.88 36.04 99.69 22 63.15 22.54 20.5 45.94 35.15 45.94 16.61 59.48 30.28 59.48 10.82 73.16 27.04 73.16 23.08 84.08 35.02 98.01 72.42 98.01 94.94 84.04 103.8 60.8 69.79 60.8 66.14 71.58 75.92 71.58 72.98 79.21 48.94 79.21 62.58 41.6 86.41 41.6 82.73 52.91 106.62 52.91"/><polygon class="56eda271-149d-4d49-a4cd-a2f968a41359" points="63.5 23.85 25.63 44.63 39.17 44.63 20.63 58.17 34.44 58.17 14.98 71.84 28.92 71.84 24.58 83.81 35.62 96.7 72.05 96.7 93.87 83.15 101.89 62.11 70.73 62.11 67.97 70.27 77.83 70.27 73.89 80.52 47.06 80.52 61.66 40.29 88.22 40.29 84.54 51.59 105.71 51.59 111.36 36.34 99.13 23.32 63.5 23.85"/></svg>