<svg id="45f9fb31-cd1d-457a-936f-9e0103c1cd35" data-name="レイヤー 1" xmlns="http://www.w3.org/2000/svg" width="120" height="120" viewBox="0 0 120 120"><defs><style>.\33 49f2837-2567-4b00-9e59-dae4237bc7a3,.\37 ced3ee4-0908-45b9-a559-bd3d9bbd7d15{fill:none;}.\33 49f2837-2567-4b00-9e59-dae4237bc7a3{stroke:#fff;stroke-linecap:round;stroke-linejoin:round;stroke-width:4px;}.\39 a3b6e49-fbe5-4759-be7e-2d2d018d928f{fill:#fff;}.\35 ac7d5ca-3bb9-4303-8e86-43c8da459f64{fill:#fff000;}.dcd8ba73-c1bc-4706-bde1-e7d4a1d5044e{fill:#004097;}.\37 ced3ee4-0908-45b9-a559-bd3d9bbd7d15{stroke:#004097;stroke-width:0.12px;}</style></defs><title>ico-kg</title><path class="349f2837-2567-4b00-9e59-dae4237bc7a3" d="M57.23,34.66l1.36,1.72a16.23,16.23,0,0,0-4.65,6.49L44.87,64.6,34.49,52.68Z"/><path class="349f2837-2567-4b00-9e59-dae4237bc7a3" d="M96,50.53,89.83,65.7H77.55c-.62,2-4.53,7.66-12.51,7.66H36.59L27.28,62.41l-2,1.41-3.91,9.54H5L22,31.61H38.46l-1.72,4.22,5-4.22H92l-6.09,15H65.36l-5,12.2h4.54l3.28-8.29ZM87.87,62.72l3.6-9.06-21.38,0-3.29,8-11,0L63.17,43.8H83.88l3.91-9.38H64.1a8.81,8.81,0,0,0-5.51,2l-1.36-1.72.31-.24H42.84L29.35,44.86l4.42-10.44h-10L9.07,70.54h9.85l3.28-8.13,5.29-4.19L38.15,70.54H64c6.25,0,9.69-2.66,12-7.82Z"/><path class="349f2837-2567-4b00-9e59-dae4237bc7a3" d="M99.19,20.3a45.11,45.11,0,1,1-68.7,56.32A45.1,45.1,0,0,0,99.19,20.3Z"/><path class="349f2837-2567-4b00-9e59-dae4237bc7a3" d="M91.47,53.66l-3.6,9.06H76c-2.35,5.16-5.79,7.82-12,7.82H38.15L27.49,58.22,22.2,62.41l-3.28,8.13H9.07L23.76,34.42h10L29.35,44.86,42.84,34.42h14.7l-.31.24-22.74,18L44.87,64.6l9.07-21.73a16.23,16.23,0,0,1,4.65-6.49,8.81,8.81,0,0,1,5.51-2H87.79L83.88,43.8H63.17L55.82,61.63l11,0,3.29-8Z"/><path class="349f2837-2567-4b00-9e59-dae4237bc7a3" d="M92,31.61H41.75l-5,4.22,1.72-4.22H22L5,73.36H21.42l3.91-9.54,2-1.41,9.31,10.95H65c8,0,11.89-5.63,12.51-7.66H89.83L96,50.53H68.17l-3.28,8.29H60.35l5-12.2H85.92Z"/><path class="9a3b6e49-fbe5-4759-be7e-2d2d018d928f" d="M57.23,34.66l1.36,1.72a16.23,16.23,0,0,0-4.65,6.49L44.87,64.6,34.49,52.68Z"/><path class="9a3b6e49-fbe5-4759-be7e-2d2d018d928f" d="M96,50.53,89.83,65.7H77.55c-.62,2-4.53,7.66-12.51,7.66H36.59L27.28,62.41l-2,1.41-3.91,9.54H5L22,31.61H38.46l-1.72,4.22,5-4.22H92l-6.09,15H65.36l-5,12.2h4.54l3.28-8.29ZM87.87,62.72l3.6-9.06-21.38,0-3.29,8-11,0L63.17,43.8H83.88l3.91-9.38H64.1a8.81,8.81,0,0,0-5.51,2l-1.36-1.72.31-.24H42.84L29.35,44.86l4.42-10.44h-10L9.07,70.54h9.85l3.28-8.13,5.29-4.19L38.15,70.54H64c6.25,0,9.69-2.66,12-7.82Z"/><path class="5ac7d5ca-3bb9-4303-8e86-43c8da459f64" d="M99.19,20.3a45.11,45.11,0,1,1-68.7,56.32A45.1,45.1,0,0,0,99.19,20.3Z"/><path class="dcd8ba73-c1bc-4706-bde1-e7d4a1d5044e" d="M91.47,53.66l-3.6,9.06H76c-2.35,5.16-5.79,7.82-12,7.82H38.15L27.49,58.22,22.2,62.41l-3.28,8.13H9.07L23.76,34.42h10L29.35,44.86,42.84,34.42h14.7l-.31.24-22.74,18L44.87,64.6l9.07-21.73a16.23,16.23,0,0,1,4.65-6.49,8.81,8.81,0,0,1,5.51-2H87.79L83.88,43.8H63.17L55.82,61.63l11,0,3.29-8Z"/><path class="7ced3ee4-0908-45b9-a559-bd3d9bbd7d15" d="M92,31.61H41.75l-5,4.22,1.72-4.22H22L5,73.36H21.42l3.91-9.54,2-1.41,9.31,10.95H65c8,0,11.89-5.63,12.51-7.66H89.83L96,50.53H68.17l-3.28,8.29H60.35l5-12.2H85.92Z"/></svg>