<?xml version="1.0" encoding="utf-8"?>
<!-- Generator: Adobe Illustrator 22.1.0, SVG Export Plug-In . SVG Version: 6.00 Build 0)  -->
<svg version="1.1" id="ico-kobegakuin" xmlns="http://www.w3.org/2000/svg" xmlns:xlink="http://www.w3.org/1999/xlink" x="0px"
	 y="0px" viewBox="0 0 120 120" style="enable-background:new 0 0 120 120;" xml:space="preserve">
<style type="text/css">
	.st0{fill:#151E49;}
</style>
<path class="st0" d="M59.6,67.36l1.92,3.63h22.05V23.44c0,0,4.04,0,4.89,0c0-3.03,0-7.64,0-10.68c-4.32,0-19.01,0-23.33,0
	c0,2.91,0,7.77,0,10.68c1,0,5.18,0,5.18,0v36.38l-1.16-2.23c-4.73,0-8.86,0-9.55,0C59.6,58.52,59.6,63.32,59.6,67.36z"/>
<path class="st0" d="M36.54,60.3V23.92l12.45,23.44l3.52-3.01h9.82L46.05,12.76c0,0-23.03,0-27.46,0c0,3.04,0,7.65,0,10.68
	c0.96,0,5.1,0,5.1,0V60.3c0,0-4.14,0-5.1,0c0,3.02,0,7.65,0,10.69c4.31,0,18.14,0,22.61,0V60.3C39.67,60.3,36.54,60.3,36.54,60.3z"
	/>
<path class="st0" d="M85.99,56.65c0,0,0,6.77,0,7.09c3.79,0,12.73,0,16.52,0c0-2.48,0-8.75,0-9.97c-1.36-1.2-8.23-7.25-9.64-8.49
	c-0.65,0-3.93,0-8.36,0c0,3.83,0,7.76,0,11.38H85.99z"/>
<path class="st0" d="M95.84,71.84c-2.37,0-37.19,0-37.19,0V56.65h10.7c0-3.35,0-7.34,0-11.38c-8.17,0-15.55,0-16.52,0
	c-1.43,1.23-9.27,7.94-10.7,9.17c0,1.8,0,19.5,0,21.23c1.24,1.15,6.36,5.77,7.71,6.99c2.33,0,36.13,0,36.13,0v14.4H58.66
	c0,0,0-6.26,0-7.53c-3.79,0-12.72,0-16.52,0c0,2.67,0,8.39,0,9.7c1.43,1.23,9.27,7.93,10.7,9.16c2.22,0,37.17,0,39.38,0
	c1.44-1.24,9.25-7.95,10.68-9.18c0-1.86,0-19.11,0-20.88C101.71,77.24,97.16,73.05,95.84,71.84z"/>
</svg>
