<?xml version="1.0" encoding="utf-8"?>
<!-- Generator: Adobe Illustrator 22.1.0, SVG Export Plug-In . SVG Version: 6.00 Build 0)  -->
<svg version="1.1" id="ico-ohsaka" xmlns="http://www.w3.org/2000/svg" xmlns:xlink="http://www.w3.org/1999/xlink" x="0px" y="0px"
	 viewBox="0 0 120 120" style="enable-background:new 0 0 120 120;" xml:space="preserve">
<style type="text/css">
	.st0{fill:#FFFFFF;}
</style>
<path class="st0" d="M92.79,43.87c-3.78,0-7.55,0-11.33,0c0.08,15.45,0.16,30.9,0.24,46.36c-1.58,1.8-3.16,3.59-4.75,5.39
	c-5.25,0.03-10.5,0.05-15.75,0.09c-1.58-1.72-3.16-3.44-4.74-5.15c0-2.68,0-5.36,0-8.03c2.3,0,4.61,0,6.91,0
	c3.8-4.24,7.6-8.46,11.41-12.71c-0.08-14.99-0.16-30-0.24-45c-3.83-4.21-7.66-8.41-11.49-12.62c-8.33,0.06-16.67,0.11-25,0.16
	c-3.72,4.23-7.45,8.46-11.17,12.7c0.08,14.97,0.16,29.95,0.24,44.93c2.49,2.78,4.99,5.56,7.47,8.35c1.16,1.32,2.44,3.52,4.02,4.34
	c2.12-0.03,4.23-0.05,6.35-0.09c0.05,4.4,0.11,8.79,0.15,13.19c3.8,4.2,7.61,8.41,11.41,12.61c8.36-0.06,16.72-0.11,25.07-0.16
	c3.83-4.27,7.66-8.52,11.5-12.78C93,78.26,92.89,61.05,92.79,43.87z M44.97,44.1c0,8.6,0,17.2,0,25.79
	c-0.62,0.02-1.23,0.05-1.85,0.09c-1.6-1.74-3.22-3.49-4.82-5.22c-0.08-11.47-0.16-22.94-0.24-34.4c1.6-1.82,3.21-3.64,4.82-5.47
	c2.89-0.03,5.79-0.06,8.68-0.08c2.3,0,4.6,0,6.91,0c1.54,1.74,3.1,3.48,4.66,5.22c0.08,11.52,0.16,23.04,0.24,34.55
	c-1.58,1.78-3.16,3.54-4.74,5.31c-0.72,0-1.45,0-2.17,0c-0.08-8.62-0.16-17.25-0.24-25.87C52.47,44.04,48.72,44.06,44.97,44.1z"/>
</svg>
