<?xml version="1.0" encoding="utf-8"?>
<!-- Generator: Adobe Illustrator 22.1.0, SVG Export Plug-In . SVG Version: 6.00 Build 0)  -->
<svg version="1.1" id="ico-okayama" xmlns="http://www.w3.org/2000/svg" xmlns:xlink="http://www.w3.org/1999/xlink" x="0px"
	 y="0px" viewBox="0 0 120 120" style="enable-background:new 0 0 120 120;" xml:space="preserve">
<style type="text/css">
	.st0{fill-rule:evenodd;clip-rule:evenodd;fill:#231815;}
	.st1{fill-rule:evenodd;clip-rule:evenodd;fill:#FFFFFF;}
</style>
<path class="st0" d="M105.1,25.32c2.98,0.14,1.15,4.17,1.6,6.68c0.27,1.52,1.26,2.69,1.82,3.97c0.16,0.53,0.31,1.06,0.46,1.58
	c0.37,0.24,0.75,0.49,1.13,0.75c1.17,0.93,2.33,2.75,2.8,4.28c0.8,2.59-0.57,4.16-1.08,5.75c-0.02,0.5-0.03,1.01-0.05,1.5
	c-0.32,1.66-0.81,2.97-1.68,4.03c-1.79,2.16-5.08,2.76-6.22,5.83c-0.55,1.45,0.22,3.4-0.14,5.13c-0.67,3.28-1.75,6.61-3.38,8.98
	c-2.15,3.14-6.16,4.02-9.03,6.4c-0.78,0.65-2.35,2.01-1.45,3.46c3.39,0.85,7.58,3.72,6.28,8.09c-0.33,1.12-0.81,1.96-1.63,2.53
	c-2.45,1.66-5.67-0.29-8.93,0.11c-2.88,0.37-6.14,1.86-8.86,0.41c-1.04-0.55-2.04-2.34-2.79-2.65c-2.44-1-4.04-0.67-5.21-2.93
	c-1.03-1.99-0.99-4.95-1.51-7.39c-0.09-0.01-0.18-0.01-0.29-0.01c-3.81,1.19-8.56,0.41-13.21,0.29c0.02,0.05,0.04,0.1,0.06,0.15
	c1.6,0.45,3.31,1.34,4.14,2.54c2,2.89,0.26,7.25-1.87,8.51c-3.08,1.84-6.03-1.16-8.89-1.09c-1.52,4.36-5.15,3.78-9.85,2.67
	c-5.81-1.38-12.77-2.45-12.82-9.2c-1.03,0.33-2.06,0.66-3.1,0.99c-3.59,1.26-15.13,3.91-16.09-1.65c-0.5-2.91,2.72-3.43,4.12-4.46
	c3.3-2.41,6.62-5.36,8.25-9.48c1.36-3.42,0.98-8.28,1.98-12.3c1.18-4.77,2.86-8.95,5.89-11.76c3.75-3.5,11.64-7.64,19.81-6.04
	c4.8,0.94,9.84,3.04,15.63,2.13c3.39-0.53,5.46-1.96,8.09-3.21c3.53-1.68,7.34-3.3,11.54-4.19c0.5-1.81-1.01-4.62,0.11-6.5
	c2.93-0.87,7.37,0.14,9.61,1.05c0.77,0.31,2.06,1.32,2.96,1.22c4.17-0.45,4.29-2.28,6.7-4.46C101.64,25.53,102.95,26.12,105.1,25.32
	z"/>
<path class="st1" d="M104.84,27.31c-3.27,0.05-4.98,2.38-6.55,4.25c-0.38,0.46-0.68,1.13-1.25,1.39c-1.55,0.18-3.1,0.35-4.65,0.52
	c-2.36-0.88-6.16-3.41-10.07-2.49c-0.1,2.53,0.53,4.09,0.83,6.09c-3.18,1.02-6.54,1.49-9.43,2.82c-4.17,1.91-7.58,4.35-12.78,5.15
	c-5.87,0.9-10.95-1.18-15.79-2.13c-7.1-1.42-13.73,1.95-17.33,4.67c-3.28,2.47-5.11,6.88-6.24,11.61c-0.57,2.39-0.26,5.11-0.78,7.69
	c-0.43,2.16-0.92,4.16-1.73,5.94c-1.78,3.93-5.33,7.22-8.82,9.4c-0.82,0.51-3.81,1.54-2.8,3.14c0.8,1.25,4.32,1.37,6.26,1.1
	c3.57-0.53,6.62-1.31,9.49-2.46c1.43-0.58,2.59-1.31,3.78-0.19c-0.12,0.78-0.64,1.47-0.48,2.49c0.74,4.85,5.86,5.24,10.46,6.49
	c2.06,0.37,4.12,0.74,6.19,1.09c1.74-0.3,2.53-2.03,1.74-3.73c0-0.03,0.01-0.05,0.01-0.07c2.05,0.09,3.93,0.28,5.47,0.86
	c0.91,0.36,1.84,0.71,2.75,1.08c2.93,0.63,4.64-3.14,3.37-5.84c-0.87-1.85-4.15-1.54-4.98-3.35c-0.38-0.87,0.41-2.3,1.21-2.61
	c2.15-0.83,6.1,0.73,8.7,0.38c1.29-0.11,2.58-0.21,3.86-0.32c1.12-0.24,2.11-0.74,3.52-0.69c0.02,0.07,0.04,0.14,0.07,0.22
	c0.53,0.71,0.32,1.87,0.49,2.94c0.37,2.24,0.4,5.5,1.96,6.63c1.11,0.8,2.78,0.78,4.11,1.04c0.39,1.99,2.57,3.13,4.55,3.19
	c1.13-0.3,2.26-0.6,3.38-0.91c1.38-0.05,2.77-0.12,4.15-0.18c2.42-0.01,5.21,1.65,6.58-0.39c0.89-1.34,0.19-3.2-0.46-4.08
	c-1.81-2.45-7.91-2.03-5.52-7.23c1.58-3.4,8.52-4.87,10.94-8.48c1.3-1.94,2.21-4.78,2.78-7.35c0.7-3.28-0.66-4.96,1.06-7.61
	c2.13-3.28,8.09-3.9,6.82-9.59c3.63-2.54,0.41-7.54-2.4-8.78c-0.2-2.39-1.63-3.88-2.27-5.84C104.55,31.68,104.82,28.92,104.84,27.31
	z"/>
<path class="st0" d="M83.71,32.39c2.54,0.06,4.82,0.7,6.67,1.53c0.58,0.35,1.16,0.7,1.76,1.04c1.9-0.18,3.81-0.37,5.72-0.56
	c0.7-1.17,4.32-5.36,5.58-5.34c-0.22,4.36,0.95,5.41,1.98,8.19c0.26,0.99,0.53,1.97,0.78,2.95c0.67,0.28,1.32,0.56,1.98,0.84
	c0.85,0.64,2.25,2.88,1.6,4.61c-0.37,0.94-1.27,1.83-1.8,2.8c0.35-0.03,0.52-0.11,0.72,0.1c0.64,2.03-1.62,3.39-2.67,4.06
	c-1.72,1.08-5.2,4.17-5.88,6.2c-0.83,2.49,1.82,7.01-0.67,9.12c-0.02,0-0.05,0-0.07,0c0-0.06,0-0.1,0.01-0.15
	c-0.27-0.73-0.17-1.64-0.88-1.95c-0.13,3.55-0.13,6.69-2.84,7.63c-0.06-0.48-0.11-0.95-0.18-1.43c-0.03,0-0.05,0-0.07,0
	c-0.03,0.02-0.04,0.05-0.07,0.07c-0.46,1.7-2.18,3.38-3.61,4.11c-0.09-0.02-0.19-0.06-0.28-0.08c-0.05-0.15-0.08-0.29-0.13-0.44
	c-1.04,0.66-2.13,1.09-3.33,1.7c-0.5,2.11-2.63,4.45-1.49,7.39c0.93,2.37,4.44,2.33,6.03,4.09c0.46,0.5,0.92,2.07,0.07,2.57
	c-0.58,0.5-2.02,0.2-2.86-0.01c-2.14-0.5-5.24-0.52-7.35-0.05c-1.1,0.25-2.5,1.12-3.88,0.53c-1.65-0.69-1.71-2.87-2.12-3.12
	c-0.27,0.05-0.53,0.08-0.79,0.12c-1.57,0.16-3.38-0.4-3.89-1.32c-1.13-2.03-0.42-8.73-2.53-9.42c-1.13-0.37-5.21,0.78-6.59,0.97
	c-3.31,0.45-7.82-1.25-10.35-0.28c-1.47,0.57-3.1,3.22-1.85,5.02c0.98,1.41,3.25,1.82,4.71,2.77c0.04,0.24,0.08,0.48,0.12,0.71
	c-0.29,0.23-0.58,0.46-0.87,0.69c0.02,0.05,0.04,0.1,0.07,0.15c0.51,0.16,0.87,0.46,0.9,1.09c-0.27,0.62-0.88,1.37-1.75,1.32
	c-1.4-0.5-2.78-0.98-4.18-1.47c-1.56-0.21-3.13-0.42-4.69-0.62c-0.99-0.21-2.41-0.12-2.9-0.79c-1.36-1.84,1.66-4.98-0.72-5.31
	c-0.51,0.46-1.02,0.93-1.54,1.39c-3.37,4.12,4.15,5.3,4.29,7.97c-0.12,0.17-0.25,0.33-0.37,0.49c-1.33,0.3-3.12-0.25-4.41-0.55
	c-3.91-0.88-9.61-1.25-10.94-4.51c-1.23-3.01,3.53-4.84,0.48-7.34c-4.79,2.33-12.11,6.56-19.41,4.83c0-0.02,0-0.05,0-0.07
	c0.05-0.07,0.11-0.14,0.16-0.21c5.64-2.06,10.57-8.44,12.32-14.74c0.68-2.43,0.33-5.43,0.93-8.18c1.27-5.88,2.75-10.1,6.56-13.18
	c3.58-2.89,10.21-5.27,17.02-3.82c4.25,0.9,8.87,2.79,14.29,2.03c6.03-0.85,9.35-3.55,14.15-5.47c3.24-1.3,6.76-1.77,10.29-2.87
	C84.73,36.24,83.79,34.62,83.71,32.39z"/>
<path class="st1" d="M101.68,35.73c-0.04,0.54-0.08,1.09-0.11,1.64c-2.29-0.56-6.69-2.49-9.26-0.75c-0.01,0.02-0.01,0.05-0.01,0.07
	c0.05,0.01,0.09,0.01,0.14,0.01c0.76,0.24,1.51,0.47,2.27,0.7c2.22,0.94,4.28,2.14,5.75,3.79c-0.02,0.5-0.1,0.52-0.3,0.78
	c-0.67,0.27-1.34,0.54-2.02,0.8c-0.72,0.19-1.53,0.02-2.09,0.37c-0.63,0.4-0.79,1.37-1.4,1.75c-1.1,0.68-3.14,0.3-4.23,0.88
	c-1.59,0.84-2.51,2.43-3.88,3.47c-0.72,0.54-1.64,0.92-2.33,1.51c0,0.02,0,0.05,0,0.07c0.77,0.31,1.55,0.62,2.33,0.92
	c0.67,0.02,1.33,0.03,2,0.06c-0.1,0.09-0.2,0.19-0.29,0.28c-0.88,1.68-2.84,2.24-4.17,3.46c1.13,0.12,2.28,0.25,3.42,0.38
	c1.05,0.27,1.97,0.86,3.18,1.08c1.61,0.3,3.46-0.67,4.53-0.66c1.48,0.01,2.99,0.35,4.21-0.17c2.03-0.86,3.05-2.6,4.75-3.73
	c1.06-0.72,2.2-0.81,2.83-2c-1.09,0.06-1.77,0.67-2.66,0.93c-0.88,0.14-1.77,0.29-2.65,0.42c-0.97,0.51-1.4,1.53-2.68,1.78
	c-2.32,0.46-4.92-1.69-4.33-4.11c0.27-1.08,2.17-3.82,3.66-3.4c0.82,0.55,1.64,1.1,2.46,1.64c1.38,0.38,3.03-0.42,3.95-0.75
	c1.53-0.55,5.33-0.92,4.23-3.38c-0.11-0.24-0.13-0.24-0.34-0.37c-0.94,0.17-1.27,0.9-1.9,1.37c-0.56-0.29-1.13-0.59-1.7-0.89
	c-0.56-0.11-0.9,0.22-1.5,0.1c-0.23-0.44-0.46-0.95-0.18-1.51c0.68-0.16,1.16-0.39,1.53-0.89c0-0.03,0-0.05,0-0.07
	c-1.7-0.6-0.14-1.56-0.28-2.79C104.46,37.26,102.92,35.96,101.68,35.73z"/>
<path class="st1" d="M94.45,39.03c-0.67,0.32-1.51,0.38-2.02,0.88c0.05,0,0.1,0,0.14,0c1.4,1,4.32,3.06,6.26,1.1
	C97.88,39.9,96.51,39.07,94.45,39.03z"/>
<path class="st1" d="M107.44,47.3c-0.33,0.18-0.68,0.36-1.01,0.54c0.11,0.34,0.22,0.68,0.33,1.01c0.08-0.05,0.15-0.1,0.22-0.14
	c0.23-0.47,0.45-0.94,0.68-1.41C107.58,47.31,107.51,47.3,107.44,47.3z"/>
<path class="st1" d="M97.88,47.12c-0.86,0.69-2.23,1.53-2.01,3.09c1.4,0.2,2.79,0.4,4.19,0.61c1.84-0.1,4.44-0.73,5.96-1.33
	c0-0.08,0-0.15,0.01-0.22c-0.13-0.4-0.26-0.81-0.4-1.22c-2.45,0.09-3.97,1.35-5.56,2.35c-0.05-0.03-0.08-0.05-0.14-0.08
	c-0.27-1.21-0.83-2.45-1.63-3.19C98.16,47.12,98.01,47.12,97.88,47.12z"/>
<path class="st1" d="M99.91,48.38c0.11,0.34,0.22,0.67,0.33,1.01c0.39-0.09,0.74-0.31,0.87-0.69
	C100.72,48.59,100.31,48.49,99.91,48.38z"/>
<path class="st1" d="M57.88,63.66c-0.04,0.75-0.09,1.61,0.08,2.15c1.03-0.02,2.05-0.04,3.07-0.05c2.29-1.03,1.23-10.41,1.23-13.82
	c-0.47-0.46-0.93-0.93-1.39-1.4c-3.98,0.06-7.95,0.12-11.93,0.18c-0.46,0.48-0.92,0.97-1.39,1.45c0.06,4.12,0.11,8.24,0.17,12.36
	c0.8,1.7,3.03,1.46,5.24,1.3c0.02-0.37,0.03-0.72,0.03-1.08c-0.05-0.26-0.03-0.76-0.19-0.93c-1.37-0.53-1.69,0.35-3.05-0.72
	c-0.03-3.19-0.07-6.38-0.1-9.57c0.22-0.24,0.44-0.47,0.66-0.7c2.08-0.06,9.28-0.71,9.9,0.7c0.03,3.13,0.07,6.28,0.11,9.42
	c-0.22,0.23-0.45,0.46-0.67,0.69C59.06,63.65,58.47,63.66,57.88,63.66z"/>
<path class="st1" d="M66.59,58.12c0.04,3.02,0.08,6.05,0.11,9.07c0.18,1.48,0.14,3.12-0.81,3.55c-2.86,0.06-5.72,0.12-8.57,0.19
	c-0.28-0.25-0.56-0.49-0.84-0.74c-0.06-3.97-0.13-7.95-0.18-11.93c-0.64,0.03-1.28,0.06-1.93,0.09c0.02,4.43,0.05,8.85,0.07,13.28
	c0.5,0.48,0.98,0.93,1.46,1.4c3.82-0.04,7.62-0.08,11.43-0.12c0.46-0.49,0.93-0.98,1.39-1.46c-0.07-4.45-0.15-8.91-0.21-13.35
	C67.87,58.11,67.23,58.12,66.59,58.12z"/>
</svg>
