<svg id="1236ae5e-be6e-4e61-9f39-de541f07d184" data-name="レイヤー 1" xmlns="http://www.w3.org/2000/svg" width="120" height="120" viewBox="0 0 120 120"><defs><style>.\33 34787aa-9727-4132-8a7c-371454f2275c{fill:#541b86;}.d9724ede-e77a-4de9-b43c-3fdd6dcff2c1{fill:#fff;}</style></defs><title>ico-doshisha</title><path class="334787aa-9727-4132-8a7c-371454f2275c" d="M60.07,107.49c2.27-.48,17.74-5.17,29.3-19.15,0,0,8.8-7.55,9.6-19.76V12.51H21V68.57c.8,12.22,9.6,19.76,9.6,19.76A60.48,60.48,0,0,0,60.07,107.49Z"/><path class="334787aa-9727-4132-8a7c-371454f2275c" d="M21,68.57c.79,12.08,9.51,19.7,9.6,19.77A61,61,0,0,0,60.07,107.5h0A60.35,60.35,0,0,0,89.38,88.34c.09-.07,8.81-7.69,9.6-19.77V12.51H21Zm9.61,19.76c-.09-.08-8.8-7.69-9.59-19.76V12.51H99V68.57c-.79,12.07-9.51,19.68-9.59,19.76a60.33,60.33,0,0,1-29.29,19.15A61,61,0,0,1,30.64,88.33Z"/><rect class="d9724ede-e77a-4de9-b43c-3fdd6dcff2c1" x="23.36" y="15.62" width="73.68" height="6.86"/><path class="334787aa-9727-4132-8a7c-371454f2275c" d="M64.22,16.84h-.64v2.57a2.76,2.76,0,0,1-.07.68.91.91,0,0,1-.19.39.65.65,0,0,1-.31.19l-.45.05-.46-.05a.63.63,0,0,1-.31-.18.91.91,0,0,1-.19-.39,2.77,2.77,0,0,1-.07-.68V16.84h-.7v2.58l0,.48.08.46.18.41a1.15,1.15,0,0,0,.32.34,1.51,1.51,0,0,0,.48.22,2.54,2.54,0,0,0,.67.08,2.29,2.29,0,0,0,.84-.13,1.27,1.27,0,0,0,.54-.4,1.55,1.55,0,0,0,.28-.63,4,4,0,0,0,.08-.82V16.84Z"/><path class="334787aa-9727-4132-8a7c-371454f2275c" d="M68.56,16.84h-.61v3.23l-2.1-3.23h-.69v4.49h.69V18.1L68,21.33h.69V16.84Z"/><polygon class="334787aa-9727-4132-8a7c-371454f2275c" points="70.2 16.84 69.55 16.84 69.55 21.33 70.28 21.33 70.28 16.84 70.2 16.84"/><path class="334787aa-9727-4132-8a7c-371454f2275c" d="M74.72,16.84h-.66l-1.29,3.56-1.29-3.56h-.76l1.71,4.49h.69l1.71-4.49Z"/><path class="334787aa-9727-4132-8a7c-371454f2275c" d="M78.36,16.84H75.21v4.49h3.32v-.68H75.92V19.36h2.36v-.68H75.92V17.51h2.52v-.67Z"/><path class="334787aa-9727-4132-8a7c-371454f2275c" d="M79.3,16.84h-.08v4.49h.7V19.49h1l.28,0,.25.13.2.2.14.26.41,1.2h.77L82.49,20a1.32,1.32,0,0,0-.59-.74l.26-.1.32-.26.21-.36a1.31,1.31,0,0,0,.07-.45,1.45,1.45,0,0,0-.11-.61,1,1,0,0,0-.33-.41,1.37,1.37,0,0,0-.5-.21l-.64-.06Zm1.9.64c.57,0,.84.22.84.66l-.05.32a.44.44,0,0,1-.16.2l-.28.11-.43,0H79.93V17.48Z"/><path class="334787aa-9727-4132-8a7c-371454f2275c" d="M84.44,16.86a1.51,1.51,0,0,0-.5.26,1.21,1.21,0,0,0-.32.41,1.17,1.17,0,0,0-.12.52,1.21,1.21,0,0,0,.08.45,1,1,0,0,0,.26.36,1.57,1.57,0,0,0,.44.27l.65.19.62.15.4.16a.51.51,0,0,1,.2.18.55.55,0,0,1,.06.27.53.53,0,0,1-.07.27l-.19.2-.31.13-.4,0-.45-.05a1.08,1.08,0,0,1-.36-.16.85.85,0,0,1-.25-.27.89.89,0,0,1-.11-.39v-.07h-.7v.08a1.7,1.7,0,0,0,.13.61,1.34,1.34,0,0,0,.36.5,1.66,1.66,0,0,0,.59.32,2.67,2.67,0,0,0,.82.11,2.07,2.07,0,0,0,.66-.1,1.62,1.62,0,0,0,.52-.29,1.34,1.34,0,0,0,.34-.44,1.23,1.23,0,0,0,.13-.55,1.17,1.17,0,0,0-.07-.43l-.19-.33L86.35,19,86,18.87l-.39-.12-.52-.13-.48-.13-.28-.13-.12-.14,0-.2a.48.48,0,0,1,.22-.41,1.18,1.18,0,0,1,.69-.17c.61,0,.92.23,1,.71v.07h.7v-.08a1.38,1.38,0,0,0-.14-.58,1.28,1.28,0,0,0-.35-.43,1.57,1.57,0,0,0-.53-.27,2.37,2.37,0,0,0-.67-.09A2.13,2.13,0,0,0,84.44,16.86Z"/><polygon class="334787aa-9727-4132-8a7c-371454f2275c" points="88.27 16.84 87.63 16.84 87.63 21.33 88.35 21.33 88.35 16.84 88.27 16.84"/><path class="334787aa-9727-4132-8a7c-371454f2275c" d="M92.36,16.84H88.92v.67h1.39v3.82H91V17.51h1.41v-.67Z"/><path class="334787aa-9727-4132-8a7c-371454f2275c" d="M96.46,16.84h-.72l-1.22,1.93L93.3,16.84h-.86l1.73,2.6v1.89h.71V19.44l1.73-2.6Z"/><path class="334787aa-9727-4132-8a7c-371454f2275c" d="M24.5,16.84h-.08v4.49H25.8c1.44,0,2.18-.76,2.18-2.27a2,2,0,0,0-2.18-2.22Zm1.29.67a2.14,2.14,0,0,1,.73.11,1,1,0,0,1,.45.3,1.13,1.13,0,0,1,.23.48,3,3,0,0,1,.07.66,3.12,3.12,0,0,1-.07.68,1.18,1.18,0,0,1-.23.49,1,1,0,0,1-.44.31,2.08,2.08,0,0,1-.74.11h-.67V17.51Z"/><path class="334787aa-9727-4132-8a7c-371454f2275c" d="M29.87,16.94a1.91,1.91,0,0,0-.65.48,2.18,2.18,0,0,0-.42.74,2.85,2.85,0,0,0-.15.93,2.81,2.81,0,0,0,.15.94,2.21,2.21,0,0,0,.42.73,1.91,1.91,0,0,0,.65.48,2.1,2.1,0,0,0,1.64,0,1.88,1.88,0,0,0,.65-.47A2.21,2.21,0,0,0,32.6,20a3.07,3.07,0,0,0,0-1.9,2.18,2.18,0,0,0-.42-.73,1.88,1.88,0,0,0-.65-.47,2.13,2.13,0,0,0-1.66,0Zm.29,3.69h0a1.16,1.16,0,0,1-.42-.32,1.61,1.61,0,0,1-.28-.52,2.51,2.51,0,0,1,0-1.41,1.55,1.55,0,0,1,.28-.52,1.17,1.17,0,0,1,.42-.32,1.32,1.32,0,0,1,.54-.11,1.26,1.26,0,0,1,.53.11,1.19,1.19,0,0,1,.42.32,1.55,1.55,0,0,1,.27.52,2.53,2.53,0,0,1,0,1.4,1.58,1.58,0,0,1-.27.52,1.18,1.18,0,0,1-.42.33,1.34,1.34,0,0,1-1.08,0Z"/><path class="334787aa-9727-4132-8a7c-371454f2275c" d="M34.45,16.86a1.45,1.45,0,0,0-.49.26,1.19,1.19,0,0,0-.43.93,1.23,1.23,0,0,0,.08.45,1,1,0,0,0,.25.36,1.5,1.5,0,0,0,.43.27l.63.19.6.15.38.16a.5.5,0,0,1,.19.18.56.56,0,0,1,.06.27.55.55,0,0,1-.07.27l-.18.2-.29.13-.39,0-.43-.05a1,1,0,0,1-.34-.16.84.84,0,0,1-.24-.27.92.92,0,0,1-.11-.39v-.07H33.4v.08a1.75,1.75,0,0,0,.12.61,1.35,1.35,0,0,0,.35.5,1.59,1.59,0,0,0,.57.32,2.51,2.51,0,0,0,.79.11,1.93,1.93,0,0,0,.64-.1,1.55,1.55,0,0,0,.51-.29,1.33,1.33,0,0,0,.33-.44,1.26,1.26,0,0,0,.12-.55,1.21,1.21,0,0,0-.07-.43l-.19-.33L36.31,19,36,18.87l-.38-.12-.5-.13-.46-.13-.27-.13-.12-.14,0-.2a.49.49,0,0,1,.21-.41,1.1,1.1,0,0,1,.66-.17c.58,0,.89.23.93.71v.07h.69v-.08a1.41,1.41,0,0,0-.13-.58,1.28,1.28,0,0,0-.34-.43,1.51,1.51,0,0,0-.51-.27,2.23,2.23,0,0,0-.65-.09A2,2,0,0,0,34.45,16.86Z"/><path class="334787aa-9727-4132-8a7c-371454f2275c" d="M41,16.84H40.4v1.77h-2V16.84h-.69v4.49h.69v-2h2v2h.69V16.84Z"/><polygon class="334787aa-9727-4132-8a7c-371454f2275c" points="42.84 16.84 42.21 16.84 42.21 21.33 42.91 21.33 42.91 16.84 42.84 16.84"/><path class="334787aa-9727-4132-8a7c-371454f2275c" d="M44.85,16.86a1.45,1.45,0,0,0-.49.26,1.19,1.19,0,0,0-.43.93,1.23,1.23,0,0,0,.08.45,1,1,0,0,0,.25.36,1.5,1.5,0,0,0,.43.27l.63.19.6.15.38.16a.5.5,0,0,1,.19.18.56.56,0,0,1,.06.27.55.55,0,0,1-.07.27l-.18.2-.29.13-.39,0-.43-.05a1,1,0,0,1-.34-.16.84.84,0,0,1-.24-.27.92.92,0,0,1-.11-.39v-.07H43.8v.08a1.75,1.75,0,0,0,.12.61,1.35,1.35,0,0,0,.35.5,1.59,1.59,0,0,0,.57.32,2.51,2.51,0,0,0,.79.11,1.93,1.93,0,0,0,.64-.1,1.55,1.55,0,0,0,.51-.29,1.33,1.33,0,0,0,.33-.44,1.26,1.26,0,0,0,.12-.55,1.2,1.2,0,0,0-.07-.43L47,19.27,46.71,19l-.31-.16L46,18.75l-.5-.13-.46-.13-.27-.13-.12-.14,0-.2a.49.49,0,0,1,.21-.41,1.1,1.1,0,0,1,.66-.17c.58,0,.89.23.93.71v.07h.69v-.08a1.41,1.41,0,0,0-.13-.58,1.28,1.28,0,0,0-.34-.43,1.51,1.51,0,0,0-.51-.27,2.23,2.23,0,0,0-.65-.09A2,2,0,0,0,44.85,16.86Z"/><path class="334787aa-9727-4132-8a7c-371454f2275c" d="M51.42,16.84H50.8v1.77h-2V16.84h-.69v4.49h.69v-2h2v2h.69V16.84Z"/><path class="334787aa-9727-4132-8a7c-371454f2275c" d="M54.32,16.84h-.63L52,21.33h.74L53.23,20h1.62l.48,1.32h.78l-1.73-4.49ZM54,17.7l.6,1.7h-1.2Z"/><path class="d9724ede-e77a-4de9-b43c-3fdd6dcff2c1" d="M55.17,53.19v-29h-2V51.14H21v2Z"/><path class="d9724ede-e77a-4de9-b43c-3fdd6dcff2c1" d="M66.55,24.23h-2v29H99v-2H66.55Z"/><path class="d9724ede-e77a-4de9-b43c-3fdd6dcff2c1" d="M64.51,62.52v43.54c.63-.24,1.31-.52,2-.83V64.56H99v-2Z"/><path class="d9724ede-e77a-4de9-b43c-3fdd6dcff2c1" d="M55.17,62.52H21v2h32.1V105q1.09.47,2,.84Z"/><path class="334787aa-9727-4132-8a7c-371454f2275c" d="M56.93,54.94V24.23H55.17v29H21v1.75Z"/><path class="334787aa-9727-4132-8a7c-371454f2275c" d="M64.51,24.23H62.76V54.94H99V53.19H64.51Z"/><path class="334787aa-9727-4132-8a7c-371454f2275c" d="M62.76,60.77V106.7c.53-.18,1.11-.39,1.75-.64V62.52H99V60.77Z"/><path class="334787aa-9727-4132-8a7c-371454f2275c" d="M56.93,60.77H21v1.75H55.17v43.35c.64.25,1.22.46,1.75.65Z"/><path class="d9724ede-e77a-4de9-b43c-3fdd6dcff2c1" d="M21,54.94v5.83H56.93v45.75c2,.69,3.15,1,3.15,1a26,26,0,0,0,2.69-.79V60.77H99V54.94H62.76V24.23H56.93V54.94Z"/><polygon class="d9724ede-e77a-4de9-b43c-3fdd6dcff2c1" points="37.45 32.63 40.39 32.63 38.92 35.18 37.45 37.72 35.98 35.18 34.51 32.63 37.45 32.63"/><polygon class="d9724ede-e77a-4de9-b43c-3fdd6dcff2c1" points="34.53 37.69 37.47 37.69 36 40.24 34.53 42.78 33.06 40.24 31.59 37.69 34.53 37.69"/><polygon class="d9724ede-e77a-4de9-b43c-3fdd6dcff2c1" points="40.37 37.69 43.3 37.69 41.83 40.24 40.37 42.78 38.9 40.24 37.43 37.69 40.37 37.69"/><path class="d9724ede-e77a-4de9-b43c-3fdd6dcff2c1" d="M48.57,81.28l0,0a.17.17,0,0,0,0-.1,12.37,12.37,0,0,0-18.71,0,.17.17,0,0,0,0,.1l0,0a.18.18,0,0,0-.09.13.18.18,0,0,0,0,.15,13.43,13.43,0,0,0,9.48,3.63,13.43,13.43,0,0,0,9.48-3.63.18.18,0,0,0,0-.15A.18.18,0,0,0,48.57,81.28Zm-9.44-4.05a11.9,11.9,0,0,1,8.6,3.64,19.45,19.45,0,0,0-5.78-1.72v-.41a.13.13,0,0,0-.26,0v.38l-.43-.05v-.43a.13.13,0,1,0-.26,0V79l-.43,0v-.44a.13.13,0,1,0-.26,0V79h-.43V78.5a.13.13,0,0,0-.26,0V79h-.58V78.5a.13.13,0,1,0-.26,0V79h-.43v-.4a.13.13,0,1,0-.26,0V79H38l-.29,0v-.37a.13.13,0,0,0-.26,0V79l-.43,0v-.33a.13.13,0,0,0-.26,0v.36a19.55,19.55,0,0,0-6.2,1.77A11.9,11.9,0,0,1,39.13,77.22Zm0,7.62a13.26,13.26,0,0,1-8.74-3.08,16.09,16.09,0,0,0,5.67,1.83h0l.58.08h.1l.5,0,.21,0,.41,0,.34,0h1.88l.33,0,.41,0,.21,0,.5,0h.1a16.5,16.5,0,0,0,6.25-1.91A13.26,13.26,0,0,1,39.13,84.84Zm2.48-1.52h0l-.56.06h-.15l-.46,0H37.87l-.46,0h-.15l-.56-.06h0a15.86,15.86,0,0,1-6.29-2,19.19,19.19,0,0,1,6.37-1.9v.33a.13.13,0,1,0,.26,0v-.35l.43,0v.4a.13.13,0,0,0,.26,0v-.42l.28,0h.15v.45a.13.13,0,1,0,.26,0v-.46h.43v.47a.13.13,0,1,0,.26,0v-.48h.58v.46a.13.13,0,0,0,.26,0v-.46h.43v.44a.13.13,0,1,0,.26,0v-.42l.43,0v.38a.13.13,0,1,0,.26,0v-.36l.43.05v.3a.13.13,0,0,0,.26,0v-.27a19.1,19.1,0,0,1,6,1.84A15.87,15.87,0,0,1,41.61,83.33Z"/><path class="d9724ede-e77a-4de9-b43c-3fdd6dcff2c1" d="M76.66,32.16a8,8,0,0,0-1.78,6.29v.16l.15,0a2.21,2.21,0,0,1,1.74.35c.75.55,1.16,1.64,1.23,3.22l.06-.11c-.12.09-.05.31,0,.38l.24-.08,0-.14v-.06c-.06-1.67-.51-2.82-1.33-3.42a2.41,2.41,0,0,0-1.8-.42c0-.27,0-.54,0-.79a7.32,7.32,0,0,1,1.75-5.15A7.35,7.35,0,0,1,81.7,30.2c2.59.11,4.48,1,5.6,2.58a7.84,7.84,0,0,1,1.22,4.53A14.59,14.59,0,0,1,88,41H87a2.7,2.7,0,0,0-2.17,1.27c-2,2.29-4,2-4,2a1.92,1.92,0,0,1-1.46-.46l-.17.19a2.16,2.16,0,0,0,1.61.53c.07,0,2.18.28,4.26-2.15a2.45,2.45,0,0,1,2-1.16h1.24l0-.09c0-.05,1.57-5.22-.74-8.5-1.17-1.66-3.13-2.57-5.81-2.69A7.62,7.62,0,0,0,76.66,32.16Z"/><path class="d9724ede-e77a-4de9-b43c-3fdd6dcff2c1" d="M84.44,33.21H80.82v3.43a1.88,1.88,0,0,0,1.88,1.82,1.85,1.85,0,0,0,1.86-1.82V33.21Zm-.13.26v3.17a1.61,1.61,0,0,1-3.21,0l0-3.17Z"/><rect class="d9724ede-e77a-4de9-b43c-3fdd6dcff2c1" x="80.97" y="35.39" width="3.43" height="0.43"/><rect class="d9724ede-e77a-4de9-b43c-3fdd6dcff2c1" x="82.47" y="33.33" width="0.43" height="4.93"/><path class="d9724ede-e77a-4de9-b43c-3fdd6dcff2c1" d="M81.38,40.5a1,1,0,1,0,1-1A1,1,0,0,0,81.38,40.5Zm.21,0a.8.8,0,1,1,.8.8A.8.8,0,0,1,81.58,40.5Z"/><path class="d9724ede-e77a-4de9-b43c-3fdd6dcff2c1" d="M81.66,41.39c-6,1.61-8.52,1.56-8.54,1.56a.72.72,0,0,0-.62.21.41.41,0,0,0-.06.35.38.38,0,0,0,.12.29.49.49,0,0,0,.34.11l.77-.05L74.24,45l-.48.33a.76.76,0,0,0-.37.54h0a.41.41,0,0,0,.13.3.27.27,0,0,0,.19.15,1.06,1.06,0,0,0,.69-.2,68.72,68.72,0,0,1,7.84-3.26.09.09,0,0,0,.05-.11l-.52-1.3A.09.09,0,0,0,81.66,41.39Zm0,.18.46,1.15A69.32,69.32,0,0,0,74.31,46a.92.92,0,0,1-.56.18.15.15,0,0,1-.1-.08.28.28,0,0,1-.09-.2.61.61,0,0,1,.3-.41l.54-.37a.09.09,0,0,0,0-.11l-.63-1.26a.09.09,0,0,0-.08,0l-.83.06a.32.32,0,0,1-.21-.07.25.25,0,0,1-.07-.19.26.26,0,0,1,0-.22.59.59,0,0,1,.48-.14S75.66,43.16,81.64,41.57Z"/><path class="d9724ede-e77a-4de9-b43c-3fdd6dcff2c1" d="M79.15,43l-4.76.57a.09.09,0,0,0-.07.12l.54,1a.09.09,0,0,0,.11,0l4.22-1.6a.09.09,0,0,0,0-.17Zm-.68.25L75,44.59l-.45-.85Z"/><path class="d9724ede-e77a-4de9-b43c-3fdd6dcff2c1" d="M79.62,42.81a.43.43,0,1,0,.43-.43A.43.43,0,0,0,79.62,42.81Zm.09,0a.34.34,0,1,1,.34.34A.34.34,0,0,1,79.7,42.81Z"/><path class="d9724ede-e77a-4de9-b43c-3fdd6dcff2c1" d="M80.78,42.31a.43.43,0,1,0,.43-.43A.43.43,0,0,0,80.78,42.31Zm.09,0a.34.34,0,1,1,.34.34A.34.34,0,0,1,80.87,42.31Z"/><path class="d9724ede-e77a-4de9-b43c-3fdd6dcff2c1" d="M77,72.13a.08.08,0,0,0-.07.05l-.35,1.12-.35-1.12a.08.08,0,0,0-.07-.05H75.9a.08.08,0,0,0-.07.05l-.35,1.12-.35-1.12a.08.08,0,0,0-.07-.05h-.21a.08.08,0,0,0-.07.1l.49,1.57a.08.08,0,0,0,.07.05h.27a.08.08,0,0,0,.07-.05L76,72.65l.37,1.15a.08.08,0,0,0,.07.05h.26a.08.08,0,0,0,.07-.05l.5-1.57a.08.08,0,0,0-.07-.1Z"/><rect class="d9724ede-e77a-4de9-b43c-3fdd6dcff2c1" x="78.6" y="72.13" width="0.36" height="1.73" rx="0.08" ry="0.08"/><path class="d9724ede-e77a-4de9-b43c-3fdd6dcff2c1" d="M80.47,72.13a.08.08,0,0,0-.08.08v1.57a.08.08,0,0,0,.08.08h1.24a.08.08,0,0,0,.08-.08v-.16a.08.08,0,0,0-.08-.08h-1V72.21a.08.08,0,0,0-.08-.08Z"/><path class="d9724ede-e77a-4de9-b43c-3fdd6dcff2c1" d="M83.12,72.13a.08.08,0,0,0-.08.08v1.57a.08.08,0,0,0,.08.08H84a.82.82,0,0,0,.53-.14.59.59,0,0,0,.17-.47v-.52a.58.58,0,0,0-.17-.47.82.82,0,0,0-.54-.14Zm.86.31c.21,0,.28,0,.31.06a.34.34,0,0,1,.06.25v.51a.32.32,0,0,1-.06.23s-.1.06-.31.06H83.4v-1.1Z"/><path class="d9724ede-e77a-4de9-b43c-3fdd6dcff2c1" d="M74.61,88.83a.08.08,0,0,0-.08.08v1.57a.08.08,0,0,0,.08.08h.25a.08.08,0,0,0,.08-.08v-.53h.72a.44.44,0,0,1,.25,0,.22.22,0,0,1,0,.17v.32a.08.08,0,0,0,.08.08h.26a.08.08,0,0,0,.08-.08V90.1a.39.39,0,0,0-.08-.27l-.08,0,.07,0a.34.34,0,0,0,.09-.25v-.24a.36.36,0,0,0-.18-.35,1.23,1.23,0,0,0-.56-.09Zm1,.32a.81.81,0,0,1,.33,0s0,0,0,.11v.18c0,.08,0,.1,0,.11a.81.81,0,0,1-.33,0h-.64v-.47Z"/><path class="d9724ede-e77a-4de9-b43c-3fdd6dcff2c1" d="M77.72,88.81a1.26,1.26,0,0,0-.68.13.54.54,0,0,0-.21.49V90a.54.54,0,0,0,.21.49,1.27,1.27,0,0,0,.68.13H78a1.26,1.26,0,0,0,.67-.13.54.54,0,0,0,.21-.49v-.53a.55.55,0,0,0-.21-.49,1.27,1.27,0,0,0-.68-.13Zm-.25.34.32,0h.14l.33,0,.14.05.06.08h0s0,.2,0,.2v.44l0,.21-.06.07-.14,0-.32,0h-.14l-.32,0-.15-.05-.06-.07h0s0-.19,0-.19v-.44l0-.21.07-.07Z"/><path class="d9724ede-e77a-4de9-b43c-3fdd6dcff2c1" d="M80.94,88.83a.08.08,0,0,0-.07,0l-.65,1.27-.65-1.27a.08.08,0,0,0-.07,0h-.27a.08.08,0,0,0-.07.11L80,90.51a.08.08,0,0,0,.07,0h.32a.08.08,0,0,0,.07,0l.82-1.57a.08.08,0,0,0-.07-.11Z"/><path class="d9724ede-e77a-4de9-b43c-3fdd6dcff2c1" d="M81.73,88.83a.08.08,0,0,0-.08.08v1.57a.08.08,0,0,0,.08.08H83.3a.08.08,0,0,0,.08-.08v-.17a.08.08,0,0,0-.08-.08H82.05v-.41h1.21a.08.08,0,0,0,.08-.08v-.16a.08.08,0,0,0-.08-.08H82.05v-.36H83.3a.08.08,0,0,0,.08-.08v-.17a.08.08,0,0,0-.08-.08Z"/><path class="d9724ede-e77a-4de9-b43c-3fdd6dcff2c1" d="M83.92,88.83a.08.08,0,0,0-.08.08v1.57a.08.08,0,0,0,.08.08h.25a.08.08,0,0,0,.08-.08v-.53H85a.44.44,0,0,1,.25,0,.22.22,0,0,1,0,.17v.32a.08.08,0,0,0,.08.08h.26a.08.08,0,0,0,.08-.08V90.1a.39.39,0,0,0-.08-.27l-.08,0,.07,0a.34.34,0,0,0,.09-.25v-.24a.36.36,0,0,0-.18-.35,1.23,1.23,0,0,0-.56-.09Zm1,.32a.81.81,0,0,1,.33,0s0,0,0,.11v.18c0,.08,0,.1,0,.11a.81.81,0,0,1-.33,0h-.64v-.47Z"/><path class="d9724ede-e77a-4de9-b43c-3fdd6dcff2c1" d="M85.52,77h-1a13.82,13.82,0,0,1-4.26-1.09v-.5H82v-.63H80.23v-.4a.17.17,0,0,0-.34,0V75.9A23.21,23.21,0,0,1,75.56,77h-.93a.13.13,0,1,0,0,.26h.52a11.9,11.9,0,0,0,1.79,5.37l.07.1.12,0,.58-.16a1.7,1.7,0,0,1-.14,1.11h0a.38.38,0,0,0-.33.16.31.31,0,0,0,0,.16.53.53,0,0,0,0,.2l.07.21a6.38,6.38,0,0,0-1.69.71l0,0,.18.36,0,0a5.65,5.65,0,0,1,1.7-.56l.64,1a.38.38,0,0,1,.05.19.37.37,0,0,1-.08.22,6.41,6.41,0,0,0-1.82.73l0,0,.33.5h0a10.78,10.78,0,0,1,1.48-.48c.61-.08.72.17.72.17a2.37,2.37,0,0,0,1.26.64s.08,0,.08,0h.06a2.57,2.57,0,0,0,1.26-.64s.13-.27.74-.19a10.71,10.71,0,0,1,1.48.48h0l.33-.5,0,0a6.67,6.67,0,0,0-1.84-.75h0a.48.48,0,0,1-.05-.2.39.39,0,0,1,.05-.19l.64-1a5.65,5.65,0,0,1,1.7.56l0,0,.18-.36,0,0A6.38,6.38,0,0,0,83,84.39l.07-.22a.51.51,0,0,0,0-.2.31.31,0,0,0,0-.16.38.38,0,0,0-.33-.16h0s0,0,0,0a1.69,1.69,0,0,1-.14-1.08c.34.07.55.13.55.14l.12,0,.07-.1a11.9,11.9,0,0,0,1.79-5.37h.35a.13.13,0,1,0,0-.26ZM83.2,77h-3v-.9A17.47,17.47,0,0,0,83.2,77Zm-4.25,1.79c.14,1.4.41,2.84.47,3.17l-.67.06a18,18,0,0,1-1-4.76h1.13c0,.46,0,1,.09,1.52h0Zm.43-.09L80,79.92l-.12,1.69a2,2,0,0,1,0,.33h-.23c-.06-.29-.33-1.77-.47-3.2Zm.35,3.59a2.17,2.17,0,0,1-1.08,1.15,2.55,2.55,0,0,0,.68-1.13Zm.89,0,.4,0a2.62,2.62,0,0,0,.69,1.12h0A2.17,2.17,0,0,1,80.62,82.29Zm-.09-.34a2,2,0,0,1,0-.33l-.14-1.72.58-1.21.26.06c-.14,1.44-.42,2.94-.48,3.21Zm-1.33.36a2.82,2.82,0,0,1-.79,1.18l-.24.06a2.82,2.82,0,0,0,.32-1.16Zm2.73,1.19a2.9,2.9,0,0,1-.79-1.17l.7.08a2.79,2.79,0,0,0,.32,1.14ZM80.9,82c.06-.31.33-1.77.47-3.18h0a15.24,15.24,0,0,0,.09-1.52h1.13a18,18,0,0,1-1,4.77Zm.39-4.71c0,.36,0,.76-.06,1.17a.61.61,0,0,1-.53-.67h-.08s-.18.6-.47.65-.45-.64-.45-.65h-.08a.61.61,0,0,1-.53.67c0-.41-.06-.81-.06-1.17Zm-1.4-1.17V77H76.51A25.44,25.44,0,0,0,79.89,76.08Zm-2.72,6.25a11.87,11.87,0,0,1-1.67-5.08h.74a19.59,19.59,0,0,0,1.44,4.94Zm-.75-5.08h1.14a18.44,18.44,0,0,0,1,4.78c-.24,0-.48.07-.73.13A19.45,19.45,0,0,1,76.41,77.25Zm1.42,5.25.55-.1A2.51,2.51,0,0,1,78,83.58l-.3.05A1.87,1.87,0,0,0,77.83,82.5Zm4.8,1.14-.29-.05A2.47,2.47,0,0,1,82,82.43l.54.1A1.85,1.85,0,0,0,82.63,83.64Zm-.16-1.47L81.74,82a18.36,18.36,0,0,0,1-4.8h1.14A19.44,19.44,0,0,1,82.47,82.17Zm.69.16-.52-.12a19.6,19.6,0,0,0,1.44-5h.74A11.88,11.88,0,0,1,83.16,82.33Z"/></svg>