<svg id="3129140c-4402-469e-a44a-364c4e2cce5f" data-name="レイヤー 1" xmlns="http://www.w3.org/2000/svg" width="120" height="120" viewBox="0 0 120 120"><defs><style>.cb208cab-d3f8-4615-886a-332c2310b2e0{fill:none;stroke:#004097;stroke-width:0.12px;}.ec438139-0bbb-45b3-bc0b-7cbf25424982{fill:#004097;}.ffb01ec9-cd64-4016-9633-bad78a087d8c{fill:#fff000;}</style></defs><title>ico-kg</title><path class="cb208cab-d3f8-4615-886a-332c2310b2e0" d="M92,31.61H41.75l-5,4.22,1.72-4.22H22L5,73.36H21.42l3.91-9.54,2-1.41,9.3,10.95H65c8,0,11.88-5.63,12.51-7.66H89.83L96,50.53H68.17l-3.28,8.29H60.35l5-12.2H85.92Z"/><path class="ec438139-0bbb-45b3-bc0b-7cbf25424982" d="M70.09,53.62l-3.28,8-11,0L63.17,43.8H83.88l3.91-9.38H64.1c-7.11,0-10.16,8.44-10.16,8.44L44.87,64.6,34.49,52.68,57.54,34.42H42.84L29.35,44.86l4.42-10.44h-10L9.07,70.54h9.85l3.28-8.13,5.29-4.19L38.15,70.54h25.8c6.25,0,9.69-2.66,12-7.82H87.87l3.6-9.07Z"/><path class="ffb01ec9-cd64-4016-9633-bad78a087d8c" d="M99.19,20.3h0a45.1,45.1,0,0,1-68.7,56.33h0A45.12,45.12,0,1,0,99.19,20.3"/></svg>