<svg id="05d56308-b5a2-4c69-a181-9e0f32c6f071" data-name="レイヤー 1" xmlns="http://www.w3.org/2000/svg" width="120" height="120" viewBox="0 0 120 120"><defs><style>.\38 bdd9cc1-abf6-4869-b688-df71445cba9c{fill:none;stroke:#fff;stroke-linecap:round;stroke-linejoin:round;stroke-width:6px;}.\30 56c9e29-a8ce-49e9-b1fd-f3b1fcb43d33,.c5a57694-95a0-4f61-8030-6170c0addb5f{fill:#fff;}.c5a57694-95a0-4f61-8030-6170c0addb5f{stroke:#231815;stroke-miterlimit:5;stroke-width:1.03px;}.\36 6d86f4e-2e01-4e71-a387-ca89a266a95a{fill:#bd0022;}.bc1a524e-9913-4dcb-be13-d683ee931910{fill:#231815;}</style></defs><title>ico-kinki</title><path class="8bdd9cc1-abf6-4869-b688-df71445cba9c" d="M88.52,39.81c7.52,2.34,14.67,6.26,19.11,10.5A60.85,60.85,0,0,1,113,56H90.94l.56.52c.65.58,1.25,1.08,1.81,1.51,2.06,1.57,4.07,3,4.08,3h0l4.76,3.44H84l.79.54c1.67,1.12,4.4,2.69,4.7,2.87l6.19,3.54H73.09l2.23,1.42,5.55,3.5H63.81l-.09.16A17,17,0,0,1,55,84.65a10.37,10.37,0,0,1-3.59.88h0l-2.38,0c.12-.54.49-2.33.49-2.33s.19-1,.34-2.17A20.45,20.45,0,0,0,50,78.63c0-3.67-1.34-5.21-3.34-6.26-1.4-.74-5.22-1.88-10.67-1.47h0a2.43,2.43,0,0,0-.37,0l-1.9.14A86.77,86.77,0,0,1,18,71.24a43.69,43.69,0,0,1-4.89-.84l-.11,0L8.54,72.67a5.14,5.14,0,0,1-.46-1.91,8.12,8.12,0,0,1-.05-.9,14.41,14.41,0,0,1,.67-4c2.9-10.19,16.8-13.78,24.82-15l.23,0,0-.23A4.7,4.7,0,0,1,34,49.41c.78-2.11,3.84-2.89,5.11-3.13h.09l.06-.06a33,33,0,0,1,10.27-6.54,49,49,0,0,1,17.2-3.24A71.85,71.85,0,0,1,88.52,39.81Z"/><path class="8bdd9cc1-abf6-4869-b688-df71445cba9c" d="M9.78,69.91l3-1.55a35.37,35.37,0,0,0,5.44,1,86.74,86.74,0,0,0,15.31-.19L35.82,69c5.5-.4,9.74.66,11.7,1.69,3.58,1.88,4.85,5.11,4.18,10.62-.16,1.32-.37,2.33-.37,2.33a9,9,0,0,0,2.9-.74,15.35,15.35,0,0,0,8.41-8.39H74.31s-2.9-1.83-3.83-2.51a35.26,35.26,0,0,1-2.88-2.41H88.54s-3-1.72-4.82-3a59.52,59.52,0,0,1-5.25-4H96.29s-2-1.45-4.13-3.07a36.87,36.87,0,0,1-5.62-5.42h22l-2.61-2.77c-3.6-3.81-10-7.27-18-9.76a69.47,69.47,0,0,0-21.17-3.29,47.12,47.12,0,0,0-16.53,3.09,31,31,0,0,0-10.19,6.64c-.86,0-3.82.78-4.27,2a2.37,2.37,0,0,0,.35,2.38c-11.9,1.42-23.29,5.77-25.63,14C9.65,69.47,9.78,69.91,9.78,69.91Z"/><path class="8bdd9cc1-abf6-4869-b688-df71445cba9c" d="M44,67.82a30.73,30.73,0,0,0-8.29-.45c-6.63.49-13.42,1.15-17.11.38,3.48-3.76,23.06-6.21,23.93-6.21s1.12.42.64,1.29a23.65,23.65,0,0,0,8.62-3c-14.34.1-31.13,2.86-39.68,7C14.16,59.74,25.35,55.31,36,54.15c3.34,2,10.51,3.59,15.25,3.86A69.56,69.56,0,0,0,60,58.2a123.37,123.37,0,0,1-11.86,4.39C45.17,63.55,43,66.45,44,67.82Z"/><path class="8bdd9cc1-abf6-4869-b688-df71445cba9c" d="M48.17,62.59A123.37,123.37,0,0,0,60,58.2,69.56,69.56,0,0,1,51.21,58c-1.42-2.38,1.41-3.48,4.24-3.76-.32-1.32-2.06-2.55-3-3.09h9.65c-1.52-1.71-8.69-3.48-11-2.9L48.5,49.9c1.87,2.64.52,5.15-2.06,5.79A4.33,4.33,0,0,1,41,52.41l-1.93-.77C45.41,43.73,55,40.25,66.83,40s30.53,4.71,37.92,12.54H83.25C84,54,89.15,59.74,91.35,61H74.45c1.26,1.83,6.79,6,8.53,6.94H63.84c.23,1.06,3.89,4.41,5.21,4.92H61.53a14.77,14.77,0,0,1-8.2,8.69c.86-6-.81-10.09-5-12.32a16.79,16.79,0,0,0-4.4-1.43l.1,0C43,66.45,45.17,63.55,48.17,62.59Z"/><path class="8bdd9cc1-abf6-4869-b688-df71445cba9c" d="M42.13,52.67a1,1,0,1,0,1-1A1,1,0,0,0,42.13,52.67Z"/><path class="8bdd9cc1-abf6-4869-b688-df71445cba9c" d="M44.88,54.51A2.64,2.64,0,0,0,47.51,52a4.18,4.18,0,0,0-.26-1.61,2.51,2.51,0,0,1,.86,1.79,2.6,2.6,0,0,1-4,2.17A2.63,2.63,0,0,0,44.88,54.51Z"/><path class="8bdd9cc1-abf6-4869-b688-df71445cba9c" d="M60.91,46.69c-10.22-2.25-22,.23-24.31,5-.77,1.61.9,1.66,1.93,1C42.71,49.77,54,47.14,60.91,46.69Z"/><path class="c5a57694-95a0-4f61-8030-6170c0addb5f" d="M88.52,39.81c7.52,2.34,14.67,6.26,19.11,10.5A60.85,60.85,0,0,1,113,56H90.94l.56.52c.65.58,1.25,1.08,1.81,1.51,2.06,1.57,4.07,3,4.08,3h0l4.76,3.44H84l.79.54c1.67,1.12,4.4,2.69,4.7,2.87l6.19,3.54H73.09l2.23,1.42,5.55,3.5H63.81l-.09.16A17,17,0,0,1,55,84.65a10.37,10.37,0,0,1-3.59.88h0l-2.38,0c.12-.54.49-2.33.49-2.33s.19-1,.34-2.17A20.45,20.45,0,0,0,50,78.63c0-3.67-1.34-5.21-3.34-6.26-1.4-.74-5.22-1.88-10.67-1.47h0a2.43,2.43,0,0,0-.37,0l-1.9.14A86.77,86.77,0,0,1,18,71.24a43.69,43.69,0,0,1-4.89-.84l-.11,0L8.54,72.67a5.14,5.14,0,0,1-.46-1.91,8.12,8.12,0,0,1-.05-.9,14.41,14.41,0,0,1,.67-4c2.9-10.19,16.8-13.78,24.82-15l.23,0,0-.23A4.7,4.7,0,0,1,34,49.41c.78-2.11,3.84-2.89,5.11-3.13h.09l.06-.06a33,33,0,0,1,10.27-6.54,49,49,0,0,1,17.2-3.24A71.85,71.85,0,0,1,88.52,39.81Z"/><path class="66d86f4e-2e01-4e71-a387-ca89a266a95a" d="M9.78,69.91l3-1.55a35.37,35.37,0,0,0,5.44,1,86.74,86.74,0,0,0,15.31-.19L35.82,69c5.5-.4,9.74.66,11.7,1.69,3.58,1.88,4.85,5.11,4.18,10.62-.16,1.32-.37,2.33-.37,2.33a9,9,0,0,0,2.9-.74,15.35,15.35,0,0,0,8.41-8.39H74.31s-2.9-1.83-3.83-2.51a35.26,35.26,0,0,1-2.88-2.41H88.54s-3-1.72-4.82-3a59.52,59.52,0,0,1-5.25-4H96.29s-2-1.45-4.13-3.07a36.87,36.87,0,0,1-5.62-5.42h22l-2.61-2.77c-3.6-3.81-10-7.27-18-9.76a69.47,69.47,0,0,0-21.17-3.29,47.12,47.12,0,0,0-16.53,3.09,31,31,0,0,0-10.19,6.64c-.86,0-3.82.78-4.27,2a2.37,2.37,0,0,0,.35,2.38c-11.9,1.42-23.29,5.77-25.63,14C9.65,69.47,9.78,69.91,9.78,69.91Z"/><path class="056c9e29-a8ce-49e9-b1fd-f3b1fcb43d33" d="M44,67.82a30.73,30.73,0,0,0-8.29-.45c-6.63.49-13.42,1.15-17.11.38,3.48-3.76,23.06-6.21,23.93-6.21s1.12.42.64,1.29a23.65,23.65,0,0,0,8.62-3c-14.34.1-31.13,2.86-39.68,7C14.16,59.74,25.35,55.31,36,54.15c3.34,2,10.51,3.59,15.25,3.86A69.56,69.56,0,0,0,60,58.2a123.37,123.37,0,0,1-11.86,4.39C45.17,63.55,43,66.45,44,67.82Z"/><path class="bc1a524e-9913-4dcb-be13-d683ee931910" d="M48.17,62.59A123.37,123.37,0,0,0,60,58.2,69.56,69.56,0,0,1,51.21,58c-1.42-2.38,1.41-3.48,4.24-3.76-.32-1.32-2.06-2.55-3-3.09h9.65c-1.52-1.71-8.69-3.48-11-2.9L48.5,49.9c1.87,2.64.52,5.15-2.06,5.79A4.33,4.33,0,0,1,41,52.41l-1.93-.77C45.41,43.73,55,40.25,66.83,40s30.53,4.71,37.92,12.54H83.25C84,54,89.15,59.74,91.35,61H74.45c1.26,1.83,6.79,6,8.53,6.94H63.84c.23,1.06,3.89,4.41,5.21,4.92H61.53a14.77,14.77,0,0,1-8.2,8.69c.86-6-.81-10.09-5-12.32a16.79,16.79,0,0,0-4.4-1.43l.1,0C43,66.45,45.17,63.55,48.17,62.59Z"/><path class="056c9e29-a8ce-49e9-b1fd-f3b1fcb43d33" d="M42.13,52.67a1,1,0,1,0,1-1A1,1,0,0,0,42.13,52.67Z"/><path class="056c9e29-a8ce-49e9-b1fd-f3b1fcb43d33" d="M44.88,54.51A2.64,2.64,0,0,0,47.51,52a4.18,4.18,0,0,0-.26-1.61,2.51,2.51,0,0,1,.86,1.79,2.6,2.6,0,0,1-4,2.17A2.63,2.63,0,0,0,44.88,54.51Z"/><path class="056c9e29-a8ce-49e9-b1fd-f3b1fcb43d33" d="M60.91,46.69c-10.22-2.25-22,.23-24.31,5-.77,1.61.9,1.66,1.93,1C42.71,49.77,54,47.14,60.91,46.69Z"/></svg>