<svg id="dfe5c631-38f3-49ee-80aa-d3803369d537" data-name="レイヤー 1" xmlns="http://www.w3.org/2000/svg" width="120" height="120" viewBox="0 0 120 120"><defs><style>.daa97b2b-290d-4d45-992d-ce8a203108aa{fill:none;stroke:#fff;stroke-linecap:round;stroke-linejoin:round;stroke-width:6px;}.ac6e8106-02ea-4945-aa84-72d7255617f4,.cc70f950-72b6-44b7-9e40-783a20646c23{fill:#54c2f0;}.cc70f950-72b6-44b7-9e40-783a20646c23,.d7a35625-a56f-43aa-8532-92a7f68a3db3{fill-rule:evenodd;}.\36 4e05880-9709-4982-8954-3d8355362713,.d7a35625-a56f-43aa-8532-92a7f68a3db3{fill:#212a7c;}.cf824eb6-920e-4a4e-a8be-ea7909139091{fill:#fff;}</style></defs><title>ico-kobe</title><path class="daa97b2b-290d-4d45-992d-ce8a203108aa" d="M53.09,48.17l0-.25.06,45.89c-10.91-1.24-16.3-4.56-16.3-13.17V38.52L10,20.2s.19,9.21.19,17.7V84.83c0,14.46,36.38,15,49.06,15l.26-70.07Z"/><path class="daa97b2b-290d-4d45-992d-ce8a203108aa" d="M53.09,48.17l0-.25.06,45.89c-10.91-1.24-16.3-4.56-16.3-13.17V38.52L10,20.2s.19,9.21.19,17.7V84.83c0,14.46,36.38,15,49.06,15l.26-70.07Z"/><path class="daa97b2b-290d-4d45-992d-ce8a203108aa" d="M66.91,48.17l0-.25-.06,45.89c10.91-1.24,16.3-4.56,16.3-13.17V38.52L110,20.2s-.19,9.21-.19,17.7V84.83c0,14.46-36.38,15-49.06,15l-.26-70.07Z"/><path class="daa97b2b-290d-4d45-992d-ce8a203108aa" d="M66.91,48.17l0-.25-.06,45.89c10.91-1.24,16.3-4.56,16.3-13.17V38.52L110,20.2s-.19,9.21-.19,17.7V84.83c0,14.46-36.38,15-49.06,15l-.26-70.07Z"/><path class="daa97b2b-290d-4d45-992d-ce8a203108aa" d="M22.6,68.35a2.37,2.37,0,0,1,.5-1.69,1.39,1.39,0,0,1,1.11-.33c.14,0,.09.17,0,.21a.64.64,0,0,0-.2.75.36.36,0,0,0,.22.24c.11,0,.45.06.7.1a6.43,6.43,0,0,1,.81.23c.09,0,.34-.27.32-.53s0-.57.05-.59a1.91,1.91,0,0,1,.75.71,2,2,0,0,1,0,2.2A4.59,4.59,0,0,1,26.64,72c0,.12.19-.1.11,0S28,70.56,28.42,70.2a.56.56,0,0,1,.32-.11c.14,0,.23,0,.34.23a6,6,0,0,1,.73,2.93l.51-.51a.38.38,0,0,1,.43,0,.33.33,0,0,1,0,.42,11.32,11.32,0,0,1-1,1c0,.23,0,1.5-.88,2-.15.08-.76.3-.85-.09L26.8,77.47s.05.08.13,0a10.26,10.26,0,0,1,1.45-.65,7,7,0,0,0,2.22-.94c.1-.11-.08-.08-.13-.07s-.29-.06-.12-.21A6.43,6.43,0,0,0,32,73.94c.09-.2.25,0,.26,0s.29,2-.66,2.66c-.12.08-.16-.07-.19-.17s-.11-.31-.16-.32-.11.09-.19.14a10.15,10.15,0,0,1-2.22,1.21,7.76,7.76,0,0,0-1.76,1.18,2.69,2.69,0,0,0,.81,1.16c.09.07.25.16.41-.13a3.25,3.25,0,0,0,.43-1.33c0-.14-.07-.53.33-.62a1.12,1.12,0,0,1,.82.24c.22.12,2.26,1.23,2,3.26,0,.28-.26.33-.41.08a6.65,6.65,0,0,0-1.61-1.56c-.06,0-.07,0-.07.08s-.05,1.59-.7,2a1.27,1.27,0,0,1-1.21,0c-.16-.07-1.09-.59-1.32-.7s-1.71-.76-2.33-1l-1,1c.35.73-.15.94-.33,1s-.1.38-.75.35l-.63.6c-.05.05-.08.11.06.2l1,.64c.07.06.08.19,0,.32a16.13,16.13,0,0,0-1.18,1.29,5.3,5.3,0,0,0-.9,1.62c0,.18-.26.16-.26-.13a3.61,3.61,0,0,1,.61-1.93c.14-.23.52-.75.58-.83s0-.07,0-.12l-.48-.35s-.06,0-.12.06A17.62,17.62,0,0,1,18.37,86c-.14.07-.32,0-.15-.34.08-.15,1.05-1.39,1.23-1.57a7,7,0,0,0,.7-.79c0-.09,0-.1-.07-.13l-.33-.25c-.05,0-.05,0-.12,0a11.88,11.88,0,0,1-1.12.81,3.61,3.61,0,0,1-1.85.63c-.08,0,0-.13.13-.19a10.24,10.24,0,0,0,1.28-.86c.18-.18,1.45-1.41,1.56-1.53s.21.07.29.13.81.71.85.75.12,0,.15-.07.41-.45.41-.45-.22-.12-.27-.51-.18-1.05-.22-1.23-.17-.94-.18-1-.05-.06-.09,0a10.9,10.9,0,0,1-1,1.53c-.16.17-.61.87-1.19.8-.23,0-.52-.1-.77-.74-.06-.18-.2-.71-.24-.82s-.33-.7-.4-.83a4.43,4.43,0,0,1-.4-2.4,3.48,3.48,0,0,1,.33-1.11.17.17,0,0,1,.27,0,5.77,5.77,0,0,1,1.07,1.71,7.34,7.34,0,0,1,.43,1.33c0,.09.06.09.09,0a5.17,5.17,0,0,0,.26-1.15,1,1,0,0,1,.26-.75,1.66,1.66,0,0,1,1.08-.23c0-.19-.14-2.71.5-3.27a2.77,2.77,0,0,1-.41-2.06,1.09,1.09,0,0,1,1-.87A2.9,2.9,0,0,1,22,69.12a.54.54,0,0,0-.46-.41c-.14,0-.08-.12.09-.15a.67.67,0,0,1,.59.18C22.24,68.69,22.52,68.41,22.6,68.35Z"/><path class="daa97b2b-290d-4d45-992d-ce8a203108aa" d="M22.6,68.35a2.37,2.37,0,0,1,.5-1.69,1.39,1.39,0,0,1,1.11-.33c.14,0,.09.17,0,.21a.64.64,0,0,0-.2.75.36.36,0,0,0,.22.24c.11,0,.45.06.7.1a6.43,6.43,0,0,1,.81.23c.09,0,.34-.27.32-.53s0-.57.05-.59a1.91,1.91,0,0,1,.75.71,2,2,0,0,1,0,2.2A4.59,4.59,0,0,1,26.64,72c0,.12.19-.1.11,0S28,70.56,28.42,70.2a.56.56,0,0,1,.32-.11c.14,0,.23,0,.34.23a6,6,0,0,1,.73,2.93l.51-.51a.38.38,0,0,1,.43,0,.33.33,0,0,1,0,.42,11.32,11.32,0,0,1-1,1c0,.23,0,1.5-.88,2-.15.08-.76.3-.85-.09L26.8,77.47s.05.08.13,0a10.26,10.26,0,0,1,1.45-.65,7,7,0,0,0,2.22-.94c.1-.11-.08-.08-.13-.07s-.29-.06-.12-.21A6.43,6.43,0,0,0,32,73.94c.09-.2.25,0,.26,0s.29,2-.66,2.66c-.12.08-.16-.07-.19-.17s-.11-.31-.16-.32-.11.09-.19.14a10.15,10.15,0,0,1-2.22,1.21,7.76,7.76,0,0,0-1.76,1.18,2.69,2.69,0,0,0,.81,1.16c.09.07.25.16.41-.13a3.25,3.25,0,0,0,.43-1.33c0-.14-.07-.53.33-.62a1.12,1.12,0,0,1,.82.24c.22.12,2.26,1.23,2,3.26,0,.28-.26.33-.41.08a6.65,6.65,0,0,0-1.61-1.56c-.06,0-.07,0-.07.08s-.05,1.59-.7,2a1.27,1.27,0,0,1-1.21,0c-.16-.07-1.09-.59-1.32-.7s-1.71-.76-2.33-1l-1,1c.35.73-.15.94-.33,1s-.1.38-.75.35l-.63.6c-.05.05-.08.11.06.2l1,.64c.07.06.08.19,0,.32a16.13,16.13,0,0,0-1.18,1.29,5.3,5.3,0,0,0-.9,1.62c0,.18-.26.16-.26-.13a3.61,3.61,0,0,1,.61-1.93c.14-.23.52-.75.58-.83s0-.07,0-.12l-.48-.35s-.06,0-.12.06A17.62,17.62,0,0,1,18.37,86c-.14.07-.32,0-.15-.34.08-.15,1.05-1.39,1.23-1.57a7,7,0,0,0,.7-.79c0-.09,0-.1-.07-.13l-.33-.25c-.05,0-.05,0-.12,0a11.88,11.88,0,0,1-1.12.81,3.61,3.61,0,0,1-1.85.63c-.08,0,0-.13.13-.19a10.24,10.24,0,0,0,1.28-.86c.18-.18,1.45-1.41,1.56-1.53s.21.07.29.13.81.71.85.75.12,0,.15-.07.41-.45.41-.45-.22-.12-.27-.51-.18-1.05-.22-1.23-.17-.94-.18-1-.05-.06-.09,0a10.9,10.9,0,0,1-1,1.53c-.16.17-.61.87-1.19.8-.23,0-.52-.1-.77-.74-.06-.18-.2-.71-.24-.82s-.33-.7-.4-.83a4.43,4.43,0,0,1-.4-2.4,3.48,3.48,0,0,1,.33-1.11.17.17,0,0,1,.27,0,5.77,5.77,0,0,1,1.07,1.71,7.34,7.34,0,0,1,.43,1.33c0,.09.06.09.09,0a5.17,5.17,0,0,0,.26-1.15,1,1,0,0,1,.26-.75,1.66,1.66,0,0,1,1.08-.23c0-.19-.14-2.71.5-3.27a2.77,2.77,0,0,1-.41-2.06,1.09,1.09,0,0,1,1-.87A2.9,2.9,0,0,1,22,69.12a.54.54,0,0,0-.46-.41c-.14,0-.08-.12.09-.15a.67.67,0,0,1,.59.18C22.24,68.69,22.52,68.41,22.6,68.35Z"/><path class="daa97b2b-290d-4d45-992d-ce8a203108aa" d="M23.38,79.87c-.15-.08-.66-.21-.82-.29L22,79.31c-.07,0-.07,0-.05.1s0,.65,0,.69a3.21,3.21,0,0,1,.78.43Z"/><path class="daa97b2b-290d-4d45-992d-ce8a203108aa" d="M23.38,79.87c-.15-.08-.66-.21-.82-.29L22,79.31c-.07,0-.07,0-.05.1s0,.65,0,.69a3.21,3.21,0,0,1,.78.43Z"/><path class="daa97b2b-290d-4d45-992d-ce8a203108aa" d="M21.89,76.83s0-.45,0-.49,0,0,.09,0a.55.55,0,0,1,.19.48c0,.09,0,.13-.15.11l-.12,0S21.89,76.83,21.89,76.83Z"/><path class="daa97b2b-290d-4d45-992d-ce8a203108aa" d="M21.89,76.83s0-.45,0-.49,0,0,.09,0a.55.55,0,0,1,.19.48c0,.09,0,.13-.15.11l-.12,0S21.89,76.83,21.89,76.83Z"/><path class="daa97b2b-290d-4d45-992d-ce8a203108aa" d="M28.43,74.34c-.53.12-1.26.76-1.06,1.39l-.62.61c-.05,0,0-.18,0-.39a5.12,5.12,0,0,1,.41-1.53A6.27,6.27,0,0,1,28,72.9c.06-.07.08-.08.12,0A3.16,3.16,0,0,1,28.43,74.34Z"/><path class="daa97b2b-290d-4d45-992d-ce8a203108aa" d="M28.43,74.34c-.53.12-1.26.76-1.06,1.39l-.62.61c-.05,0,0-.18,0-.39a5.12,5.12,0,0,1,.41-1.53A6.27,6.27,0,0,1,28,72.9c.06-.07.08-.08.12,0A3.16,3.16,0,0,1,28.43,74.34Z"/><path class="daa97b2b-290d-4d45-992d-ce8a203108aa" d="M29.81,73.49c0,.05,0,.41,0,.41s.77-.76.81-.81-.09-.28-.19-.2Z"/><path class="daa97b2b-290d-4d45-992d-ce8a203108aa" d="M29.81,73.49c0,.05,0,.41,0,.41s.77-.76.81-.81-.09-.28-.19-.2Z"/><path class="daa97b2b-290d-4d45-992d-ce8a203108aa" d="M27.5,75.89a1.5,1.5,0,0,1,.36-.26c.06,0,.26,0,.15.2a2,2,0,0,1-.24.25L26,78c-.12.14-2.77,2.89-2.88,3a3.4,3.4,0,0,1-.21-.28s1-1.09,1.25-1.34l1.68-1.76C26,77.45,27.45,75.94,27.5,75.89Z"/><path class="daa97b2b-290d-4d45-992d-ce8a203108aa" d="M27.5,75.89a1.5,1.5,0,0,1,.36-.26c.06,0,.26,0,.15.2a2,2,0,0,1-.24.25L26,78c-.12.14-2.77,2.89-2.88,3a3.4,3.4,0,0,1-.21-.28s1-1.09,1.25-1.34l1.68-1.76C26,77.45,27.45,75.94,27.5,75.89Z"/><path class="daa97b2b-290d-4d45-992d-ce8a203108aa" d="M23.58,69.69a1.26,1.26,0,0,1,1.09-.37,1.52,1.52,0,0,1,1,.9,2.23,2.23,0,0,1,.1,1.5.73.73,0,0,1-.36.39l-.23,0c-.07,0-.11.19.11.23a1,1,0,0,1,.7.35,1,1,0,0,1,.27.79.9.9,0,0,1-.31.72,2.65,2.65,0,0,1-1,.56,4.09,4.09,0,0,1-1.48.15,3.31,3.31,0,0,1-1.69-.82,2.17,2.17,0,0,1-.8-1,3.36,3.36,0,0,1-.32-1.57,1.05,1.05,0,0,1,.86-.86c.11,0,.12,0,.13-.17a3.2,3.2,0,0,1,.42-1.25c.06-.11.1,0,.12.05a2.66,2.66,0,0,1,0,.28c-.09.09-.65.94-.15,1.47.08.09.71.12.8-.83,0,0,.16-.05.17-.16s-.08,0-.13,0a.27.27,0,0,1-.24-.12c0-.08,0-.38-.08-.53a2.55,2.55,0,0,0-.18-.53s.1-.18.48-.16c.21,0,.59.13.56.79,0,.08,0,.12,0,.15A.11.11,0,0,0,23.58,69.69Z"/><path class="daa97b2b-290d-4d45-992d-ce8a203108aa" d="M23.58,69.69a1.26,1.26,0,0,1,1.09-.37,1.52,1.52,0,0,1,1,.9,2.23,2.23,0,0,1,.1,1.5.73.73,0,0,1-.36.39l-.23,0c-.07,0-.11.19.11.23a1,1,0,0,1,.7.35,1,1,0,0,1,.27.79.9.9,0,0,1-.31.72,2.65,2.65,0,0,1-1,.56,4.09,4.09,0,0,1-1.48.15,3.31,3.31,0,0,1-1.69-.82,2.17,2.17,0,0,1-.8-1,3.36,3.36,0,0,1-.32-1.57,1.05,1.05,0,0,1,.86-.86c.11,0,.12,0,.13-.17a3.2,3.2,0,0,1,.42-1.25c.06-.11.1,0,.12.05a2.66,2.66,0,0,1,0,.28c-.09.09-.65.94-.15,1.47.08.09.71.12.8-.83,0,0,.16-.05.17-.16s-.08,0-.13,0a.27.27,0,0,1-.24-.12c0-.08,0-.38-.08-.53a2.55,2.55,0,0,0-.18-.53s.1-.18.48-.16c.21,0,.59.13.56.79,0,.08,0,.12,0,.15A.11.11,0,0,0,23.58,69.69Z"/><path class="daa97b2b-290d-4d45-992d-ce8a203108aa" d="M22.25,69.92a1.15,1.15,0,0,0,.35.37c.06,0,.06.07.06.12a.72.72,0,0,1-.12.25c-.35-.11-.39.17-.36.31S22,70.9,22,70.51a1.6,1.6,0,0,1,.18-.58S22.25,69.92,22.25,69.92Z"/><path class="daa97b2b-290d-4d45-992d-ce8a203108aa" d="M22.25,69.92a1.15,1.15,0,0,0,.35.37c.06,0,.06.07.06.12a.72.72,0,0,1-.12.25c-.35-.11-.39.17-.36.31S22,70.9,22,70.51a1.6,1.6,0,0,1,.18-.58S22.25,69.92,22.25,69.92Z"/><path class="daa97b2b-290d-4d45-992d-ce8a203108aa" d="M23.49,70.64s-.18-.15-.19-.27.07-.05.1,0,.17.16.25.13a.94.94,0,0,0,.41-.35,1.62,1.62,0,0,1,.54-.45,1,1,0,0,1,.6,0c.08,0,.07.1,0,.11a.68.68,0,0,0-.31.08l-.3.27c0,.13.13,1.26-.31,1.53-.24.14-.6.19-.72-.19C23.51,71.35,23.51,70.66,23.49,70.64Z"/><path class="daa97b2b-290d-4d45-992d-ce8a203108aa" d="M23.49,70.64s-.18-.15-.19-.27.07-.05.1,0,.17.16.25.13a.94.94,0,0,0,.41-.35,1.62,1.62,0,0,1,.54-.45,1,1,0,0,1,.6,0c.08,0,.07.1,0,.11a.68.68,0,0,0-.31.08l-.3.27c0,.13.13,1.26-.31,1.53-.24.14-.6.19-.72-.19C23.51,71.35,23.51,70.66,23.49,70.64Z"/><path class="daa97b2b-290d-4d45-992d-ce8a203108aa" d="M23.66,71.19s0-.39,0-.43,0-.08.07-.08a.53.53,0,0,0,.32-.12c.07-.06.24-.23.31-.24s.08,0,.08.12.08,1.13-.49,1.13c0-.06.05-.28,0-.34A.37.37,0,0,0,23.66,71.19Z"/><path class="daa97b2b-290d-4d45-992d-ce8a203108aa" d="M23.66,71.19s0-.39,0-.43,0-.08.07-.08a.53.53,0,0,0,.32-.12c.07-.06.24-.23.31-.24s.08,0,.08.12.08,1.13-.49,1.13c0-.06.05-.28,0-.34A.37.37,0,0,0,23.66,71.19Z"/><path class="daa97b2b-290d-4d45-992d-ce8a203108aa" d="M22.1,71.22c.07,0,.26,0,.28.07s-.09.14-.17.15-.28,0-.3.09,0,.14.22.32a.92.92,0,0,0,.66.13s.2,0,.19-.16-.06-.16-.12-.2,0-.16.09-.17a.67.67,0,0,1,.4.08c.06,0,.28.11.21.27s-.15,0-.19,0a.29.29,0,0,0-.2-.07.48.48,0,0,1-.11.37,1.2,1.2,0,0,1-.24.06.56.56,0,0,0,0,.15s0,.09.31.07a.69.69,0,0,0,.47-.2.18.18,0,0,1,.22,0,.14.14,0,0,1-.05.19,1.4,1.4,0,0,1-.5.21,1.83,1.83,0,0,1-.63-.06.38.38,0,0,1-.21-.32s-.18,0-.19,0-.07.23-.26.22a.85.85,0,0,1-.54-.33,1.13,1.13,0,0,1-.27-.64c0-.18.16-.28.2,0a.74.74,0,0,0,.2.56c.08.1.16.21.35.17S22,72,22,72a1.9,1.9,0,0,0-.2-.18.38.38,0,0,1-.05-.41A.63.63,0,0,1,22.1,71.22Z"/><path class="daa97b2b-290d-4d45-992d-ce8a203108aa" d="M22.1,71.22c.07,0,.26,0,.28.07s-.09.14-.17.15-.28,0-.3.09,0,.14.22.32a.92.92,0,0,0,.66.13s.2,0,.19-.16-.06-.16-.12-.2,0-.16.09-.17a.67.67,0,0,1,.4.08c.06,0,.28.11.21.27s-.15,0-.19,0a.29.29,0,0,0-.2-.07.48.48,0,0,1-.11.37,1.2,1.2,0,0,1-.24.06.56.56,0,0,0,0,.15s0,.09.31.07a.69.69,0,0,0,.47-.2.18.18,0,0,1,.22,0,.14.14,0,0,1-.05.19,1.4,1.4,0,0,1-.5.21,1.83,1.83,0,0,1-.63-.06.38.38,0,0,1-.21-.32s-.18,0-.19,0-.07.23-.26.22a.85.85,0,0,1-.54-.33,1.13,1.13,0,0,1-.27-.64c0-.18.16-.28.2,0a.74.74,0,0,0,.2.56c.08.1.16.21.35.17S22,72,22,72a1.9,1.9,0,0,0-.2-.18.38.38,0,0,1-.05-.41A.63.63,0,0,1,22.1,71.22Z"/><path class="daa97b2b-290d-4d45-992d-ce8a203108aa" d="M20.82,72.39c0-.16.07-.53.38-.35a3,3,0,0,0,.57.43,3.37,3.37,0,0,0,1.33.45,8.2,8.2,0,0,0,1.53-.07c.12,0,.25-.12.4-.06a.22.22,0,0,1,.1.34,3,3,0,0,1-.69.71A2,2,0,0,1,23,74.1a2.1,2.1,0,0,1-.94-.38,2.58,2.58,0,0,1-.6-.68,5,5,0,0,1-.32-.68c0-.07-.09-.12-.11,0s0,.18-.12.17S20.82,72.39,20.82,72.39Z"/><path class="daa97b2b-290d-4d45-992d-ce8a203108aa" d="M20.82,72.39c0-.16.07-.53.38-.35a3,3,0,0,0,.57.43,3.37,3.37,0,0,0,1.33.45,8.2,8.2,0,0,0,1.53-.07c.12,0,.25-.12.4-.06a.22.22,0,0,1,.1.34,3,3,0,0,1-.69.71A2,2,0,0,1,23,74.1a2.1,2.1,0,0,1-.94-.38,2.58,2.58,0,0,1-.6-.68,5,5,0,0,1-.32-.68c0-.07-.09-.12-.11,0s0,.18-.12.17S20.82,72.39,20.82,72.39Z"/><path class="daa97b2b-290d-4d45-992d-ce8a203108aa" d="M21.56,72.6l.6.31a3.37,3.37,0,0,1-.05.52s-.07,0-.11,0a2.26,2.26,0,0,1-.52-.75C21.46,72.58,21.48,72.56,21.56,72.6Z"/><path class="daa97b2b-290d-4d45-992d-ce8a203108aa" d="M21.56,72.6l.6.31a3.37,3.37,0,0,1-.05.52s-.07,0-.11,0a2.26,2.26,0,0,1-.52-.75C21.46,72.58,21.48,72.56,21.56,72.6Z"/><path class="daa97b2b-290d-4d45-992d-ce8a203108aa" d="M22.39,73a4.34,4.34,0,0,0-.08.52.71.71,0,0,0,.66.34,4.63,4.63,0,0,0,0-.76s-.25-.08-.32-.1S22.4,73,22.39,73Z"/><path class="daa97b2b-290d-4d45-992d-ce8a203108aa" d="M22.39,73a4.34,4.34,0,0,0-.08.52.71.71,0,0,0,.66.34,4.63,4.63,0,0,0,0-.76s-.25-.08-.32-.1S22.4,73,22.39,73Z"/><path class="daa97b2b-290d-4d45-992d-ce8a203108aa" d="M23.17,73.17s-.12.69.12.76c.07,0,.56.09.76-.12a3.83,3.83,0,0,0,0-.68c0-.06-.37,0-.45,0C23.21,73.1,23.19,73.11,23.17,73.17Z"/><path class="daa97b2b-290d-4d45-992d-ce8a203108aa" d="M23.17,73.17s-.12.69.12.76c.07,0,.56.09.76-.12a3.83,3.83,0,0,0,0-.68c0-.06-.37,0-.45,0C23.21,73.1,23.19,73.11,23.17,73.17Z"/><path class="daa97b2b-290d-4d45-992d-ce8a203108aa" d="M24.29,73.13c0,.06-.05.49,0,.53s.59-.5.64-.61S24.9,73,24.86,73,24.28,73,24.29,73.13Z"/><path class="daa97b2b-290d-4d45-992d-ce8a203108aa" d="M24.29,73.13c0,.06-.05.49,0,.53s.59-.5.64-.61S24.9,73,24.86,73,24.28,73,24.29,73.13Z"/><path class="daa97b2b-290d-4d45-992d-ce8a203108aa" d="M24.72,72.64c-.12,0-.21-.17-.07-.19a1.16,1.16,0,0,1,.89.23.43.43,0,0,1,.12.43,1,1,0,0,1-.25.36s-.17,0-.13-.12.23-.28.17-.43a.46.46,0,0,0-.28-.24A3.15,3.15,0,0,0,24.72,72.64Z"/><path class="daa97b2b-290d-4d45-992d-ce8a203108aa" d="M24.72,72.64c-.12,0-.21-.17-.07-.19a1.16,1.16,0,0,1,.89.23.43.43,0,0,1,.12.43,1,1,0,0,1-.25.36s-.17,0-.13-.12.23-.28.17-.43a.46.46,0,0,0-.28-.24A3.15,3.15,0,0,0,24.72,72.64Z"/><path class="daa97b2b-290d-4d45-992d-ce8a203108aa" d="M22,74c0-.05,0-.21.12-.13a3,3,0,0,0,.77.48,1.68,1.68,0,0,0,.8.08c.09,0,.18.07.1.12a1.46,1.46,0,0,1-1,0A2.61,2.61,0,0,1,22,74Z"/><path class="daa97b2b-290d-4d45-992d-ce8a203108aa" d="M22,74c0-.05,0-.21.12-.13a3,3,0,0,0,.77.48,1.68,1.68,0,0,0,.8.08c.09,0,.18.07.1.12a1.46,1.46,0,0,1-1,0A2.61,2.61,0,0,1,22,74Z"/><path class="daa97b2b-290d-4d45-992d-ce8a203108aa" d="M21.73,82.07a3.73,3.73,0,0,0,.3.29s-.67.65-.73.72-.09.19,0,.29,1,.62,1,.64a.1.1,0,0,1,0,.17c-.08.06-1,1.09-1.15,1.23s-.62,1-.65,1a3.28,3.28,0,0,1,.67-1.56c.08-.1.42-.58.46-.6s0-.12-.06-.17-.61-.45-.66-.5a.16.16,0,0,0-.21,0c-.06.08-.72.74-.81.82a16.62,16.62,0,0,1-1.33,1.11,14.89,14.89,0,0,1,1.1-1.41c.11-.14.7-.75.74-.79s0-.15-.07-.21-.49-.47-.53-.51a.18.18,0,0,0-.23,0,11.45,11.45,0,0,1-.95.78,4.61,4.61,0,0,1-.84.37,9.41,9.41,0,0,1,.78-.68c.14-.13,1.05-1,1.08-1a.11.11,0,0,1,.14,0l.91.83c.06,0,.16.06.25-.07S21.73,82.07,21.73,82.07Z"/><path class="daa97b2b-290d-4d45-992d-ce8a203108aa" d="M21.73,82.07a3.73,3.73,0,0,0,.3.29s-.67.65-.73.72-.09.19,0,.29,1,.62,1,.64a.1.1,0,0,1,0,.17c-.08.06-1,1.09-1.15,1.23s-.62,1-.65,1a3.28,3.28,0,0,1,.67-1.56c.08-.1.42-.58.46-.6s0-.12-.06-.17-.61-.45-.66-.5a.16.16,0,0,0-.21,0c-.06.08-.72.74-.81.82a16.62,16.62,0,0,1-1.33,1.11,14.89,14.89,0,0,1,1.1-1.41c.11-.14.7-.75.74-.79s0-.15-.07-.21-.49-.47-.53-.51a.18.18,0,0,0-.23,0,11.45,11.45,0,0,1-.95.78,4.61,4.61,0,0,1-.84.37,9.41,9.41,0,0,1,.78-.68c.14-.13,1.05-1,1.08-1a.11.11,0,0,1,.14,0l.91.83c.06,0,.16.06.25-.07S21.73,82.07,21.73,82.07Z"/><path class="cc70f950-72b6-44b7-9e40-783a20646c23" d="M53.09,48.17l0-.25.06,45.89c-10.91-1.24-16.3-4.56-16.3-13.17V38.52L10,20.2s.19,9.21.19,17.7V84.83c0,14.46,36.38,15,49.06,15l.26-70.07Z"/><path class="d7a35625-a56f-43aa-8532-92a7f68a3db3" d="M66.91,48.17l0-.25-.06,45.89c10.91-1.24,16.3-4.56,16.3-13.17V38.52L110,20.2s-.19,9.21-.19,17.7V84.83c0,14.46-36.38,15-49.06,15l-.26-70.07Z"/><path class="64e05880-9709-4982-8954-3d8355362713" d="M22.6,68.35a2.37,2.37,0,0,1,.5-1.69,1.39,1.39,0,0,1,1.11-.33c.14,0,.09.17,0,.21a.64.64,0,0,0-.2.75.36.36,0,0,0,.22.24c.11,0,.45.06.7.1a6.43,6.43,0,0,1,.81.23c.09,0,.34-.27.32-.53s0-.57.05-.59a1.91,1.91,0,0,1,.75.71,2,2,0,0,1,0,2.2A4.59,4.59,0,0,1,26.64,72c0,.12.19-.1.11,0S28,70.56,28.42,70.2a.56.56,0,0,1,.32-.11c.14,0,.23,0,.34.23a6,6,0,0,1,.73,2.93l.51-.51a.38.38,0,0,1,.43,0,.33.33,0,0,1,0,.42,11.32,11.32,0,0,1-1,1c0,.23,0,1.5-.88,2-.15.08-.76.3-.85-.09L26.8,77.47s.05.08.13,0a10.26,10.26,0,0,1,1.45-.65,7,7,0,0,0,2.22-.94c.1-.11-.08-.08-.13-.07s-.29-.06-.12-.21A6.43,6.43,0,0,0,32,73.94c.09-.2.25,0,.26,0s.29,2-.66,2.66c-.12.08-.16-.07-.19-.17s-.11-.31-.16-.32-.11.09-.19.14a10.15,10.15,0,0,1-2.22,1.21,7.76,7.76,0,0,0-1.76,1.18,2.69,2.69,0,0,0,.81,1.16c.09.07.25.16.41-.13a3.25,3.25,0,0,0,.43-1.33c0-.14-.07-.53.33-.62a1.12,1.12,0,0,1,.82.24c.22.12,2.26,1.23,2,3.26,0,.28-.26.33-.41.08a6.65,6.65,0,0,0-1.61-1.56c-.06,0-.07,0-.07.08s-.05,1.59-.7,2a1.27,1.27,0,0,1-1.21,0c-.16-.07-1.09-.59-1.32-.7s-1.71-.76-2.33-1l-1,1c.35.73-.15.94-.33,1s-.1.38-.75.35l-.63.6c-.05.05-.08.11.06.2l1,.64c.07.06.08.19,0,.32a16.13,16.13,0,0,0-1.18,1.29,5.3,5.3,0,0,0-.9,1.62c0,.18-.26.16-.26-.13a3.61,3.61,0,0,1,.61-1.93c.14-.23.52-.75.58-.83s0-.07,0-.12l-.48-.35s-.06,0-.12.06A17.62,17.62,0,0,1,18.37,86c-.14.07-.32,0-.15-.34.08-.15,1.05-1.39,1.23-1.57a7,7,0,0,0,.7-.79c0-.09,0-.1-.07-.13l-.33-.25c-.05,0-.05,0-.12,0a11.88,11.88,0,0,1-1.12.81,3.61,3.61,0,0,1-1.85.63c-.08,0,0-.13.13-.19a10.24,10.24,0,0,0,1.28-.86c.18-.18,1.45-1.41,1.56-1.53s.21.07.29.13.81.71.85.75.12,0,.15-.07.41-.45.41-.45-.22-.12-.27-.51-.18-1.05-.22-1.23-.17-.94-.18-1-.05-.06-.09,0a10.9,10.9,0,0,1-1,1.53c-.16.17-.61.87-1.19.8-.23,0-.52-.1-.77-.74-.06-.18-.2-.71-.24-.82s-.33-.7-.4-.83a4.43,4.43,0,0,1-.4-2.4,3.48,3.48,0,0,1,.33-1.11.17.17,0,0,1,.27,0,5.77,5.77,0,0,1,1.07,1.71,7.34,7.34,0,0,1,.43,1.33c0,.09.06.09.09,0a5.17,5.17,0,0,0,.26-1.15,1,1,0,0,1,.26-.75,1.66,1.66,0,0,1,1.08-.23c0-.19-.14-2.71.5-3.27a2.77,2.77,0,0,1-.41-2.06,1.09,1.09,0,0,1,1-.87A2.9,2.9,0,0,1,22,69.12a.54.54,0,0,0-.46-.41c-.14,0-.08-.12.09-.15a.67.67,0,0,1,.59.18C22.24,68.69,22.52,68.41,22.6,68.35Z"/><path class="ac6e8106-02ea-4945-aa84-72d7255617f4" d="M23.38,79.87c-.15-.08-.66-.21-.82-.29L22,79.31c-.07,0-.07,0-.05.1s0,.65,0,.69a3.21,3.21,0,0,1,.78.43Z"/><path class="ac6e8106-02ea-4945-aa84-72d7255617f4" d="M21.89,76.83s0-.45,0-.49,0,0,.09,0a.55.55,0,0,1,.19.48c0,.09,0,.13-.15.11l-.12,0S21.89,76.83,21.89,76.83Z"/><path class="ac6e8106-02ea-4945-aa84-72d7255617f4" d="M28.43,74.34c-.53.12-1.26.76-1.06,1.39l-.62.61c-.05,0,0-.18,0-.39a5.12,5.12,0,0,1,.41-1.53A6.27,6.27,0,0,1,28,72.9c.06-.07.08-.08.12,0A3.16,3.16,0,0,1,28.43,74.34Z"/><path class="cf824eb6-920e-4a4e-a8be-ea7909139091" d="M29.81,73.49c0,.05,0,.41,0,.41s.77-.76.81-.81-.09-.28-.19-.2Z"/><path class="cf824eb6-920e-4a4e-a8be-ea7909139091" d="M27.5,75.89a1.5,1.5,0,0,1,.36-.26c.06,0,.26,0,.15.2a2,2,0,0,1-.24.25L26,78c-.12.14-2.77,2.89-2.88,3a3.4,3.4,0,0,1-.21-.28s1-1.09,1.25-1.34l1.68-1.76C26,77.45,27.45,75.94,27.5,75.89Z"/><path class="cf824eb6-920e-4a4e-a8be-ea7909139091" d="M23.58,69.69a1.26,1.26,0,0,1,1.09-.37,1.52,1.52,0,0,1,1,.9,2.23,2.23,0,0,1,.1,1.5.73.73,0,0,1-.36.39l-.23,0c-.07,0-.11.19.11.23a1,1,0,0,1,.7.35,1,1,0,0,1,.27.79.9.9,0,0,1-.31.72,2.65,2.65,0,0,1-1,.56,4.09,4.09,0,0,1-1.48.15,3.31,3.31,0,0,1-1.69-.82,2.17,2.17,0,0,1-.8-1,3.36,3.36,0,0,1-.32-1.57,1.05,1.05,0,0,1,.86-.86c.11,0,.12,0,.13-.17a3.2,3.2,0,0,1,.42-1.25c.06-.11.1,0,.12.05a2.66,2.66,0,0,1,0,.28c-.09.09-.65.94-.15,1.47.08.09.71.12.8-.83,0,0,.16-.05.17-.16s-.08,0-.13,0a.27.27,0,0,1-.24-.12c0-.08,0-.38-.08-.53a2.55,2.55,0,0,0-.18-.53s.1-.18.48-.16c.21,0,.59.13.56.79,0,.08,0,.12,0,.15A.11.11,0,0,0,23.58,69.69Z"/><path class="cf824eb6-920e-4a4e-a8be-ea7909139091" d="M22.25,69.92a1.15,1.15,0,0,0,.35.37c.06,0,.06.07.06.12a.72.72,0,0,1-.12.25c-.35-.11-.39.17-.36.31S22,70.9,22,70.51a1.6,1.6,0,0,1,.18-.58S22.25,69.92,22.25,69.92Z"/><path class="64e05880-9709-4982-8954-3d8355362713" d="M23.49,70.64s-.18-.15-.19-.27.07-.05.1,0,.17.16.25.13a.94.94,0,0,0,.41-.35,1.62,1.62,0,0,1,.54-.45,1,1,0,0,1,.6,0c.08,0,.07.1,0,.11a.68.68,0,0,0-.31.08l-.3.27c0,.13.13,1.26-.31,1.53-.24.14-.6.19-.72-.19C23.51,71.35,23.51,70.66,23.49,70.64Z"/><path class="cf824eb6-920e-4a4e-a8be-ea7909139091" d="M23.66,71.19s0-.39,0-.43,0-.08.07-.08a.53.53,0,0,0,.32-.12c.07-.06.24-.23.31-.24s.08,0,.08.12.08,1.13-.49,1.13c0-.06.05-.28,0-.34A.37.37,0,0,0,23.66,71.19Z"/><path class="64e05880-9709-4982-8954-3d8355362713" d="M22.1,71.22c.07,0,.26,0,.28.07s-.09.14-.17.15-.28,0-.3.09,0,.14.22.32a.92.92,0,0,0,.66.13s.2,0,.19-.16-.06-.16-.12-.2,0-.16.09-.17a.67.67,0,0,1,.4.08c.06,0,.28.11.21.27s-.15,0-.19,0a.29.29,0,0,0-.2-.07.48.48,0,0,1-.11.37,1.2,1.2,0,0,1-.24.06.56.56,0,0,0,0,.15s0,.09.31.07a.69.69,0,0,0,.47-.2.18.18,0,0,1,.22,0,.14.14,0,0,1-.05.19,1.4,1.4,0,0,1-.5.21,1.83,1.83,0,0,1-.63-.06.38.38,0,0,1-.21-.32s-.18,0-.19,0-.07.23-.26.22a.85.85,0,0,1-.54-.33,1.13,1.13,0,0,1-.27-.64c0-.18.16-.28.2,0a.74.74,0,0,0,.2.56c.08.1.16.21.35.17S22,72,22,72a1.9,1.9,0,0,0-.2-.18.38.38,0,0,1-.05-.41A.63.63,0,0,1,22.1,71.22Z"/><path class="64e05880-9709-4982-8954-3d8355362713" d="M20.82,72.39c0-.16.07-.53.38-.35a3,3,0,0,0,.57.43,3.37,3.37,0,0,0,1.33.45,8.2,8.2,0,0,0,1.53-.07c.12,0,.25-.12.4-.06a.22.22,0,0,1,.1.34,3,3,0,0,1-.69.71A2,2,0,0,1,23,74.1a2.1,2.1,0,0,1-.94-.38,2.58,2.58,0,0,1-.6-.68,5,5,0,0,1-.32-.68c0-.07-.09-.12-.11,0s0,.18-.12.17S20.82,72.39,20.82,72.39Z"/><path class="cf824eb6-920e-4a4e-a8be-ea7909139091" d="M21.56,72.6l.6.31a3.37,3.37,0,0,1-.05.52s-.07,0-.11,0a2.26,2.26,0,0,1-.52-.75C21.46,72.58,21.48,72.56,21.56,72.6Z"/><path class="cf824eb6-920e-4a4e-a8be-ea7909139091" d="M22.39,73a4.34,4.34,0,0,0-.08.52.71.71,0,0,0,.66.34,4.63,4.63,0,0,0,0-.76s-.25-.08-.32-.1S22.4,73,22.39,73Z"/><path class="cf824eb6-920e-4a4e-a8be-ea7909139091" d="M23.17,73.17s-.12.69.12.76c.07,0,.56.09.76-.12a3.83,3.83,0,0,0,0-.68c0-.06-.37,0-.45,0C23.21,73.1,23.19,73.11,23.17,73.17Z"/><path class="cf824eb6-920e-4a4e-a8be-ea7909139091" d="M24.29,73.13c0,.06-.05.49,0,.53s.59-.5.64-.61S24.9,73,24.86,73,24.28,73,24.29,73.13Z"/><path class="64e05880-9709-4982-8954-3d8355362713" d="M24.72,72.64c-.12,0-.21-.17-.07-.19a1.16,1.16,0,0,1,.89.23.43.43,0,0,1,.12.43,1,1,0,0,1-.25.36s-.17,0-.13-.12.23-.28.17-.43a.46.46,0,0,0-.28-.24A3.15,3.15,0,0,0,24.72,72.64Z"/><path class="64e05880-9709-4982-8954-3d8355362713" d="M22,74c0-.05,0-.21.12-.13a3,3,0,0,0,.77.48,1.68,1.68,0,0,0,.8.08c.09,0,.18.07.1.12a1.46,1.46,0,0,1-1,0A2.61,2.61,0,0,1,22,74Z"/><path class="cf824eb6-920e-4a4e-a8be-ea7909139091" d="M21.73,82.07a3.73,3.73,0,0,0,.3.29s-.67.65-.73.72-.09.19,0,.29,1,.62,1,.64a.1.1,0,0,1,0,.17c-.08.06-1,1.09-1.15,1.23s-.62,1-.65,1a3.28,3.28,0,0,1,.67-1.56c.08-.1.42-.58.46-.6s0-.12-.06-.17-.61-.45-.66-.5a.16.16,0,0,0-.21,0c-.06.08-.72.74-.81.82a16.62,16.62,0,0,1-1.33,1.11,14.89,14.89,0,0,1,1.1-1.41c.11-.14.7-.75.74-.79s0-.15-.07-.21-.49-.47-.53-.51a.18.18,0,0,0-.23,0,11.45,11.45,0,0,1-.95.78,4.61,4.61,0,0,1-.84.37,9.41,9.41,0,0,1,.78-.68c.14-.13,1.05-1,1.08-1a.11.11,0,0,1,.14,0l.91.83c.06,0,.16.06.25-.07S21.73,82.07,21.73,82.07Z"/></svg>