<svg id="5acc4584-ccec-4b7e-b620-97392cb0301b" data-name="レイヤー 1" xmlns="http://www.w3.org/2000/svg" width="120" height="120" viewBox="0 0 120 120"><defs><style>.\30 3bd4966-2307-466a-823c-dc761feb0ade{fill:#fff;}.\31 38a3d49-bbc4-4baf-8761-31894bc4f417{fill:none;stroke:#fff;stroke-linecap:round;stroke-linejoin:round;stroke-width:4px;}.\38 90a23f6-8e46-4101-9c4f-5aaa462a5ad8{fill:#015aa6;}</style></defs><title>ico-kansai</title><rect class="03bd4966-2307-466a-823c-dc761feb0ade" x="52.61" y="62.23" width="28.96" height="31.22"/><path class="138a3d49-bbc4-4baf-8761-31894bc4f417" d="M107.5,24.39l-.11.09c-.46,0-.92,0-1.35,0s-1.13.08-1.71.07c-.32.18-.72,0-1,.2a6.64,6.64,0,0,1-1,.11c-.21.15-.57,0-.73.19-.32,0-.54.15-.85.13-.07.15-.36,0-.44.2-.33-.05-.56.16-.89.11a5.67,5.67,0,0,0-.79.33c-.19,0-.3.13-.5.1a9.06,9.06,0,0,1-1,.4c-.2,0-.33.14-.52.13-.29.16-.58.29-.84.41-.52.22-1,.47-1.56.66,0,.12-.23.07-.25.18a2.51,2.51,0,0,0-.72.34c-.28.07-.49.31-.73.42a5.15,5.15,0,0,0-.54.23c-1,.36-1.66,1.12-2.62,1.56a9.13,9.13,0,0,0-1.14.85c-.16-.09-.09.16-.25.07-.19.29-.56.38-.77.64a5.69,5.69,0,0,0-.85.56c-.1.19-.37.16-.45.4-.29,0-.37.38-.65.43-.53.44-1,.87-1.57,1.34s-1.2,1.12-1.83,1.63v.06a18.09,18.09,0,0,0-1.49,1.4c-.63.65-1.2,1.27-1.8,1.91-1.05-.24-2.06-.71-3.1-.93-.31.07-.49-.18-.78-.14-.13-.15-.36-.05-.49-.16-.51-.16-1-.21-1.54-.35-.34.08-.59-.14-.9-.07-.1.36,0,.83-.11,1.17,0,.3-.13.58.15.75a9.83,9.83,0,0,1,1.67.32c.37.12.71.17,1.08.31.06.14.27,0,.34.16.28-.08.36.2.64.15.12.12.29.07.42.18.23,0,.31.15.52.13.3.15.58.2.87.38.2,0,.32.16.53.18.44.14.78.4,1.2.57h.11c0,.14.2.08.22.17a4.84,4.84,0,0,1,.83.39c.8.51,1.65.92,2.46,1.46.62.47,1.24,1,1.9,1.41.16.28.48.34.67.57h.06c.17.4.65.48.85.82.83-.07,1.59-.5,2.42-.49a11.91,11.91,0,0,1,1.66.1c.35-.06.58.16,1,.12s1.06.37,1.58.51c.32.16.56.34.87.48a1.7,1.7,0,0,0,.45.35,8.37,8.37,0,0,1,1.1,1.37c.42.33.38.91.73,1.31a8.41,8.41,0,0,1-.08,4.17c0,.23-.14.33-.11.6-.16.17,0,.37-.21.55-.24,1-.65,2-.89,3-.55,1.5-1,3-1.57,4.52,0,.24-.4.2-.56.18l-1.54,0-.08,0c-2.75,0-5.49,0-8.23,0l-.09,0h-1c-1.34,0-2.68,0-4,0L65,63.87a13.14,13.14,0,0,1-2.41-.31c-.47-.2-1-.25-1.45-.45a6.67,6.67,0,0,0-.78-.31A16.12,16.12,0,0,1,58,61.23c-.12-.12-.16-.26-.33-.31a5.42,5.42,0,0,0-.85-1c-.06-.27-.33-.46-.46-.69a12.2,12.2,0,0,1-.72-1.45c0-.34-.28-.54-.24-.9a6.9,6.9,0,0,1,0-3.35c0-.22.18-.33.15-.56a11.73,11.73,0,0,1,.85-1.7c.2-.13.21-.36.4-.53a10.15,10.15,0,0,1,1.43-1.28c.19.07.15-.21.34-.14.08-.18.33-.15.41-.29.26-.05.39-.3.69-.29a8.35,8.35,0,0,1,1.07-.35,4.61,4.61,0,0,0,.54,0l.06-.07a10.8,10.8,0,0,1,2,0l1.54.42a8.9,8.9,0,0,1,1.19.61c.4.4,1,.59,1.29,1a4.77,4.77,0,0,1,.92,1.23c.23.12.18.43.38.6,0,.31.33.46.29.8,0,.11,0,.24.16.29s.27-.14.46-.08c.08-.15.3,0,.34-.18a9.82,9.82,0,0,0,1.49-.54c.14-.08.37,0,.44-.22a.22.22,0,0,0,.23,0v-.06a4.4,4.4,0,0,0,1.1-.35,2.09,2.09,0,0,0,.4-.19c.51-.27,1.12-.32,1.6-.6.17,0,.29-.18.5-.13,0-.21.31,0,.36-.23.2.05.34-.14.56-.1.06-.18.28,0,.35-.21.56-.06,1-.43,1.53-.52.11-.16.34-.07.45-.24.17.1.18-.16.33-.07.16-.09.41-.08.52-.23.26,0,.45-.22.69-.21a4.69,4.69,0,0,1,.69-.32c.19,0,.26-.18.47-.11.17-.21-.14-.28-.2-.42-.77-.48-1.46-1.06-2.27-1.5-.57-.28-1.11-.63-1.69-.94-.25,0-.37-.21-.6-.23-.3-.28-.68-.19-.94-.5-.86-.2-1.64-.69-2.5-.83-.14-.2-.44,0-.56-.23-.92-.25-1.93-.38-2.84-.62-.51-.09-1.07-.11-1.56-.15l-.07-.06c-.73,0-1.4,0-2.15-.1a16.91,16.91,0,0,1-2.59.1c-.23.2-.64,0-.85.18-.46,0-.93.15-1.43.14-.12.15-.39,0-.51.18-.29,0-.51.17-.79.15a13.31,13.31,0,0,1-1.31.34c-.62.15-1.18.52-1.79.61-1,.41-1.9.89-2.89,1.33-.34.23-.7.41-1,.67s-.72.31-1,.52-.8.64-1.2,1c-.16,0-.2.22-.38.23-.56.42-1,1-1.57,1.42h-.07c-.8.78-1.49,1.66-2.27,2.46a21.17,21.17,0,0,0-1.42,2,10.12,10.12,0,0,0-.87,1.45c-.13.12-.13.3-.29.4-.33.81-.72,1.58-1.07,2.38s-.52,1.55-.85,2.29a24.68,24.68,0,0,0-.81,3.93,21.2,21.2,0,0,0-.08,5.4c.15.26,0,.58.2.83,0,.49.22.92.22,1.39.21.86.41,1.72.67,2.6s.5,1.58.68,2.42a5.24,5.24,0,0,1,.28.69c0,.2.18.35.15.58s.28.62.4,1c-.05.27.16.32.15.58.25.66.47,1.28.69,1.92.5,1.35,1.18,2.61,1.61,4,.21.33.25.67.44,1,.08.06,0,.2.17.27.14.43.39.86.57,1.29.21.16.13.4.32.57,0,.15.16.2.07.35a20.82,20.82,0,0,1-2.21.27l-.08.08c-.64-.09-1.18.23-1.85.17-.34.11-.68-.06-1,.16-.67.09-1.31.07-2,.21s-1.33.23-2,.3c-.49,0-1,.18-1.54.14-.07.13-.27,0-.32.15A9.06,9.06,0,0,0,38,92.32c.37.3.72.61,1.08.92v.06c.52.47,1,1,1.57,1.43,0,.11.1.15.18.23.4.22.64.65,1.06.9.89.05,1.74.26,2.64.23l.12.1c.63-.07,1.13.15,1.68.08.17.09.45,0,.6.11l1.11.1-.18,2.07c-1.62-.14-3.25-.24-4.86-.44-.38-.11-.91.08-1.23-.16a4.05,4.05,0,0,1-1.21-.07c-.47,0-.62-.5-1-.65a12.85,12.85,0,0,0-1.4-1.37,4.83,4.83,0,0,1-.83-.73c-.1,0-.07-.17-.19-.11,0-.15-.17,0-.12-.18-.1-.13-.28-.23-.36-.35h-.06c-.77-.75-1.63-1.39-2.39-2.19a11.36,11.36,0,0,0-.9-.77c-.74-.73-1.54-1.37-2.27-2.11.13-.13.39,0,.5-.14l.63,0c.88-.21,1.79-.35,2.68-.5.37,0,.7-.12,1.1-.13s.65,0,.94-.2c.35,0,.76-.1,1.14-.11.16-.2.57,0,.74-.19.5.07.85-.22,1.31-.15.19-.16.59,0,.79-.18.45.06.72-.19,1.16-.15.13-.17.54.12.44-.25-.13-.11-.06-.31-.22-.4-.11-.43-.3-.81-.42-1.22a3.62,3.62,0,0,1-.4-.85c0-.19-.15-.29-.14-.48-.16-.12-.07-.27-.2-.4-.29-.7-.45-1.45-.76-2.14-.14-.43-.36-.86-.49-1.28.08-.24-.2-.29-.13-.53-.17,0,0-.31-.19-.41a19.25,19.25,0,0,1-.53-1.9c-.15-.11-.07-.33-.2-.45.07-.27-.18-.42-.15-.68-.13-.14,0-.37-.19-.48.08-.24-.15-.37-.1-.6-.19-.11,0-.37-.19-.49-.13-1-.49-2-.62-3a25.54,25.54,0,0,1-.32-4.92l0-1A8.52,8.52,0,0,0,35.2,66a5.7,5.7,0,0,1-.13,1.7,14.18,14.18,0,0,0-1.65,1.87,8.4,8.4,0,0,0-1,1.23c-.5.72-1,1.41-1.46,2.16-.16.09-.15.31-.3.38-.2.31-.35.65-.52,1a2.68,2.68,0,0,1-.39.58c-.44.92-1,1.72-1.39,2.64-.06.28-.32.46-.34.78-.14,0,0,.26-.2.31-.45.88-.74,1.84-1.19,2.73,0,.18-.13.31-.11.52-.18.07,0,.27-.22.35-.31,1-.74,2-1,3.07-.29.79-.41,1.62-.66,2.45-.15.55-.23,1.12-.39,1.66-.35,1.56-.51,3.18-.74,4.78s-.13,3-.13,4.56h-.16c-.1-.17-.28-.29-.35-.49-.39-.34-.69-.77-1-1.12a20.38,20.38,0,0,0-1.3-1.72c-.08-.21-.29-.36-.33-.6s-.13-.31-.3-.4a5,5,0,0,1-.54-1l-.1-.08c-.17-.38-.42-.63-.56-1a3.47,3.47,0,0,0-.29-.38c0-.17-.21-.24-.13-.41-.21-.16-.17-.49-.38-.66,0-.23-.24-.37-.23-.61s-.43-.72-.54-1.07c-.37-.68-.54-1.44-.92-2.12-.33-1-.69-1.92-1-2.91-.12-.36-.24-.73-.35-1.09s-.11-.48-.14-.7-.24-.7-.32-1.06-.24-.58-.17-.92l-.09,0c0-.47-.2-.92-.22-1.37-.2-.16,0-.49-.2-.66-.08-.62-.21-1.25-.32-1.84s-.23-1.09-.23-1.67c-.14-.24,0-.59-.18-.83a17,17,0,0,0-.21-2.37c.05-.24-.1-.52,0-.77.07,0,.17,0,.2-.14.25,0,.37-.12.62-.09.13-.2.41,0,.52-.23.2.07.34-.13.54-.13v0c.3.08.38-.24.65-.16.14-.13.36,0,.51-.2.21,0,.27-.15.49-.09.23-.16.61-.19.81-.31s.62-.27.94-.3.39-.21.66-.13c.05-.23.32,0,.38-.22.26,0,.41-.12.64-.09.05-.23.27,0,.36-.22.25.07.4-.19.66-.13a7.06,7.06,0,0,0,.71-.29,26.39,26.39,0,0,0,2.54-.77c.33,0,.52-.22.84-.22.13-.14.41,0,.54-.18.19,0,.33-.14.53-.12.05-.17.29,0,.36-.17l.63-.14c.1-.19.38,0,.47-.2.31.12.32-.25.61-.14a2.22,2.22,0,0,0,.71-.29c.25,0,.45-.11.69-.12.06-.16.33,0,.43-.19.4-.16.87-.14,1.29-.31.18-.22.62-.06.71-.42.15,0,.1-.17.21-.21a1.08,1.08,0,0,0-.1-.87.49.49,0,0,0-.48-.33c-.12-.14-.33,0-.5-.07-.27.12-.6.16-.82.29a10.09,10.09,0,0,1-1.31.34c-.2.13-.51.14-.68.29-.26,0-.43.18-.7.14-.51.14-1,.35-1.51.51-.27-.07-.39.21-.65.14s-.27.09-.39.17c-.29,0-.56.21-.88.22-.11.19-.39,0-.48.21-.27-.09-.38.22-.64.13-.56.18-1.13.37-1.69.52-.07.17-.34,0-.35.17-.25,0-.4.17-.65.12-.1.19-.37,0-.49.21-.52.16-1,.29-1.54.44-.09.12-.3,0-.36.17-.28-.05-.38.2-.65.16-.56.13-1.09.41-1.67.5l-.74.31c-.24,0-.41.13-.65.12-.07.16-.32.05-.42.21a4,4,0,0,1-1,.19,18.88,18.88,0,0,0,0-2.92,2,2,0,0,1,.07-.87l0-2.35c.1-.63.09-1.16.15-1.81l.05-.07c0-.7.1-1.43.14-2.14.12-1.56.55-3.07.79-4.62.1-.39.17-.79.3-1.15,0-.12,0-.21,0-.31a.28.28,0,0,1,.22.08c.24,0,.51,0,.69.1l.73,0v.06c.26,0,.5,0,.71.13.72.08,1.45.08,2.16.21v0a10.06,10.06,0,0,0,1.37.16c.28.15.61,0,.88.19a16.94,16.94,0,0,1,2,.29c.51-.08.93.24,1.44.16.82.08,1.64.32,2.45.41.44-.08.74.15,1.21.11.31.2.65,0,1,.18.69,0,1.38.18,2.08.24,0,.09.11,0,.15.07.2.07.51-.06.65.12.42-.09.76.17,1.14,0,.14.08.1-.12.23-.12a1,1,0,0,0,.38-.88,1.26,1.26,0,0,0-.38-.6A.19.19,0,0,1,33,53.5c-.18,0-.39,0-.53-.1-.42,0-.85-.16-1.29-.12-.3-.15-.64,0-.93-.18-.45,0-.87-.13-1.34-.13-.23-.15-.62,0-.83-.18l-.71-.05s0-.07-.07,0c-.74,0-1.46-.19-2.18-.23-.21-.18-.56-.05-.77-.2-.51,0-.95-.13-1.46-.13s-1-.22-1.51-.27-.84-.19-1.32-.15c-.24-.14-.59,0-.83-.18-.69,0-1.37-.17-2.05-.24-.9-.16-1.8-.34-2.68-.45.3-1.19.69-2.37,1-3.54.51-1.5,1.15-2.91,1.71-4.41.19-.05,0-.3.21-.36.3-.8.69-1.56,1.06-2.33.23-.25.3-.6.54-.89,0-.07.11-.16.11-.26.36-.62.74-1.21,1.07-1.83.11,0,.06-.23.18-.25s.11-.1.18-.1l.6.35c.12-.05.14.17.27.1,0,.11.17.09.22.15s.25.19.41.15c0,.14.17.14.25.22a4.25,4.25,0,0,0,.75.33c.2.19.5.21.69.4.2,0,.31.15.5.21.27.23.63.3.91.53s.53.21.74.32c.38.32.91.41,1.29.73a7.84,7.84,0,0,1,1.3.63c.1,0,.17.12.3.09.3.34.81.3,1.13.66a2.52,2.52,0,0,1,.29.12c0,.13.22,0,.22.15l.34.12c.09.16.29.06.35.22.39.11.71.41,1.1.52s.55.44.88.53c.16,0,.23.15.37.13.33.27.75.35,1.1.61.12,0,.14.2.31.12a10.71,10.71,0,0,1,1,.6c.6.23,1.1.63,1.72.89.11.15.31.08.45.18a.94.94,0,0,0,.83-.38.85.85,0,0,0,.15-.85c-.12-.13-.19-.33-.36-.4a17.78,17.78,0,0,0-1.59-.92l-.14,0c-.4-.28-.84-.43-1.24-.72-.2,0-.37-.17-.57-.22s-.17-.15-.28-.22H34.8c-.46-.36-1-.47-1.47-.85H33.2a11.63,11.63,0,0,0-1.23-.6,8.33,8.33,0,0,1-.87-.52c-.83-.34-1.58-.86-2.42-1.17-.19-.08-.27-.23-.48-.31a3.18,3.18,0,0,0-.54-.21,13.7,13.7,0,0,0-1.83-.94c-.06-.12-.25-.08-.3-.22-.27-.1-.49-.22-.74-.31a1.07,1.07,0,0,0-.6-.32c-.16-.2-.4-.22-.59-.37s-.39-.24-.64-.28-.3-.19-.44-.29-.2-.12-.34-.1c0-.09-.07-.1-.12-.12s-.15-.18-.31-.15-.12-.21-.09-.32c.38-.51.74-1,1.17-1.52.11-.32.48-.47.56-.81a8,8,0,0,0,.87-1.06c.57-.5.89-1.19,1.52-1.68s1.19-1.19,1.76-1.79c.28,0,.27-.4.56-.46l0-.07a2,2,0,0,0,.58-.54c.26-.11.4-.39.67-.5.36-.42.83-.71,1.21-1.08.64-.46,1.23-.95,1.91-1.37.18.23.42.44.6.71,1.59,1.65,3,3.42,4.6,5.18.27.37.58.65.83,1,1.12,1.14,2,2.41,3.15,3.52v.05c1.32,1.37,2.48,2.89,3.82,4.24a.9.9,0,0,0,1.23-1.11c-.86-1.24-2-2.3-2.9-3.51a11.56,11.56,0,0,1-1-1.09c-.53-.73-1.19-1.3-1.71-2-.29-.13-.37-.53-.64-.68,0-.09-.12-.13-.12-.23-.17-.08-.24-.28-.4-.36s-.31-.23-.34-.49c-.66-.6-1.07-1.24-1.7-1.86-.08-.24-.44-.36-.49-.64-1.08-1.12-2-2.3-3.08-3.42,0-.19-.37-.23-.29-.48s.44-.23.63-.4c.15,0,.12-.15.28-.12a6.73,6.73,0,0,1,.65-.52,3.38,3.38,0,0,0,.71-.45c.16,0,.28-.15.46-.2.51-.31,1.06-.69,1.58-.94.24-.18.58-.26.78-.43s.38-.14.54-.23a8.75,8.75,0,0,1,1.39-.73,6.85,6.85,0,0,1,1-.42c.51-.19.94-.49,1.46-.72s1.11-.33,1.63-.65c.24.07.33-.21.56-.13a3.76,3.76,0,0,1,.64-.29c.53-.15,1.08-.39,1.59-.53,0,.21.19.27.14.49.16.05,0,.24.17.27.09.27.16.53.23.8.28.45.37,1,.64,1.43s.4,1.06.56,1.59C50.13,22,50.56,23,51,24.16c.18.41.32.82.52,1.23a1.53,1.53,0,0,1,.11.47c.16.14.15.43.31.56,0,.5.42.82.45,1.3a3.93,3.93,0,0,0,.3.62,8,8,0,0,0,.52,1.36c0,.18.16.27.12.46.12.16.13.45.29.62s.17.47.22.73.13.34.23.5a3.21,3.21,0,0,1,.2.62c.17.06.05.26.2.34s.15.34.18.51.3.47.35.78c.14,0,.24.21.38.17.11.14.31,0,.47.08.07-.15.27,0,.32-.18a.64.64,0,0,0,.37-.43,1.79,1.79,0,0,0-.1-.8c0-.18-.15-.29-.14-.47s-.13-.46-.28-.62c-.27-.61-.38-1.25-.68-1.85-.08-.09,0-.27-.16-.37a1.25,1.25,0,0,1-.13-.44c-.07-.22-.21-.44-.3-.65A19.27,19.27,0,0,0,54,26.82a4.2,4.2,0,0,1-.23-.74c-.73-1.51-1.19-3.14-1.91-4.65.07-.18-.16-.24-.11-.41-.47-1-.77-2.15-1.25-3.16,0-.27-.24-.46-.23-.74-.17-.43-.36-.8-.52-1.2-.08-.18.15-.16.23-.23.53-.15,1.1-.27,1.65-.44.19-.17.43,0,.62-.19.28,0,.53-.15.83-.14.13-.17.48,0,.61-.23.33,0,.63-.12,1-.09a8.66,8.66,0,0,0,1-.31,4.84,4.84,0,0,0,1.12-.14c.18-.11.44,0,.6-.17.51,0,1-.15,1.44-.14.24-.14.51-.05.78-.13v0c.29-.05.63,0,.87-.15,1-.07,2-.15,3-.28.55,0,1.29-.1,1.81-.1.16,0,.1.16.11.24,0,1.45,0,2.92-.11,4.38l0,4.4-.07.27c0,2.13-.09,4.71-.09,6.84l-.07.18,0,2.68c.14.06,0,.26.19.25,0,.22.27.22.42.29s.58.07.78-.12a1,1,0,0,0,.36-.82c.08-1.55,0-3.1.18-4.64,0-.38,0-.65,0-1L67,26c.05-1.88.05-3.75.07-5.63a3,3,0,0,0,.06-1.11c0-1.69,0-3.39.11-5.08a4.65,4.65,0,0,0,0-1c.09-.05.07-.16.2-.18L73,13l.11.11c.91-.09,1.71.13,2.53.11.33.16.8,0,1.17.11.21.17.55,0,.77.16.53-.07.9.19,1.44.15s.86.15,1.29.21c.23.09.53.06.73.18.56,0,1.07.22,1.62.22a.06.06,0,0,1,0,.05c.06.07.19,0,.27.06,0,.38-.34.63-.34,1-.48,1-.85,2.05-1.37,3.08-.19.49-.4.95-.56,1.45-.11.15-.19.35-.29.52-.17.64-.54,1.18-.73,1.82-.14.22-.22.51-.39.73-.25.64-.48,1.24-.77,1.89h0l-.18.54-.06,0a2.18,2.18,0,0,0-.25.69c-.14.05-.06.23-.19.27-.49,1.13-1,2.25-1.44,3.42-.37.75-.71,1.53-1,2.28-.16.39-.46.91-.12,1.32.08.14.26.24.36.34a1.23,1.23,0,0,0,1-.11c.27-.32.29-.73.57-1.06.18-.76.68-1.37.89-2.11.07-.2.21-.37.27-.54.36-.8.63-1.6,1-2.41.59-1.38,1.24-2.72,1.83-4.12,0-.15.17-.23.13-.4.15,0,0-.19.16-.21.07-.25.19-.47.26-.71s.15-.44.31-.6c.24-.74.59-1.42.87-2.15l0,0a3.9,3.9,0,0,0,.24-.73c.36-.65.61-1.33.92-2s.51-1.15.74-1.76c.28,0,.66.14,1,.18a20.6,20.6,0,0,0,2,.54c.1.19.45,0,.59.21.22,0,.38.12.59.1.31.13.66.24,1,.38.27,0,.43.2.69.17.08.1.27,0,.32.14.25,0,.41.16.66.15.53.21,1.11.34,1.64.54.12.1.3,0,.42.2.36.14.68.17,1,.3,0,.14.2,0,.25.15.2,0,.33.2.56.16,0,.14.27,0,.3.17.28.05.52.27.83.27a7.89,7.89,0,0,1,.84.39c.3.11.55.24.87.33,1.06.44,2.11.95,3.18,1.45.18,0,.19.17.36.12.1.21.4.12.53.31.15-.05.18.19.34.13.18.14.43.22.62.38.59.26,1.06.63,1.65.87s.94.59,1.39.92h.09c.26.22.52.41.77.66C107.36,24.14,107.49,24.22,107.5,24.39ZM93.13,53.44l0-1.44a3.33,3.33,0,0,0-.54-1.22c-.16-.11-.17-.43-.4-.48s-.29-.37-.53-.42a2.25,2.25,0,0,0-.47-.31c-.26.06-.43-.17-.68-.17-.08-.11-.33,0-.37-.16-.59,0-1.15,0-1.72,0a4.15,4.15,0,0,0-1.21.31c-.63.18-1.25.46-1.87.67a2.05,2.05,0,0,1-.77.25c-.23.08-.42.21-.66.29s-.29.16-.5.11a5.25,5.25,0,0,1-.63.31c-.21-.07-.29.2-.5.14-.37.18-.8.26-1.15.47-.31,0-.54.23-.84.27-.51.2-1,.41-1.46.58-.21,0-.33.21-.55.15,0,.19-.26.05-.31.2-.56.17-1.1.36-1.66.52,0,.2-.26,0-.32.19-.54.18-1.06.37-1.58.56-.07.15-.3,0-.36.19l-1.56.54c-.12.16-.35.07-.47.23-.27,0-.41.17-.67.21-.05.2-.27,0-.33.16s-.3.15-.46.13c-.1.16-.31.08-.4.21a9.41,9.41,0,0,1-1,.33,5.11,5.11,0,0,1-.67.31c-.41.17-.87.27-1.28.44-.08.16-.26.1-.42.19s-.12,0-.13-.09V55l-.07-.12a3.24,3.24,0,0,0-.15-.94c-.15-.14-.08-.39-.21-.54s-.21-.67-.54-.8c-.15-.07-.17-.34-.35-.39a5.18,5.18,0,0,0-1.52-1,2.22,2.22,0,0,1-.71-.2,4.76,4.76,0,0,0-3.58.92c-.11.1-.21.26-.38.31-.16.3-.44.47-.58.76a4.27,4.27,0,0,0-.49,1.14c-.16.17-.11.47-.12.69-.17.44.07.89,0,1.37a8.77,8.77,0,0,0,.52,1.35A6.43,6.43,0,0,0,60,59.27c.26.23.54.38.82.61s.6.38.92.53a1.49,1.49,0,0,1,.6.22,2,2,0,0,0,.83.22,5.92,5.92,0,0,0,.81.27,7.61,7.61,0,0,1,1.18.11c8.55,0,17.09-.09,25.63-.08.19,0,0-.32.21-.36a12.71,12.71,0,0,0,.35-1.27,11.23,11.23,0,0,0,.49-1.3c.2-.58.35-1.16.55-1.76,0-.39.26-.75.27-1.1.14-.08,0-.28.17-.36-.1-.33.27-.5.13-.81C93.14,54,93,53.66,93.13,53.44Zm-27.22-16,0-.08H64l-.21.08c-.93,0-1.81.16-2.71.23-.25.18-.56.05-.81.2-.36,0-.65.16-1,.15-.14.15-.43,0-.6.17-.32,0-.51.22-.84.15a8.15,8.15,0,0,1-1.41.43l0,.06c-.4.14-.77.25-1.19.36a4.17,4.17,0,0,1-.81.36,6.48,6.48,0,0,1-1,.35,16.89,16.89,0,0,1-1.54.76,5.26,5.26,0,0,0-.87.52c-.16,0-.3.17-.47.18-.47.3-.91.6-1.37.87-1.25.75-2.27,1.71-3.41,2.54l-.25.31a30.44,30.44,0,0,0-3.5,3.5c-.61.76-1.29,1.61-1.82,2.43-.33.4-.53.88-.83,1.29,0,.27-.28.42-.35.67s-.17.34-.32.46c-.39.9-.89,1.72-1.24,2.63a16.18,16.18,0,0,0-.57,1.79l-.1.14c-.07.38-.24.7-.31,1.07,0,.07.09.08.14.13.58,0,1.1.14,1.67.2.17.06.15-.15.23-.25s.15-.33.15-.51.1-.25.17-.35c-.06-.34.27-.56.27-.88a5.41,5.41,0,0,0,.33-.8c.27-.45.48-.95.72-1.41a6.36,6.36,0,0,0,.25-.63,9.13,9.13,0,0,0,.71-1.15c.49-.79,1-1.59,1.56-2.36.75-.8,1.29-1.79,2.1-2.54.29-.44.73-.69,1-1.14.88-.76,1.73-1.47,2.6-2.21.72-.47,1.33-1,2.08-1.43.19-.05.23-.21.44-.23.16-.19.47-.23.63-.44.17.07.13-.2.31-.12.09-.16.33-.15.4-.31.21.08.14-.2.36-.11a5.18,5.18,0,0,0,.57-.31,3.64,3.64,0,0,1,.56-.21,2.22,2.22,0,0,1,.52-.29c.41,0,.62-.44,1-.44.23.08.3-.22.52-.14.06-.19.34,0,.39-.18,1-.37,2.12-.62,3.18-.93.3,0,.5-.19.82-.19s.76-.21,1.19-.17c0-.09.11-.09.16-.09a8.86,8.86,0,0,0,1-.13,8.9,8.9,0,0,1,1.7-.09l.11-.08,1.31,0c.14-.16,0-.48.16-.64Z"/><path class="138a3d49-bbc4-4baf-8761-31894bc4f417" d="M94,69.33l.23.08c-.21.31-.61.42-.83.69-.12,0-.2.17-.35.21-.24.21-.59.41-.82.65-.13-.07-.11.14-.24.08-.12.19-.33.25-.49.41-.57.25-1,.76-1.58,1.07a.2.2,0,0,0,0,.21,8.67,8.67,0,0,1,.28,1.2c.15.14,0,.39.2.52,0,.24.12.48.09.71.31,1,.63,2.11.87,3.19s.69,2.37.91,3.62c.15.9.44,1.74.61,2.66.14.24,0,.46.06.72-.19.46-.69.17-1.06.29-1,.12-2.09,0-3.07.08l-.14.14v.9c.22.1.43.23.65.35s.27.12.41.09c.06.14.24,0,.29.18.2.14.45.12.65.29s.29.26.36.44c-.29.36-.77.42-1.07.77-.18,0-.16.16-.33.15-.08.19-.29.1-.39.29-.35.12-.65.37-1,.48s-.73.39-1.05.67l0,.12c0,.65.18,1.18.18,1.84.15.38,0,.87.27,1.2,0,.14.14.22.13.37.37.61.7,1.27,1.06,1.88a2.67,2.67,0,0,1-.12,1.25c-.24,1.62-.53,3.24-.78,4.85,0,.19-.07.24-.2.33l-1.74,0c-.16,0-.39.07-.55-.07H81.53a8.84,8.84,0,0,0-.4,1c-.39,1.23-.85,2.43-1.23,3.68a7,7,0,0,1-2.41,0c-.55.05-1-.19-1.5-.16a31.31,31.31,0,0,1-3.08-.71c-.08-.15-.32-.07-.42-.18s-.37-.16-.62-.15c-.08-.15-.29,0-.39-.17a10.33,10.33,0,0,0-1.26-.42c-.09-.16-.29-.08-.35-.24s-.27-.09-.42-.11-.19,0-.21-.16c-.26,0-.45-.22-.69-.27,0-.11-.23-.08-.28-.2-.22,0-.27-.23-.5-.2a1.79,1.79,0,0,0-.58-.31c-.15-.13-.31-.22-.47-.34a3.59,3.59,0,0,0-.72-.4c-.59-.46-1.18-.88-1.74-1.35-.13,0-.14-.11-.24-.12a16.86,16.86,0,0,0-1.44-1.26c0-.15-.18,0-.13-.2-.36-.2-.46-.6-.82-.83-.22-.43-.63-.68-.84-1.11A4.26,4.26,0,0,1,60,96.61c-.21,0-.11-.21-.27-.31,0-.15-.19-.16-.12-.31-.14-.06-.1-.25-.22-.32a17.93,17.93,0,0,1-.77-2,19.89,19.89,0,0,1-.6-2.42c-.06-.52-.13-1.09-.15-1.65l0-6.3c0-.22,0-.44,0-.66a10.34,10.34,0,0,1,.46-3.08,12.93,12.93,0,0,1,.87-1.89,9.45,9.45,0,0,1,1-1.21c.19-.36.64-.6.86-.89.13,0,.08-.16.22-.13.18-.18.42-.28.53-.5,0-1,0-1.91,0-2.83a11.35,11.35,0,0,0-.11-1.75c-.18-.09,0-.35-.22-.46.06-.31-.16-.49-.2-.75-.16,0-.09-.24-.22-.27,0-.33-.34-.51-.42-.81-.27-.15-.39-.43-.58-.66a14.49,14.49,0,0,0-1.53-1.07c-.42-.32-1-.3-1.43-.54a15.72,15.72,0,0,0-1.94-.06c-.25.12-.61,0-.81.17a4.73,4.73,0,0,0-1.1.36,6.44,6.44,0,0,0-1.58,1.11,13.21,13.21,0,0,0-.92,1,8.23,8.23,0,0,1-.5,1,9.58,9.58,0,0,0-.35,1.19,6.44,6.44,0,0,0,0,1.81,6.65,6.65,0,0,1,.06.77c0,.45.16.76.19,1.19.27,1.14.57,2.27.85,3.41.09.14.06.31.17.44,0,.23.2.34.14.58a6,6,0,0,0,.36,1.11c.06.37.19.69.27,1,.15.09.1.31.22.43.09.57.44,1.07.49,1.62.17.15.06.42.24.56.15.57.42,1.13.54,1.69.11.07.08.23.17.33.3.94.66,1.87,1,2.83.09.1.12.26.21.38.42,1.26,1,2.44,1.41,3.69.11.3.25.58.38.87a5.79,5.79,0,0,1,.23.74c.12,0,.08.24.2.3a10.45,10.45,0,0,0,.65,1.77c.35.69.59,1.42.92,2.11a3.44,3.44,0,0,0,.35.91c0,.17.18.32.13.48a11.53,11.53,0,0,1-1.67-.19,7.65,7.65,0,0,1-1.08-.06c-.39-.11-.94,0-1.31-.15-.65,0-1.33-.17-2-.14,0-.11-.13,0-.17-.07a6.64,6.64,0,0,1-1,0c0-.07-.08-.08-.14-.07-.74,0-1.42-.12-2.15-.13v0l-1.63-.16L48,96.48c1,.08,2,.17,3,.24.41.18.92,0,1.3.18.73,0,1.46.18,2.21.09.1-.17-.13-.2-.08-.38-.2-.66-.59-1.27-.75-1.92-.23-.48-.37-1-.62-1.45.06-.19-.15-.28-.13-.45-.18-.27-.24-.59-.39-.83-.32-.84-.55-1.66-.89-2.48a11.67,11.67,0,0,1-.49-1.2c-.07-.31-.24-.59-.33-.88.06-.26-.18-.35-.15-.56-.33-.9-.65-1.77-.93-2.68-.14-.08,0-.34-.18-.42,0-.24-.15-.4-.14-.63s0-.34-.17-.43c-.29-1.17-.83-2.3-1.07-3.46.08-.25-.2-.41-.12-.69-.14-.08-.06-.28-.16-.39,0-.28-.22-.43-.15-.73-.18-.11,0-.38-.2-.52-.13-.93-.4-1.8-.54-2.73L47,74.1c-.1-.31.06-.65-.13-.92a12.86,12.86,0,0,1,0-3.1c0-.38.25-.69.25-1.06.08-.08,0-.25.15-.32,0-.21.16-.31.13-.51a16.4,16.4,0,0,1,1.1-1.93c.46-.54,1-1,1.47-1.49a4.6,4.6,0,0,1,.78-.52c.14-.14.27-.19.41-.33a.47.47,0,0,0,.33-.19c.19,0,.19-.15.38-.13.07-.15.28-.06.36-.2A16.09,16.09,0,0,1,54,63l.13-.09a1.39,1.39,0,0,0,.68-.1,9,9,0,0,1,2.38.1c.34-.07.54.18.87.13.53.11,1,.36,1.5.5s1.11.63,1.66,1v.06a16.38,16.38,0,0,1,1.49,1.29v0a11.27,11.27,0,0,1,1,1.43,8.76,8.76,0,0,1,.92,2.42,3.26,3.26,0,0,0,.12.78l0,1.47,0,4.68a.52.52,0,0,1-.35.27,2.17,2.17,0,0,0-.45.25,9.45,9.45,0,0,0-1.12.79,4.83,4.83,0,0,0-.89,1.1,2.68,2.68,0,0,0-.37.64c-.2.21-.17.56-.39.8a3.94,3.94,0,0,0-.13.65c0,.12-.06.25-.09.37a22,22,0,0,0-.07,2.72l0,5.19c-.05.58.18,1,.18,1.59a19.43,19.43,0,0,0,.83,2.79c.2.43.44.84.63,1.29.36.56.74,1.14,1.14,1.68l.19.15c.19.42.58.61.81,1,.68.5,1.19,1.14,1.86,1.63s1.39,1,2.14,1.46a1.35,1.35,0,0,1,.76.4c.21.07.34.23.55.22,0,.12.19.13.29.2s.14.15.3.08c.06.21.31.06.4.23a7.12,7.12,0,0,0,.87.34c.21.13.39.11.56.29.21,0,.3.17.49.12a4.49,4.49,0,0,1,.76.31c.27-.08.46.15.74.1.13.18.44,0,.57.21.76.24,1.51.25,2.27.42a2.12,2.12,0,0,1,.75.06c.3.08.18-.28.35-.37a8.9,8.9,0,0,1,.35-1.25c.11-.35.31-.68.4-1s.17-.5.21-.76.08-.46.25-.63a6.38,6.38,0,0,0,.23-1l.08-.08a8.92,8.92,0,0,0,.37-1.37c-.13-.15-.41,0-.53-.19-.47-.06-.93-.16-1.41-.19a5.86,5.86,0,0,0-1-.33c-.23.05-.33-.16-.54-.11-.53-.25-1.09-.42-1.63-.62,0-.18-.26,0-.31-.21-.21,0-.24-.17-.45-.12,0,0,0-.08-.09-.08h-.11c0-.14-.21-.1-.25-.23-.34-.08-.58-.38-.91-.49l-1.32-1.18v0c-.22-.14-.3-.37-.51-.47,0-.21-.26-.33-.34-.54-.18,0,0-.24-.2-.21-.15-.35-.37-.62-.51-1s-.32-1-.52-1.48c0-.41-.23-.8-.22-1.19l0-1.76c.2-.33.63-.43.8-.76h.11a15.2,15.2,0,0,0,1-1.29c.22-.44.3-.86.53-1.27a.86.86,0,0,1,0-.23.5.5,0,0,1,.09-.21c-.1-.55.31-1,0-1.49a4.28,4.28,0,0,0-.11-1c-.16-.25-.15-.55-.31-.8s-.37-.65-.54-.92a5.26,5.26,0,0,0-1.2-1.37.8.8,0,0,1-.38-.33l.06-6.8c.12-.26,0-.66.17-.87.09-.43.34-.84.46-1.25.36-.4.55-.93.92-1.29.11-.09.28-.1.29-.29.31-.22.55-.49.87-.69s.5-.33.79-.5A5.27,5.27,0,0,1,74,65.29c.18,0,.28-.08.42-.12,1.29,0,2.58,0,3.87-.07a8.11,8.11,0,0,0,1.48,0c.07-.1.15,0,.23,0l.9,0c.16,0,.42.06.58-.06.72.11,1.44-.07,2.17,0,0,.09.15,0,.22,0l.13,0s0,0,0,0l.12,0s0,0,0,0a5.66,5.66,0,0,0,.6,0c.32,0,.45,0,.76.06a6.66,6.66,0,0,1,1-.06l0,0c.32-.06.64,0,1,0v0c.42,0,.85,0,1.28,0,.08.1.15-.06.22,0a3.48,3.48,0,0,1,.57,0v0c.2,0,.43,0,.64,0,.05.17.14-.11.22,0,.13-.11.27.1.41-.06a.14.14,0,0,0,.17,0l0,0c.42,0,.85,0,1.27,0,.19,0,.36,0,.54,0,.42-.1.37.51.56.76.06.51.45.87.51,1.37.08.23.24.47.13.73a.24.24,0,0,0-.24.1q-9.45,0-18.91,0c-.22.14-.46.19-.67.33a5.49,5.49,0,0,0-1.33,1.17c0,.19-.22.27-.25.46-.5.66-.23,1.72-.31,2.52.14.13.16-.11.29-.11.77-.75,1.66-1.3,2.45-2.07,0-.09.2-.16.25-.27.33-.17.57-.51.9-.72,5.54-.07,11.09,0,16.64,0ZM89.67,83.16c.1-.35-.2-.54-.12-.88-.29-1.72-.84-3.37-1.13-5.08l-.06-.06c.06-.33-.21-.46-.16-.79-.11-.28-.16-.6-.28-.88,0-.29-.17-.41-.13-.69-.17-.11,0-.39-.16-.49-.1-.51-.27-1-.37-1.55,0,0-.12,0-.09-.08a.34.34,0,0,0-.31.08c-.76,0-1.5.2-2.25.23-.47.38-1,.69-1.47,1.05-.09.25-.38.3-.55.49-.16,0-.15.18-.33.17-.47,0-.82-.24-1.31-.13-.06,0-.16,0-.17-.1-.55,0-.93-.18-1.46-.1,0,0-.16,0-.18-.09l-.71,0c-.05-.06-.14-.14-.23-.07a6,6,0,0,1-1.06-1.2,13.57,13.57,0,0,0-1.8,0c-.28.49-.17,1.07-.45,1.58-.17.12-.15-.15-.26-.18-.29-.24-.54-.62-.85-.89-.12-.19-.36-.34-.43-.51a3.77,3.77,0,0,0-1.06,0V76.1a2.23,2.23,0,0,0,.46.5c.25.3.49.69.76,1s.4.63.58,1c.17.64.49,1.14.61,1.81,0,.31.18.6.13,1a5.35,5.35,0,0,1,.1,1.33c-.17.42,0,.92-.21,1.32a9.23,9.23,0,0,1-.65,2c-.19.45-.48.73-.66,1.17-.26.26-.48.63-.77.89-.1.17-.49.38-.31.61a5,5,0,0,0,.49,1.83,1.34,1.34,0,0,0,.29.5,3.35,3.35,0,0,0,.67.91,8.39,8.39,0,0,0,1,.94c.31.29.78.37,1.08.63.47.13.9.41,1.35.55.25-.06.47.14.73.13a9.15,9.15,0,0,0,.88.27c.21,0,.49,0,.64.11a18.69,18.69,0,0,0,1.94.12l2.33.25a5.63,5.63,0,0,1-.31,1c0,.62-.48,1.06-.44,1.67-.28.7-.47,1.41-.71,2.09,0,.14-.14.37,0,.42l2,0,.13-.09,1.39,0,.11-.17c0-.47.2-.86.15-1.32.17-.25,0-.63.19-.9,0-.4.23-.7.13-1.11-.11-.12-.18-.34-.31-.49s-.11-.23-.14-.38-.19-.2-.24-.34-.2-.27-.16-.49c-.27-.28-.31-.64-.51-1,0-1.09-.11-2-.12-3.13l-.21,0c-.57.2-1.22.27-1.82.42a8,8,0,0,0-.78.38c-.24,0-.35.16-.59.16s-.65,0-.93.15c-.45,0-1,.11-1.46.14a1.63,1.63,0,0,1-.82-.06c1-1.16,2-2.33,3.13-3.43.06,0,.11,0,.18,0-.08.44.19.69.11,1.1.06.06.2,0,.27,0,.35-.35.9-.44,1.25-.81.22-.15.5-.23.71-.35s.26-.15.36-.27c.39-.11.71-.47,1.12-.55,0,.32.21.52.18.84a.62.62,0,0,0,.27,0,4.48,4.48,0,0,0,.55-.42V86.2c-.16-.17-.38,0-.58-.11-.48,0-1,0-1.47,0s-1.06,0-1.59,0a8.2,8.2,0,0,1,.24-1.7c.12-.27,0-.67.21-.88.8,0,1.67,0,2.5,0,1-.07,2.1-.23,3.15-.2C89.16,83.11,89.4,83.26,89.67,83.16ZM81.56,71.35s0,0,0-.06c-.43-.11-.88-.3-1.33-.42,0,0-.15,0-.11-.12-.21.05-.31-.15-.5-.13-.08-.14-.27,0-.33-.18-.27.11-.37-.29-.63-.09a14.29,14.29,0,0,1-1.45,1v.06s-.06,0-.07,0-.24.17-.31.27c.71-.07,1.45,0,2.13-.1C79.82,71.55,80.69,71.5,81.56,71.35Z"/><path class="138a3d49-bbc4-4baf-8761-31894bc4f417" d="M93.15,52l0,1.44c-.16.22,0,.56-.22.75.14.31-.23.48-.13.81-.14.08,0,.28-.17.36,0,.35-.22.71-.27,1.1-.2.6-.35,1.18-.55,1.76a11.23,11.23,0,0,1-.49,1.3A12.71,12.71,0,0,1,91,60.79c-.18,0,0,.33-.21.36-8.54,0-17.08,0-25.63.08a7.61,7.61,0,0,0-1.18-.11,5.92,5.92,0,0,1-.81-.27,2,2,0,0,1-.83-.22,1.49,1.49,0,0,0-.6-.22c-.32-.15-.67-.38-.92-.53s-.56-.38-.82-.61a6.43,6.43,0,0,1-1.41-1.75A8.77,8.77,0,0,1,58,56.17c0-.48-.19-.93,0-1.37,0-.22,0-.52.12-.69A4.27,4.27,0,0,1,58.61,53c.14-.29.42-.46.58-.76.17-.05.27-.21.38-.31A4.76,4.76,0,0,1,63.15,51a2.22,2.22,0,0,0,.71.2,5.18,5.18,0,0,1,1.52,1c.18.05.2.32.35.39.33.13.28.56.54.8s.06.4.21.54a3.24,3.24,0,0,1,.15.94l.07.12v2.1c0,.06.08.08.13.09s.34,0,.42-.19c.41-.17.87-.27,1.28-.44a5.11,5.11,0,0,0,.67-.31,9.41,9.41,0,0,0,1-.33c.09-.13.3,0,.4-.21.16,0,.31-.09.46-.13s.28,0,.33-.16c.26,0,.4-.19.67-.21.12-.16.35-.07.47-.23l1.56-.54c.06-.14.29,0,.36-.19.52-.19,1-.38,1.58-.56.06-.16.29,0,.32-.19.56-.16,1.1-.35,1.66-.52.05-.15.26,0,.31-.2.22.06.34-.18.55-.15.5-.17,1-.38,1.46-.58.3,0,.53-.24.84-.27.35-.21.78-.29,1.15-.47.21.06.29-.21.5-.14a5.25,5.25,0,0,0,.63-.31c.21,0,.31-.16.5-.11s.43-.21.66-.29a2.05,2.05,0,0,0,.77-.25c.62-.21,1.24-.49,1.87-.67a4.15,4.15,0,0,1,1.21-.31c.57,0,1.13,0,1.72,0,0,.14.29.05.37.16.25,0,.42.23.68.17a2.25,2.25,0,0,1,.47.31c.24.05.37.27.53.42s.24.37.4.48A3.33,3.33,0,0,1,93.15,52Zm-2.54,1.73a4.13,4.13,0,0,0,.23-1.83,1.12,1.12,0,0,0-1.21-.46l-.16.12c-.19-.08-.16.2-.36.13-.19.28-.49.35-.62.67s-.21.33-.17.56c-.13,0-.06.18-.13.25-.14.49-.27,1-.4,1.46-.13.12-.1.34-.18.42,0,.27-.19.44-.13.69-.13.1-.07.27-.18.35-.25,1.23-.77,2.39-1,3.62.83-.09,1.68.07,2.52,0a.56.56,0,0,0,.11-.44,9.05,9.05,0,0,1,.43-1.17c0-.3.2-.48.17-.78a6.13,6.13,0,0,1,.25-.72,5.75,5.75,0,0,1,.25-.95c.09-.15.06-.33.18-.46s.17-.42.15-.66A6.21,6.21,0,0,0,90.61,53.73ZM86.9,52.21a1.26,1.26,0,0,0-.41-.62c-.08,0-.2,0-.21-.12a1.72,1.72,0,0,0-1,.09c-.11,0-.13.18-.25.11-.19.12-.32.32-.54.48l-.34.69c-.42,1.68-1,3.3-1.41,5-.18.08,0,.34-.19.42,0,.27-.18.44-.14.72-.17,0-.05.26-.17.33s-.21.32,0,.44c.81,0,1.63,0,2.43,0,.2-.44.29-.86.45-1.31s.17-.82.35-1.21c.27-.66.35-1.37.63-2,0-.25.18-.41.14-.67.15-.18.14-.42.23-.62A6,6,0,0,0,86.9,52.21Z"/><path class="138a3d49-bbc4-4baf-8761-31894bc4f417" d="M90.84,51.9a4.13,4.13,0,0,1-.23,1.83,6.21,6.21,0,0,1-.27.76c0,.24-.15.42-.15.66s-.09.31-.18.46a5.75,5.75,0,0,0-.25.95,6.13,6.13,0,0,0-.25.72c0,.3-.2.48-.17.78a9.05,9.05,0,0,0-.43,1.17.56.56,0,0,1-.11.44c-.84.11-1.69,0-2.52,0,.25-1.23.77-2.39,1-3.62.11-.08,0-.25.18-.35-.06-.25.16-.42.13-.69.08-.08,0-.3.18-.42.13-.48.26-1,.4-1.46.07-.07,0-.22.13-.25,0-.23.15-.36.17-.56s.43-.39.62-.67c.2.07.17-.21.36-.13l.16-.12A1.12,1.12,0,0,1,90.84,51.9Z"/><path class="138a3d49-bbc4-4baf-8761-31894bc4f417" d="M89.55,82.28c-.08.34.22.53.12.88-.27.1-.51-.05-.74.13-1.05,0-2.11.13-3.15.2-.83,0-1.7,0-2.5,0-.22.21-.09.61-.21.88a8.2,8.2,0,0,0-.24,1.7c.53.07,1.07,0,1.59,0s1,0,1.47,0c.2.06.42-.06.58.11V88a4.48,4.48,0,0,1-.55.42.62.62,0,0,1-.27,0c0-.32-.19-.52-.18-.84-.41.08-.73.44-1.12.55-.1.12-.29.11-.36.27s-.49.2-.71.35c-.35.37-.9.46-1.25.81-.07,0-.21,0-.27,0,.08-.41-.19-.66-.11-1.1-.07,0-.12,0-.18,0-1.08,1.1-2.1,2.27-3.13,3.43a1.63,1.63,0,0,0,.82.06c.43,0,1-.11,1.46-.14.28-.14.67,0,.93-.15s.35-.16.59-.16a8,8,0,0,1,.78-.38c.6-.15,1.25-.22,1.82-.42l.21,0c0,1.08.14,2,.12,3.13.2.32.24.68.51,1,0,.22.19.27.16.49s.18.21.24.34.13.22.14.38.2.37.31.49c.1.41-.17.71-.13,1.11-.15.27,0,.65-.19.9,0,.46-.18.85-.15,1.32l-.11.17-1.39,0-.13.09-2,0c-.16,0,0-.28,0-.42.24-.68.43-1.39.71-2.09,0-.61.46-1.05.44-1.67a5.63,5.63,0,0,0,.31-1l-2.33-.25a18.69,18.69,0,0,1-1.94-.12c-.15-.12-.43-.07-.64-.11a9.15,9.15,0,0,1-.88-.27c-.26,0-.48-.19-.73-.13-.45-.14-.88-.42-1.35-.55-.3-.26-.77-.34-1.08-.63a8.39,8.39,0,0,1-1-.94,3.35,3.35,0,0,1-.67-.91,1.34,1.34,0,0,1-.29-.5,5,5,0,0,1-.49-1.83c-.18-.23.21-.44.31-.61.29-.26.51-.63.77-.89.18-.44.47-.72.66-1.17a9.23,9.23,0,0,0,.65-2c.18-.4,0-.9.21-1.32a5.35,5.35,0,0,0-.1-1.33c0-.35-.15-.64-.13-1-.12-.67-.44-1.17-.61-1.81-.18-.32-.43-.63-.58-1s-.51-.7-.76-1a2.23,2.23,0,0,1-.46-.5V73a3.77,3.77,0,0,1,1.06,0c.07.17.31.32.43.51.31.27.56.65.85.89.11,0,.09.3.26.18.28-.51.17-1.09.45-1.58a13.57,13.57,0,0,1,1.8,0,6,6,0,0,0,1.06,1.2c.09-.07.18,0,.23.07l.71,0c0,.1.13,0,.18.09.53-.08.91.15,1.46.1,0,.09.11.06.17.1.49-.11.84.17,1.31.13.18,0,.17-.15.33-.17.17-.19.46-.24.55-.49.48-.36,1-.67,1.47-1.05.75,0,1.49-.25,2.25-.23a.34.34,0,0,1,.31-.08c0,.08.06,0,.09.08.1.51.27,1,.37,1.55.16.1,0,.38.16.49,0,.28.18.4.13.69.12.28.17.6.28.88,0,.33.22.46.16.79l.06.06C88.71,78.91,89.26,80.56,89.55,82.28Zm-11-3a15.71,15.71,0,0,0,0-2.17A17.94,17.94,0,0,1,76.45,77c-.09,0-.3-.09-.37,0a8.27,8.27,0,0,1,.47,1.1c0,.23.16.38.13.6s.07.32.19.42c.13.82.27,1.7.44,2.54h.07a5.43,5.43,0,0,0,.43-1.25C78.07,80.11,78.18,79.59,78.54,79.27Z"/><path class="138a3d49-bbc4-4baf-8761-31894bc4f417" d="M86.49,51.59a1.26,1.26,0,0,1,.41.62,6,6,0,0,1-.41,1.65c-.09.2-.08.44-.23.62,0,.26-.15.42-.14.67-.28.65-.36,1.36-.63,2-.18.39-.2.81-.35,1.21s-.25.87-.45,1.31c-.8,0-1.62,0-2.43,0-.21-.12,0-.28,0-.44s0-.29.17-.33c0-.28.15-.45.14-.72.15-.08,0-.34.19-.42.38-1.68,1-3.3,1.41-5l.34-.69c.22-.16.35-.36.54-.48.12.07.14-.1.25-.11a1.72,1.72,0,0,1,1-.09C86.29,51.57,86.41,51.58,86.49,51.59Z"/><path class="138a3d49-bbc4-4baf-8761-31894bc4f417" d="M81.47,48.3c.06.14.37.21.2.42-.21-.07-.28.14-.47.11a4.69,4.69,0,0,0-.69.32c-.24,0-.43.22-.69.21-.11.15-.36.14-.52.23-.15-.09-.16.17-.33.07-.11.17-.34.08-.45.24-.54.09-1,.46-1.53.52-.07.17-.29,0-.35.21-.22,0-.36.15-.56.1,0,.2-.31,0-.36.23-.21-.05-.33.15-.5.13-.48.28-1.09.33-1.6.6a2.09,2.09,0,0,1-.4.19,4.4,4.4,0,0,1-1.1.35v.06a.22.22,0,0,1-.23,0c-.07.18-.3.14-.44.22a9.82,9.82,0,0,1-1.49.54c0,.17-.26,0-.34.18-.19-.06-.27.2-.46.08S69,53.16,69,53c0-.34-.28-.49-.29-.8-.2-.17-.15-.48-.38-.6a4.77,4.77,0,0,0-.92-1.23c-.33-.46-.89-.65-1.29-1a8.9,8.9,0,0,0-1.19-.61l-1.54-.42a10.8,10.8,0,0,0-2,0l-.06.07a4.61,4.61,0,0,1-.54,0,8.35,8.35,0,0,0-1.07.35c-.3,0-.43.24-.69.29-.08.14-.33.11-.41.29-.19-.07-.15.21-.34.14a10.15,10.15,0,0,0-1.43,1.28c-.19.17-.2.4-.4.53a11.73,11.73,0,0,0-.85,1.7c0,.23-.2.34-.15.56a6.9,6.9,0,0,0,0,3.35c0,.36.21.56.24.9a12.2,12.2,0,0,0,.72,1.45c.13.23.4.42.46.69a5.42,5.42,0,0,1,.85,1c.17.05.21.19.33.31A16.12,16.12,0,0,0,60.4,62.8a6.67,6.67,0,0,1,.78.31c.45.2,1,.25,1.45.45a13.14,13.14,0,0,0,2.41.31l12.45,0c1.35,0,2.69,0,4,0v1.23c-.16.12-.42,0-.58.06l-.9,0c-.08.07-.16-.07-.23,0a8.11,8.11,0,0,1-1.48,0c-1.29.11-2.58,0-3.87.07-.14,0-.24.17-.42.12a5.27,5.27,0,0,0-1.16.48c-.29.17-.53.33-.79.5s-.56.47-.87.69c0,.19-.18.2-.29.29-.37.36-.56.89-.92,1.29-.12.41-.37.82-.46,1.25-.17.21-.05.61-.17.87l-.06,6.8a.8.8,0,0,0,.38.33,5.26,5.26,0,0,1,1.2,1.37c.17.27.5.56.54.92s.15.55.31.8a4.28,4.28,0,0,1,.11,1c.29.53-.12.94,0,1.49a.5.5,0,0,0-.09.21l-1.33-.14a3.73,3.73,0,0,0,0-1.56c0-.29-.18-.52-.18-.79-.08-.11,0-.28-.17-.36a3.7,3.7,0,0,0-.77-1.19c-.14-.2-.42-.21-.5-.44h-.08c-.26-.26-.65-.31-.9-.54a2.3,2.3,0,0,1-.79-.2l-1.5,0c-.38.06-.76.32-1.17.43a7.58,7.58,0,0,0-1,.77c-.15.36-.56.41-.6.82a2.27,2.27,0,0,0-.46,1.1,1.42,1.42,0,0,0-.07.22l-1.35-.18c0-.12,0-.25.09-.37a3.94,3.94,0,0,1,.13-.65c.22-.24.19-.59.39-.8a2.68,2.68,0,0,1,.37-.64,4.83,4.83,0,0,1,.89-1.1,9.45,9.45,0,0,1,1.12-.79,2.17,2.17,0,0,1,.45-.25.52.52,0,0,0,.35-.27l0-4.68,0-1.47a3.26,3.26,0,0,1-.12-.78,8.76,8.76,0,0,0-.92-2.42,11.27,11.27,0,0,0-1-1.43v0a16.38,16.38,0,0,0-1.49-1.29v-.06c-.55-.33-1.08-.68-1.66-1s-1-.39-1.5-.5c-.33,0-.53-.2-.87-.13a9,9,0,0,0-2.38-.1,1.39,1.39,0,0,1-.68.1L54,63a16.09,16.09,0,0,0-1.72.44c-.08.14-.29,0-.36.2-.19,0-.19.17-.38.13a.47.47,0,0,1-.33.19c-.14.14-.27.19-.41.33a4.6,4.6,0,0,0-.78.52c-.51.5-1,.95-1.47,1.49a16.4,16.4,0,0,0-1.1,1.93c0,.2-.17.3-.13.51-.12.07-.07.24-.15.32,0,.37-.23.68-.25,1.06a12.86,12.86,0,0,0,0,3.1c.19.27,0,.61.13.92l.08.06c.14.93.41,1.8.54,2.73.15.14,0,.41.2.52-.07.3.18.45.15.73.1.11,0,.31.16.39-.08.28.2.44.12.69.24,1.16.78,2.29,1.07,3.46.17.09.05.3.17.43s.17.39.14.63c.17.08,0,.34.18.42.28.91.6,1.78.93,2.68,0,.21.21.3.15.56.09.29.26.57.33.88a11.67,11.67,0,0,0,.49,1.2c.34.82.57,1.64.89,2.48.15.24.21.56.39.83,0,.17.19.26.13.45.25.46.39,1,.62,1.45.16.65.55,1.26.75,1.92-.05.18.18.21.08.38-.75.09-1.48-.14-2.21-.09-.38-.2-.89,0-1.3-.18-1-.07-2-.16-3-.24l-1.11-.1c-.15-.15-.43,0-.6-.11-.55.07-1-.15-1.68-.08l-.12-.1c-.9,0-1.75-.18-2.64-.23-.42-.25-.66-.68-1.06-.9-.08-.08-.16-.12-.18-.23-.55-.45-1-1-1.57-1.43v-.06c-.36-.31-.71-.62-1.08-.92a9.06,9.06,0,0,1-1.09-1.14c0-.14.25,0,.32-.15.55,0,1-.15,1.54-.14.66-.07,1.31-.23,2-.3s1.28-.12,2-.21c.3-.22.64-.05,1-.16.67.06,1.21-.26,1.85-.17l.08-.08a20.82,20.82,0,0,0,2.21-.27c.09-.15-.06-.2-.07-.35-.19-.17-.11-.41-.32-.57-.18-.43-.43-.86-.57-1.29-.12-.07-.09-.21-.17-.27-.19-.31-.23-.65-.44-1-.43-1.39-1.11-2.65-1.61-4-.22-.64-.44-1.26-.69-1.92,0-.26-.2-.31-.15-.58-.12-.34-.28-.66-.4-1s-.13-.38-.15-.58a5.24,5.24,0,0,0-.28-.69c-.18-.84-.46-1.62-.68-2.42s-.46-1.74-.67-2.6c0-.47-.2-.9-.22-1.39-.18-.25-.05-.57-.2-.83a21.2,21.2,0,0,1,.08-5.4,24.68,24.68,0,0,1,.81-3.93c.33-.74.54-1.53.85-2.29s.74-1.57,1.07-2.38c.16-.1.16-.28.29-.4a10.12,10.12,0,0,1,.87-1.45,21.17,21.17,0,0,1,1.42-2c.78-.8,1.47-1.68,2.27-2.46h.07c.56-.46,1-1,1.57-1.42.18,0,.22-.24.38-.23.4-.32.81-.62,1.2-1s.69-.32,1-.52.7-.44,1-.67c1-.44,1.91-.92,2.89-1.33.61-.09,1.17-.46,1.79-.61a13.31,13.31,0,0,0,1.31-.34c.28,0,.5-.16.79-.15.12-.14.39,0,.51-.18.5,0,1-.15,1.43-.14.21-.18.62,0,.85-.18a16.91,16.91,0,0,0,2.59-.1c.75.1,1.42.07,2.15.1l.07.06c.49,0,1,.06,1.56.15.91.24,1.92.37,2.84.62.12.22.42,0,.56.23.86.14,1.64.63,2.5.83.26.31.64.22.94.5.23,0,.35.22.6.23.58.31,1.12.66,1.69.94C80,47.24,80.7,47.82,81.47,48.3Z"/><path class="138a3d49-bbc4-4baf-8761-31894bc4f417" d="M81.55,71.29s0,0,0,.06c-.87.15-1.74.2-2.61.29-.68.06-1.42,0-2.13.1.07-.1.22-.16.31-.27s.05,0,.07,0v-.06a14.29,14.29,0,0,0,1.45-1c.26-.2.36.2.63.09.06.15.25,0,.33.18.19,0,.29.18.5.13,0,.09.06.1.11.12C80.67,71,81.12,71.18,81.55,71.29Z"/><path class="138a3d49-bbc4-4baf-8761-31894bc4f417" d="M80.17,97.57a8.92,8.92,0,0,1-.37,1.37l-.08.08a6.38,6.38,0,0,1-.23,1c-.17.17-.13.44-.25.63s-.23.47-.21.76-.29.66-.4,1a8.9,8.9,0,0,0-.35,1.25c-.17.09,0,.45-.35.37a2.12,2.12,0,0,0-.75-.06c-.76-.17-1.51-.18-2.27-.42-.13-.19-.44,0-.57-.21-.28.05-.47-.18-.74-.1a4.49,4.49,0,0,0-.76-.31c-.19,0-.28-.16-.49-.12-.17-.18-.35-.16-.56-.29a7.12,7.12,0,0,1-.87-.34c-.09-.17-.34,0-.4-.23-.16.07-.16-.11-.3-.08s-.29-.08-.29-.2c-.21,0-.34-.15-.55-.22a1.35,1.35,0,0,0-.76-.4c-.75-.48-1.45-.92-2.14-1.46s-1.18-1.13-1.86-1.63c-.23-.4-.62-.59-.81-1l-.19-.15c-.4-.54-.78-1.12-1.14-1.68-.19-.45-.43-.86-.63-1.29A19.43,19.43,0,0,1,61,91c0-.55-.23-1-.18-1.59l0-5.19a22,22,0,0,1,.07-2.72l1.35.18a5.3,5.3,0,0,0-.05,1c.07.28-.06.63.12.87,0,.25.16.35.16.59a2.73,2.73,0,0,1,.38.74c.34.22.59.65.94.94.13.08.25.11.33.23.18-.07.14.17.32.12,0,.17.25,0,.29.18a1.8,1.8,0,0,1,.69.22,17.45,17.45,0,0,0,1.77,0,7.73,7.73,0,0,1,.81-.31,5.71,5.71,0,0,0,1.09-.65,4.94,4.94,0,0,0,.78-1,4.64,4.64,0,0,0,.54-1.18l1.33.14a.86.86,0,0,0,0,.23c-.23.41-.31.83-.53,1.27a15.2,15.2,0,0,1-1,1.29h-.11c-.17.33-.6.43-.8.76l0,1.76c0,.39.22.78.22,1.19.2.47.28,1,.52,1.48s.36.63.51,1c.2,0,0,.2.2.21.08.21.29.33.34.54.21.1.29.33.51.47v0L72.91,95c.33.11.57.41.91.49,0,.13.24.09.25.23h.11s.08.05.09.08c.21-.05.24.17.45.12,0,.17.26,0,.31.21.54.2,1.1.37,1.63.62.21,0,.31.16.54.11a5.86,5.86,0,0,1,1,.33c.48,0,.94.13,1.41.19C79.76,97.56,80,97.42,80.17,97.57Z"/><path class="138a3d49-bbc4-4baf-8761-31894bc4f417" d="M78.54,77.1a15.71,15.71,0,0,1,0,2.17c-.36.32-.47.84-.73,1.2a5.43,5.43,0,0,1-.43,1.25h-.07c-.17-.84-.31-1.72-.44-2.54-.12-.1-.07-.33-.19-.42s-.17-.37-.13-.6a8.27,8.27,0,0,0-.47-1.1c.07-.12.28,0,.37,0A17.94,17.94,0,0,0,78.54,77.1Z"/><path class="138a3d49-bbc4-4baf-8761-31894bc4f417" d="M70.45,81.89a3.73,3.73,0,0,1,0,1.56,4.64,4.64,0,0,1-.54,1.18,4.94,4.94,0,0,1-.78,1,5.71,5.71,0,0,1-1.09.65,7.73,7.73,0,0,0-.81.31,17.45,17.45,0,0,1-1.77,0,1.8,1.8,0,0,0-.69-.22c0-.15-.25,0-.29-.18-.18,0-.14-.19-.32-.12-.08-.12-.2-.15-.33-.23-.35-.29-.6-.72-.94-.94a2.73,2.73,0,0,0-.38-.74c0-.24-.17-.34-.16-.59-.18-.24-.05-.59-.12-.87a5.3,5.3,0,0,1,.05-1,1.42,1.42,0,0,1,.07-.22,2.27,2.27,0,0,1,.46-1.1c0-.41.45-.46.6-.82a7.58,7.58,0,0,1,1-.77c.41-.11.79-.37,1.17-.43l1.5,0a2.3,2.3,0,0,0,.79.2c.25.23.64.28.9.54h.08c.08.23.36.24.5.44a3.7,3.7,0,0,1,.77,1.19c.12.08.09.25.17.36C70.27,81.37,70.5,81.6,70.45,81.89ZM68,83.14c0-.3.25-.57.07-.88.09-.43-.26-.66-.44-1s-.33-.22-.46-.33-.22-.07-.33-.12a1.54,1.54,0,0,0-1.17,0c-.14.26-.61.18-.64.57-.38.25-.3.77-.36,1.11-.06.51.28.83.54,1.18.23.06.3.28.53.29.15.18.45,0,.62.15.21-.07.47,0,.65-.15.21.09.16-.19.36-.13,0-.13.26-.14.28-.29S67.81,83.29,68,83.14Z"/><path class="138a3d49-bbc4-4baf-8761-31894bc4f417" d="M68,82.26c.18.31-.08.58-.07.88-.14.15-.19.4-.35.49s-.24.16-.28.29c-.2-.06-.15.22-.36.13-.18.14-.44.08-.65.15-.17-.12-.47,0-.62-.15-.23,0-.3-.23-.53-.29-.26-.35-.6-.67-.54-1.18.06-.34,0-.86.36-1.11,0-.39.5-.31.64-.57a1.54,1.54,0,0,1,1.17,0c.11,0,.29,0,.33.12s.37.17.46.33S68.11,81.83,68,82.26Z"/><path class="138a3d49-bbc4-4baf-8761-31894bc4f417" d="M65.87,37.35l0,.08,0,1.17c-.2.16,0,.48-.16.64l-1.31,0-.11.08a8.9,8.9,0,0,0-1.7.09,8.86,8.86,0,0,1-1,.13c-.05,0-.14,0-.16.09-.43,0-.75.19-1.19.17s-.52.21-.82.19c-1.06.31-2.14.56-3.18.93-.05.19-.33,0-.39.18-.22-.08-.29.22-.52.14-.41,0-.62.42-1,.44a2.22,2.22,0,0,0-.52.29,3.64,3.64,0,0,0-.56.21,5.18,5.18,0,0,1-.57.31c-.22-.09-.15.19-.36.11-.07.16-.31.15-.4.31-.18-.08-.14.19-.31.12-.16.21-.47.25-.63.44-.21,0-.25.18-.44.23-.75.39-1.36,1-2.08,1.43-.87.74-1.72,1.45-2.6,2.21-.3.45-.74.7-1,1.14-.81.75-1.35,1.74-2.1,2.54-.54.77-1.07,1.57-1.56,2.36a9.13,9.13,0,0,1-.71,1.15,6.36,6.36,0,0,1-.25.63c-.24.46-.45,1-.72,1.41a5.41,5.41,0,0,1-.33.8c0,.32-.33.54-.27.88-.07.1-.07.24-.17.35s-.15.32-.15.51-.06.31-.23.25c-.57-.06-1.09-.19-1.67-.2,0-.05-.13-.06-.14-.13.07-.37.24-.69.31-1.07l.1-.14A16.18,16.18,0,0,1,37.45,56c.35-.91.85-1.73,1.24-2.63.15-.12.15-.31.32-.46s.3-.4.35-.67c.3-.41.5-.89.83-1.29.53-.82,1.21-1.67,1.82-2.43a30.44,30.44,0,0,1,3.5-3.5l.25-.31c1.14-.83,2.16-1.79,3.41-2.54.46-.27.9-.57,1.37-.87.17,0,.31-.14.47-.18a5.26,5.26,0,0,1,.87-.52,16.89,16.89,0,0,0,1.54-.76,6.48,6.48,0,0,0,1-.35,4.17,4.17,0,0,0,.81-.36c.42-.11.79-.22,1.19-.36l0-.06a8.15,8.15,0,0,0,1.41-.43c.33.07.52-.18.84-.15.17-.15.46,0,.6-.17.35,0,.64-.16,1-.15.25-.15.56,0,.81-.2.9-.07,1.78-.24,2.71-.23l.21-.08Z"/><path class="138a3d49-bbc4-4baf-8761-31894bc4f417" d="M60.69,72.08h1c0,.92-.06,1.86,0,2.83-.11.22-.35.32-.53.5-.14,0-.09.14-.22.13-.22.29-.67.53-.86.89a9.45,9.45,0,0,0-1,1.21,12.93,12.93,0,0,0-.87,1.89,10.34,10.34,0,0,0-.46,3.08l-.87,0c0-.57,0-1.14,0-1.69-.06-.13-.28-.16-.3-.31a4.22,4.22,0,0,1-.76-1,15.81,15.81,0,0,1-1-1.81c-.15-.65-.49-1.19-.63-1.83a3,3,0,0,0-.2-.4c-.11-.5-.24-1-.33-1.48a8.09,8.09,0,0,1-.22-1.71c.06-.38-.07-.91.19-1.21s.18-.41.34-.56a3.56,3.56,0,0,1,.92-.67c.08-.08.22,0,.28-.1a3.6,3.6,0,0,1,1.46.08c0,.15.28,0,.27.19a2.09,2.09,0,0,1,1.07,1.31c.16.2.1.42.14.67C59.05,72.11,59.85,72.11,60.69,72.08Z"/><path class="138a3d49-bbc4-4baf-8761-31894bc4f417" d="M60.69,71.89v.19c-.84,0-1.64,0-2.48,0,0-.25,0-.47-.14-.67A2.09,2.09,0,0,0,57,70.1c0-.18-.23,0-.27-.19a3.6,3.6,0,0,0-1.46-.08c-.06.11-.2,0-.28.1a3.56,3.56,0,0,0-.92.67c-.16.15-.21.39-.34.56s-.13.83-.19,1.21a8.09,8.09,0,0,0,.22,1.71c.09.5.22,1,.33,1.48a3,3,0,0,1,.2.4c.14.64.48,1.18.63,1.83a15.81,15.81,0,0,0,1,1.81,4.22,4.22,0,0,0,.76,1c0,.15.24.18.3.31,0,.55,0,1.12,0,1.69,0,.26,0,.53,0,.79-.25.09-.46-.11-.72-.06-.34-.17-.66-.36-1-.54,0-.13-.19-.17-.29-.25a6.05,6.05,0,0,1-1-1.31,3.8,3.8,0,0,1-.33-.37c0-.14-.15-.22-.11-.36l-.08,0a12.81,12.81,0,0,1-.66-1.34c-.13-.06-.09-.25-.21-.33a4.07,4.07,0,0,0-.22-.7c-.15-.06,0-.26-.2-.31a10.16,10.16,0,0,1-.54-1.83c-.21-.07,0-.33-.19-.42,0-.54-.24-1.07-.32-1.59S51,72.78,51,72.21c.08-.38,0-.85.17-1.19a7.51,7.51,0,0,1,.35-1.11c.08-.19.37-.31.34-.58a1.23,1.23,0,0,0,.39-.46,7.43,7.43,0,0,0,.85-.73c.23-.2.56-.2.79-.43a8.88,8.88,0,0,1,1.59-.42,3,3,0,0,1,.91.06,4.27,4.27,0,0,1,1.36.27c0,.14.23,0,.29.19.17,0,.3.16.46.21s.34.4.6.43a8.8,8.8,0,0,1,1,1.19c0,.26.3.35.25.63A5.1,5.1,0,0,1,60.69,71.89Z"/><path class="890a23f6-8e46-4101-9c4f-5aaa462a5ad8" d="M107.5,24.39l-.11.09c-.46,0-.92,0-1.35,0s-1.13.08-1.71.07c-.32.18-.72,0-1,.2a6.64,6.64,0,0,1-1,.11c-.21.15-.57,0-.73.19-.32,0-.54.15-.85.13-.07.15-.36,0-.44.2-.33-.05-.56.16-.89.11a5.67,5.67,0,0,0-.79.33c-.19,0-.3.13-.5.1a9.06,9.06,0,0,1-1,.4c-.2,0-.33.14-.52.13-.29.16-.58.29-.84.41-.52.22-1,.47-1.56.66,0,.12-.23.07-.25.18a2.51,2.51,0,0,0-.72.34c-.28.07-.49.31-.73.42a5.15,5.15,0,0,0-.54.23c-1,.36-1.66,1.12-2.62,1.56a9.13,9.13,0,0,0-1.14.85c-.16-.09-.09.16-.25.07-.19.29-.56.38-.77.64a5.69,5.69,0,0,0-.85.56c-.1.19-.37.16-.45.4-.29,0-.37.38-.65.43-.53.44-1,.87-1.57,1.34s-1.2,1.12-1.83,1.63v.06a18.09,18.09,0,0,0-1.49,1.4c-.63.65-1.2,1.27-1.8,1.91-1.05-.24-2.06-.71-3.1-.93-.31.07-.49-.18-.78-.14-.13-.15-.36-.05-.49-.16-.51-.16-1-.21-1.54-.35-.34.08-.59-.14-.9-.07-.1.36,0,.83-.11,1.17,0,.3-.13.58.15.75a9.83,9.83,0,0,1,1.67.32c.37.12.71.17,1.08.31.06.14.27,0,.34.16.28-.08.36.2.64.15.12.12.29.07.42.18.23,0,.31.15.52.13.3.15.58.2.87.38.2,0,.32.16.53.18.44.14.78.4,1.2.57h.11c0,.14.2.08.22.17a4.84,4.84,0,0,1,.83.39c.8.51,1.65.92,2.46,1.46.62.47,1.24,1,1.9,1.41.16.28.48.34.67.57h.06c.17.4.65.48.85.82.83-.07,1.59-.5,2.42-.49a11.91,11.91,0,0,1,1.66.1c.35-.06.58.16,1,.12s1.06.37,1.58.51c.32.16.56.34.87.48a1.7,1.7,0,0,0,.45.35,8.37,8.37,0,0,1,1.1,1.37c.42.33.38.91.73,1.31a8.41,8.41,0,0,1-.08,4.17c0,.23-.14.33-.11.6-.16.17,0,.37-.21.55-.24,1-.65,2-.89,3-.55,1.5-1,3-1.57,4.52,0,.24-.4.2-.56.18l-1.54,0-.08,0c-2.75,0-5.49,0-8.23,0l-.09,0h-1c-1.34,0-2.68,0-4,0L65,63.87a13.14,13.14,0,0,1-2.41-.31c-.47-.2-1-.25-1.45-.45a6.67,6.67,0,0,0-.78-.31A16.12,16.12,0,0,1,58,61.23c-.12-.12-.16-.26-.33-.31a5.42,5.42,0,0,0-.85-1c-.06-.27-.33-.46-.46-.69a12.2,12.2,0,0,1-.72-1.45c0-.34-.28-.54-.24-.9a6.9,6.9,0,0,1,0-3.35c0-.22.18-.33.15-.56a11.73,11.73,0,0,1,.85-1.7c.2-.13.21-.36.4-.53a10.15,10.15,0,0,1,1.43-1.28c.19.07.15-.21.34-.14.08-.18.33-.15.41-.29.26-.05.39-.3.69-.29a8.35,8.35,0,0,1,1.07-.35,4.61,4.61,0,0,0,.54,0l.06-.07a10.8,10.8,0,0,1,2,0l1.54.42a8.9,8.9,0,0,1,1.19.61c.4.4,1,.59,1.29,1a4.77,4.77,0,0,1,.92,1.23c.23.12.18.43.38.6,0,.31.33.46.29.8,0,.11,0,.24.16.29s.27-.14.46-.08c.08-.15.3,0,.34-.18a9.82,9.82,0,0,0,1.49-.54c.14-.08.37,0,.44-.22a.22.22,0,0,0,.23,0v-.06a4.4,4.4,0,0,0,1.1-.35,2.09,2.09,0,0,0,.4-.19c.51-.27,1.12-.32,1.6-.6.17,0,.29-.18.5-.13,0-.21.31,0,.36-.23.2.05.34-.14.56-.1.06-.18.28,0,.35-.21.56-.06,1-.43,1.53-.52.11-.16.34-.07.45-.24.17.1.18-.16.33-.07.16-.09.41-.08.52-.23.26,0,.45-.22.69-.21a4.69,4.69,0,0,1,.69-.32c.19,0,.26-.18.47-.11.17-.21-.14-.28-.2-.42-.77-.48-1.46-1.06-2.27-1.5-.57-.28-1.11-.63-1.69-.94-.25,0-.37-.21-.6-.23-.3-.28-.68-.19-.94-.5-.86-.2-1.64-.69-2.5-.83-.14-.2-.44,0-.56-.23-.92-.25-1.93-.38-2.84-.62-.51-.09-1.07-.11-1.56-.15l-.07-.06c-.73,0-1.4,0-2.15-.1a16.91,16.91,0,0,1-2.59.1c-.23.2-.64,0-.85.18-.46,0-.93.15-1.43.14-.12.15-.39,0-.51.18-.29,0-.51.17-.79.15a13.31,13.31,0,0,1-1.31.34c-.62.15-1.18.52-1.79.61-1,.41-1.9.89-2.89,1.33-.34.23-.7.41-1,.67s-.72.31-1,.52-.8.64-1.2,1c-.16,0-.2.22-.38.23-.56.42-1,1-1.57,1.42h-.07c-.8.78-1.49,1.66-2.27,2.46a21.17,21.17,0,0,0-1.42,2,10.12,10.12,0,0,0-.87,1.45c-.13.12-.13.3-.29.4-.33.81-.72,1.58-1.07,2.38s-.52,1.55-.85,2.29a24.68,24.68,0,0,0-.81,3.93,21.2,21.2,0,0,0-.08,5.4c.15.26,0,.58.2.83,0,.49.22.92.22,1.39.21.86.41,1.72.67,2.6s.5,1.58.68,2.42a5.24,5.24,0,0,1,.28.69c0,.2.18.35.15.58s.28.62.4,1c-.05.27.16.32.15.58.25.66.47,1.28.69,1.92.5,1.35,1.18,2.61,1.61,4,.21.33.25.67.44,1,.08.06,0,.2.17.27.14.43.39.86.57,1.29.21.16.13.4.32.57,0,.15.16.2.07.35a20.82,20.82,0,0,1-2.21.27l-.08.08c-.64-.09-1.18.23-1.85.17-.34.11-.68-.06-1,.16-.67.09-1.31.07-2,.21s-1.33.23-2,.3c-.49,0-1,.18-1.54.14-.07.13-.27,0-.32.15A9.06,9.06,0,0,0,38,92.32c.37.3.72.61,1.08.92v.06c.52.47,1,1,1.57,1.43,0,.11.1.15.18.23.4.22.64.65,1.06.9.89.05,1.74.26,2.64.23l.12.1c.63-.07,1.13.15,1.68.08.17.09.45,0,.6.11l1.11.1-.18,2.07c-1.62-.14-3.25-.24-4.86-.44-.38-.11-.91.08-1.23-.16a4.05,4.05,0,0,1-1.21-.07c-.47,0-.62-.5-1-.65a12.85,12.85,0,0,0-1.4-1.37,4.83,4.83,0,0,1-.83-.73c-.1,0-.07-.17-.19-.11,0-.15-.17,0-.12-.18-.1-.13-.28-.23-.36-.35h-.06c-.77-.75-1.63-1.39-2.39-2.19a11.36,11.36,0,0,0-.9-.77c-.74-.73-1.54-1.37-2.27-2.11.13-.13.39,0,.5-.14l.63,0c.88-.21,1.79-.35,2.68-.5.37,0,.7-.12,1.1-.13s.65,0,.94-.2c.35,0,.76-.1,1.14-.11.16-.2.57,0,.74-.19.5.07.85-.22,1.31-.15.19-.16.59,0,.79-.18.45.06.72-.19,1.16-.15.13-.17.54.12.44-.25-.13-.11-.06-.31-.22-.4-.11-.43-.3-.81-.42-1.22a3.62,3.62,0,0,1-.4-.85c0-.19-.15-.29-.14-.48-.16-.12-.07-.27-.2-.4-.29-.7-.45-1.45-.76-2.14-.14-.43-.36-.86-.49-1.28.08-.24-.2-.29-.13-.53-.17,0,0-.31-.19-.41a19.25,19.25,0,0,1-.53-1.9c-.15-.11-.07-.33-.2-.45.07-.27-.18-.42-.15-.68-.13-.14,0-.37-.19-.48.08-.24-.15-.37-.1-.6-.19-.11,0-.37-.19-.49-.13-1-.49-2-.62-3a25.54,25.54,0,0,1-.32-4.92l0-1A8.52,8.52,0,0,0,35.2,66a5.7,5.7,0,0,1-.13,1.7,14.18,14.18,0,0,0-1.65,1.87,8.4,8.4,0,0,0-1,1.23c-.5.72-1,1.41-1.46,2.16-.16.09-.15.31-.3.38-.2.31-.35.65-.52,1a2.68,2.68,0,0,1-.39.58c-.44.92-1,1.72-1.39,2.64-.06.28-.32.46-.34.78-.14,0,0,.26-.2.31-.45.88-.74,1.84-1.19,2.73,0,.18-.13.31-.11.52-.18.07,0,.27-.22.35-.31,1-.74,2-1,3.07-.29.79-.41,1.62-.66,2.45-.15.55-.23,1.12-.39,1.66-.35,1.56-.51,3.18-.74,4.78s-.13,3-.13,4.56h-.16c-.1-.17-.28-.29-.35-.49-.39-.34-.69-.77-1-1.12a20.38,20.38,0,0,0-1.3-1.72c-.08-.21-.29-.36-.33-.6s-.13-.31-.3-.4a5,5,0,0,1-.54-1l-.1-.08c-.17-.38-.42-.63-.56-1a3.47,3.47,0,0,0-.29-.38c0-.17-.21-.24-.13-.41-.21-.16-.17-.49-.38-.66,0-.23-.24-.37-.23-.61s-.43-.72-.54-1.07c-.37-.68-.54-1.44-.92-2.12-.33-1-.69-1.92-1-2.91-.12-.36-.24-.73-.35-1.09s-.11-.48-.14-.7-.24-.7-.32-1.06-.24-.58-.17-.92l-.09,0c0-.47-.2-.92-.22-1.37-.2-.16,0-.49-.2-.66-.08-.62-.21-1.25-.32-1.84s-.23-1.09-.23-1.67c-.14-.24,0-.59-.18-.83a17,17,0,0,0-.21-2.37c.05-.24-.1-.52,0-.77.07,0,.17,0,.2-.14.25,0,.37-.12.62-.09.13-.2.41,0,.52-.23.2.07.34-.13.54-.13v0c.3.08.38-.24.65-.16.14-.13.36,0,.51-.2.21,0,.27-.15.49-.09.23-.16.61-.19.81-.31s.62-.27.94-.3.39-.21.66-.13c.05-.23.32,0,.38-.22.26,0,.41-.12.64-.09.05-.23.27,0,.36-.22.25.07.4-.19.66-.13a7.06,7.06,0,0,0,.71-.29,26.39,26.39,0,0,0,2.54-.77c.33,0,.52-.22.84-.22.13-.14.41,0,.54-.18.19,0,.33-.14.53-.12.05-.17.29,0,.36-.17l.63-.14c.1-.19.38,0,.47-.2.31.12.32-.25.61-.14a2.22,2.22,0,0,0,.71-.29c.25,0,.45-.11.69-.12.06-.16.33,0,.43-.19.4-.16.87-.14,1.29-.31.18-.22.62-.06.71-.42.15,0,.1-.17.21-.21a1.08,1.08,0,0,0-.1-.87.49.49,0,0,0-.48-.33c-.12-.14-.33,0-.5-.07-.27.12-.6.16-.82.29a10.09,10.09,0,0,1-1.31.34c-.2.13-.51.14-.68.29-.26,0-.43.18-.7.14-.51.14-1,.35-1.51.51-.27-.07-.39.21-.65.14s-.27.09-.39.17c-.29,0-.56.21-.88.22-.11.19-.39,0-.48.21-.27-.09-.38.22-.64.13-.56.18-1.13.37-1.69.52-.07.17-.34,0-.35.17-.25,0-.4.17-.65.12-.1.19-.37,0-.49.21-.52.16-1,.29-1.54.44-.09.12-.3,0-.36.17-.28-.05-.38.2-.65.16-.56.13-1.09.41-1.67.5l-.74.31c-.24,0-.41.13-.65.12-.07.16-.32.05-.42.21a4,4,0,0,1-1,.19,18.88,18.88,0,0,0,0-2.92,2,2,0,0,1,.07-.87l0-2.35c.1-.63.09-1.16.15-1.81l.05-.07c0-.7.1-1.43.14-2.14.12-1.56.55-3.07.79-4.62.1-.39.17-.79.3-1.15,0-.12,0-.21,0-.31a.28.28,0,0,1,.22.08c.24,0,.51,0,.69.1l.73,0v.06c.26,0,.5,0,.71.13.72.08,1.45.08,2.16.21v0a10.06,10.06,0,0,0,1.37.16c.28.15.61,0,.88.19a16.94,16.94,0,0,1,2,.29c.51-.08.93.24,1.44.16.82.08,1.64.32,2.45.41.44-.08.74.15,1.21.11.31.2.65,0,1,.18.69,0,1.38.18,2.08.24,0,.09.11,0,.15.07.2.07.51-.06.65.12.42-.09.76.17,1.14,0,.14.08.1-.12.23-.12a1,1,0,0,0,.38-.88,1.26,1.26,0,0,0-.38-.6A.19.19,0,0,1,33,53.5c-.18,0-.39,0-.53-.1-.42,0-.85-.16-1.29-.12-.3-.15-.64,0-.93-.18-.45,0-.87-.13-1.34-.13-.23-.15-.62,0-.83-.18l-.71-.05s0-.07-.07,0c-.74,0-1.46-.19-2.18-.23-.21-.18-.56-.05-.77-.2-.51,0-.95-.13-1.46-.13s-1-.22-1.51-.27-.84-.19-1.32-.15c-.24-.14-.59,0-.83-.18-.69,0-1.37-.17-2.05-.24-.9-.16-1.8-.34-2.68-.45.3-1.19.69-2.37,1-3.54.51-1.5,1.15-2.91,1.71-4.41.19-.05,0-.3.21-.36.3-.8.69-1.56,1.06-2.33.23-.25.3-.6.54-.89,0-.07.11-.16.11-.26.36-.62.74-1.21,1.07-1.83.11,0,.06-.23.18-.25s.11-.1.18-.1l.6.35c.12-.05.14.17.27.1,0,.11.17.09.22.15s.25.19.41.15c0,.14.17.14.25.22a4.25,4.25,0,0,0,.75.33c.2.19.5.21.69.4.2,0,.31.15.5.21.27.23.63.3.91.53s.53.21.74.32c.38.32.91.41,1.29.73a7.84,7.84,0,0,1,1.3.63c.1,0,.17.12.3.09.3.34.81.3,1.13.66a2.52,2.52,0,0,1,.29.12c0,.13.22,0,.22.15l.34.12c.09.16.29.06.35.22.39.11.71.41,1.1.52s.55.44.88.53c.16,0,.23.15.37.13.33.27.75.35,1.1.61.12,0,.14.2.31.12a10.71,10.71,0,0,1,1,.6c.6.23,1.1.63,1.72.89.11.15.31.08.45.18a.94.94,0,0,0,.83-.38.85.85,0,0,0,.15-.85c-.12-.13-.19-.33-.36-.4a17.78,17.78,0,0,0-1.59-.92l-.14,0c-.4-.28-.84-.43-1.24-.72-.2,0-.37-.17-.57-.22s-.17-.15-.28-.22H34.8c-.46-.36-1-.47-1.47-.85H33.2a11.63,11.63,0,0,0-1.23-.6,8.33,8.33,0,0,1-.87-.52c-.83-.34-1.58-.86-2.42-1.17-.19-.08-.27-.23-.48-.31a3.18,3.18,0,0,0-.54-.21,13.7,13.7,0,0,0-1.83-.94c-.06-.12-.25-.08-.3-.22-.27-.1-.49-.22-.74-.31a1.07,1.07,0,0,0-.6-.32c-.16-.2-.4-.22-.59-.37s-.39-.24-.64-.28-.3-.19-.44-.29-.2-.12-.34-.1c0-.09-.07-.1-.12-.12s-.15-.18-.31-.15-.12-.21-.09-.32c.38-.51.74-1,1.17-1.52.11-.32.48-.47.56-.81a8,8,0,0,0,.87-1.06c.57-.5.89-1.19,1.52-1.68s1.19-1.19,1.76-1.79c.28,0,.27-.4.56-.46l0-.07a2,2,0,0,0,.58-.54c.26-.11.4-.39.67-.5.36-.42.83-.71,1.21-1.08.64-.46,1.23-.95,1.91-1.37.18.23.42.44.6.71,1.59,1.65,3,3.42,4.6,5.18.27.37.58.65.83,1,1.12,1.14,2,2.41,3.15,3.52v.05c1.32,1.37,2.48,2.89,3.82,4.24a.9.9,0,0,0,1.23-1.11c-.86-1.24-2-2.3-2.9-3.51a11.56,11.56,0,0,1-1-1.09c-.53-.73-1.19-1.3-1.71-2-.29-.13-.37-.53-.64-.68,0-.09-.12-.13-.12-.23-.17-.08-.24-.28-.4-.36s-.31-.23-.34-.49c-.66-.6-1.07-1.24-1.7-1.86-.08-.24-.44-.36-.49-.64-1.08-1.12-2-2.3-3.08-3.42,0-.19-.37-.23-.29-.48s.44-.23.63-.4c.15,0,.12-.15.28-.12a6.73,6.73,0,0,1,.65-.52,3.38,3.38,0,0,0,.71-.45c.16,0,.28-.15.46-.2.51-.31,1.06-.69,1.58-.94.24-.18.58-.26.78-.43s.38-.14.54-.23a8.75,8.75,0,0,1,1.39-.73,6.85,6.85,0,0,1,1-.42c.51-.19.94-.49,1.46-.72s1.11-.33,1.63-.65c.24.07.33-.21.56-.13a3.76,3.76,0,0,1,.64-.29c.53-.15,1.08-.39,1.59-.53,0,.21.19.27.14.49.16.05,0,.24.17.27.09.27.16.53.23.8.28.45.37,1,.64,1.43s.4,1.06.56,1.59C50.13,22,50.56,23,51,24.16c.18.41.32.82.52,1.23a1.53,1.53,0,0,1,.11.47c.16.14.15.43.31.56,0,.5.42.82.45,1.3a3.93,3.93,0,0,0,.3.62,8,8,0,0,0,.52,1.36c0,.18.16.27.12.46.12.16.13.45.29.62s.17.47.22.73.13.34.23.5a3.21,3.21,0,0,1,.2.62c.17.06.05.26.2.34s.15.34.18.51.3.47.35.78c.14,0,.24.21.38.17.11.14.31,0,.47.08.07-.15.27,0,.32-.18a.64.64,0,0,0,.37-.43,1.79,1.79,0,0,0-.1-.8c0-.18-.15-.29-.14-.47s-.13-.46-.28-.62c-.27-.61-.38-1.25-.68-1.85-.08-.09,0-.27-.16-.37a1.25,1.25,0,0,1-.13-.44c-.07-.22-.21-.44-.3-.65A19.27,19.27,0,0,0,54,26.82a4.2,4.2,0,0,1-.23-.74c-.73-1.51-1.19-3.14-1.91-4.65.07-.18-.16-.24-.11-.41-.47-1-.77-2.15-1.25-3.16,0-.27-.24-.46-.23-.74-.17-.43-.36-.8-.52-1.2-.08-.18.15-.16.23-.23.53-.15,1.1-.27,1.65-.44.19-.17.43,0,.62-.19.28,0,.53-.15.83-.14.13-.17.48,0,.61-.23.33,0,.63-.12,1-.09a8.66,8.66,0,0,0,1-.31,4.84,4.84,0,0,0,1.12-.14c.18-.11.44,0,.6-.17.51,0,1-.15,1.44-.14.24-.14.51-.05.78-.13v0c.29-.05.63,0,.87-.15,1-.07,2-.15,3-.28.55,0,1.29-.1,1.81-.1.16,0,.1.16.11.24,0,1.45,0,2.92-.11,4.38l0,4.4-.07.27c0,2.13-.09,4.71-.09,6.84l-.07.18,0,2.68c.14.06,0,.26.19.25,0,.22.27.22.42.29s.58.07.78-.12a1,1,0,0,0,.36-.82c.08-1.55,0-3.1.18-4.64,0-.38,0-.65,0-1L67,26c.05-1.88.05-3.75.07-5.63a3,3,0,0,0,.06-1.11c0-1.69,0-3.39.11-5.08a4.65,4.65,0,0,0,0-1c.09-.05.07-.16.2-.18L73,13l.11.11c.91-.09,1.71.13,2.53.11.33.16.8,0,1.17.11.21.17.55,0,.77.16.53-.07.9.19,1.44.15s.86.15,1.29.21c.23.09.53.06.73.18.56,0,1.07.22,1.62.22a.06.06,0,0,1,0,.05c.06.07.19,0,.27.06,0,.38-.34.63-.34,1-.48,1-.85,2.05-1.37,3.08-.19.49-.4.95-.56,1.45-.11.15-.19.35-.29.52-.17.64-.54,1.18-.73,1.82-.14.22-.22.51-.39.73-.25.64-.48,1.24-.77,1.89h0l-.18.54-.06,0a2.18,2.18,0,0,0-.25.69c-.14.05-.06.23-.19.27-.49,1.13-1,2.25-1.44,3.42-.37.75-.71,1.53-1,2.28-.16.39-.46.91-.12,1.32.08.14.26.24.36.34a1.23,1.23,0,0,0,1-.11c.27-.32.29-.73.57-1.06.18-.76.68-1.37.89-2.11.07-.2.21-.37.27-.54.36-.8.63-1.6,1-2.41.59-1.38,1.24-2.72,1.83-4.12,0-.15.17-.23.13-.4.15,0,0-.19.16-.21.07-.25.19-.47.26-.71s.15-.44.31-.6c.24-.74.59-1.42.87-2.15l0,0a3.9,3.9,0,0,0,.24-.73c.36-.65.61-1.33.92-2s.51-1.15.74-1.76c.28,0,.66.14,1,.18a20.6,20.6,0,0,0,2,.54c.1.19.45,0,.59.21.22,0,.38.12.59.1.31.13.66.24,1,.38.27,0,.43.2.69.17.08.1.27,0,.32.14.25,0,.41.16.66.15.53.21,1.11.34,1.64.54.12.1.3,0,.42.2.36.14.68.17,1,.3,0,.14.2,0,.25.15.2,0,.33.2.56.16,0,.14.27,0,.3.17.28.05.52.27.83.27a7.89,7.89,0,0,1,.84.39c.3.11.55.24.87.33,1.06.44,2.11.95,3.18,1.45.18,0,.19.17.36.12.1.21.4.12.53.31.15-.05.18.19.34.13.18.14.43.22.62.38.59.26,1.06.63,1.65.87s.94.59,1.39.92h.09c.26.22.52.41.77.66C107.36,24.14,107.49,24.22,107.5,24.39ZM93.13,53.44l0-1.44a3.33,3.33,0,0,0-.54-1.22c-.16-.11-.17-.43-.4-.48s-.29-.37-.53-.42a2.25,2.25,0,0,0-.47-.31c-.26.06-.43-.17-.68-.17-.08-.11-.33,0-.37-.16-.59,0-1.15,0-1.72,0a4.15,4.15,0,0,0-1.21.31c-.63.18-1.25.46-1.87.67a2.05,2.05,0,0,1-.77.25c-.23.08-.42.21-.66.29s-.29.16-.5.11a5.25,5.25,0,0,1-.63.31c-.21-.07-.29.2-.5.14-.37.18-.8.26-1.15.47-.31,0-.54.23-.84.27-.51.2-1,.41-1.46.58-.21,0-.33.21-.55.15,0,.19-.26.05-.31.2-.56.17-1.1.36-1.66.52,0,.2-.26,0-.32.19-.54.18-1.06.37-1.58.56-.07.15-.3,0-.36.19l-1.56.54c-.12.16-.35.07-.47.23-.27,0-.41.17-.67.21-.05.2-.27,0-.33.16s-.3.15-.46.13c-.1.16-.31.08-.4.21a9.41,9.41,0,0,1-1,.33,5.11,5.11,0,0,1-.67.31c-.41.17-.87.27-1.28.44-.08.16-.26.1-.42.19s-.12,0-.13-.09V55l-.07-.12a3.24,3.24,0,0,0-.15-.94c-.15-.14-.08-.39-.21-.54s-.21-.67-.54-.8c-.15-.07-.17-.34-.35-.39a5.18,5.18,0,0,0-1.52-1,2.22,2.22,0,0,1-.71-.2,4.76,4.76,0,0,0-3.58.92c-.11.1-.21.26-.38.31-.16.3-.44.47-.58.76a4.27,4.27,0,0,0-.49,1.14c-.16.17-.11.47-.12.69-.17.44.07.89,0,1.37a8.77,8.77,0,0,0,.52,1.35A6.43,6.43,0,0,0,60,59.27c.26.23.54.38.82.61s.6.38.92.53a1.49,1.49,0,0,1,.6.22,2,2,0,0,0,.83.22,5.92,5.92,0,0,0,.81.27,7.61,7.61,0,0,1,1.18.11c8.55,0,17.09-.09,25.63-.08.19,0,0-.32.21-.36a12.71,12.71,0,0,0,.35-1.27,11.23,11.23,0,0,0,.49-1.3c.2-.58.35-1.16.55-1.76,0-.39.26-.75.27-1.1.14-.08,0-.28.17-.36-.1-.33.27-.5.13-.81C93.14,54,93,53.66,93.13,53.44Zm-27.22-16,0-.08H64l-.21.08c-.93,0-1.81.16-2.71.23-.25.18-.56.05-.81.2-.36,0-.65.16-1,.15-.14.15-.43,0-.6.17-.32,0-.51.22-.84.15a8.15,8.15,0,0,1-1.41.43l0,.06c-.4.14-.77.25-1.19.36a4.17,4.17,0,0,1-.81.36,6.48,6.48,0,0,1-1,.35,16.89,16.89,0,0,1-1.54.76,5.26,5.26,0,0,0-.87.52c-.16,0-.3.17-.47.18-.47.3-.91.6-1.37.87-1.25.75-2.27,1.71-3.41,2.54l-.25.31a30.44,30.44,0,0,0-3.5,3.5c-.61.76-1.29,1.61-1.82,2.43-.33.4-.53.88-.83,1.29,0,.27-.28.42-.35.67s-.17.34-.32.46c-.39.9-.89,1.72-1.24,2.63a16.18,16.18,0,0,0-.57,1.79l-.1.14c-.07.38-.24.7-.31,1.07,0,.07.09.08.14.13.58,0,1.1.14,1.67.2.17.06.15-.15.23-.25s.15-.33.15-.51.1-.25.17-.35c-.06-.34.27-.56.27-.88a5.41,5.41,0,0,0,.33-.8c.27-.45.48-.95.72-1.41a6.36,6.36,0,0,0,.25-.63,9.13,9.13,0,0,0,.71-1.15c.49-.79,1-1.59,1.56-2.36.75-.8,1.29-1.79,2.1-2.54.29-.44.73-.69,1-1.14.88-.76,1.73-1.47,2.6-2.21.72-.47,1.33-1,2.08-1.43.19-.05.23-.21.44-.23.16-.19.47-.23.63-.44.17.07.13-.2.31-.12.09-.16.33-.15.4-.31.21.08.14-.2.36-.11a5.18,5.18,0,0,0,.57-.31,3.64,3.64,0,0,1,.56-.21,2.22,2.22,0,0,1,.52-.29c.41,0,.62-.44,1-.44.23.08.3-.22.52-.14.06-.19.34,0,.39-.18,1-.37,2.12-.62,3.18-.93.3,0,.5-.19.82-.19s.76-.21,1.19-.17c0-.09.11-.09.16-.09a8.86,8.86,0,0,0,1-.13,8.9,8.9,0,0,1,1.7-.09l.11-.08,1.31,0c.14-.16,0-.48.16-.64Z"/><path class="890a23f6-8e46-4101-9c4f-5aaa462a5ad8" d="M94,69.33l.23.08c-.21.31-.61.42-.83.69-.12,0-.2.17-.35.21-.24.21-.59.41-.82.65-.13-.07-.11.14-.24.08-.12.19-.33.25-.49.41-.57.25-1,.76-1.58,1.07a.2.2,0,0,0,0,.21,8.67,8.67,0,0,1,.28,1.2c.15.14,0,.39.2.52,0,.24.12.48.09.71.31,1,.63,2.11.87,3.19s.69,2.37.91,3.62c.15.9.44,1.74.61,2.66.14.24,0,.46.06.72-.19.46-.69.17-1.06.29-1,.12-2.09,0-3.07.08l-.14.14v.9c.22.1.43.23.65.35s.27.12.41.09c.06.14.24,0,.29.18.2.14.45.12.65.29s.29.26.36.44c-.29.36-.77.42-1.07.77-.18,0-.16.16-.33.15-.08.19-.29.1-.39.29-.35.12-.65.37-1,.48s-.73.39-1.05.67l0,.12c0,.65.18,1.18.18,1.84.15.38,0,.87.27,1.2,0,.14.14.22.13.37.37.61.7,1.27,1.06,1.88a2.67,2.67,0,0,1-.12,1.25c-.24,1.62-.53,3.24-.78,4.85,0,.19-.07.24-.2.33l-1.74,0c-.16,0-.39.07-.55-.07H81.53a8.84,8.84,0,0,0-.4,1c-.39,1.23-.85,2.43-1.23,3.68a7,7,0,0,1-2.41,0c-.55.05-1-.19-1.5-.16a31.31,31.31,0,0,1-3.08-.71c-.08-.15-.32-.07-.42-.18s-.37-.16-.62-.15c-.08-.15-.29,0-.39-.17a10.33,10.33,0,0,0-1.26-.42c-.09-.16-.29-.08-.35-.24s-.27-.09-.42-.11-.19,0-.21-.16c-.26,0-.45-.22-.69-.27,0-.11-.23-.08-.28-.2-.22,0-.27-.23-.5-.2a1.79,1.79,0,0,0-.58-.31c-.15-.13-.31-.22-.47-.34a3.59,3.59,0,0,0-.72-.4c-.59-.46-1.18-.88-1.74-1.35-.13,0-.14-.11-.24-.12a16.86,16.86,0,0,0-1.44-1.26c0-.15-.18,0-.13-.2-.36-.2-.46-.6-.82-.83-.22-.43-.63-.68-.84-1.11A4.26,4.26,0,0,1,60,96.61c-.21,0-.11-.21-.27-.31,0-.15-.19-.16-.12-.31-.14-.06-.1-.25-.22-.32a17.93,17.93,0,0,1-.77-2,19.89,19.89,0,0,1-.6-2.42c-.06-.52-.13-1.09-.15-1.65l0-6.3c0-.22,0-.44,0-.66a10.34,10.34,0,0,1,.46-3.08,12.93,12.93,0,0,1,.87-1.89,9.45,9.45,0,0,1,1-1.21c.19-.36.64-.6.86-.89.13,0,.08-.16.22-.13.18-.18.42-.28.53-.5,0-1,0-1.91,0-2.83a11.35,11.35,0,0,0-.11-1.75c-.18-.09,0-.35-.22-.46.06-.31-.16-.49-.2-.75-.16,0-.09-.24-.22-.27,0-.33-.34-.51-.42-.81-.27-.15-.39-.43-.58-.66a14.49,14.49,0,0,0-1.53-1.07c-.42-.32-1-.3-1.43-.54a15.72,15.72,0,0,0-1.94-.06c-.25.12-.61,0-.81.17a4.73,4.73,0,0,0-1.1.36,6.44,6.44,0,0,0-1.58,1.11,13.21,13.21,0,0,0-.92,1,8.23,8.23,0,0,1-.5,1,9.58,9.58,0,0,0-.35,1.19,6.44,6.44,0,0,0,0,1.81,6.65,6.65,0,0,1,.06.77c0,.45.16.76.19,1.19.27,1.14.57,2.27.85,3.41.09.14.06.31.17.44,0,.23.2.34.14.58a6,6,0,0,0,.36,1.11c.06.37.19.69.27,1,.15.09.1.31.22.43.09.57.44,1.07.49,1.62.17.15.06.42.24.56.15.57.42,1.13.54,1.69.11.07.08.23.17.33.3.94.66,1.87,1,2.83.09.1.12.26.21.38.42,1.26,1,2.44,1.41,3.69.11.3.25.58.38.87a5.79,5.79,0,0,1,.23.74c.12,0,.08.24.2.3a10.45,10.45,0,0,0,.65,1.77c.35.69.59,1.42.92,2.11a3.44,3.44,0,0,0,.35.91c0,.17.18.32.13.48a11.53,11.53,0,0,1-1.67-.19,7.65,7.65,0,0,1-1.08-.06c-.39-.11-.94,0-1.31-.15-.65,0-1.33-.17-2-.14,0-.11-.13,0-.17-.07a6.64,6.64,0,0,1-1,0c0-.07-.08-.08-.14-.07-.74,0-1.42-.12-2.15-.13v0l-1.63-.16L48,96.48c1,.08,2,.17,3,.24.41.18.92,0,1.3.18.73,0,1.46.18,2.21.09.1-.17-.13-.2-.08-.38-.2-.66-.59-1.27-.75-1.92-.23-.48-.37-1-.62-1.45.06-.19-.15-.28-.13-.45-.18-.27-.24-.59-.39-.83-.32-.84-.55-1.66-.89-2.48a11.67,11.67,0,0,1-.49-1.2c-.07-.31-.24-.59-.33-.88.06-.26-.18-.35-.15-.56-.33-.9-.65-1.77-.93-2.68-.14-.08,0-.34-.18-.42,0-.24-.15-.4-.14-.63s0-.34-.17-.43c-.29-1.17-.83-2.3-1.07-3.46.08-.25-.2-.41-.12-.69-.14-.08-.06-.28-.16-.39,0-.28-.22-.43-.15-.73-.18-.11,0-.38-.2-.52-.13-.93-.4-1.8-.54-2.73L47,74.1c-.1-.31.06-.65-.13-.92a12.86,12.86,0,0,1,0-3.1c0-.38.25-.69.25-1.06.08-.08,0-.25.15-.32,0-.21.16-.31.13-.51a16.4,16.4,0,0,1,1.1-1.93c.46-.54,1-1,1.47-1.49a4.6,4.6,0,0,1,.78-.52c.14-.14.27-.19.41-.33a.47.47,0,0,0,.33-.19c.19,0,.19-.15.38-.13.07-.15.28-.06.36-.2A16.09,16.09,0,0,1,54,63l.13-.09a1.39,1.39,0,0,0,.68-.1,9,9,0,0,1,2.38.1c.34-.07.54.18.87.13.53.11,1,.36,1.5.5s1.11.63,1.66,1v.06a16.38,16.38,0,0,1,1.49,1.29v0a11.27,11.27,0,0,1,1,1.43,8.76,8.76,0,0,1,.92,2.42,3.26,3.26,0,0,0,.12.78l0,1.47,0,4.68a.52.52,0,0,1-.35.27,2.17,2.17,0,0,0-.45.25,9.45,9.45,0,0,0-1.12.79,4.83,4.83,0,0,0-.89,1.1,2.68,2.68,0,0,0-.37.64c-.2.21-.17.56-.39.8a3.94,3.94,0,0,0-.13.65c0,.12-.06.25-.09.37a22,22,0,0,0-.07,2.72l0,5.19c-.05.58.18,1,.18,1.59a19.43,19.43,0,0,0,.83,2.79c.2.43.44.84.63,1.29.36.56.74,1.14,1.14,1.68l.19.15c.19.42.58.61.81,1,.68.5,1.19,1.14,1.86,1.63s1.39,1,2.14,1.46a1.35,1.35,0,0,1,.76.4c.21.07.34.23.55.22,0,.12.19.13.29.2s.14.15.3.08c.06.21.31.06.4.23a7.12,7.12,0,0,0,.87.34c.21.13.39.11.56.29.21,0,.3.17.49.12a4.49,4.49,0,0,1,.76.31c.27-.08.46.15.74.1.13.18.44,0,.57.21.76.24,1.51.25,2.27.42a2.12,2.12,0,0,1,.75.06c.3.08.18-.28.35-.37a8.9,8.9,0,0,1,.35-1.25c.11-.35.31-.68.4-1s.17-.5.21-.76.08-.46.25-.63a6.38,6.38,0,0,0,.23-1l.08-.08a8.92,8.92,0,0,0,.37-1.37c-.13-.15-.41,0-.53-.19-.47-.06-.93-.16-1.41-.19a5.86,5.86,0,0,0-1-.33c-.23.05-.33-.16-.54-.11-.53-.25-1.09-.42-1.63-.62,0-.18-.26,0-.31-.21-.21,0-.24-.17-.45-.12,0,0,0-.08-.09-.08h-.11c0-.14-.21-.1-.25-.23-.34-.08-.58-.38-.91-.49l-1.32-1.18v0c-.22-.14-.3-.37-.51-.47,0-.21-.26-.33-.34-.54-.18,0,0-.24-.2-.21-.15-.35-.37-.62-.51-1s-.32-1-.52-1.48c0-.41-.23-.8-.22-1.19l0-1.76c.2-.33.63-.43.8-.76h.11a15.2,15.2,0,0,0,1-1.29c.22-.44.3-.86.53-1.27a.86.86,0,0,1,0-.23.5.5,0,0,1,.09-.21c-.1-.55.31-1,0-1.49a4.28,4.28,0,0,0-.11-1c-.16-.25-.15-.55-.31-.8s-.37-.65-.54-.92a5.26,5.26,0,0,0-1.2-1.37.8.8,0,0,1-.38-.33l.06-6.8c.12-.26,0-.66.17-.87.09-.43.34-.84.46-1.25.36-.4.55-.93.92-1.29.11-.09.28-.1.29-.29.31-.22.55-.49.87-.69s.5-.33.79-.5A5.27,5.27,0,0,1,74,65.29c.18,0,.28-.08.42-.12,1.29,0,2.58,0,3.87-.07a8.11,8.11,0,0,0,1.48,0c.07-.1.15,0,.23,0l.9,0c.16,0,.42.06.58-.06.72.11,1.44-.07,2.17,0,0,.09.15,0,.22,0l.13,0s0,0,0,0l.12,0s0,0,0,0a5.66,5.66,0,0,0,.6,0c.32,0,.45,0,.76.06a6.66,6.66,0,0,1,1-.06l0,0c.32-.06.64,0,1,0v0c.42,0,.85,0,1.28,0,.08.1.15-.06.22,0a3.48,3.48,0,0,1,.57,0v0c.2,0,.43,0,.64,0,.05.17.14-.11.22,0,.13-.11.27.1.41-.06a.14.14,0,0,0,.17,0l0,0c.42,0,.85,0,1.27,0,.19,0,.36,0,.54,0,.42-.1.37.51.56.76.06.51.45.87.51,1.37.08.23.24.47.13.73a.24.24,0,0,0-.24.1q-9.45,0-18.91,0c-.22.14-.46.19-.67.33a5.49,5.49,0,0,0-1.33,1.17c0,.19-.22.27-.25.46-.5.66-.23,1.72-.31,2.52.14.13.16-.11.29-.11.77-.75,1.66-1.3,2.45-2.07,0-.09.2-.16.25-.27.33-.17.57-.51.9-.72,5.54-.07,11.09,0,16.64,0ZM89.67,83.16c.1-.35-.2-.54-.12-.88-.29-1.72-.84-3.37-1.13-5.08l-.06-.06c.06-.33-.21-.46-.16-.79-.11-.28-.16-.6-.28-.88,0-.29-.17-.41-.13-.69-.17-.11,0-.39-.16-.49-.1-.51-.27-1-.37-1.55,0,0-.12,0-.09-.08a.34.34,0,0,0-.31.08c-.76,0-1.5.2-2.25.23-.47.38-1,.69-1.47,1.05-.09.25-.38.3-.55.49-.16,0-.15.18-.33.17-.47,0-.82-.24-1.31-.13-.06,0-.16,0-.17-.1-.55,0-.93-.18-1.46-.1,0,0-.16,0-.18-.09l-.71,0c-.05-.06-.14-.14-.23-.07a6,6,0,0,1-1.06-1.2,13.57,13.57,0,0,0-1.8,0c-.28.49-.17,1.07-.45,1.58-.17.12-.15-.15-.26-.18-.29-.24-.54-.62-.85-.89-.12-.19-.36-.34-.43-.51a3.77,3.77,0,0,0-1.06,0V76.1a2.23,2.23,0,0,0,.46.5c.25.3.49.69.76,1s.4.63.58,1c.17.64.49,1.14.61,1.81,0,.31.18.6.13,1a5.35,5.35,0,0,1,.1,1.33c-.17.42,0,.92-.21,1.32a9.23,9.23,0,0,1-.65,2c-.19.45-.48.73-.66,1.17-.26.26-.48.63-.77.89-.1.17-.49.38-.31.61a5,5,0,0,0,.49,1.83,1.34,1.34,0,0,0,.29.5,3.35,3.35,0,0,0,.67.91,8.39,8.39,0,0,0,1,.94c.31.29.78.37,1.08.63.47.13.9.41,1.35.55.25-.06.47.14.73.13a9.15,9.15,0,0,0,.88.27c.21,0,.49,0,.64.11a18.69,18.69,0,0,0,1.94.12l2.33.25a5.63,5.63,0,0,1-.31,1c0,.62-.48,1.06-.44,1.67-.28.7-.47,1.41-.71,2.09,0,.14-.14.37,0,.42l2,0,.13-.09,1.39,0,.11-.17c0-.47.2-.86.15-1.32.17-.25,0-.63.19-.9,0-.4.23-.7.13-1.11-.11-.12-.18-.34-.31-.49s-.11-.23-.14-.38-.19-.2-.24-.34-.2-.27-.16-.49c-.27-.28-.31-.64-.51-1,0-1.09-.11-2-.12-3.13l-.21,0c-.57.2-1.22.27-1.82.42a8,8,0,0,0-.78.38c-.24,0-.35.16-.59.16s-.65,0-.93.15c-.45,0-1,.11-1.46.14a1.63,1.63,0,0,1-.82-.06c1-1.16,2-2.33,3.13-3.43.06,0,.11,0,.18,0-.08.44.19.69.11,1.1.06.06.2,0,.27,0,.35-.35.9-.44,1.25-.81.22-.15.5-.23.71-.35s.26-.15.36-.27c.39-.11.71-.47,1.12-.55,0,.32.21.52.18.84a.62.62,0,0,0,.27,0,4.48,4.48,0,0,0,.55-.42V86.2c-.16-.17-.38,0-.58-.11-.48,0-1,0-1.47,0s-1.06,0-1.59,0a8.2,8.2,0,0,1,.24-1.7c.12-.27,0-.67.21-.88.8,0,1.67,0,2.5,0,1-.07,2.1-.23,3.15-.2C89.16,83.11,89.4,83.26,89.67,83.16ZM81.56,71.35s0,0,0-.06c-.43-.11-.88-.3-1.33-.42,0,0-.15,0-.11-.12-.21.05-.31-.15-.5-.13-.08-.14-.27,0-.33-.18-.27.11-.37-.29-.63-.09a14.29,14.29,0,0,1-1.45,1v.06s-.06,0-.07,0-.24.17-.31.27c.71-.07,1.45,0,2.13-.1C79.82,71.55,80.69,71.5,81.56,71.35Z"/><path class="03bd4966-2307-466a-823c-dc761feb0ade" d="M93.15,52l0,1.44c-.16.22,0,.56-.22.75.14.31-.23.48-.13.81-.14.08,0,.28-.17.36,0,.35-.22.71-.27,1.1-.2.6-.35,1.18-.55,1.76a11.23,11.23,0,0,1-.49,1.3A12.71,12.71,0,0,1,91,60.79c-.18,0,0,.33-.21.36-8.54,0-17.08,0-25.63.08a7.61,7.61,0,0,0-1.18-.11,5.92,5.92,0,0,1-.81-.27,2,2,0,0,1-.83-.22,1.49,1.49,0,0,0-.6-.22c-.32-.15-.67-.38-.92-.53s-.56-.38-.82-.61a6.43,6.43,0,0,1-1.41-1.75A8.77,8.77,0,0,1,58,56.17c0-.48-.19-.93,0-1.37,0-.22,0-.52.12-.69A4.27,4.27,0,0,1,58.61,53c.14-.29.42-.46.58-.76.17-.05.27-.21.38-.31A4.76,4.76,0,0,1,63.15,51a2.22,2.22,0,0,0,.71.2,5.18,5.18,0,0,1,1.52,1c.18.05.2.32.35.39.33.13.28.56.54.8s.06.4.21.54a3.24,3.24,0,0,1,.15.94l.07.12v2.1c0,.06.08.08.13.09s.34,0,.42-.19c.41-.17.87-.27,1.28-.44a5.11,5.11,0,0,0,.67-.31,9.41,9.41,0,0,0,1-.33c.09-.13.3,0,.4-.21.16,0,.31-.09.46-.13s.28,0,.33-.16c.26,0,.4-.19.67-.21.12-.16.35-.07.47-.23l1.56-.54c.06-.14.29,0,.36-.19.52-.19,1-.38,1.58-.56.06-.16.29,0,.32-.19.56-.16,1.1-.35,1.66-.52.05-.15.26,0,.31-.2.22.06.34-.18.55-.15.5-.17,1-.38,1.46-.58.3,0,.53-.24.84-.27.35-.21.78-.29,1.15-.47.21.06.29-.21.5-.14a5.25,5.25,0,0,0,.63-.31c.21,0,.31-.16.5-.11s.43-.21.66-.29a2.05,2.05,0,0,0,.77-.25c.62-.21,1.24-.49,1.87-.67a4.15,4.15,0,0,1,1.21-.31c.57,0,1.13,0,1.72,0,0,.14.29.05.37.16.25,0,.42.23.68.17a2.25,2.25,0,0,1,.47.31c.24.05.37.27.53.42s.24.37.4.48A3.33,3.33,0,0,1,93.15,52Zm-2.54,1.73a4.13,4.13,0,0,0,.23-1.83,1.12,1.12,0,0,0-1.21-.46l-.16.12c-.19-.08-.16.2-.36.13-.19.28-.49.35-.62.67s-.21.33-.17.56c-.13,0-.06.18-.13.25-.14.49-.27,1-.4,1.46-.13.12-.1.34-.18.42,0,.27-.19.44-.13.69-.13.1-.07.27-.18.35-.25,1.23-.77,2.39-1,3.62.83-.09,1.68.07,2.52,0a.56.56,0,0,0,.11-.44,9.05,9.05,0,0,1,.43-1.17c0-.3.2-.48.17-.78a6.13,6.13,0,0,1,.25-.72,5.75,5.75,0,0,1,.25-.95c.09-.15.06-.33.18-.46s.17-.42.15-.66A6.21,6.21,0,0,0,90.61,53.73ZM86.9,52.21a1.26,1.26,0,0,0-.41-.62c-.08,0-.2,0-.21-.12a1.72,1.72,0,0,0-1,.09c-.11,0-.13.18-.25.11-.19.12-.32.32-.54.48l-.34.69c-.42,1.68-1,3.3-1.41,5-.18.08,0,.34-.19.42,0,.27-.18.44-.14.72-.17,0-.05.26-.17.33s-.21.32,0,.44c.81,0,1.63,0,2.43,0,.2-.44.29-.86.45-1.31s.17-.82.35-1.21c.27-.66.35-1.37.63-2,0-.25.18-.41.14-.67.15-.18.14-.42.23-.62A6,6,0,0,0,86.9,52.21Z"/><path class="890a23f6-8e46-4101-9c4f-5aaa462a5ad8" d="M90.84,51.9a4.13,4.13,0,0,1-.23,1.83,6.21,6.21,0,0,1-.27.76c0,.24-.15.42-.15.66s-.09.31-.18.46a5.75,5.75,0,0,0-.25.95,6.13,6.13,0,0,0-.25.72c0,.3-.2.48-.17.78a9.05,9.05,0,0,0-.43,1.17.56.56,0,0,1-.11.44c-.84.11-1.69,0-2.52,0,.25-1.23.77-2.39,1-3.62.11-.08,0-.25.18-.35-.06-.25.16-.42.13-.69.08-.08,0-.3.18-.42.13-.48.26-1,.4-1.46.07-.07,0-.22.13-.25,0-.23.15-.36.17-.56s.43-.39.62-.67c.2.07.17-.21.36-.13l.16-.12A1.12,1.12,0,0,1,90.84,51.9Z"/><path class="03bd4966-2307-466a-823c-dc761feb0ade" d="M89.55,82.28c-.08.34.22.53.12.88-.27.1-.51-.05-.74.13-1.05,0-2.11.13-3.15.2-.83,0-1.7,0-2.5,0-.22.21-.09.61-.21.88a8.2,8.2,0,0,0-.24,1.7c.53.07,1.07,0,1.59,0s1,0,1.47,0c.2.06.42-.06.58.11V88a4.48,4.48,0,0,1-.55.42.62.62,0,0,1-.27,0c0-.32-.19-.52-.18-.84-.41.08-.73.44-1.12.55-.1.12-.29.11-.36.27s-.49.2-.71.35c-.35.37-.9.46-1.25.81-.07,0-.21,0-.27,0,.08-.41-.19-.66-.11-1.1-.07,0-.12,0-.18,0-1.08,1.1-2.1,2.27-3.13,3.43a1.63,1.63,0,0,0,.82.06c.43,0,1-.11,1.46-.14.28-.14.67,0,.93-.15s.35-.16.59-.16a8,8,0,0,1,.78-.38c.6-.15,1.25-.22,1.82-.42l.21,0c0,1.08.14,2,.12,3.13.2.32.24.68.51,1,0,.22.19.27.16.49s.18.21.24.34.13.22.14.38.2.37.31.49c.1.41-.17.71-.13,1.11-.15.27,0,.65-.19.9,0,.46-.18.85-.15,1.32l-.11.17-1.39,0-.13.09-2,0c-.16,0,0-.28,0-.42.24-.68.43-1.39.71-2.09,0-.61.46-1.05.44-1.67a5.63,5.63,0,0,0,.31-1l-2.33-.25a18.69,18.69,0,0,1-1.94-.12c-.15-.12-.43-.07-.64-.11a9.15,9.15,0,0,1-.88-.27c-.26,0-.48-.19-.73-.13-.45-.14-.88-.42-1.35-.55-.3-.26-.77-.34-1.08-.63a8.39,8.39,0,0,1-1-.94,3.35,3.35,0,0,1-.67-.91,1.34,1.34,0,0,1-.29-.5,5,5,0,0,1-.49-1.83c-.18-.23.21-.44.31-.61.29-.26.51-.63.77-.89.18-.44.47-.72.66-1.17a9.23,9.23,0,0,0,.65-2c.18-.4,0-.9.21-1.32a5.35,5.35,0,0,0-.1-1.33c0-.35-.15-.64-.13-1-.12-.67-.44-1.17-.61-1.81-.18-.32-.43-.63-.58-1s-.51-.7-.76-1a2.23,2.23,0,0,1-.46-.5V73a3.77,3.77,0,0,1,1.06,0c.07.17.31.32.43.51.31.27.56.65.85.89.11,0,.09.3.26.18.28-.51.17-1.09.45-1.58a13.57,13.57,0,0,1,1.8,0,6,6,0,0,0,1.06,1.2c.09-.07.18,0,.23.07l.71,0c0,.1.13,0,.18.09.53-.08.91.15,1.46.1,0,.09.11.06.17.1.49-.11.84.17,1.31.13.18,0,.17-.15.33-.17.17-.19.46-.24.55-.49.48-.36,1-.67,1.47-1.05.75,0,1.49-.25,2.25-.23a.34.34,0,0,1,.31-.08c0,.08.06,0,.09.08.1.51.27,1,.37,1.55.16.1,0,.38.16.49,0,.28.18.4.13.69.12.28.17.6.28.88,0,.33.22.46.16.79l.06.06C88.71,78.91,89.26,80.56,89.55,82.28Zm-11-3a15.71,15.71,0,0,0,0-2.17A17.94,17.94,0,0,1,76.45,77c-.09,0-.3-.09-.37,0a8.27,8.27,0,0,1,.47,1.1c0,.23.16.38.13.6s.07.32.19.42c.13.82.27,1.7.44,2.54h.07a5.43,5.43,0,0,0,.43-1.25C78.07,80.11,78.18,79.59,78.54,79.27Z"/><path class="890a23f6-8e46-4101-9c4f-5aaa462a5ad8" d="M86.49,51.59a1.26,1.26,0,0,1,.41.62,6,6,0,0,1-.41,1.65c-.09.2-.08.44-.23.62,0,.26-.15.42-.14.67-.28.65-.36,1.36-.63,2-.18.39-.2.81-.35,1.21s-.25.87-.45,1.31c-.8,0-1.62,0-2.43,0-.21-.12,0-.28,0-.44s0-.29.17-.33c0-.28.15-.45.14-.72.15-.08,0-.34.19-.42.38-1.68,1-3.3,1.41-5l.34-.69c.22-.16.35-.36.54-.48.12.07.14-.1.25-.11a1.72,1.72,0,0,1,1-.09C86.29,51.57,86.41,51.58,86.49,51.59Z"/><path class="03bd4966-2307-466a-823c-dc761feb0ade" d="M81.47,48.3c.06.14.37.21.2.42-.21-.07-.28.14-.47.11a4.69,4.69,0,0,0-.69.32c-.24,0-.43.22-.69.21-.11.15-.36.14-.52.23-.15-.09-.16.17-.33.07-.11.17-.34.08-.45.24-.54.09-1,.46-1.53.52-.07.17-.29,0-.35.21-.22,0-.36.15-.56.1,0,.2-.31,0-.36.23-.21-.05-.33.15-.5.13-.48.28-1.09.33-1.6.6a2.09,2.09,0,0,1-.4.19,4.4,4.4,0,0,1-1.1.35v.06a.22.22,0,0,1-.23,0c-.07.18-.3.14-.44.22a9.82,9.82,0,0,1-1.49.54c0,.17-.26,0-.34.18-.19-.06-.27.2-.46.08S69,53.16,69,53c0-.34-.28-.49-.29-.8-.2-.17-.15-.48-.38-.6a4.77,4.77,0,0,0-.92-1.23c-.33-.46-.89-.65-1.29-1a8.9,8.9,0,0,0-1.19-.61l-1.54-.42a10.8,10.8,0,0,0-2,0l-.06.07a4.61,4.61,0,0,1-.54,0,8.35,8.35,0,0,0-1.07.35c-.3,0-.43.24-.69.29-.08.14-.33.11-.41.29-.19-.07-.15.21-.34.14a10.15,10.15,0,0,0-1.43,1.28c-.19.17-.2.4-.4.53a11.73,11.73,0,0,0-.85,1.7c0,.23-.2.34-.15.56a6.9,6.9,0,0,0,0,3.35c0,.36.21.56.24.9a12.2,12.2,0,0,0,.72,1.45c.13.23.4.42.46.69a5.42,5.42,0,0,1,.85,1c.17.05.21.19.33.31A16.12,16.12,0,0,0,60.4,62.8a6.67,6.67,0,0,1,.78.31c.45.2,1,.25,1.45.45a13.14,13.14,0,0,0,2.41.31l12.45,0c1.35,0,2.69,0,4,0v1.23c-.16.12-.42,0-.58.06l-.9,0c-.08.07-.16-.07-.23,0a8.11,8.11,0,0,1-1.48,0c-1.29.11-2.58,0-3.87.07-.14,0-.24.17-.42.12a5.27,5.27,0,0,0-1.16.48c-.29.17-.53.33-.79.5s-.56.47-.87.69c0,.19-.18.2-.29.29-.37.36-.56.89-.92,1.29-.12.41-.37.82-.46,1.25-.17.21-.05.61-.17.87l-.06,6.8a.8.8,0,0,0,.38.33,5.26,5.26,0,0,1,1.2,1.37c.17.27.5.56.54.92s.15.55.31.8a4.28,4.28,0,0,1,.11,1c.29.53-.12.94,0,1.49a.5.5,0,0,0-.09.21l-1.33-.14a3.73,3.73,0,0,0,0-1.56c0-.29-.18-.52-.18-.79-.08-.11,0-.28-.17-.36a3.7,3.7,0,0,0-.77-1.19c-.14-.2-.42-.21-.5-.44h-.08c-.26-.26-.65-.31-.9-.54a2.3,2.3,0,0,1-.79-.2l-1.5,0c-.38.06-.76.32-1.17.43a7.58,7.58,0,0,0-1,.77c-.15.36-.56.41-.6.82a2.27,2.27,0,0,0-.46,1.1,1.42,1.42,0,0,0-.07.22l-1.35-.18c0-.12,0-.25.09-.37a3.94,3.94,0,0,1,.13-.65c.22-.24.19-.59.39-.8a2.68,2.68,0,0,1,.37-.64,4.83,4.83,0,0,1,.89-1.1,9.45,9.45,0,0,1,1.12-.79,2.17,2.17,0,0,1,.45-.25.52.52,0,0,0,.35-.27l0-4.68,0-1.47a3.26,3.26,0,0,1-.12-.78,8.76,8.76,0,0,0-.92-2.42,11.27,11.27,0,0,0-1-1.43v0a16.38,16.38,0,0,0-1.49-1.29v-.06c-.55-.33-1.08-.68-1.66-1s-1-.39-1.5-.5c-.33,0-.53-.2-.87-.13a9,9,0,0,0-2.38-.1,1.39,1.39,0,0,1-.68.1L54,63a16.09,16.09,0,0,0-1.72.44c-.08.14-.29,0-.36.2-.19,0-.19.17-.38.13a.47.47,0,0,1-.33.19c-.14.14-.27.19-.41.33a4.6,4.6,0,0,0-.78.52c-.51.5-1,.95-1.47,1.49a16.4,16.4,0,0,0-1.1,1.93c0,.2-.17.3-.13.51-.12.07-.07.24-.15.32,0,.37-.23.68-.25,1.06a12.86,12.86,0,0,0,0,3.1c.19.27,0,.61.13.92l.08.06c.14.93.41,1.8.54,2.73.15.14,0,.41.2.52-.07.3.18.45.15.73.1.11,0,.31.16.39-.08.28.2.44.12.69.24,1.16.78,2.29,1.07,3.46.17.09.05.3.17.43s.17.39.14.63c.17.08,0,.34.18.42.28.91.6,1.78.93,2.68,0,.21.21.3.15.56.09.29.26.57.33.88a11.67,11.67,0,0,0,.49,1.2c.34.82.57,1.64.89,2.48.15.24.21.56.39.83,0,.17.19.26.13.45.25.46.39,1,.62,1.45.16.65.55,1.26.75,1.92-.05.18.18.21.08.38-.75.09-1.48-.14-2.21-.09-.38-.2-.89,0-1.3-.18-1-.07-2-.16-3-.24l-1.11-.1c-.15-.15-.43,0-.6-.11-.55.07-1-.15-1.68-.08l-.12-.1c-.9,0-1.75-.18-2.64-.23-.42-.25-.66-.68-1.06-.9-.08-.08-.16-.12-.18-.23-.55-.45-1-1-1.57-1.43v-.06c-.36-.31-.71-.62-1.08-.92a9.06,9.06,0,0,1-1.09-1.14c0-.14.25,0,.32-.15.55,0,1-.15,1.54-.14.66-.07,1.31-.23,2-.3s1.28-.12,2-.21c.3-.22.64-.05,1-.16.67.06,1.21-.26,1.85-.17l.08-.08a20.82,20.82,0,0,0,2.21-.27c.09-.15-.06-.2-.07-.35-.19-.17-.11-.41-.32-.57-.18-.43-.43-.86-.57-1.29-.12-.07-.09-.21-.17-.27-.19-.31-.23-.65-.44-1-.43-1.39-1.11-2.65-1.61-4-.22-.64-.44-1.26-.69-1.92,0-.26-.2-.31-.15-.58-.12-.34-.28-.66-.4-1s-.13-.38-.15-.58a5.24,5.24,0,0,0-.28-.69c-.18-.84-.46-1.62-.68-2.42s-.46-1.74-.67-2.6c0-.47-.2-.9-.22-1.39-.18-.25-.05-.57-.2-.83a21.2,21.2,0,0,1,.08-5.4,24.68,24.68,0,0,1,.81-3.93c.33-.74.54-1.53.85-2.29s.74-1.57,1.07-2.38c.16-.1.16-.28.29-.4a10.12,10.12,0,0,1,.87-1.45,21.17,21.17,0,0,1,1.42-2c.78-.8,1.47-1.68,2.27-2.46h.07c.56-.46,1-1,1.57-1.42.18,0,.22-.24.38-.23.4-.32.81-.62,1.2-1s.69-.32,1-.52.7-.44,1-.67c1-.44,1.91-.92,2.89-1.33.61-.09,1.17-.46,1.79-.61a13.31,13.31,0,0,0,1.31-.34c.28,0,.5-.16.79-.15.12-.14.39,0,.51-.18.5,0,1-.15,1.43-.14.21-.18.62,0,.85-.18a16.91,16.91,0,0,0,2.59-.1c.75.1,1.42.07,2.15.1l.07.06c.49,0,1,.06,1.56.15.91.24,1.92.37,2.84.62.12.22.42,0,.56.23.86.14,1.64.63,2.5.83.26.31.64.22.94.5.23,0,.35.22.6.23.58.31,1.12.66,1.69.94C80,47.24,80.7,47.82,81.47,48.3Z"/><path class="03bd4966-2307-466a-823c-dc761feb0ade" d="M81.55,71.29s0,0,0,.06c-.87.15-1.74.2-2.61.29-.68.06-1.42,0-2.13.1.07-.1.22-.16.31-.27s.05,0,.07,0v-.06a14.29,14.29,0,0,0,1.45-1c.26-.2.36.2.63.09.06.15.25,0,.33.18.19,0,.29.18.5.13,0,.09.06.1.11.12C80.67,71,81.12,71.18,81.55,71.29Z"/><path class="03bd4966-2307-466a-823c-dc761feb0ade" d="M80.17,97.57a8.92,8.92,0,0,1-.37,1.37l-.08.08a6.38,6.38,0,0,1-.23,1c-.17.17-.13.44-.25.63s-.23.47-.21.76-.29.66-.4,1a8.9,8.9,0,0,0-.35,1.25c-.17.09,0,.45-.35.37a2.12,2.12,0,0,0-.75-.06c-.76-.17-1.51-.18-2.27-.42-.13-.19-.44,0-.57-.21-.28.05-.47-.18-.74-.1a4.49,4.49,0,0,0-.76-.31c-.19,0-.28-.16-.49-.12-.17-.18-.35-.16-.56-.29a7.12,7.12,0,0,1-.87-.34c-.09-.17-.34,0-.4-.23-.16.07-.16-.11-.3-.08s-.29-.08-.29-.2c-.21,0-.34-.15-.55-.22a1.35,1.35,0,0,0-.76-.4c-.75-.48-1.45-.92-2.14-1.46s-1.18-1.13-1.86-1.63c-.23-.4-.62-.59-.81-1l-.19-.15c-.4-.54-.78-1.12-1.14-1.68-.19-.45-.43-.86-.63-1.29A19.43,19.43,0,0,1,61,91c0-.55-.23-1-.18-1.59l0-5.19a22,22,0,0,1,.07-2.72l1.35.18a5.3,5.3,0,0,0-.05,1c.07.28-.06.63.12.87,0,.25.16.35.16.59a2.73,2.73,0,0,1,.38.74c.34.22.59.65.94.94.13.08.25.11.33.23.18-.07.14.17.32.12,0,.17.25,0,.29.18a1.8,1.8,0,0,1,.69.22,17.45,17.45,0,0,0,1.77,0,7.73,7.73,0,0,1,.81-.31,5.71,5.71,0,0,0,1.09-.65,4.94,4.94,0,0,0,.78-1,4.64,4.64,0,0,0,.54-1.18l1.33.14a.86.86,0,0,0,0,.23c-.23.41-.31.83-.53,1.27a15.2,15.2,0,0,1-1,1.29h-.11c-.17.33-.6.43-.8.76l0,1.76c0,.39.22.78.22,1.19.2.47.28,1,.52,1.48s.36.63.51,1c.2,0,0,.2.2.21.08.21.29.33.34.54.21.1.29.33.51.47v0L72.91,95c.33.11.57.41.91.49,0,.13.24.09.25.23h.11s.08.05.09.08c.21-.05.24.17.45.12,0,.17.26,0,.31.21.54.2,1.1.37,1.63.62.21,0,.31.16.54.11a5.86,5.86,0,0,1,1,.33c.48,0,.94.13,1.41.19C79.76,97.56,80,97.42,80.17,97.57Z"/><path class="890a23f6-8e46-4101-9c4f-5aaa462a5ad8" d="M78.54,77.1a15.71,15.71,0,0,1,0,2.17c-.36.32-.47.84-.73,1.2a5.43,5.43,0,0,1-.43,1.25h-.07c-.17-.84-.31-1.72-.44-2.54-.12-.1-.07-.33-.19-.42s-.17-.37-.13-.6a8.27,8.27,0,0,0-.47-1.1c.07-.12.28,0,.37,0A17.94,17.94,0,0,0,78.54,77.1Z"/><path class="890a23f6-8e46-4101-9c4f-5aaa462a5ad8" d="M70.45,81.89a3.73,3.73,0,0,1,0,1.56,4.64,4.64,0,0,1-.54,1.18,4.94,4.94,0,0,1-.78,1,5.71,5.71,0,0,1-1.09.65,7.73,7.73,0,0,0-.81.31,17.45,17.45,0,0,1-1.77,0,1.8,1.8,0,0,0-.69-.22c0-.15-.25,0-.29-.18-.18,0-.14-.19-.32-.12-.08-.12-.2-.15-.33-.23-.35-.29-.6-.72-.94-.94a2.73,2.73,0,0,0-.38-.74c0-.24-.17-.34-.16-.59-.18-.24-.05-.59-.12-.87a5.3,5.3,0,0,1,.05-1,1.42,1.42,0,0,1,.07-.22,2.27,2.27,0,0,1,.46-1.1c0-.41.45-.46.6-.82a7.58,7.58,0,0,1,1-.77c.41-.11.79-.37,1.17-.43l1.5,0a2.3,2.3,0,0,0,.79.2c.25.23.64.28.9.54h.08c.08.23.36.24.5.44a3.7,3.7,0,0,1,.77,1.19c.12.08.09.25.17.36C70.27,81.37,70.5,81.6,70.45,81.89ZM68,83.14c0-.3.25-.57.07-.88.09-.43-.26-.66-.44-1s-.33-.22-.46-.33-.22-.07-.33-.12a1.54,1.54,0,0,0-1.17,0c-.14.26-.61.18-.64.57-.38.25-.3.77-.36,1.11-.06.51.28.83.54,1.18.23.06.3.28.53.29.15.18.45,0,.62.15.21-.07.47,0,.65-.15.21.09.16-.19.36-.13,0-.13.26-.14.28-.29S67.81,83.29,68,83.14Z"/><path class="03bd4966-2307-466a-823c-dc761feb0ade" d="M68,82.26c.18.31-.08.58-.07.88-.14.15-.19.4-.35.49s-.24.16-.28.29c-.2-.06-.15.22-.36.13-.18.14-.44.08-.65.15-.17-.12-.47,0-.62-.15-.23,0-.3-.23-.53-.29-.26-.35-.6-.67-.54-1.18.06-.34,0-.86.36-1.11,0-.39.5-.31.64-.57a1.54,1.54,0,0,1,1.17,0c.11,0,.29,0,.33.12s.37.17.46.33S68.11,81.83,68,82.26Z"/><path class="03bd4966-2307-466a-823c-dc761feb0ade" d="M65.87,37.35l0,.08,0,1.17c-.2.16,0,.48-.16.64l-1.31,0-.11.08a8.9,8.9,0,0,0-1.7.09,8.86,8.86,0,0,1-1,.13c-.05,0-.14,0-.16.09-.43,0-.75.19-1.19.17s-.52.21-.82.19c-1.06.31-2.14.56-3.18.93-.05.19-.33,0-.39.18-.22-.08-.29.22-.52.14-.41,0-.62.42-1,.44a2.22,2.22,0,0,0-.52.29,3.64,3.64,0,0,0-.56.21,5.18,5.18,0,0,1-.57.31c-.22-.09-.15.19-.36.11-.07.16-.31.15-.4.31-.18-.08-.14.19-.31.12-.16.21-.47.25-.63.44-.21,0-.25.18-.44.23-.75.39-1.36,1-2.08,1.43-.87.74-1.72,1.45-2.6,2.21-.3.45-.74.7-1,1.14-.81.75-1.35,1.74-2.1,2.54-.54.77-1.07,1.57-1.56,2.36a9.13,9.13,0,0,1-.71,1.15,6.36,6.36,0,0,1-.25.63c-.24.46-.45,1-.72,1.41a5.41,5.41,0,0,1-.33.8c0,.32-.33.54-.27.88-.07.1-.07.24-.17.35s-.15.32-.15.51-.06.31-.23.25c-.57-.06-1.09-.19-1.67-.2,0-.05-.13-.06-.14-.13.07-.37.24-.69.31-1.07l.1-.14A16.18,16.18,0,0,1,37.45,56c.35-.91.85-1.73,1.24-2.63.15-.12.15-.31.32-.46s.3-.4.35-.67c.3-.41.5-.89.83-1.29.53-.82,1.21-1.67,1.82-2.43a30.44,30.44,0,0,1,3.5-3.5l.25-.31c1.14-.83,2.16-1.79,3.41-2.54.46-.27.9-.57,1.37-.87.17,0,.31-.14.47-.18a5.26,5.26,0,0,1,.87-.52,16.89,16.89,0,0,0,1.54-.76,6.48,6.48,0,0,0,1-.35,4.17,4.17,0,0,0,.81-.36c.42-.11.79-.22,1.19-.36l0-.06a8.15,8.15,0,0,0,1.41-.43c.33.07.52-.18.84-.15.17-.15.46,0,.6-.17.35,0,.64-.16,1-.15.25-.15.56,0,.81-.2.9-.07,1.78-.24,2.71-.23l.21-.08Z"/><path class="03bd4966-2307-466a-823c-dc761feb0ade" d="M60.69,72.08h1c0,.92-.06,1.86,0,2.83-.11.22-.35.32-.53.5-.14,0-.09.14-.22.13-.22.29-.67.53-.86.89a9.45,9.45,0,0,0-1,1.21,12.93,12.93,0,0,0-.87,1.89,10.34,10.34,0,0,0-.46,3.08l-.87,0c0-.57,0-1.14,0-1.69-.06-.13-.28-.16-.3-.31a4.22,4.22,0,0,1-.76-1,15.81,15.81,0,0,1-1-1.81c-.15-.65-.49-1.19-.63-1.83a3,3,0,0,0-.2-.4c-.11-.5-.24-1-.33-1.48a8.09,8.09,0,0,1-.22-1.71c.06-.38-.07-.91.19-1.21s.18-.41.34-.56a3.56,3.56,0,0,1,.92-.67c.08-.08.22,0,.28-.1a3.6,3.6,0,0,1,1.46.08c0,.15.28,0,.27.19a2.09,2.09,0,0,1,1.07,1.31c.16.2.1.42.14.67C59.05,72.11,59.85,72.11,60.69,72.08Z"/><path class="890a23f6-8e46-4101-9c4f-5aaa462a5ad8" d="M60.69,71.89v.19c-.84,0-1.64,0-2.48,0,0-.25,0-.47-.14-.67A2.09,2.09,0,0,0,57,70.1c0-.18-.23,0-.27-.19a3.6,3.6,0,0,0-1.46-.08c-.06.11-.2,0-.28.1a3.56,3.56,0,0,0-.92.67c-.16.15-.21.39-.34.56s-.13.83-.19,1.21a8.09,8.09,0,0,0,.22,1.71c.09.5.22,1,.33,1.48a3,3,0,0,1,.2.4c.14.64.48,1.18.63,1.83a15.81,15.81,0,0,0,1,1.81,4.22,4.22,0,0,0,.76,1c0,.15.24.18.3.31,0,.55,0,1.12,0,1.69,0,.26,0,.53,0,.79-.25.09-.46-.11-.72-.06-.34-.17-.66-.36-1-.54,0-.13-.19-.17-.29-.25a6.05,6.05,0,0,1-1-1.31,3.8,3.8,0,0,1-.33-.37c0-.14-.15-.22-.11-.36l-.08,0a12.81,12.81,0,0,1-.66-1.34c-.13-.06-.09-.25-.21-.33a4.07,4.07,0,0,0-.22-.7c-.15-.06,0-.26-.2-.31a10.16,10.16,0,0,1-.54-1.83c-.21-.07,0-.33-.19-.42,0-.54-.24-1.07-.32-1.59S51,72.78,51,72.21c.08-.38,0-.85.17-1.19a7.51,7.51,0,0,1,.35-1.11c.08-.19.37-.31.34-.58a1.23,1.23,0,0,0,.39-.46,7.43,7.43,0,0,0,.85-.73c.23-.2.56-.2.79-.43a8.88,8.88,0,0,1,1.59-.42,3,3,0,0,1,.91.06,4.27,4.27,0,0,1,1.36.27c0,.14.23,0,.29.19.17,0,.3.16.46.21s.34.4.6.43a8.8,8.8,0,0,1,1,1.19c0,.26.3.35.25.63A5.1,5.1,0,0,1,60.69,71.89Z"/></svg>