<?xml version="1.0" encoding="utf-8"?>
<!-- Generator: Adobe Illustrator 22.1.0, SVG Export Plug-In . SVG Version: 6.00 Build 0)  -->
<svg version="1.1" id="ico-wakayama" xmlns="http://www.w3.org/2000/svg" xmlns:xlink="http://www.w3.org/1999/xlink" x="0px"
	 y="0px" viewBox="0 0 120 120" style="enable-background:new 0 0 120 120;" xml:space="preserve">
<style type="text/css">
	.st0{fill-rule:evenodd;clip-rule:evenodd;fill:#FFFFFF;}
	.st1{fill-rule:evenodd;clip-rule:evenodd;}
</style>
<path class="st0" d="M50.99,81.15c-1.06,1.76-2.23,3.49-3.29,5.32c-1.05,1.83-1.9,3.8-3.11,5.51c-7.41,0.13-13.52,1.62-18.8,3.97
	c-1.07,0.49-1.99,1.08-3.01,1.65c-1.03,0.56-2.06,1.05-3.02,1.64c-0.96,0.61-1.86,1.3-2.9,1.77c-0.22-11.18-0.27-23-0.68-34.65
	c-0.05-1.61-0.06-3.43-0.42-4.6c-0.56-1.75-1.55-2.84-2.97-3.66c-0.69-0.41-1.45-0.68-1.99-1.18c3.27-8.8,6.46-17.34,10.04-25.82
	c8.86-3.61,18.15-6.75,29.38-7.86c-2.42,9.16-5.48,18.21-8.08,27.49c-0.85,0.58-1.77,1.14-2.24,2.07c-0.78,1.48-0.71,3.78-0.8,5.74
	c-0.07,1.98-0.24,4.09,0.06,5.87c0.94-0.62,1.44-1.73,2.09-2.74c1.56-2.43,3.07-4.96,4.46-7.7c0.34-0.61,0.77-1.12,0.77-1.71
	c0.06-0.97-0.6-1.66-0.91-2.48c2.8-8.9,5.64-17.75,8.28-26.84c7.39-0.77,15.54-1.12,23.45-0.64c-1.82,9.63-4.25,19.2-6.17,29.07
	c-0.68,0.78-1.67,1.34-2.07,2.35c-0.32,0.78-0.28,1.78-0.31,2.72c-0.07,3.18,0.24,5.53,0.72,7.75c1.45-1.84,2.33-3.9,3.6-6.11
	c0.52-0.92,1.16-1.94,1.77-3.07c0.63-1.23,1.58-3.16,1.14-4.61c-0.2-0.62-0.96-1.14-1.02-1.7c-0.03-0.34,0.2-1.11,0.33-1.68
	c1.38-6.2,2.61-12.42,3.9-18.5c0.48-2.26,0.9-4.48,1.53-6.51c10.91,0.31,20.49,1.93,30.15,3.68c-1.76,8.81-3.54,17.55-5.3,26.23
	c-1.07,0.27-2.48,0.27-3.37,0.81c-1.12,0.67-1.82,2.41-2.45,3.67c-1.48,2.92-3.01,5.88-4.51,8.65c-2.08,3.82-4.05,7.64-6.04,11.46
	c-3.03,5.81-6.13,11.47-9.11,17.12c-1,1.92-1.87,3.91-3.06,5.68c-7.31-3.07-15.29-5.76-24.36-6.97c-0.53-3.21-0.58-7.07-1.22-9.83
	c-0.09-0.36-0.24-0.46-0.44-0.79c0.08-0.15,0.16-0.27,0.07-0.45C50.91,81.35,51.08,81.23,50.99,81.15z"/>
<path class="st1" d="M108.66,27.24c-1.47,8.08-3.13,15.93-4.65,23.02c-1.84,0.23-3.41,0.94-4.25,2.22c-0.56,0.83-1,1.82-1.5,2.75
	c-1.48,2.82-2.9,5.65-4.44,8.38C89.68,71,86.03,78.57,82.1,85.97c-1.98,3.73-4.01,7.41-6.08,11.01c-6.78-2.56-13.79-4.88-21.79-6.24
	c-0.51-5.13-1.36-9.92-1.98-14.93c-2.81,4.81-5.92,9.35-8.57,14.35c-5.19,0.09-9.75,1.06-13.89,2.39
	c-4.16,1.31-7.73,3.35-11.23,5.31c-0.39-10.38-0.38-21.82-0.68-31.79c-0.06-1.54,0-3.12-0.27-4.54c-0.51-2.74-2.47-4.38-4.48-5.57
	c2.98-7.78,6.06-15.83,9.3-23.48c7.79-3.22,15.87-5.96,25.26-7.15c-2.19,8.1-4.73,16.35-7.15,24.39c-1.34,1.06-2.75,2.24-3.08,4.23
	c-0.21,1.19-0.13,2.73-0.13,4.19c0.02,4.61,0.28,8.94,0.19,12.77c1.76-2.93,3.73-5.75,5.73-8.84c1.38-2.14,2.69-4.63,4.01-6.94
	c0.83-1.48,1.53-2.8,0.82-4.56c-0.17-0.37-0.49-0.73-0.48-1.08c-0.01-0.38,0.32-1.02,0.49-1.56c2.55-7.94,4.62-15.67,7.29-23.26
	c6.13-0.87,12.98-0.83,19.63-0.66c-1.57,8.54-3.45,16.72-5.24,24.77c-0.14,0.61-0.15,1.31-0.33,1.73c-0.15,0.31-0.52,0.53-0.75,0.78
	c-0.77,0.84-1.28,1.85-1.6,3.08c-0.48,1.87-0.14,3.15-0.09,5.04c0.13,3.77,0.71,6.71,0.92,10.69c2.73-4.41,5.73-8.65,8.23-13.52
	c0.9-1.76,2.3-4.44,1.53-6.43c-0.23-0.6-0.81-0.97-0.87-1.59c-0.02-0.42,0.21-0.96,0.34-1.5c0.81-3.66,1.59-7.37,2.39-10.83
	c0.99-4.36,1.69-8.25,2.76-12.23C91.36,24.19,100.36,25.55,108.66,27.24z"/>
<path class="st0" d="M83.48,25.6c-1.65,6.97-3.11,14.14-4.69,21.17c-0.12,0.51-0.37,1.05-0.33,1.46c0.05,0.53,0.57,0.95,0.74,1.41
	c1.12,3.22-1.12,6.35-2.39,8.83c-2.92,5.73-7.02,11.35-10.05,16.65c-0.38-5.24-0.94-9.99-1.17-15.2c-0.12-2.21-0.54-4.76,0.3-6.85
	c0.26-0.69,0.58-1.29,0.95-1.82c0.31-0.5,0.92-0.89,1.19-1.47c0.37-0.72,0.46-2.11,0.68-3.12c1.46-6.84,3.05-13.88,4.47-21.12
	C68.23,25.36,61.7,25.5,56.56,26c-2.32,7.2-4.66,14.58-6.89,21.9c-0.14,0.44-0.38,1.1-0.37,1.44c0,0.34,0.25,0.66,0.35,0.96
	c0.92,2.61-0.41,4.56-1.58,6.67c-3.72,6.61-8.24,13.12-12.14,19.67c0.02-4.5,0.01-9.84-0.07-13.83c0-2.03,0.01-4.87,0.04-7.04
	c0.06-2.27,0.44-3.95,1.8-5.54c0.47-0.53,1.04-0.96,1.6-1.47c2.09-7.26,4.37-14.44,6.3-21.57c-8.16,1.24-15.12,3.72-21.9,6.4
	c-2.99,7.11-5.85,14.36-8.65,21.67c2.34,1.83,4.23,4.3,4.3,7.91c0.1,3.36,0.19,7.31,0.26,10.51c0.16,7.31,0.18,13.91,0.49,21.45
	c5.89-3.07,12.39-5.77,20.89-6.39c0.58-0.03,1.34,0.03,1.68-0.12c0.41-0.19,1.08-1.66,1.4-2.19c2.27-3.82,4.44-7.38,6.6-11.16
	c0.85-1.5,1.69-3.02,2.64-4.44c0.77,6.26,1.48,12.34,2.36,18.57c7.11,1.34,13.44,3.4,19.63,5.6c1.2-1.74,2.09-3.68,3.13-5.54
	c3.02-5.49,6.15-11.15,8.97-16.91c2.84-5.73,6.04-11.3,9.01-16.97c0.97-1.85,1.78-3.83,3.28-5.33c0.92-0.51,1.77-1.1,3-1.25
	c1.53-6.51,2.89-13.43,4.17-20.58c-3.58-0.69-7.25-1.27-10.95-1.76C91.83,26.09,87.3,25.65,83.48,25.6z"/>
</svg>
