<svg id="3c059af1-65c8-471f-98e5-c327a327c6d4" data-name="レイヤー 1" xmlns="http://www.w3.org/2000/svg" width="120" height="120" viewBox="0 0 120 120"><defs><style>.\35 7fdc2c2-bf44-404f-9da7-c308a3f8cd1c{fill:none;stroke:#fff;stroke-linecap:round;stroke-linejoin:round;stroke-width:4px;}.\37 f74eb1b-8784-4442-9971-0f3663c6671c{fill:#fff;}.\38 646b661-3938-4379-8a0b-941e97193e0a{fill:#231815;}</style></defs><title>ico-konan</title><path class="57fdc2c2-bf44-404f-9da7-c308a3f8cd1c" d="M101.8,95v8.17h-19V95h4.45L74.08,85.18A6.94,6.94,0,0,0,76.24,80V77.37L99.81,95Z"/><path class="57fdc2c2-bf44-404f-9da7-c308a3f8cd1c" d="M101.8,34.07v8.17H99.06L76.24,57l-1.78,1.15-8.64,5.57L64,64.83l-2.42,1.56L64,68.21v4.87a2.34,2.34,0,0,1-2.62,2.11h-.64l-5.92-4.44-1.61,1V95h4.25v8.17H40V95h4.4V42.24H40V34.07H57.49v8.17H53.24V64.31l10.79-7,1.79-1.15,8.64-5.57,1.78-1.15,11.22-7.24H82.79V34.07Z"/><path class="57fdc2c2-bf44-404f-9da7-c308a3f8cd1c" d="M79,16.78v7.86H74.46V48.51l-8.64,5.57V24.64H61.26V16.78Z"/><path class="57fdc2c2-bf44-404f-9da7-c308a3f8cd1c" d="M74.46,60.23V80a5.1,5.1,0,0,1-1.84,4.12,6.57,6.57,0,0,1-1.64,1,7.44,7.44,0,0,1-1.86.54H55V77h6.39a5.35,5.35,0,0,0,1.47-.19,4.24,4.24,0,0,0,2.94-3.58V65.8Z"/><path class="57fdc2c2-bf44-404f-9da7-c308a3f8cd1c" d="M35.8,77h6.86v8.65H28.1S22.75,85,22.75,80V24.64H18.2V16.78H36v7.86H31.4V73.2A4.19,4.19,0,0,0,35.8,77Z"/><path class="57fdc2c2-bf44-404f-9da7-c308a3f8cd1c" d="M74.08,85.18,87.24,95H82.79v8.17h19V95h-2L76.24,77.37V80A6.94,6.94,0,0,1,74.08,85.18ZM65.82,24.64V54.08l8.64-5.57V24.64H79V16.78H61.26v7.86Zm-8,50.55L55,73.11v2.08ZM61.41,77H55v8.65h14.1A7.44,7.44,0,0,0,71,85.08a6.57,6.57,0,0,0,1.64-1A5.1,5.1,0,0,0,74.46,80V60.23L65.82,65.8v7.4a4.24,4.24,0,0,1-2.94,3.58A5.35,5.35,0,0,1,61.41,77ZM40,42.24h4.4V95H40v8.17H57.49V95H53.24V71.79l1.61-1,5.92,4.44h.64A2.34,2.34,0,0,0,64,73.08V68.21l-2.42-1.82L64,64.83l1.79-1.15,8.64-5.57L76.24,57,99.06,42.24h2.74V34.07h-19v8.17h4.67L76.24,49.48l-1.78,1.15L65.82,56.2,64,57.35l-10.79,7V42.24h4.25V34.07H40ZM18.2,24.64h4.55V80c0,5,5.35,5.66,5.35,5.66H42.66V77H35.8a4.19,4.19,0,0,1-4.4-3.77V24.64H36V16.78H18.2Zm9.69,62.75C25.5,87.11,21,85.19,21,80V26.42H18.2a1.79,1.79,0,0,1-1.79-1.78V16.78A1.79,1.79,0,0,1,18.2,15H36a1.79,1.79,0,0,1,1.79,1.78v7.86A1.79,1.79,0,0,1,36,26.42H33.18V73.08a2.35,2.35,0,0,0,2.62,2.11h6.86V44H40a1.78,1.78,0,0,1-1.78-1.78V34.07A1.78,1.78,0,0,1,40,32.29H57.49a1.78,1.78,0,0,1,1.78,1.78v8.17A1.78,1.78,0,0,1,57.49,44H55V61l9-5.81V26.42H61.26a1.78,1.78,0,0,1-1.78-1.78V16.78A1.78,1.78,0,0,1,61.26,15H79a1.78,1.78,0,0,1,1.78,1.78v7.86A1.78,1.78,0,0,1,79,26.42H76.24V47.36l5.63-3.63A1.74,1.74,0,0,1,81,42.24V34.07a1.78,1.78,0,0,1,1.78-1.78h19a1.79,1.79,0,0,1,1.79,1.78v8.17A1.78,1.78,0,0,1,101.8,44H99.58L76.24,59.08V75.14l24.17,18.12h1.39A1.79,1.79,0,0,1,103.59,95v8.17A1.79,1.79,0,0,1,101.8,105h-19A1.78,1.78,0,0,1,81,103.22V95a1.77,1.77,0,0,1,1.08-1.64l-9.51-7.13a8.93,8.93,0,0,1-3.26,1.11H55v5.86h2.47A1.79,1.79,0,0,1,59.27,95v8.17A1.78,1.78,0,0,1,57.49,105H40a1.78,1.78,0,0,1-1.78-1.78V95A1.79,1.79,0,0,1,40,93.26h2.62V87.4H27.89Z"/><path class="7f74eb1b-8784-4442-9971-0f3663c6671c" d="M101.8,95v8.17h-19V95h4.45L74.08,85.18A6.94,6.94,0,0,0,76.24,80V77.37L99.81,95Z"/><path class="7f74eb1b-8784-4442-9971-0f3663c6671c" d="M101.8,34.07v8.17H99.06L76.24,57l-1.78,1.15-8.64,5.57L64,64.83l-2.42,1.56L64,68.21v4.87a2.34,2.34,0,0,1-2.62,2.11h-.64l-5.92-4.44-1.61,1V95h4.25v8.17H40V95h4.4V42.24H40V34.07H57.49v8.17H53.24V64.31l10.79-7,1.79-1.15,8.64-5.57,1.78-1.15,11.22-7.24H82.79V34.07Z"/><path class="7f74eb1b-8784-4442-9971-0f3663c6671c" d="M79,16.78v7.86H74.46V48.51l-8.64,5.57V24.64H61.26V16.78Z"/><path class="7f74eb1b-8784-4442-9971-0f3663c6671c" d="M74.46,60.23V80a5.1,5.1,0,0,1-1.84,4.12,6.57,6.57,0,0,1-1.64,1,7.44,7.44,0,0,1-1.86.54H55V77h6.39a5.35,5.35,0,0,0,1.47-.19,4.24,4.24,0,0,0,2.94-3.58V65.8Z"/><path class="7f74eb1b-8784-4442-9971-0f3663c6671c" d="M35.8,77h6.86v8.65H28.1S22.75,85,22.75,80V24.64H18.2V16.78H36v7.86H31.4V73.2A4.19,4.19,0,0,0,35.8,77Z"/><path class="8646b661-3938-4379-8a0b-941e97193e0a" d="M74.08,85.18,87.24,95H82.79v8.17h19V95h-2L76.24,77.37V80A6.94,6.94,0,0,1,74.08,85.18ZM65.82,24.64V54.08l8.64-5.57V24.64H79V16.78H61.26v7.86Zm-8,50.55L55,73.11v2.08ZM61.41,77H55v8.65h14.1A7.44,7.44,0,0,0,71,85.08a6.57,6.57,0,0,0,1.64-1A5.1,5.1,0,0,0,74.46,80V60.23L65.82,65.8v7.4a4.24,4.24,0,0,1-2.94,3.58A5.35,5.35,0,0,1,61.41,77ZM40,42.24h4.4V95H40v8.17H57.49V95H53.24V71.79l1.61-1,5.92,4.44h.64A2.34,2.34,0,0,0,64,73.08V68.21l-2.42-1.82L64,64.83l1.79-1.15,8.64-5.57L76.24,57,99.06,42.24h2.74V34.07h-19v8.17h4.67L76.24,49.48l-1.78,1.15L65.82,56.2,64,57.35l-10.79,7V42.24h4.25V34.07H40ZM18.2,24.64h4.55V80c0,5,5.35,5.66,5.35,5.66H42.66V77H35.8a4.19,4.19,0,0,1-4.4-3.77V24.64H36V16.78H18.2Zm9.69,62.75C25.5,87.11,21,85.19,21,80V26.42H18.2a1.79,1.79,0,0,1-1.79-1.78V16.78A1.79,1.79,0,0,1,18.2,15H36a1.79,1.79,0,0,1,1.79,1.78v7.86A1.79,1.79,0,0,1,36,26.42H33.18V73.08a2.35,2.35,0,0,0,2.62,2.11h6.86V44H40a1.78,1.78,0,0,1-1.78-1.78V34.07A1.78,1.78,0,0,1,40,32.29H57.49a1.78,1.78,0,0,1,1.78,1.78v8.17A1.78,1.78,0,0,1,57.49,44H55V61l9-5.81V26.42H61.26a1.78,1.78,0,0,1-1.78-1.78V16.78A1.78,1.78,0,0,1,61.26,15H79a1.78,1.78,0,0,1,1.78,1.78v7.86A1.78,1.78,0,0,1,79,26.42H76.24V47.36l5.63-3.63A1.74,1.74,0,0,1,81,42.24V34.07a1.78,1.78,0,0,1,1.78-1.78h19a1.79,1.79,0,0,1,1.79,1.78v8.17A1.78,1.78,0,0,1,101.8,44H99.58L76.24,59.08V75.14l24.17,18.12h1.39A1.79,1.79,0,0,1,103.59,95v8.17A1.79,1.79,0,0,1,101.8,105h-19A1.78,1.78,0,0,1,81,103.22V95a1.77,1.77,0,0,1,1.08-1.64l-9.51-7.13a8.93,8.93,0,0,1-3.26,1.11H55v5.86h2.47A1.79,1.79,0,0,1,59.27,95v8.17A1.78,1.78,0,0,1,57.49,105H40a1.78,1.78,0,0,1-1.78-1.78V95A1.79,1.79,0,0,1,40,93.26h2.62V87.4H27.89Z"/></svg>