<svg xmlns="http://www.w3.org/2000/svg" xmlns:xlink="http://www.w3.org/1999/xlink" viewBox="0 0 200 30">
  <defs>
    <style>
      .cls-1 {
        clip-path: url(#clip-txt_crazy03);
      }

      .cls-2 {
        fill: #cc141d;
      }
    </style>
    <clipPath id="clip-txt_crazy03">
      <rect width="200" height="30"/>
    </clipPath>
  </defs>
  <g id="txt_crazy03" class="cls-1">
    <path id="パス_3" data-name="パス 3" class="cls-2" d="M13.324-4.781A6.417,6.417,0,0,1,11.18-1.125,6.1,6.1,0,0,1,7.324.141,6,6,0,0,1,3.961-.844,5.723,5.723,0,0,1,1.969-2.93q-.187-.387-.34-.738a4.813,4.813,0,0,1-.234-.914,28.576,28.576,0,0,1-.176-3.961,28.52,28.52,0,0,1,.176-3.984,4.718,4.718,0,0,1,.574-1.629,5.9,5.9,0,0,1,1.992-2.109,5.874,5.874,0,0,1,3.363-.961,5.788,5.788,0,0,1,4.031,1.465,6.446,6.446,0,0,1,1.969,3.6H10.582a3.759,3.759,0,0,0-1.148-1.758,3.385,3.385,0,0,0-2.109-.715,3.58,3.58,0,0,0-1.57.363,3.268,3.268,0,0,0-1.078.879,2.827,2.827,0,0,0-.668,1.418A20.4,20.4,0,0,0,3.82-8.543a19.94,19.94,0,0,0,.188,3.41,2.846,2.846,0,0,0,.668,1.441,3.031,3.031,0,0,0,1.078.855,3.039,3.039,0,0,0,1.57.387,3.472,3.472,0,0,0,3.258-2.332Zm3.7-4.816h3.914a2.825,2.825,0,0,0,2.18-.844,2.637,2.637,0,0,0,.715-1.875,2.27,2.27,0,0,0-.855-1.934,2.971,2.971,0,0,0-1.9-.527H17.022Zm-2.59-7.488H21.1a5.249,5.249,0,0,1,3.48,1.125,4.544,4.544,0,0,1,1.7,3.645,4.754,4.754,0,0,1-3.3,4.734L26.936,0H23.854L20.327-7.3h-3.3V0h-2.59ZM37.085-6.117l-2.473-7.465h-.047L32.092-6.117Zm.738,2.3h-6.48L30.03,0H27.288L33.5-17.086h2.168L41.878,0h-2.73Zm4.612,1.664,7.746-12.621H42.739v-2.309H53.345v1.945L45.575-2.449h7.77V0H42.435Zm16.7-4.875L53.995-17.086h2.742L60.358-9.5h0l3.621-7.582h2.742L61.577-7.031V0H59.139Zm14.3-10.055h10.91v2.449h-8.32V-9.6h7.1v2.3h-7.1V0h-2.59ZM84.781-8.543a28.52,28.52,0,0,1,.176-3.984,4.718,4.718,0,0,1,.574-1.629,5.9,5.9,0,0,1,1.992-2.109,5.874,5.874,0,0,1,3.363-.961,5.973,5.973,0,0,1,3.4.961,5.743,5.743,0,0,1,1.945,2.109,3.922,3.922,0,0,1,.6,1.629,32.867,32.867,0,0,1,.152,3.984,32.932,32.932,0,0,1-.152,3.961,3.951,3.951,0,0,1-.6,1.652A5.572,5.572,0,0,1,94.285-.844a6.1,6.1,0,0,1-3.4.984,6,6,0,0,1-3.363-.984A5.723,5.723,0,0,1,85.531-2.93q-.187-.387-.34-.738a4.813,4.813,0,0,1-.234-.914A28.576,28.576,0,0,1,84.781-8.543Zm2.6,0a19.94,19.94,0,0,0,.188,3.41,2.846,2.846,0,0,0,.668,1.441,3.031,3.031,0,0,0,1.078.855,3.039,3.039,0,0,0,1.57.387,3.193,3.193,0,0,0,1.605-.387,2.861,2.861,0,0,0,1.031-.855,3,3,0,0,0,.691-1.441,21.25,21.25,0,0,0,.176-3.41,21.743,21.743,0,0,0-.176-3.434,2.988,2.988,0,0,0-.691-1.418,3.084,3.084,0,0,0-1.031-.879,3.769,3.769,0,0,0-1.605-.363,3.58,3.58,0,0,0-1.57.363,3.268,3.268,0,0,0-1.078.879,2.827,2.827,0,0,0-.668,1.418A20.4,20.4,0,0,0,87.383-8.543ZM100.914-9.6h3.914a2.825,2.825,0,0,0,2.18-.844,2.637,2.637,0,0,0,.715-1.875,2.27,2.27,0,0,0-.855-1.934,2.971,2.971,0,0,0-1.9-.527h-4.055Zm-2.59-7.488h6.668a5.249,5.249,0,0,1,3.48,1.125,4.544,4.544,0,0,1,1.7,3.645,4.754,4.754,0,0,1-3.3,4.734L110.828,0h-3.082l-3.527-7.3h-3.3V0h-2.59ZM118.446-4.148a7.5,7.5,0,0,0,4.852,1.7q3.328-.047,3.375-2.379.023-1.91-2.227-2.3-1.031-.141-2.262-.316a5.587,5.587,0,0,1-3.352-1.629,4.532,4.532,0,0,1-1.184-3.164,4.676,4.676,0,0,1,1.488-3.609,5.811,5.811,0,0,1,4.09-1.383,9.6,9.6,0,0,1,5.543,1.77l-1.441,2.133h0a7.832,7.832,0,0,0-4.23-1.312,3.227,3.227,0,0,0-1.992.6,2.22,2.22,0,0,0-.855,1.852,1.884,1.884,0,0,0,.574,1.336,3.293,3.293,0,0,0,1.84.844q.7.117,1.922.27a5.323,5.323,0,0,1,3.551,1.723,4.845,4.845,0,0,1,1.137,3.188q-.129,4.9-6,4.969A9.69,9.69,0,0,1,116.746-2.2Zm14.948-4.969h3.832a2.73,2.73,0,0,0,2.168-.891,2.887,2.887,0,0,0,.691-1.875,3.316,3.316,0,0,0-.281-1.441,2.152,2.152,0,0,0-.82-.832,3.25,3.25,0,0,0-1.852-.48h-3.738Zm-2.59-7.969h6.188a9.9,9.9,0,0,1,1.945.188,5.234,5.234,0,0,1,1.9,1.008,4.107,4.107,0,0,1,1.313,1.641,5.29,5.29,0,0,1,.527,2.438,5.187,5.187,0,0,1-1.336,3.457,5.052,5.052,0,0,1-4.008,1.688h-3.937V0H130.8Zm13.161,8.543a28.52,28.52,0,0,1,.176-3.984,4.718,4.718,0,0,1,.574-1.629,5.9,5.9,0,0,1,1.992-2.109,5.874,5.874,0,0,1,3.363-.961,5.973,5.973,0,0,1,3.4.961,5.743,5.743,0,0,1,1.945,2.109,3.922,3.922,0,0,1,.6,1.629,32.867,32.867,0,0,1,.152,3.984,32.932,32.932,0,0,1-.152,3.961,3.951,3.951,0,0,1-.6,1.652,5.572,5.572,0,0,1-1.945,2.086,6.1,6.1,0,0,1-3.4.984,6,6,0,0,1-3.363-.984,5.723,5.723,0,0,1-1.992-2.086q-.187-.387-.34-.738a4.813,4.813,0,0,1-.234-.914A28.576,28.576,0,0,1,143.965-8.543Zm2.6,0a19.94,19.94,0,0,0,.188,3.41,2.846,2.846,0,0,0,.668,1.441,3.031,3.031,0,0,0,1.078.855,3.039,3.039,0,0,0,1.57.387,3.193,3.193,0,0,0,1.605-.387,2.861,2.861,0,0,0,1.031-.855,3,3,0,0,0,.691-1.441,21.25,21.25,0,0,0,.176-3.41,21.743,21.743,0,0,0-.176-3.434,2.988,2.988,0,0,0-.691-1.418,3.084,3.084,0,0,0-1.031-.879,3.769,3.769,0,0,0-1.605-.363,3.58,3.58,0,0,0-1.57.363,3.268,3.268,0,0,0-1.078.879,2.827,2.827,0,0,0-.668,1.418A20.4,20.4,0,0,0,146.566-8.543ZM160.1-9.6h3.914a2.825,2.825,0,0,0,2.18-.844,2.637,2.637,0,0,0,.715-1.875,2.27,2.27,0,0,0-.855-1.934,2.971,2.971,0,0,0-1.9-.527H160.1Zm-2.59-7.488h6.668a5.249,5.249,0,0,1,3.48,1.125,4.544,4.544,0,0,1,1.7,3.645,4.754,4.754,0,0,1-3.3,4.734L170.011,0h-3.082L163.4-7.3h-3.3V0h-2.59Zm16.858,2.309h-4.676v-2.309h11.953v2.309h-4.676V0h-2.6Zm8.6,10.629a7.5,7.5,0,0,0,4.852,1.7q3.328-.047,3.375-2.379.023-1.91-2.227-2.3-1.031-.141-2.262-.316a5.587,5.587,0,0,1-3.352-1.629,4.532,4.532,0,0,1-1.184-3.164,4.676,4.676,0,0,1,1.488-3.609,5.811,5.811,0,0,1,4.09-1.383,9.6,9.6,0,0,1,5.543,1.77l-1.441,2.133h0a7.832,7.832,0,0,0-4.23-1.312,3.227,3.227,0,0,0-1.992.6,2.22,2.22,0,0,0-.855,1.852,1.884,1.884,0,0,0,.574,1.336,3.293,3.293,0,0,0,1.84.844q.7.117,1.922.27a5.323,5.323,0,0,1,3.551,1.723,4.845,4.845,0,0,1,1.137,3.188q-.129,4.9-6,4.969A9.69,9.69,0,0,1,181.262-2.2Z" transform="translate(3 24)"/>
  </g>
</svg>
