<svg xmlns="http://www.w3.org/2000/svg" xmlns:xlink="http://www.w3.org/1999/xlink" viewBox="0 0 240 30">
  <defs>
    <style>
      .cls-1 {
        clip-path: url(#clip-txt_crazy02);
      }

      .cls-2 {
        fill: #cc141d;
      }
    </style>
    <clipPath id="clip-txt_crazy02">
      <rect width="240" height="30"/>
    </clipPath>
  </defs>
  <g id="txt_crazy02" class="cls-1">
    <path id="パス_2" data-name="パス 2" class="cls-2" d="M10.344-18.48a9.389,9.389,0,0,1,2.376.3,8.19,8.19,0,0,1,2.184.924v2.616a7.311,7.311,0,0,0-2.244-1.32,7.261,7.261,0,0,0-2.532-.456,6.8,6.8,0,0,0-2.772.576,7.214,7.214,0,0,0-2.28,1.572,7.428,7.428,0,0,0-1.536,2.34,7.428,7.428,0,0,0-.564,2.9A7.354,7.354,0,0,0,3.528-6.18,7.549,7.549,0,0,0,5.04-3.84,7.019,7.019,0,0,0,7.3-2.256a6.777,6.777,0,0,0,2.784.576A6.953,6.953,0,0,0,14.9-3.552V-.888A9.383,9.383,0,0,1,12.6.06a9.532,9.532,0,0,1-2.448.324,9.367,9.367,0,0,1-3.576-.7,9.517,9.517,0,0,1-3-1.932A9.413,9.413,0,0,1,1.5-5.2,8.969,8.969,0,0,1,.72-8.952a9.332,9.332,0,0,1,.744-3.708A9.467,9.467,0,0,1,3.516-15.7a9.672,9.672,0,0,1,3.06-2.04A9.539,9.539,0,0,1,10.344-18.48Zm10.7.384q.5,0,1.1.012T23.364-18a8.631,8.631,0,0,1,1.236.24,5.531,5.531,0,0,1,1.2.48,4.309,4.309,0,0,1,.924.7,4.416,4.416,0,0,1,.768,1.008,5.766,5.766,0,0,1,.516,1.248,5.042,5.042,0,0,1,.192,1.392,5.4,5.4,0,0,1-.312,1.848,5.017,5.017,0,0,1-.876,1.536,4.786,4.786,0,0,1-1.368,1.116,4.883,4.883,0,0,1-1.788.564L29.568,0H26.832L21.5-7.656h-.936V0H18.312V-18.1Zm-.48,8.568h.7a6.513,6.513,0,0,0,3.708-.8,2.882,2.882,0,0,0,1.116-2.508,2.727,2.727,0,0,0-1.2-2.448,6.934,6.934,0,0,0-3.744-.792h-.576Zm18.456-9.336L47.664,0H45.24L43.176-4.536h-8.3L32.808,0H30.384ZM35.808-6.6H42.24l-3.216-7.32ZM61.7-18.1,52.536-2.064H61.7V0H48.864l9.168-16.032H50.16V-18.1Zm3.84,0,4.44,7.728,4.44-7.728h2.592l-5.9,10.224V0H68.856V-7.872L62.952-18.1Zm31.1,0v2.064h-6.5v5.088h6.288V-8.88H90.144V0H87.888V-18.1Zm11.808-.384a9.1,9.1,0,0,1,3.576.72,9.949,9.949,0,0,1,3.024,1.98,9.469,9.469,0,0,1,2.1,2.988,8.993,8.993,0,0,1,.78,3.744,9.29,9.29,0,0,1-.732,3.684,9.531,9.531,0,0,1-2,3,9.256,9.256,0,0,1-3,2.016,9.5,9.5,0,0,1-3.744.732,9.512,9.512,0,0,1-3.7-.72,9.331,9.331,0,0,1-3.012-1.992A9.453,9.453,0,0,1,99.72-5.316a9.28,9.28,0,0,1-.744-3.732,9.042,9.042,0,0,1,.744-3.636,9.6,9.6,0,0,1,2.028-3,9.728,9.728,0,0,1,3.012-2.04A9.119,9.119,0,0,1,108.456-18.48Zm-7.224,9.432a7.081,7.081,0,0,0,.588,2.892,7.554,7.554,0,0,0,1.572,2.316,7.254,7.254,0,0,0,2.3,1.548,6.953,6.953,0,0,0,2.76.564,6.953,6.953,0,0,0,2.76-.564,7.254,7.254,0,0,0,2.3-1.548,7.554,7.554,0,0,0,1.572-2.316,7.081,7.081,0,0,0,.588-2.892,7.5,7.5,0,0,0-.54-2.844,7.133,7.133,0,0,0-1.512-2.328,7.178,7.178,0,0,0-2.292-1.572,7.183,7.183,0,0,0-2.9-.576,7.266,7.266,0,0,0-2.832.552,6.957,6.957,0,0,0-2.292,1.536,7.156,7.156,0,0,0-1.524,2.316A7.543,7.543,0,0,0,101.232-9.048ZM123.576-18.1q.5,0,1.1.012t1.212.084a8.631,8.631,0,0,1,1.236.24,5.531,5.531,0,0,1,1.2.48,4.309,4.309,0,0,1,.924.7,4.416,4.416,0,0,1,.768,1.008,5.767,5.767,0,0,1,.516,1.248,5.042,5.042,0,0,1,.192,1.392,5.4,5.4,0,0,1-.312,1.848,5.017,5.017,0,0,1-.876,1.536,4.786,4.786,0,0,1-1.368,1.116,4.883,4.883,0,0,1-1.788.564L132.1,0H129.36l-5.328-7.656H123.1V0H120.84V-18.1Zm-.48,8.568h.7a6.513,6.513,0,0,0,3.708-.8,2.882,2.882,0,0,0,1.116-2.508,2.727,2.727,0,0,0-1.2-2.448,6.934,6.934,0,0,0-3.744-.792H123.1Zm25.3-8.952a5.236,5.236,0,0,1,2.712.708,5.334,5.334,0,0,1,1.944,2.028l-1.8,1.08a3.736,3.736,0,0,0-1.188-1.272,3.157,3.157,0,0,0-1.716-.432,3.239,3.239,0,0,0-1.092.192,3.457,3.457,0,0,0-.972.528,2.676,2.676,0,0,0-.7.8,2.088,2.088,0,0,0-.264,1.044,2,2,0,0,0,.636,1.5,5.646,5.646,0,0,0,1.86,1.092l1.32.5a10.209,10.209,0,0,1,2.136,1.068,5.905,5.905,0,0,1,1.38,1.26,4.393,4.393,0,0,1,.744,1.452,5.919,5.919,0,0,1,.228,1.668,5.576,5.576,0,0,1-.468,2.328,5.467,5.467,0,0,1-1.272,1.776,5.636,5.636,0,0,1-1.848,1.14,6.14,6.14,0,0,1-2.2.4,5.6,5.6,0,0,1-2-.36A5.433,5.433,0,0,1,144.144-1a5.578,5.578,0,0,1-1.236-1.6,6.453,6.453,0,0,1-.66-2.088l2.28-.48a3.342,3.342,0,0,0,.288,1.416,3.491,3.491,0,0,0,.768,1.08,3.287,3.287,0,0,0,1.116.7,3.741,3.741,0,0,0,1.332.24A3.145,3.145,0,0,0,149.34-2a3.32,3.32,0,0,0,1.056-.744,3.545,3.545,0,0,0,.708-1.116,3.654,3.654,0,0,0,.264-1.392A2.757,2.757,0,0,0,150.66-7.2a7.047,7.047,0,0,0-2.412-1.488L147-9.216a14.306,14.306,0,0,1-1.452-.708,5.93,5.93,0,0,1-1.26-.936,4.274,4.274,0,0,1-.888-1.26,3.935,3.935,0,0,1-.336-1.68,4.333,4.333,0,0,1,.42-1.92,4.421,4.421,0,0,1,1.152-1.476,5.355,5.355,0,0,1,1.7-.948A6.236,6.236,0,0,1,148.392-18.48Zm11.136.384a14.2,14.2,0,0,1,3.336.336,5.763,5.763,0,0,1,2.22,1.008,3.884,3.884,0,0,1,1.236,1.644,6.078,6.078,0,0,1,.384,2.244,5.971,5.971,0,0,1-.36,2.112,4.182,4.182,0,0,1-1.152,1.668,5.528,5.528,0,0,1-2.028,1.1,9.775,9.775,0,0,1-2.964.4h-1.128V0h-2.256V-18.1Zm-.456,8.5h.7a6.354,6.354,0,0,0,3.72-.828,2.907,2.907,0,0,0,1.1-2.484,2.9,2.9,0,0,0-.444-1.692,2.786,2.786,0,0,0-1.164-.96,5.294,5.294,0,0,0-1.62-.42,16.847,16.847,0,0,0-1.788-.1h-.5ZM178.1-18.48a9.1,9.1,0,0,1,3.576.72,9.949,9.949,0,0,1,3.024,1.98,9.469,9.469,0,0,1,2.1,2.988,8.993,8.993,0,0,1,.78,3.744,9.29,9.29,0,0,1-.732,3.684,9.531,9.531,0,0,1-2,3,9.256,9.256,0,0,1-3,2.016A9.5,9.5,0,0,1,178.1.384a9.512,9.512,0,0,1-3.7-.72A9.331,9.331,0,0,1,171.4-2.328a9.453,9.453,0,0,1-2.028-2.988,9.28,9.28,0,0,1-.744-3.732,9.042,9.042,0,0,1,.744-3.636,9.6,9.6,0,0,1,2.028-3,9.728,9.728,0,0,1,3.012-2.04A9.119,9.119,0,0,1,178.1-18.48ZM170.88-9.048a7.081,7.081,0,0,0,.588,2.892A7.554,7.554,0,0,0,173.04-3.84a7.254,7.254,0,0,0,2.3,1.548,6.953,6.953,0,0,0,2.76.564,6.953,6.953,0,0,0,2.76-.564,7.254,7.254,0,0,0,2.3-1.548,7.554,7.554,0,0,0,1.572-2.316,7.081,7.081,0,0,0,.588-2.892,7.5,7.5,0,0,0-.54-2.844,7.133,7.133,0,0,0-1.512-2.328,7.177,7.177,0,0,0-2.292-1.572,7.183,7.183,0,0,0-2.9-.576,7.266,7.266,0,0,0-2.832.552,6.956,6.956,0,0,0-2.292,1.536,7.156,7.156,0,0,0-1.524,2.316A7.543,7.543,0,0,0,170.88-9.048ZM193.464-18.1q.5,0,1.1.012T195.78-18a8.631,8.631,0,0,1,1.236.24,5.531,5.531,0,0,1,1.2.48,4.309,4.309,0,0,1,.924.7,4.416,4.416,0,0,1,.768,1.008,5.767,5.767,0,0,1,.516,1.248,5.042,5.042,0,0,1,.192,1.392,5.4,5.4,0,0,1-.312,1.848,5.017,5.017,0,0,1-.876,1.536,4.786,4.786,0,0,1-1.368,1.116,4.883,4.883,0,0,1-1.788.564L201.984,0h-2.736L193.92-7.656h-.936V0h-2.256V-18.1Zm-.48,8.568h.7a6.513,6.513,0,0,0,3.708-.8A2.882,2.882,0,0,0,198.5-12.84a2.727,2.727,0,0,0-1.2-2.448,6.934,6.934,0,0,0-3.744-.792h-.576ZM213.648-18.1v2.064h-4.3V0H207.1V-16.032h-4.3V-18.1Zm7.68-.384a5.236,5.236,0,0,1,2.712.708,5.334,5.334,0,0,1,1.944,2.028l-1.8,1.08A3.736,3.736,0,0,0,223-15.936a3.157,3.157,0,0,0-1.716-.432,3.239,3.239,0,0,0-1.092.192,3.457,3.457,0,0,0-.972.528,2.676,2.676,0,0,0-.7.8,2.088,2.088,0,0,0-.264,1.044,2,2,0,0,0,.636,1.5,5.646,5.646,0,0,0,1.86,1.092l1.32.5a10.209,10.209,0,0,1,2.136,1.068,5.905,5.905,0,0,1,1.38,1.26,4.393,4.393,0,0,1,.744,1.452,5.919,5.919,0,0,1,.228,1.668,5.576,5.576,0,0,1-.468,2.328,5.467,5.467,0,0,1-1.272,1.776,5.636,5.636,0,0,1-1.848,1.14,6.14,6.14,0,0,1-2.2.4,5.6,5.6,0,0,1-2-.36A5.433,5.433,0,0,1,217.08-1a5.578,5.578,0,0,1-1.236-1.6,6.453,6.453,0,0,1-.66-2.088l2.28-.48a3.342,3.342,0,0,0,.288,1.416,3.491,3.491,0,0,0,.768,1.08,3.287,3.287,0,0,0,1.116.7,3.741,3.741,0,0,0,1.332.24A3.145,3.145,0,0,0,222.276-2a3.32,3.32,0,0,0,1.056-.744,3.545,3.545,0,0,0,.708-1.116,3.654,3.654,0,0,0,.264-1.392A2.757,2.757,0,0,0,223.6-7.2a7.047,7.047,0,0,0-2.412-1.488l-1.248-.528a14.306,14.306,0,0,1-1.452-.708,5.93,5.93,0,0,1-1.26-.936,4.274,4.274,0,0,1-.888-1.26A3.935,3.935,0,0,1,216-13.8a4.333,4.333,0,0,1,.42-1.92,4.421,4.421,0,0,1,1.152-1.476,5.355,5.355,0,0,1,1.7-.948A6.236,6.236,0,0,1,221.328-18.48Z" transform="translate(7 24)"/>
  </g>
</svg>
