<?xml version="1.0" encoding="UTF-8"?>
<svg width="533px" height="143px" viewBox="0 0 533 143" version="1.1" xmlns="http://www.w3.org/2000/svg" xmlns:xlink="http://www.w3.org/1999/xlink">
    <!-- Generator: Sketch 48.2 (47327) - http://www.bohemiancoding.com/sketch -->
    <title>Group 5</title>
    <desc>Created with Sketch.</desc>
    <defs></defs>
    <g id="Desktop-HD-Copy-8" stroke="none" stroke-width="1" fill="none" fill-rule="evenodd" transform="translate(-435.000000, -463.000000)">
        <g id="Group-5" transform="translate(435.000000, 463.000000)">
            <path d="M30.18,49.48 L51.66,49.48 L51.66,29.68 L30.18,29.68 L30.18,49.48 Z M51.66,9.04 L30.18,9.04 L30.18,28 L51.66,28 L51.66,9.04 Z M55.32,2.68 L63.42,9.16 C63,9.7 62.34,10.18 61.14,10.48 L61.14,54.04 C61.02,54.7 56.64,56.8 53.16,56.8 L51.66,56.8 L51.66,51.16 L30.18,51.16 L30.18,54.04 C30.18,55.18 26.46,57.4 22.5,57.4 L21,57.4 L21,3.52 L30.72,7.36 L51.06,7.36 L55.32,2.68 Z M130.2,16.96 L108.72,16.96 C113.76,26.98 123.42,34.24 132.78,37.78 L132.54,38.5 C129.12,39.22 126.3,42.04 125.04,46.3 C116.04,40.24 110.88,30.64 107.7,17.14 L107.7,42.64 L111.54,36.88 C111.54,36.88 116.16,41.02 118.74,43.72 C118.56,44.38 117.9,44.68 117.06,44.68 L107.7,44.68 L107.7,55.3 C107.7,56.02 104.1,57.7 100.44,57.7 L98.76,57.7 L98.76,44.68 L88.44,44.68 L87.96,43 L98.76,43 L98.76,28.78 C93.24,36.4 85.38,42.64 75.12,47.08 L74.64,46.54 C84,39.28 90.72,27.7 93.84,16.96 L75.42,16.96 L74.94,15.28 L98.76,15.28 L98.76,0.76 L110.4,1.9 C110.28,2.92 109.74,3.64 107.7,3.94 L107.7,15.28 L118.86,15.28 L123.54,8.74 C123.54,8.74 128.88,13.12 132,16 C131.82,16.66 131.1,16.96 130.2,16.96 Z M9.9,95.6 L10.74,95.24 C12.3,97.1 14.22,98.6 16.26,98.6 C20.88,98.6 30.72,96.68 33.36,96.08 C34.98,95.72 36.18,93.62 37.62,93.62 C40.56,93.62 46.8,99.02 46.8,101.3 C46.8,103.28 43.5,104.42 42.84,105.32 C40.74,108.2 37.92,113.06 34.38,117.08 C44.16,119.54 52.5,124.88 52.5,132.26 C52.5,134.42 50.76,137 47.88,137 C45.12,137 43.26,135.26 41.82,132.32 C39.66,127.76 37.92,123.08 32.4,119.12 C26.88,124.64 17.16,133.58 1.02,137.96 L0.42,136.88 C14.58,129.56 29.64,113.66 34.14,102.2 C34.5,101.24 34.14,100.94 33.48,100.94 C32.04,100.94 24.72,103.34 21.84,104.48 C19.8,105.26 18.9,106.88 17.04,106.88 C13.92,106.88 10.86,102.86 10.14,100.34 C9.72,98.84 9.72,97.22 9.9,95.6 Z M110.88,88.82 C108.6,88.82 106.8,90.62 106.8,92.9 C106.8,95.18 108.6,96.98 110.88,96.98 C113.16,96.98 114.96,95.18 114.96,92.9 C114.96,90.62 113.16,88.82 110.88,88.82 Z M110.88,99.68 C107.1,99.68 104.1,96.68 104.1,92.9 C104.1,89.12 107.1,86.12 110.88,86.12 C114.66,86.12 117.66,89.12 117.66,92.9 C117.66,96.68 114.66,99.68 110.88,99.68 Z M77.82,115.7 L78.78,115.76 C79.44,123.32 77.04,134.36 70.68,134.36 C68.34,134.36 66.66,132.74 66.66,130.22 C66.66,126.92 68.4,126.5 72,123.56 C74.88,121.16 76.68,118.7 77.82,115.7 Z M82.68,93.98 L82.62,93.14 C84.06,92.18 86.34,91.04 88.68,91.04 C92.04,91.04 96.9,93.5 96.9,95.66 C96.9,97.22 95.88,97.88 95.58,99.5 C95.28,100.7 95.16,102.2 95.04,103.82 C105.54,102.32 105.84,101.48 107.52,101.48 C110.46,101.48 115.38,103.28 115.38,106.76 C115.38,108.56 114.3,109.46 112.5,109.46 C109.92,109.46 107.76,108.92 103.74,108.92 C101.52,108.92 98.34,109.1 94.8,109.4 L94.8,114.02 C94.8,121.1 95.58,129.98 95.58,132.74 C95.58,136.16 92.64,140.72 88.98,140.72 C85.98,140.72 85.92,139.58 84.42,136.46 C83.76,134.96 82.26,133.16 80.1,131.66 L80.46,130.82 C83.22,131.3 85.44,131.6 87,131.6 C87.66,131.6 87.96,131.42 88.02,130.64 C88.32,127.34 88.2,119.12 88.14,114.02 L88.08,110.06 C84.54,110.48 81,111.14 78.36,111.86 C76.2,112.4 74.7,113.84 72.9,113.84 C70.68,113.84 67.8,111.14 66.72,108.38 C66.24,107.12 66.36,104.78 66.54,103.64 L67.26,103.4 C68.94,105.38 69.78,106.04 71.76,106.04 C74.52,106.04 82.8,105.26 87.9,104.72 C87.78,100.76 87.54,97.16 87.18,96.5 C86.52,95.24 84.84,94.7 82.68,93.98 Z M99.96,116.06 L100.44,115.28 C108.48,116.54 116.28,121.34 116.58,128.12 C116.64,130.82 115.08,132.8 112.5,132.8 C109.68,132.8 108.6,130.4 107.76,128.3 C105.72,123.32 103.86,119.78 99.96,116.06 Z M128.64,108.5 L129.54,108.2 C131.58,110.72 132.66,112.22 136.2,112.22 C143.16,112.22 159.78,111.08 163.86,110.72 C167.88,110.36 171.12,109.76 172.56,109.76 C176.82,109.76 180.18,112.1 180.18,115.16 C180.18,117.26 178.26,118.16 175.5,118.16 C172.98,118.16 170.88,117.98 166.32,117.98 C161.4,117.98 149.76,118.82 145.08,119.3 C140.28,119.78 139.26,121.46 136.74,121.46 C133.98,121.46 129.84,117.14 128.58,113.72 C128.04,112.22 128.28,110.12 128.64,108.5 Z M208.14,101.84 C207.24,99.62 205.26,95.78 203.94,94.46 L204.66,93.56 C207.12,94.28 209.04,94.88 211.38,96.08 C215.4,98.3 217.92,101.42 217.92,105.8 C217.92,108.68 215.64,110.24 213.48,110.24 C209.58,110.24 210.12,106.64 208.14,101.84 Z M235.86,106.58 C228.84,120.5 214.8,135.08 194.4,140 L193.8,138.92 C212.82,129.38 228.48,106.28 228.48,98.9 C228.48,97.4 226.68,96.08 224.22,95.06 L224.34,94.16 C225.84,93.62 227.64,93.32 229.38,93.32 C233.64,93.32 239.16,98.54 239.16,101.84 C239.16,103.7 236.82,104.72 235.86,106.58 Z M194.52,106.76 C193.14,103.4 191.7,100.88 190.26,99.02 L190.98,98.12 C193.38,98.78 195.78,99.92 197.22,100.7 C201.9,103.1 204.72,106.82 204.72,110.96 C204.72,113.36 203.22,115.16 200.22,115.16 C196.62,115.16 196.44,111.14 194.52,106.76 Z M304.2,105.74 L280.8,105.74 C282.84,116.72 290.16,127.22 306.36,133.22 L306.3,133.94 C301.86,134.84 299.28,137.72 298.56,142.76 C285.96,134.66 281.64,119.96 280.08,107.96 C278.16,122.42 271.98,134.54 249.54,142.76 L249.06,141.98 C265.38,131.48 269.76,119.54 270.96,105.74 L250.08,105.74 L249.6,104.06 L271.08,104.06 C271.44,98.36 271.38,92.36 271.38,86 L283.32,87.08 C283.14,88.04 282.54,88.58 281.1,88.82 C280.98,94.1 280.92,99.2 280.5,104.06 L292.08,104.06 L297.06,97.76 C297.06,97.76 302.64,101.96 306,104.78 C305.82,105.44 305.1,105.74 304.2,105.74 Z M345.54,115.46 L346.08,115.16 C356.64,116.66 355.56,122.9 352.08,123.98 C353.46,125.18 355.62,126.98 357.18,128.42 C357,129.08 356.4,129.38 355.56,129.38 L325.2,129.38 L324.72,127.7 L336.06,127.7 L336.06,114.02 L327.96,114.02 L327.48,112.34 L336.06,112.34 L336.06,101.06 L325.68,101.06 L325.2,99.38 L346.08,99.38 L349.74,94.58 C349.74,94.58 353.82,97.88 356.28,100.1 C356.1,100.76 355.44,101.06 354.6,101.06 L343.86,101.06 L343.86,112.34 L345.3,112.34 L348.72,107.66 C348.72,107.66 352.62,110.84 354.9,113.06 C354.72,113.72 354.12,114.02 353.28,114.02 L343.86,114.02 L343.86,127.7 L347.04,127.7 L349.8,123.98 C349.2,123.8 348.66,123.5 348.06,123.02 C348,120.32 346.86,117.32 345.54,115.46 Z M323.46,135.86 L357.42,135.86 L357.42,91.88 L323.46,91.88 L323.46,135.86 Z M360.84,85.76 L368.52,91.94 C368.1,92.48 367.38,92.96 366.12,93.26 L366.12,139.76 C366.06,140.42 362.04,142.4 358.8,142.4 L357.42,142.4 L357.42,137.54 L323.46,137.54 L323.46,139.52 C323.46,140.6 320.04,142.7 316.38,142.7 L314.94,142.7 L314.94,86.54 L324.18,90.2 L356.82,90.2 L360.84,85.76 Z" id="日本を世界が憧れる-スポーツ大国にする。" fill="#E50113"></path>
            <path d="M168.225,26.22 L168.495,25.5 C171.06,25.5 172.32,25.725 173.625,26.4 C175.425,27.345 177.675,29.955 177.675,31.935 C177.675,33.555 175.92,33.42 173.445,34.095 C170.565,34.86 166.47,36.165 162.96,37.47 C163.23,39.81 163.23,42.105 163.23,43.725 C163.23,45.525 162.24,46.92 160.35,46.92 C158.73,46.92 157.335,46.065 157.335,43.995 C157.335,42.87 157.47,41.43 157.56,39.81 C154.05,41.655 151.125,44.04 151.125,46.29 C151.125,47.73 152.25,49.17 156.66,49.17 C163.41,49.17 166.065,47.64 167.64,47.64 C170.16,47.64 172.77,48.135 172.77,50.565 C172.77,52.14 172.05,52.995 170.34,53.535 C167.955,54.3 163.905,54.75 160.125,54.75 C151.08,54.75 148.29,51.33 148.29,47.19 C148.29,43.185 153.375,39.09 157.65,36.39 C157.65,32.97 157.335,31.71 155.355,31.71 C153.15,31.71 150.45,35.265 149.055,37.2 C147.39,39.405 145.95,42.51 143.925,42.645 C142.035,42.735 141.315,41.07 141.27,38.91 C141.225,37.2 142.665,36.435 144.285,34.77 C146.715,32.34 148.65,29.595 150.09,27.075 C148.83,27.21 147.57,27.255 146.31,27.255 C142.845,27.255 141.855,24.285 140.91,20.73 L141.405,20.46 C142.845,21.45 144.78,22.8 147.795,22.71 C149.19,22.665 150.855,22.44 152.475,22.125 C152.97,20.865 153.285,19.965 153.375,19.515 C153.555,18.84 153.465,18.255 153.195,17.985 C152.34,17.04 151.26,16.635 150.045,16.095 L150.09,15.6 C151.215,15.015 152.79,14.475 153.78,14.43 C155.94,14.34 159.855,14.97 159.9,16.77 C159.945,17.31 159.54,17.85 159.18,18.57 C158.865,19.29 158.46,20.055 158.055,20.775 C159.18,20.415 160.17,20.1 160.89,19.785 C162.15,19.2 162.69,18.525 163.23,18.525 C165.165,18.525 166.74,19.11 166.74,21.045 C166.74,21.765 166.38,22.62 164.985,23.34 C163.68,24.06 159.9,25.5 154.995,26.4 C154.185,27.795 153.195,29.415 151.89,31.305 C151.665,31.62 151.845,31.845 152.205,31.575 C153.87,30.405 155.265,29.73 157.02,29.73 C159.81,29.73 161.655,31.215 162.33,33.78 C165.165,32.295 168.36,30.72 170.07,29.64 C170.88,29.145 171.015,28.605 170.43,27.93 C169.98,27.39 168.99,26.67 168.225,26.22 Z M224.28,34.44 L224.28,19.5 L217.92,19.5 L217.92,34.44 L224.28,34.44 Z M232.98,17.34 L236.7,12.12 C236.7,12.12 241.26,15.96 243.9,18.54 C243.78,19.2 243.12,19.5 242.22,19.5 L232.98,19.5 L232.98,38.58 C232.98,39.3 229.2,40.98 225.84,40.98 L224.28,40.98 L224.28,36.12 L217.92,36.12 L217.92,40.08 C217.92,40.8 214.2,42.48 210.96,42.48 L209.4,42.48 L209.4,19.5 L203.28,19.5 L203.28,49.92 L228.78,49.92 L233.4,43.56 C233.4,43.56 238.62,47.82 241.62,50.64 C241.44,51.3 240.72,51.6 239.88,51.6 L203.28,51.6 L203.28,54.42 C203.28,55.26 199.5,57.36 196.2,57.36 L194.58,57.36 L194.58,19.5 L186.42,19.5 L185.94,17.82 L194.58,17.82 L194.58,2.04 L205.5,3.06 C205.38,3.9 204.96,4.56 203.28,4.8 L203.28,17.82 L209.4,17.82 L209.4,0.72 L220.14,1.68 C220.02,2.52 219.6,3.18 217.92,3.42 L217.92,17.82 L224.28,17.82 L224.28,1.68 L235.2,2.64 C235.08,3.48 234.66,4.14 232.98,4.38 L232.98,17.34 Z M265.08,15.72 L265.08,24.24 L273.12,24.24 L273.12,15.72 L265.08,15.72 Z M273.12,5.88 L265.08,5.88 L265.08,14.04 L273.12,14.04 L273.12,5.88 Z M290.16,5.88 L281.52,5.88 L281.52,14.04 L290.16,14.04 L290.16,5.88 Z M281.52,24.24 L290.16,24.24 L290.16,15.72 L281.52,15.72 L281.52,24.24 Z M290.16,25.92 L283.98,25.92 C288.9,30.54 297.96,32.4 305.94,33.06 L305.88,33.78 C302.76,34.74 300.72,37.56 299.94,41.7 C296.4,40.32 293.22,38.64 290.52,36.6 L290.52,55.2 C290.52,55.74 286.56,57.3 283.68,57.3 L282,57.3 L282,32.34 L286.5,32.7 C284.88,30.78 283.5,28.56 282.42,25.92 L277.92,25.92 C276,28.68 273.42,31.08 270.36,33.12 L275.16,33.54 C275.1,34.32 274.62,34.92 273.24,35.1 L273.24,40.14 C273.06,47.22 269.58,54.42 250.68,57.42 L250.38,56.88 C262.74,52.5 264.72,46.14 264.72,40.02 L264.72,36.18 C260.28,38.16 255.06,39.72 249.24,40.8 L248.88,40.08 C257.28,36.9 263.64,31.8 267.3,25.92 L265.08,25.92 L265.08,26.52 C265.08,27.36 261.36,29.28 257.82,29.28 L256.56,29.28 L256.56,0.72 L265.68,4.2 L289.56,4.2 L293.34,0 L301.2,5.94 C300.84,6.42 300.12,7.02 298.86,7.26 L298.86,26.46 C298.8,26.94 294.48,28.44 291.66,28.44 L290.16,28.44 L290.16,25.92 Z M342.36,19.02 L342.72,18.48 C345.33,19.02 347.67,19.74 349.2,21.135 C350.1,21.945 350.37,22.71 350.37,23.565 C350.37,24.6 349.56,25.455 348.435,25.455 C347.67,25.455 347.04,25.005 346.41,23.97 C345.6,22.71 344.565,21 342.36,19.02 Z M331.425,23.565 L330.345,26.175 C331.335,26.085 332.28,25.995 333.045,25.995 C336.78,25.995 339.345,28.335 339.345,34.68 C339.345,40.575 338.085,47.145 334.44,50.925 C332.955,52.455 330.66,53.49 328.365,53.49 C326.475,53.49 325.62,52.725 325.08,50.025 C324.9,49.035 324.63,48.675 322.605,46.245 L322.965,45.705 C325.17,46.695 326.79,47.28 328.05,47.28 C329.535,47.28 330.12,46.83 330.795,46.11 C333.27,43.32 334.35,36.48 334.35,32.295 C334.35,30.315 333.585,29.145 331.695,29.145 C330.975,29.145 330.03,29.37 328.905,29.685 C327.69,32.61 326.34,35.805 325.44,37.92 C323.595,42.195 320.49,48.72 319.005,51.42 C317.88,53.445 317.025,53.94 315.54,53.94 C314.19,53.94 312.885,52.635 312.885,50.565 C312.885,48.945 313.11,48.36 314.055,47.19 C316.125,44.67 318.825,40.575 320.85,36.21 C321.525,34.815 322.11,33.42 322.65,32.07 C321.75,32.475 320.895,32.835 320.175,33.195 C318.915,33.78 317.97,34.275 316.665,34.275 C315.27,34.275 312.975,31.665 312.66,29.595 C312.435,28.11 312.93,27.165 313.38,26.22 L313.875,26.085 C314.865,27.66 315.54,28.38 316.62,28.38 C318.15,28.38 321.03,27.75 324.495,27.12 C325.575,24.015 326.115,21.63 326.115,20.64 C326.115,20.01 325.89,19.515 325.44,19.2 C324.675,18.66 323.46,18.255 322.155,17.94 L322.155,17.4 C323.19,16.77 324.585,15.96 326.835,15.96 C329.04,15.96 333.63,17.895 333.63,19.695 C333.63,21.09 332.145,21.855 331.425,23.565 Z M340.56,26.31 L340.695,25.635 C343.26,25.59 346.725,26.4 349.2,28.605 C352.17,31.215 353.295,34.5 353.295,38.01 C353.295,41.16 352.08,43.32 349.785,43.365 C348.075,43.41 347.895,41.835 346.32,41.115 C345.33,40.665 343.215,40.125 341.64,39.99 L341.505,39.315 C343.575,38.73 344.385,38.46 345.285,38.055 C346.32,37.605 346.86,37.065 346.86,35.805 C346.86,34.455 346.545,32.25 345.42,30.315 C344.295,28.38 342.72,26.985 340.56,26.31 Z M346.59,15.825 L346.905,15.33 C349.605,15.69 351.81,16.365 353.16,17.31 C354.285,18.12 354.69,19.02 354.69,20.1 C354.69,21.18 354.06,21.9 352.98,21.9 C352.035,21.9 351.495,21.36 350.685,20.235 C349.965,19.245 349.11,17.85 346.59,15.825 Z M363.6,11.46 L364.5,11.46 C367.44,18.3 367.08,23.7 365.28,26.34 C363.96,28.26 360.96,28.44 359.7,26.52 C358.74,24.78 359.46,22.92 361.02,21.66 C362.46,19.86 364.08,15.42 363.6,11.46 Z M400.62,39.24 L400.62,45.9 L404.34,45.9 L407.82,41.58 C407.1,41.76 406.38,41.82 405.78,41.82 L404.34,41.82 L404.34,39.24 L400.62,39.24 Z M388.8,37.56 L392.46,37.56 L392.46,32.04 L388.8,32.04 L388.8,37.56 Z M392.46,24.78 L388.8,24.78 L388.8,30.36 L392.46,30.36 L392.46,24.78 Z M404.34,24.78 L400.62,24.78 L400.62,30.36 L404.34,30.36 L404.34,24.78 Z M404.34,37.56 L404.34,32.04 L400.62,32.04 L400.62,37.56 L404.34,37.56 Z M399.9,9.72 L389.4,9.72 C396.96,12.06 395.34,17.22 391.86,18.24 L398.4,18.24 C399,15.78 399.54,12.42 399.9,9.72 Z M406.26,54.12 L410.34,49.08 C410.34,49.08 414.96,52.44 417.78,54.84 C417.6,55.5 416.94,55.8 416.1,55.8 L377.4,55.8 L376.92,54.12 L392.46,54.12 L392.46,47.58 L380.82,47.58 L380.34,45.9 L392.46,45.9 L392.46,39.24 L388.8,39.24 L388.8,40.38 C388.8,41.1 385.32,42.84 382.08,42.84 L380.94,42.84 L380.94,19.92 L389.16,23.1 L403.8,23.1 L406.8,19.92 L380.58,19.92 C379.56,21.06 377.7,21.24 376.14,19.62 C376.32,17.28 375.72,14.52 374.82,12.3 L374.82,55.14 C374.82,55.8 371.58,57.3 368.64,57.3 L367.08,57.3 L367.08,0.36 L377.04,1.32 C376.92,2.22 376.44,2.82 374.82,3.06 L374.82,10.38 C380.46,12.66 381.9,15.96 381.48,18.24 L389.28,18.24 C388.5,18 387.72,17.58 386.94,16.86 C387.24,14.34 386.58,11.58 385.62,9.72 L379.86,9.72 L379.38,8.04 L392.46,8.04 L392.46,0.48 L402.54,1.26 C402.42,1.98 402.06,2.52 400.62,2.82 L400.62,8.04 L404.76,8.04 L408.66,3.18 C408.66,3.18 413.1,6.48 415.8,8.76 C415.68,9.42 415.02,9.72 414.12,9.72 L404.94,9.72 L410.28,11.04 C410.04,11.76 409.38,12.3 408,12.24 C406.02,13.98 402.84,16.38 399.96,18.24 L406.26,18.24 L410.1,13.44 C410.1,13.44 414.54,16.68 417.24,18.96 C417.06,19.62 416.4,19.92 415.56,19.92 L408,19.92 L414.42,24.72 C414.12,25.14 413.46,25.56 412.44,25.8 L412.44,39.96 C412.38,40.26 410.4,41.04 408.36,41.52 C409.38,42.24 412.74,44.76 414.9,46.62 C414.72,47.28 414.12,47.58 413.22,47.58 L400.62,47.58 L400.62,54.12 L406.26,54.12 Z M431.85,45.57 C432.57,46.155 433.02,45.975 433.065,45.03 C433.11,43.77 433.155,41.7 433.245,39.315 C432.21,40.935 431.22,42.555 430.14,44.31 C430.815,44.805 431.535,45.3 431.85,45.57 Z M466.005,42.195 L466.32,42.51 C464.88,46.155 461.64,50.61 456.06,50.61 C452.19,50.61 450.03,48.54 450.03,43.365 C450.03,37.74 451.695,33.15 451.695,28.155 C451.695,25.41 451.11,23.97 448.95,23.97 C445.215,23.97 440.76,27.48 437.475,31.98 C437.295,33.15 437.16,34.14 437.115,34.815 C436.935,37.605 437.205,41.52 437.52,44.355 C437.745,46.515 438.15,47.865 438.15,49.26 C438.15,52.5 436.44,54.57 434.505,54.57 C432.525,54.57 431.895,53.58 431.67,52.185 C431.445,50.88 431.175,49.53 430.59,48.045 C430.23,47.19 429.87,46.38 429.375,45.525 L428.7,46.605 C427.755,48.135 426.945,49.485 425.595,49.53 C424.425,49.575 423.21,48.495 423.21,46.515 C423.21,44.985 423.705,43.77 424.695,42.78 C426.9,40.575 430.635,36.12 433.695,31.62 C433.74,30.99 433.83,30.36 433.875,29.685 C432.885,30.27 431.985,30.855 431.58,31.17 C430.68,31.845 430.23,33.33 429.15,33.33 C426.81,33.33 424.065,30.63 423.435,28.56 C423.21,27.795 423.39,26.535 423.48,25.68 L423.975,25.5 C424.785,26.49 425.55,27.39 426.72,27.39 C428.205,27.39 431.805,25.68 434.37,24.375 C434.595,22.125 434.775,20.19 434.775,19.335 C434.775,18.39 434.64,18.075 433.83,17.535 C433.155,17.085 432.21,16.635 430.86,16.23 L430.86,15.555 C432.255,14.88 433.47,14.475 434.91,14.475 C437.7,14.475 441.165,17.49 441.165,19.38 C441.165,20.46 440.535,21.27 439.95,22.53 C439.77,22.935 439.59,23.475 439.365,24.06 C440.175,24.735 440.895,25.59 440.94,25.995 C443.865,23.61 447.51,21.45 450.84,21.45 C455.925,21.45 457.5,24.375 457.5,29.055 C457.5,33.6 455.97,37.2 455.97,41.925 C455.97,44.265 456.645,45.075 458.535,45.075 C461.1,45.075 463.35,44.085 466.005,42.195 Z M490.29,49.35 C491.1,49.35 491.865,49.305 492.585,49.26 C492.045,46.515 490.38,44.49 487.995,44.49 C486.24,44.49 485.205,45.345 485.205,46.695 C485.205,48.45 487.32,49.35 490.29,49.35 Z M480.03,17.175 L480.57,17.13 C481.425,18.66 482.775,19.965 483.945,19.965 C485.52,19.965 489.75,18.975 492.36,18.12 C494.52,17.4 494.43,16.635 495.555,16.635 C498.075,16.635 502.215,19.965 502.215,22.215 C502.215,23.7 500.325,24.24 498.885,25.095 C495.555,27.075 490.245,31.305 488.715,32.835 C488.13,33.42 488.445,33.735 488.94,33.6 C490.155,33.285 492.63,32.16 496.365,32.16 C502.575,32.16 507.66,35.895 507.66,42.915 C507.66,49.17 502.125,54.075 492.45,54.075 C487.095,54.075 482.955,51.645 482.955,47.415 C482.955,44.13 485.88,42.15 489.435,42.15 C492.405,42.15 496.275,43.68 497.535,48 C500.775,46.425 502.035,43.725 502.035,40.8 C502.035,36.795 499.56,34.23 494.565,34.23 C488.58,34.23 484.395,38.955 480.57,43.95 C479.265,45.66 478.725,46.11 477.42,46.065 C476.205,46.02 475.035,44.58 475.17,42.6 C475.26,41.16 476.115,39.945 477.87,38.325 C480.885,35.58 491.01,26.04 493.62,22.8 C494.565,21.63 493.98,21.225 493.17,21.36 C491.37,21.675 489.21,23.25 487.59,24.375 C486.735,24.96 485.925,25.68 484.845,25.68 C481.74,25.68 479.49,22.035 479.49,20.28 C479.49,19.11 479.67,18.39 480.03,17.175 Z M388.335,119.545 L389.28,119.95 C388.425,122.425 387.075,125.71 386.76,127.375 C386.4,129.355 386.265,130.3 386.265,130.975 C386.265,132.73 387.255,134.305 387.255,135.835 C387.255,137.86 386.265,138.985 384.465,138.985 C383.205,138.985 381.945,138.13 380.91,136.78 C379.02,134.305 378.075,131.065 378.075,125.575 C378.075,122.11 379.245,116.935 379.965,114.235 C380.55,112.03 380.955,110.095 380.955,107.8 C380.955,105.505 379.695,103.345 378.75,102.22 L379.065,101.77 C380.82,102.085 381.99,102.535 383.25,103.3 C384.87,104.29 387.57,106.99 387.57,109.735 C387.57,111.13 386.895,112.075 385.815,113.83 C383.835,117.025 382.125,121.255 382.125,124.675 C382.125,125.575 382.26,126.52 382.485,127.015 C382.8,127.735 383.205,127.78 383.7,127.06 C384.87,125.395 387.075,121.795 388.335,119.545 Z M392.7,123.19 L393.33,123.145 C393.6,124.18 393.915,125.395 394.41,126.25 C396.3,129.535 398.28,130.525 403.905,130.525 C408.315,130.525 410.25,129.625 411.105,129.625 C413.4,129.625 415.875,130.75 415.875,132.775 C415.875,136.105 411.105,136.735 405.39,136.735 C396.12,136.735 392.79,132.37 392.43,126.835 C392.34,125.485 392.52,124.18 392.7,123.19 Z M393.825,111.67 L393.555,111.085 C396.93,107.44 402.195,106.09 405.66,106.09 C408.63,106.09 410.52,106.495 412.095,107.44 C413.715,108.385 414.075,109.42 414.075,110.32 C414.075,111.76 413.31,112.345 412.095,112.615 C410.61,112.93 408.72,112.93 406.74,113.425 C404.67,113.965 401.79,115.18 399.27,116.665 L398.775,116.08 C400.71,114.325 402.51,112.66 403.14,111.805 C403.59,111.22 403.95,110.68 400.44,110.68 C399.36,110.68 397.605,110.77 393.825,111.67 Z M442.185,126.07 C444.255,126.07 444.75,124.675 444.75,122.335 C444.75,120.445 444.255,118.51 442.365,118.51 C440.34,118.51 438.81,120.175 438.81,122.56 C438.81,124.315 440.115,126.07 442.185,126.07 Z M439.53,102.355 L439.485,101.86 C440.655,100.915 442.365,99.88 444.03,99.88 C446.955,99.88 450.42,101.14 450.42,102.805 C450.42,104.11 449.61,105.19 449.475,106.27 C449.43,106.63 449.385,107.17 449.385,107.845 C458.07,106.765 457.98,106.135 458.565,106.135 C461.4,106.135 464.73,107.665 464.73,110.095 C464.73,111.985 463.605,112.165 461.985,112.165 C459.69,112.165 457.17,110.815 449.25,111.445 C449.16,113.65 449.115,116.17 449.16,118.465 C450.51,120.085 451.05,122.38 451.05,124.63 C451.05,134.53 442.68,139.21 432.195,140.2 L431.925,139.48 C437.46,137.545 442.095,134.8 443.895,130.66 C439.305,131.56 436.155,127.645 436.155,123.145 C436.155,118.825 439.215,115.855 442.905,115.855 C443.58,115.855 444.21,115.9 444.795,115.99 C444.705,114.91 444.615,113.47 444.525,111.985 C439.98,112.615 436.65,113.47 434.76,114.055 C432.555,114.73 431.61,115.81 429.855,115.81 C427.92,115.81 425.04,113.245 424.545,111.175 C424.275,110.05 424.32,108.7 424.41,107.665 L424.995,107.395 C426.885,109.42 427.515,109.825 429.09,109.87 C431.16,109.96 439.17,109.015 444.21,108.43 C444.075,106.9 443.895,105.55 443.76,104.74 C443.625,104.02 443.4,103.705 442.68,103.345 C441.87,102.94 440.745,102.625 439.53,102.355 Z M490.41,134.35 C491.22,134.35 491.985,134.305 492.705,134.26 C492.165,131.515 490.5,129.49 488.115,129.49 C486.36,129.49 485.325,130.345 485.325,131.695 C485.325,133.45 487.44,134.35 490.41,134.35 Z M480.15,102.175 L480.69,102.13 C481.545,103.66 482.895,104.965 484.065,104.965 C485.64,104.965 489.87,103.975 492.48,103.12 C494.64,102.4 494.55,101.635 495.675,101.635 C498.195,101.635 502.335,104.965 502.335,107.215 C502.335,108.7 500.445,109.24 499.005,110.095 C495.675,112.075 490.365,116.305 488.835,117.835 C488.25,118.42 488.565,118.735 489.06,118.6 C490.275,118.285 492.75,117.16 496.485,117.16 C502.695,117.16 507.78,120.895 507.78,127.915 C507.78,134.17 502.245,139.075 492.57,139.075 C487.215,139.075 483.075,136.645 483.075,132.415 C483.075,129.13 486,127.15 489.555,127.15 C492.525,127.15 496.395,128.68 497.655,133 C500.895,131.425 502.155,128.725 502.155,125.8 C502.155,121.795 499.68,119.23 494.685,119.23 C488.7,119.23 484.515,123.955 480.69,128.95 C479.385,130.66 478.845,131.11 477.54,131.065 C476.325,131.02 475.155,129.58 475.29,127.6 C475.38,126.16 476.235,124.945 477.99,123.325 C481.005,120.58 491.13,111.04 493.74,107.8 C494.685,106.63 494.1,106.225 493.29,106.36 C491.49,106.675 489.33,108.25 487.71,109.375 C486.855,109.96 486.045,110.68 484.965,110.68 C481.86,110.68 479.61,107.035 479.61,105.28 C479.61,104.11 479.79,103.39 480.15,102.175 Z M525.855,140.38 C522.3,140.38 519.42,137.5 519.42,133.945 C519.42,130.39 522.3,127.555 525.855,127.555 C529.41,127.555 532.245,130.39 532.245,133.945 C532.245,137.5 529.41,140.38 525.855,140.38 Z M525.855,129.265 C523.245,129.265 521.13,131.38 521.13,133.945 C521.13,136.51 523.245,138.67 525.855,138.67 C528.42,138.67 530.535,136.51 530.535,133.945 C530.535,131.38 528.42,129.265 525.855,129.265 Z" id="日本を世界が憧れる-スポーツ大国にする。-copy" fill="#0F2F74"></path>
        </g>
    </g>
</svg>