<svg id="nadir_tab-icon-home" data-name="nadir_tab-icon-home 1" xmlns="http://www.w3.org/2000/svg" viewBox="0 0 152.4 152.4"><defs><style>.cls-1{fill:#999;}</style></defs><title>nadir_tab-icon-home</title><path class="cls-1" d="M636.65,377.51H584.79a5,5,0,0,1-5-5V332.75H551.12v39.76a5,5,0,0,1-5,5H494.25a5,5,0,0,1-5-5v-95.8a5,5,0,0,1,2.28-4.19l71.6-46.6a5,5,0,0,1,5.48,0l70.79,46.61a5,5,0,0,1,2.25,4.17v95.8A5,5,0,0,1,636.65,377.51Zm-46.86-10h41.86v-88.1l-65.81-43.33-66.59,43.34v88.09h41.87V327.75a5,5,0,0,1,5-5h38.67a5,5,0,0,1,5,5Z" transform="translate(-489.25 -225.11)"/></svg>
