<svg id="レイヤー_1" data-name="レイヤー 1" xmlns="http://www.w3.org/2000/svg" viewBox="0 0 137.21 137.18"><defs><style>.cls-1{fill:#999;}</style></defs><title>nadir_tab-icon-league</title><path class="cls-1" d="M591.54,404H523a4.49,4.49,0,0,0-4.49,4.49V469.7a37.91,37.91,0,0,0,34.29,37.69v24.84H531.61a4.49,4.49,0,1,0,0,9h51.3a4.49,4.49,0,1,0,0-9H561.75V507.39A37.91,37.91,0,0,0,596,469.7V408.52A4.49,4.49,0,0,0,591.54,404Zm-4.48,65.67a28.93,28.93,0,0,1-28.9,28.89h-1.79a28.92,28.92,0,0,1-28.9-28.89V413h59.59Z" transform="translate(-488.66 -404.03)"/><path class="cls-1" d="M624.61,424.07a4.48,4.48,0,0,0-3.23-1.37H603.46a4.49,4.49,0,1,0,0,9h13.08c-1.12,10.41-5,28.11-15,32.89a4.49,4.49,0,0,0,2,8.54,4.42,4.42,0,0,0,1.93-.44c19-9.09,20.41-43.84,20.47-45.31A4.54,4.54,0,0,0,624.61,424.07Z" transform="translate(-488.66 -404.03)"/><path class="cls-1" d="M515.55,427.19a4.49,4.49,0,0,0-4.49-4.49H493.15a4.49,4.49,0,0,0-4.49,4.65c0,1.47,1.51,36.22,20.46,45.31a4.49,4.49,0,1,0,3.88-8.1c-9.95-4.77-13.87-22.47-15-32.89h13.07A4.48,4.48,0,0,0,515.55,427.19Z" transform="translate(-488.66 -404.03)"/></svg>