<svg xmlns="http://www.w3.org/2000/svg" viewBox="0 0 42 42.02"><defs><style>.cls-1{fill:#efefef;fill-rule:evenodd;}.cls-2{fill:#999;}</style></defs><title>footer-icon-sns-yt</title><g id="レイヤー_2" data-name="レイヤー 2"><g id="footer-icon-sns-yt"><path class="cls-1" d="M21,0A21,21,0,1,1,0,21,21,21,0,0,1,21,0Z"/><path class="cls-2" d="M17.58,24.65h-1V24c-.4.47-.73.7-1.1.7a.66.66,0,0,1-.66-.43,2.31,2.31,0,0,1-.12-.83V19h1v4.61c0,.16.09.22.23.22s.38-.18.6-.5V19h1Z"/><path class="cls-2" d="M13.88,20.82a2.33,2.33,0,0,0-.33-1.35,1.37,1.37,0,0,0-1.16-.55,1.31,1.31,0,0,0-1.15.55,2.27,2.27,0,0,0-.33,1.36v2a2.2,2.2,0,0,0,.31,1.31,1.47,1.47,0,0,0,2.35,0,2.13,2.13,0,0,0,.31-1.31Zm-1,2.14c.05.56-.12.84-.45.84S11.9,23.52,12,23V20.71c0-.56.12-.83.44-.83s.5.27.45.83Z"/><path class="cls-2" d="M9.75,21.55v3.1H8.65v-3.1s-1.15-3.79-1.38-4.5H8.43l.77,3,.77-3h1.16Z"/><path class="cls-2" d="M34.72,17.67A3.64,3.64,0,0,0,34.07,16a2.33,2.33,0,0,0-1.65-.71c-2.3-.17-5.76-.17-5.76-.17h0s-3.45,0-5.76.17a2.3,2.3,0,0,0-1.64.71,3.58,3.58,0,0,0-.66,1.66,26.29,26.29,0,0,0-.16,2.7v1.27a26.36,26.36,0,0,0,.16,2.71A3.62,3.62,0,0,0,19.25,26a2.73,2.73,0,0,0,1.81.72c1.32.12,5.6.16,5.6.16s3.46,0,5.76-.17A2.33,2.33,0,0,0,34.07,26a3.68,3.68,0,0,0,.65-1.66,24.83,24.83,0,0,0,.17-2.71V20.37A24.77,24.77,0,0,0,34.72,17.67ZM22,24.65h-1.1V18.18H19.78V17.11h3.47v1.07H22Zm4,0H25V24a1.51,1.51,0,0,1-1.1.7.67.67,0,0,1-.66-.43,2.61,2.61,0,0,1-.11-.83V19h1.05v4.56c0,.16.09.22.22.22s.38-.18.6-.5V19H26ZM29.81,23a4.31,4.31,0,0,1-.11,1.13.81.81,0,0,1-.82.63,1.42,1.42,0,0,1-1.05-.64v.57h-1V17.11h1v2.46a1.41,1.41,0,0,1,1.05-.64.82.82,0,0,1,.8.66,3.89,3.89,0,0,1,.13,1.12Zm2.2.84a.43.43,0,0,0,.44-.41c0-.06,0-.3,0-.71h1v.16a5.69,5.69,0,0,1,0,.66,1.41,1.41,0,0,1-.23.61,1.38,1.38,0,0,1-1.21.61,1.43,1.43,0,0,1-1.21-.57,2.13,2.13,0,0,1-.34-1.3v-2a2.31,2.31,0,0,1,.33-1.35,1.42,1.42,0,0,1,1.2-.59,1.36,1.36,0,0,1,1.17.59,2.2,2.2,0,0,1,.33,1.32V22h-2v1C31.52,23.53,31.66,23.8,32,23.8Z"/><path class="cls-2" d="M28.35,19.87a.76.76,0,0,0-.52.26v3.41a.76.76,0,0,0,.52.26c.29,0,.42-.22.42-.78V20.6C28.77,20,28.64,19.87,28.35,19.87Z"/><path class="cls-2" d="M32.46,20.55c0-.52-.13-.68-.46-.68s-.48.14-.48.67v.62h.94Z"/></g></g></svg>