<svg xmlns="http://www.w3.org/2000/svg" viewBox="0 0 42 42.02"><defs><style>.cls-1{fill:#efefef;fill-rule:evenodd;}.cls-2{fill:#999;}</style></defs><title>footer-icon-sns-tw</title><g id="レイヤー_2" data-name="レイヤー 2"><g id="footer-icon-sns-tw."><path class="cls-1" d="M21,0A21,21,0,1,1,0,21,21,21,0,0,1,21,0Z"/><path class="cls-2" d="M24.27,14.71a3.31,3.31,0,0,0-3.43,3.18,3.55,3.55,0,0,0,.08.73,10,10,0,0,1-7.07-3.33,3,3,0,0,0-.47,1.6,3.14,3.14,0,0,0,1.53,2.65,3.72,3.72,0,0,1-1.56-.4v0a3.26,3.26,0,0,0,2.76,3.12,3.48,3.48,0,0,1-1.55.06,3.41,3.41,0,0,0,3.2,2.21,7.24,7.24,0,0,1-4.26,1.36,7.38,7.38,0,0,1-.82,0,10.33,10.33,0,0,0,5.26,1.43,9.35,9.35,0,0,0,9.78-9.06c0-.14,0-.28,0-.41a6.71,6.71,0,0,0,1.71-1.65,7.6,7.6,0,0,1-2,.5A3.25,3.25,0,0,0,29,14.94a7.35,7.35,0,0,1-2.18.77,3.56,3.56,0,0,0-2.51-1"/></g></g></svg>