<svg id="レイヤー_1" data-name="レイヤー 1" xmlns="http://www.w3.org/2000/svg" viewBox="0 0 582.25 58.98"><defs><style>.cls-1{fill:#fff;}</style></defs><title>名称未設定-1</title><path class="cls-1" d="M858.8,400.95V368.16c0-1.88,1.19-3.4,2.66-3.4h2.66v-9.57H843.44v9.57h2.9a3.18,3.18,0,0,1,2.9,3.4v32.79a3.41,3.41,0,0,1-3.39,3.4h-8.78a8.08,8.08,0,0,1-8.12-8.13V368.16c0-1.88,1.22-3.4,2.72-3.4h2.72v-9.57H813.71v9.57h2.84a3.16,3.16,0,0,1,2.83,3.4v35.39l2.41,2.4h0l5.57,5.56h0l2.4,2.4h34.59v-9.57h-2.78C860,404.35,858.8,402.83,858.8,400.95Z" transform="translate(-392.68 -354.96)"/><path class="cls-1" d="M914.65,396.92h-3.4v4a3.4,3.4,0,0,1-3.4,3.4h-9.09a3.4,3.4,0,0,1-3.4-3.4V368.16a3.35,3.35,0,0,1,3.29-3.4h3.29v-9.57H879.05v9.57h3.37a3.39,3.39,0,0,1,3.37,3.4v32.79a3.4,3.4,0,0,1-3.4,3.4H878.9v9.57h41.91v-17h-6.16Z" transform="translate(-392.68 -354.96)"/><path class="cls-1" d="M971.53,396.92h-6.16v4a3.4,3.4,0,0,1-3.4,3.4h-9.09a3.4,3.4,0,0,1-3.4-3.4V368.16a3.35,3.35,0,0,1,3.29-3.4h3.29v-9.57H933.16v9.57h3.37a3.39,3.39,0,0,1,3.37,3.4v32.79a3.4,3.4,0,0,1-3.4,3.4H933v9.57h41.91v-17Z" transform="translate(-392.68 -354.96)"/><path class="cls-1" d="M776.53,355.1H755.95v9.7h2.76c1.52,0,2.76,1.52,2.76,3.4v32.63c0,1.88-1.23,3.4-2.76,3.4h-2.76v9.7h46.39V393.2l-2.84-4.43-1-1.56a4.64,4.64,0,0,1,.06-5.69l1.38-2.05,2.4-3.57V355.1H776.53Zm16.1,45.74c0,1.88-.58,3.4-3.4,3.4H774.54a3.07,3.07,0,0,1-3.37-3.4v-8.08a3.45,3.45,0,0,1,3.4-3.44l5.13-.05,5.14,0a6.83,6.83,0,0,1,5.24,2.83l.72,1.13a13.69,13.69,0,0,1,1.83,6.27Zm0-31.3a13.12,13.12,0,0,1-1.9,6.23l-.28.42-.28.42a7.24,7.24,0,0,1-5.3,2.86l-1.6,0-8.7.09a3.36,3.36,0,0,1-3.4-3.37v-8a3.19,3.19,0,0,1,3.4-3.4h14.66c2.75,0,3.4,1.52,3.4,3.4Z" transform="translate(-392.68 -354.96)"/><path class="cls-1" d="M402.38,355.1h-9.7v33.33h24.4a4,4,0,0,1,4,4v7.85a4,4,0,0,1-4,4H406.35c-2.19,0-4-1.44-4-3.21v-3.21h-9.7v16.12h38.07V378.72h-24.4a4,4,0,0,1-4-4v-6a4,4,0,0,1,4-4h10.73c2.19,0,4,1.24,4,2.78v2.78h9.7V355.1H402.38Z" transform="translate(-392.68 -354.96)"/><path class="cls-1" d="M715.14,355.1H681v33.33h24.4a4,4,0,0,1,4,4v7.85a4,4,0,0,1-4,4H694.71c-2.19,0-4-1.44-4-3.21v-3.21H681v16.12h38.06V378.72h-24.4a4,4,0,0,1-4-4v-6a4,4,0,0,1,4-4h10.73c2.19,0,4,1.24,4,2.78v2.78h9.7V355.1Z" transform="translate(-392.68 -354.96)"/><path class="cls-1" d="M549.75,380.54h0L545,358.84h0l-.85-3.87H510.4l-.85,3.87h0l-1.66,7.59-3.94,18,3.22,14.72L509.55,410h0l.85,3.87h33.74L545,410h0l4.75-21.69v0l.85-3.86Zm-27.69,23.74a5.15,5.15,0,0,1-4.82-3.87l-.94-4.29-1.72-7.84a21.53,21.53,0,0,1,0-7.75l1.33-6.07,1.33-6.07a5.15,5.15,0,0,1,4.81-3.87h10.43a5.15,5.15,0,0,1,4.81,3.87L540,380.52a21.58,21.58,0,0,1,0,7.74l-2.66,12.14a5.15,5.15,0,0,1-4.81,3.87Z" transform="translate(-392.68 -354.96)"/><path class="cls-1" d="M657.41,355.1H619.73v16.38h9.7v-3.34c0-1.85,1.78-3.34,4-3.34h1.25a4,4,0,0,1,4,4v31.47c0,2.19-1.22,4-2.73,4h-4.07v9.7h23.3v-9.7h-3.54c-1.8,0-3.25-1.78-3.25-4V368.76a4,4,0,0,1,4-4h1.17c2.19,0,4,1.49,4,3.34v3.34h9.7V355.1h-9.7Z" transform="translate(-392.68 -354.96)"/><path class="cls-1" d="M468.94,355H447.5v9.55h3.17c1.75,0,3.17,1.78,3.17,4v31.83c0,2.19-1.42,4-3.17,4H447.5v9.55h21.44v-9.55h-2.77c-1.53,0-2.77-1.78-2.77-4v-5.13a4,4,0,0,1,4-4h22.5V355H468.94Zm-5.54,13.52c0-2.19,1.24-4,2.77-4h10.17a4,4,0,0,1,4,4v9.22a4,4,0,0,1-4,4h-9a4,4,0,0,1-4-4Z" transform="translate(-392.68 -354.96)"/><path class="cls-1" d="M582.1,355H560.66v9.55h3.21c1.77,0,3.21,1.78,3.21,4v45.43h9.55V396.67a4,4,0,0,1,4-4H585a5.58,5.58,0,0,1,5.07,3.81l2,6.79,2,6.79h0l1.1,3.81h9.36l-1.1-3.81h0l-.36-1.22-4.25-14.69a10.8,10.8,0,0,1,.86-7.25l3.94-6.95h0l2-3.44V355H582.1Zm-5.47,13.52c0-2.19,1.22-4,2.73-4H592a4,4,0,0,1,4,4v1.57a17.78,17.78,0,0,1-2,7.41l-1.27,2.24a7.51,7.51,0,0,1-5.92,3.45H580.6a4,4,0,0,1-4-4Z" transform="translate(-392.68 -354.96)"/></svg>