<svg xmlns="http://www.w3.org/2000/svg" viewBox="0 0 15.04 15"><defs><style>.cls-1{fill:#aaa;fill-rule:evenodd;}</style></defs><title>header-icon-search</title><g id="レイヤー_2" data-name="レイヤー 2"><g id="header"><path id="header-icon-search" class="cls-1" d="M15,13.41,11.6,9.93a6.48,6.48,0,0,0-.81-8.06,6.28,6.28,0,0,0-8.94,0,6.46,6.46,0,0,0,0,9.06,6.27,6.27,0,0,0,8.22.62L13.47,15ZM3.42,9.34a4.18,4.18,0,0,1,0-5.88,4.06,4.06,0,0,1,5.81,0,4.2,4.2,0,0,1,0,5.88A4.06,4.06,0,0,1,3.42,9.34Z"/></g></g></svg>