<svg id="レイヤー_1" data-name="レイヤー 1" xmlns="http://www.w3.org/2000/svg" viewBox="0 0 147.76 147.76"><defs><style>.cls-1{fill:#0e357f;}</style></defs><title>icon-tennis</title><path class="cls-1" d="M450.47,490.21a4.73,4.73,0,0,1-3.5-7.92c1.51-2.57,2.43-15,3.1-24,.49-6.61,1-13.45,1.77-19.46a4.73,4.73,0,1,1,9.38,1.21c-.74,5.76-1.24,12.46-1.72,19-1.37,18.53-2.27,26.42-5.69,29.84A4.68,4.68,0,0,1,450.47,490.21Zm-3.35-8.07Z" transform="translate(-410.95 -386.11)"/><path class="cls-1" d="M444.22,514.21a4.71,4.71,0,0,1-2.12-.5l-11.83-5.93a4.73,4.73,0,0,1,4.24-8.46l11.83,5.93a4.73,4.73,0,0,1-2.12,9Z" transform="translate(-410.95 -386.11)"/><path class="cls-1" d="M453.05,505.38a4.68,4.68,0,0,1-2.11-.51l-11.83-5.93a4.73,4.73,0,0,1,4.24-8.45l8.78,4.4L456,491c3.42-3.42,11.3-4.32,29.83-5.7,7.62-.56,15.5-1.15,21.82-2.12a4.73,4.73,0,1,1,1.45,9.34c-6.69,1-14.76,1.64-22.57,2.21-9,.67-21.37,1.59-24,3.09L456.4,504A4.73,4.73,0,0,1,453.05,505.38Z" transform="translate(-410.95 -386.11)"/><path class="cls-1" d="M426.65,533.87a12.83,12.83,0,0,1-2.2-.19,17.22,17.22,0,0,1-13.3-13.31,10,10,0,0,1,12.1-12.1,16.6,16.6,0,0,1,8.62,4.68,15.71,15.71,0,0,1,4.88,10.84,10.13,10.13,0,0,1-2.86,7.23h0A10.09,10.09,0,0,1,426.65,533.87ZM421,517.52a1,1,0,0,0-.51.1c-.25.36-.14,2.53,2,4.69s4.33,2.28,4.7,2,.12-2.55-2-4.69A6.45,6.45,0,0,0,421,517.52Zm6.21,6.81Z" transform="translate(-410.95 -386.11)"/><path class="cls-1" d="M431.79,526.64a4.72,4.72,0,0,1-3.34-8.07l3.76-3.77a4.73,4.73,0,0,1,6.69,6.7l-3.77,3.76A4.71,4.71,0,0,1,431.79,526.64Z" transform="translate(-410.95 -386.11)"/><path class="cls-1" d="M504.18,492.25a51.74,51.74,0,0,1-36.77-14.84,52.29,52.29,0,0,1-14.92-38,4.73,4.73,0,0,1,9.46.2,42.81,42.81,0,0,0,12.15,31.11c16.54,16.53,44.93,16.09,62-1a44.74,44.74,0,0,0,13.14-31.44,42.25,42.25,0,0,0-12.16-30.57c-11.44-11.44-29.17-15.21-45.17-9.6a4.73,4.73,0,1,1-3.13-8.93c19.4-6.8,41-2.15,55,11.84a51.63,51.63,0,0,1,14.92,37.34,54.17,54.17,0,0,1-54.52,53.87Z" transform="translate(-410.95 -386.11)"/><path class="cls-1" d="M480.47,469.08a4.74,4.74,0,0,1-3.34-8.08l50.24-50.23a4.73,4.73,0,0,1,6.69,6.68l-50.24,50.24A4.74,4.74,0,0,1,480.47,469.08Z" transform="translate(-410.95 -386.11)"/><path class="cls-1" d="M493.64,477.27a4.73,4.73,0,0,1-3.35-8.07l45.27-45.27a4.73,4.73,0,1,1,6.69,6.69L497,475.89A4.71,4.71,0,0,1,493.64,477.27Z" transform="translate(-410.95 -386.11)"/><path class="cls-1" d="M513.71,478.57a4.73,4.73,0,0,1-3.34-8.07L536.86,444a4.73,4.73,0,0,1,6.69,6.69l-26.5,26.49A4.68,4.68,0,0,1,513.71,478.57Z" transform="translate(-410.95 -386.11)"/><path class="cls-1" d="M498.83,429.36a4.73,4.73,0,0,1-3.35-8.07l18.72-18.72a4.73,4.73,0,1,1,6.69,6.69L502.17,428A4.71,4.71,0,0,1,498.83,429.36Z" transform="translate(-410.95 -386.11)"/><path class="cls-1" d="M531,469.4a4.68,4.68,0,0,1-3.34-1.39l-33.33-33.32a4.73,4.73,0,0,1,6.69-6.69l33.32,33.33A4.73,4.73,0,0,1,531,469.4Z" transform="translate(-410.95 -386.11)"/><path class="cls-1" d="M537.5,455.2a4.71,4.71,0,0,1-3.34-1.38L494.35,414a4.73,4.73,0,0,1,6.69-6.69l39.8,39.81a4.73,4.73,0,0,1-3.34,8.07Z" transform="translate(-410.95 -386.11)"/><path class="cls-1" d="M541,438.06a4.71,4.71,0,0,1-3.34-1.38l-29.54-29.54a4.73,4.73,0,1,1,6.69-6.68L544.37,430a4.73,4.73,0,0,1-3.35,8.07Z" transform="translate(-410.95 -386.11)"/><path class="cls-1" d="M516.84,475.87a4.76,4.76,0,0,1-3.35-1.39l-29-29a4.73,4.73,0,0,1,6.69-6.68l29,29a4.73,4.73,0,0,1-3.34,8.07Z" transform="translate(-410.95 -386.11)"/><path class="cls-1" d="M499.7,479.39a4.72,4.72,0,0,1-3.35-1.39l-24.47-24.48a4.72,4.72,0,1,1,6.68-6.68L503,471.32a4.73,4.73,0,0,1-3.34,8.07Z" transform="translate(-410.95 -386.11)"/><path class="cls-1" d="M463.32,445.07a28.45,28.45,0,1,1,28.45-28.45A28.48,28.48,0,0,1,463.32,445.07Zm0-47.44a19,19,0,1,0,19,19A19,19,0,0,0,463.32,397.63Z" transform="translate(-410.95 -386.11)"/><path class="cls-1" d="M457.07,431.08a4.72,4.72,0,0,1-4.43-6.37,15.54,15.54,0,0,0-.37-11.69,14.28,14.28,0,0,0-8.54-7.41,4.73,4.73,0,0,1,3.22-8.89,23.71,23.71,0,0,1,13.9,12.33,24.86,24.86,0,0,1,.66,18.95A4.75,4.75,0,0,1,457.07,431.08Z" transform="translate(-410.95 -386.11)"/><path class="cls-1" d="M474.16,427.53a4.73,4.73,0,0,1-4.62-3.72c-.15-.69-3.47-16.84,10-25.63a4.73,4.73,0,1,1,5.18,7.91c-8.05,5.27-5.92,15.61-5.9,15.71a4.72,4.72,0,0,1-3.61,5.62A4.4,4.4,0,0,1,474.16,427.53Z" transform="translate(-410.95 -386.11)"/></svg>