<svg id="レイヤー_1" data-name="レイヤー 1" xmlns="http://www.w3.org/2000/svg" viewBox="0 0 147.76 147.76"><defs><style>.cls-1{fill:#0e357f;}</style></defs><title>icon-basketball</title><path class="cls-1" d="M144.7,196.12a73.88,73.88,0,1,1,73.88-73.88A74,74,0,0,1,144.7,196.12Zm0-138.3a64.43,64.43,0,1,0,64.43,64.42A64.49,64.49,0,0,0,144.7,57.82Z" transform="translate(-70.82 -48.36)"/><path class="cls-1" d="M95.8,175.87a4.71,4.71,0,0,1-3.34-1.38c-4.21-4.22-1.74-11.38,8.81-25.55,8-10.77,19.71-24,32.93-37.19,16-16,32.3-30,43.61-37.45a4.72,4.72,0,1,1,5.2,7.89c-10.81,7.13-26.56,20.68-42.12,36.25-27.44,27.43-39.76,46-40.81,50.67a4.73,4.73,0,0,1-4.28,6.76Z" transform="translate(-70.82 -48.36)"/><path class="cls-1" d="M187.68,178c-5.43,0-12.37-2.3-20.77-6.9-12.31-6.75-26.45-17.83-39.82-31.2-15.81-15.81-28.32-32.6-34.3-46.05A4.73,4.73,0,1,1,101.43,90c5.45,12.25,17.54,28.4,32.35,43.2,12.75,12.75,26.13,23.26,37.68,29.6,12.62,6.92,17.84,6,18.79,5a4.73,4.73,0,0,1,6.69,6.69A12.55,12.55,0,0,1,187.68,178Z" transform="translate(-70.82 -48.36)"/><path class="cls-1" d="M135.39,182a4.74,4.74,0,0,1-4.21-2.57c-8.52-16.57-8.18-30.74,1-41,14.23-15.9,44.76-20.17,67.87-21h.16a4.73,4.73,0,0,1,.16,9.45c-17.41.59-48.51,3.68-61.15,17.8-6.42,7.18-6.3,17.39.37,30.35a4.72,4.72,0,0,1-2,6.37A4.66,4.66,0,0,1,135.39,182Z" transform="translate(-70.82 -48.36)"/><path class="cls-1" d="M90.7,130.25c-1,0-1.93,0-2.91-.11a4.73,4.73,0,0,1,.69-9.43,27.35,27.35,0,0,0,20.62-6.87c12.28-10.66,18.44-33.81,21-46.67A4.73,4.73,0,0,1,139.4,69C136,86.18,129,109.1,115.29,121A36.91,36.91,0,0,1,90.7,130.25Z" transform="translate(-70.82 -48.36)"/></svg>