<svg xmlns="http://www.w3.org/2000/svg" viewBox="0 0 52 26"><defs><style>.cls-1{fill:#0e357f;fill-rule:evenodd;}.cls-2{fill:#fff;}</style></defs><title>icon-movie</title><g id="レイヤー_2" data-name="レイヤー 2"><g id="common"><g id="icon-movie"><path class="cls-1" d="M4,0H48a4,4,0,0,1,4,4V22a4,4,0,0,1-4,4H4a4,4,0,0,1-4-4V4A4,4,0,0,1,4,0Z"/><path class="cls-2" d="M14.77,8.11H12.82A8.92,8.92,0,0,1,11.33,8V9.51a9,9,0,0,1,1.49-.08h1.95v.69H13.39c-.7,0-1.12,0-1.57,0a13.06,13.06,0,0,1,0,1.45v2.07a14.19,14.19,0,0,1,0,1.52c.45,0,.84,0,1.56,0h1.39v.71H13.14a10.11,10.11,0,0,1-1.51-.08v1.5a14,14,0,0,1,1.49-.06h1.65V18c-1.7.09-2,.11-2.72.11a7.49,7.49,0,0,1-.83,0l.28,1.71c.39-.06.63-.1.93-.13,2.93-.22,4.1-.35,6.29-.67A4.76,4.76,0,0,1,20,20.26a10.71,10.71,0,0,0,1.28-2.09,5,5,0,0,1,.37,1.73l1.28,0c1.2,0,1.71-.24,2-.94.4-.93.61-3.19.69-7.32a26.2,26.2,0,0,1,.11-3,14.9,14.9,0,0,1-1.51.06H22.82A19.21,19.21,0,0,1,23,5.54H21.11a10.39,10.39,0,0,1,.09,2c0,.5,0,.77,0,1.17H21a8.17,8.17,0,0,1-1.14-.06V10.4a11.44,11.44,0,0,1,1.33-.06,23.84,23.84,0,0,1-.42,4.23,11,11,0,0,1-1.52,3.68v-.69c-1.5.21-2,.27-2.88.35v-.78h1.8a4.4,4.4,0,0,1,1.12.08V15.7a10.43,10.43,0,0,1-1.51.07H16.32v-.71h1.49c.75,0,1.07,0,1.44,0,0-.2,0-.68-.05-1.45V11.48a13.08,13.08,0,0,1,.05-1.41,12.84,12.84,0,0,1-1.34,0H16.32V9.43h2a5.53,5.53,0,0,1,1.16.06V8A8,8,0,0,1,18,8.11H16.32V7.22c.8-.11,1.6-.24,2.2-.35.2,0,.73-.13.88-.15l-1-1.31c-1.09.51-3.85.85-7,.86A5.8,5.8,0,0,1,12,7.55c1.2-.06,1.65-.09,2.75-.19Zm0,3.21V12H13.38v-.67Zm1.55,0h1.4V12h-1.4Zm-1.55,1.84v.7H13.38v-.7Zm1.55,0h1.4v.7h-1.4ZM24,10.34c0,.53,0,.62,0,1.12,0,1.3,0,1.3,0,1.86a31.68,31.68,0,0,1-.22,3.31c-.19,1.49-.31,1.68-1,1.68a8.26,8.26,0,0,1-1.41-.16c1-2.14,1.35-4,1.51-7.81Z"/><path class="cls-2" d="M33.75,7.49V8.92H31.89a9.26,9.26,0,0,1-1.31-.07,8.65,8.65,0,0,1,.06,1.2v5.73A7.85,7.85,0,0,1,30.58,17,9.94,9.94,0,0,1,32,16.9h5.17A9.91,9.91,0,0,1,38.6,17a7.33,7.33,0,0,1-.07-1.19V10.05a8.06,8.06,0,0,1,.07-1.2,9.42,9.42,0,0,1-1.32.07h-1.9V7.49h4.51a17.35,17.35,0,0,1,2,.1V5.83c-.63.06-1.25.09-2,.09H29.31a18.41,18.41,0,0,1-1.93-.09V7.59a17.66,17.66,0,0,1,2-.1Zm0,2.91v1.68H32.19V10.4Zm1.63,0H37v1.68H35.38Zm-1.63,3.12v2H32.19v-2Zm1.63,0H37v2H35.38Zm4.23-4.36a8.64,8.64,0,0,1,.08,1.39V18H29.51V10.58a10,10,0,0,1,.06-1.42H27.71a14.19,14.19,0,0,1,.1,1.77v7.2a19.28,19.28,0,0,1-.1,2.13h1.83v-.75h10.1v.75h1.85a17.34,17.34,0,0,1-.11-2.14V11a15.34,15.34,0,0,1,.1-1.79Z"/></g></g></g></svg>