<svg xmlns="http://www.w3.org/2000/svg" viewBox="0 0 147.36 147.76"><defs><style>.cls-1{fill:#0e357f;}.cls-2{fill:#cc141d;}</style></defs><title>icon-logo</title><g id="レイヤー_2" data-name="レイヤー 2"><g id="icon-logo"><path class="cls-1" d="M143.61,0H0V147.76H147.36V0Zm-3.75,135.53a4.73,4.73,0,0,1-4.73,4.73H12.23a4.73,4.73,0,0,1-4.73-4.73V12.23A4.73,4.73,0,0,1,12.23,7.5h122.9a4.73,4.73,0,0,1,4.73,4.73Z"/><path class="cls-2" d="M108,109.58h-4.45v2.91a2.46,2.46,0,0,1-2.46,2.45H94.53a2.46,2.46,0,0,1-2.46-2.45V88.83a2.42,2.42,0,0,1,2.38-2.46h2.37v-6.9H80.31v6.9h2.43a2.44,2.44,0,0,1,2.43,2.46v23.66a2.45,2.45,0,0,1-2.45,2.45H80.21v6.9h30.23V109.58Z"/><path class="cls-2" d="M49.89,79.41H35.05v7h2a2.26,2.26,0,0,1,2,2.45V112.4a2.26,2.26,0,0,1-2,2.46h-2v7H68.51v-15l-2.05-3.2-.72-1.13a3.35,3.35,0,0,1,0-4.1l1-1.48,1.73-2.58v-15H49.89Zm11.62,33c0,1.36-.42,2.46-2.46,2.46H48.45A2.22,2.22,0,0,1,46,112.4v-5.83a2.49,2.49,0,0,1,2.46-2.48l3.7,0,3.71,0a4.93,4.93,0,0,1,3.77,2l.52.82a9.73,9.73,0,0,1,1.33,4.52Zm0-22.58a9.55,9.55,0,0,1-1.37,4.5l-.2.3-.21.3A5.2,5.2,0,0,1,55.91,97H54.75l-6.27.06A2.42,2.42,0,0,1,46,94.62V88.86a2.3,2.3,0,0,1,2.45-2.45H59.05c2,0,2.46,1.1,2.46,2.45Z"/><path class="cls-1" d="M45.08,25.92h-7.3V51H56.13a3,3,0,0,1,3,3v5.9a3,3,0,0,1-3,3H48.07a2.76,2.76,0,0,1-3-2.42V58h-7.3V70.15H66.41V43.69H48.07a3,3,0,0,1-3-3V36.2a3,3,0,0,1,3-3h8.06c1.65,0,3,.94,3,2.09V37.4h7.29V25.92H45.08Z"/><path class="cls-1" d="M96.59,25.9H80.46v7.19h2.39c1.32,0,2.38,1.33,2.38,3V60a2.73,2.73,0,0,1-2.38,3H80.46v7.19H96.59V63H94.51c-1.16,0-2.09-1.34-2.09-3V56.15a3,3,0,0,1,3-3h16.92V25.9H96.59ZM92.42,36.07c0-1.65.93-3,2.09-3h7.64a3,3,0,0,1,3,3V43a3,3,0,0,1-3,3H95.4a3,3,0,0,1-3-3Z"/></g></g></svg>