<svg xmlns="http://www.w3.org/2000/svg" viewBox="0 0 144.97 142.4"><defs><style>.cls-1{fill:#0e357f;}</style></defs><title>icon-dance</title><g id="レイヤー_2" data-name="レイヤー 2"><g id="icon-dance"><path class="cls-1" d="M18.57,129.85a4.85,4.85,0,0,1-2.18-9.17l93.26-46.93c11.54-5.8,18.87-10.89,15.73-28A4.84,4.84,0,0,1,134.91,44c4.67,25.57-11.34,33.63-20.9,38.44L20.75,129.33A4.85,4.85,0,0,1,18.57,129.85Z"/><path class="cls-1" d="M20.41,142.4a20.23,20.23,0,0,1-16.36-7.57C-1.18,128.13-3,115.39,9,101.54c26.4-30.54,39-50.87,34.31-77.27a4.88,4.88,0,0,1,.83-3.65c2.49-3.49,5.38-5.5,8.6-6,5.13-.75,9.34,2.51,13.06,5.4,4.23,3.29,7,5.21,9.88,4.13,7.53-2.82,22.68-17.35,27.87-22.71a4.85,4.85,0,0,1,7.8,1.19l9.85,19.57a4.84,4.84,0,0,1-8.65,4.36L105.66,13C99,19.44,87,30.26,79,33.24c-8.14,3-14.54-1.92-19.21-5.54-1.86-1.45-4.69-3.65-5.72-3.48a2.23,2.23,0,0,0-.93.62c4.21,29-9.82,51.72-36.89,83-6.7,7.75-8.51,16-4.6,21,3.49,4.48,10.62,5.09,17.71,1.52l93.27-46.93c7.47-3.76,11.4-7.66,12.37-12.27,1.5-7.16-3.77-18.1-15.69-32.52a4.84,4.84,0,0,1,7.46-6.17c14.28,17.28,19.9,30.2,17.7,40.68-2.13,10.14-11,15.66-17.49,18.92L33.75,139.05A29.91,29.91,0,0,1,20.41,142.4Z"/><path class="cls-1" d="M75.12,49.32c-7.38,0-13.22-3.2-17.37-6a4.84,4.84,0,0,1,5.41-8c6.67,4.5,12.18,5.43,18.41,3.1C89.18,35.54,105.4,21.2,111,15.91a4.84,4.84,0,1,1,6.64,7C115.44,25,95.77,43.41,85,47.45A27.75,27.75,0,0,1,75.12,49.32Z"/><path class="cls-1" d="M35.09,102.43a4.81,4.81,0,0,1-2.36-.62l-11.28-6.3a4.84,4.84,0,0,1,4.72-8.45l11.28,6.31a4.84,4.84,0,0,1-2.36,9.06Z"/><path class="cls-1" d="M45.15,90a4.91,4.91,0,0,1-2.36-.61L30.91,82.77a4.84,4.84,0,0,1,4.72-8.45L47.52,81A4.84,4.84,0,0,1,45.15,90Z"/><path class="cls-1" d="M55.21,77.63A4.81,4.81,0,0,1,52.85,77L39,69.26a4.84,4.84,0,1,1,4.73-8.45l13.88,7.75a4.84,4.84,0,0,1-2.36,9.07Z"/><path class="cls-1" d="M65.26,65.23a4.91,4.91,0,0,1-2.36-.61L44.68,54.42A4.84,4.84,0,1,1,49.4,46L67.63,56.17a4.84,4.84,0,0,1-2.37,9.06Z"/><path class="cls-1" d="M101.17,142.4H6.9a4.84,4.84,0,0,1,0-9.68h94.27a4.84,4.84,0,0,1,0,9.68Z"/><path class="cls-1" d="M123.67,142.4h-8.44a4.84,4.84,0,0,1,0-9.68h8.44a4.84,4.84,0,0,1,0,9.68Z"/></g></g></svg>