<svg id="レイヤー_1" data-name="レイヤー 1" xmlns="http://www.w3.org/2000/svg" viewBox="0 0 147.76 147.75"><defs><style>.cls-1{fill:#0e357f;}</style></defs><title>icon-baseball</title><path class="cls-1" d="M138.29,533.87A73.88,73.88,0,1,1,212.17,460,74,74,0,0,1,138.29,533.87Zm0-138.3A64.43,64.43,0,1,0,202.71,460,64.49,64.49,0,0,0,138.29,395.57Z" transform="translate(-64.41 -386.12)"/><path class="cls-1" d="M180.81,502.38a6.39,6.39,0,0,1-4.53-1.87,6.51,6.51,0,0,1-1.87-4.53,6.81,6.81,0,0,1,.13-1.25,6.27,6.27,0,0,1,.36-1.19,6.68,6.68,0,0,1,.59-1.12,7.24,7.24,0,0,1,.79-.95,6.58,6.58,0,0,1,5.79-1.77,5.6,5.6,0,0,1,1.2.39,6.08,6.08,0,0,1,1.11.56,10.53,10.53,0,0,1,1,.82,7.24,7.24,0,0,1,.79.95,6.68,6.68,0,0,1,.59,1.12,7.7,7.7,0,0,1,.36,1.19,6.81,6.81,0,0,1,.13,1.25,6.51,6.51,0,0,1-1.87,4.53A6.4,6.4,0,0,1,180.81,502.38Z" transform="translate(-64.41 -386.12)"/><path class="cls-1" d="M167.16,485v0h0a6.45,6.45,0,0,1,3.51-8.38h0a6.44,6.44,0,0,1,8.35,3.49h0a6.45,6.45,0,0,1-3.48,8.37h0a6.93,6.93,0,0,1-2.43.49h0A6.43,6.43,0,0,1,167.16,485Zm-4.35-16.52h0a6.4,6.4,0,0,1,5.53-7.17h0a6.41,6.41,0,0,1,7.17,5.54h0a6.44,6.44,0,0,1-5.53,7.17h0c-.28,0-.56.05-.84.05h0A6.39,6.39,0,0,1,162.81,468.52Zm5.53-9.88a6.4,6.4,0,0,1-5.53-7.17h0a6.39,6.39,0,0,1,7.15-5.54h0a6.4,6.4,0,0,1,5.55,7.15h0a6.42,6.42,0,0,1-6.35,5.61h0C168.91,458.69,168.62,458.66,168.34,458.64Zm2.31-15.37a6.41,6.41,0,0,1-3.49-8.35h0a6.43,6.43,0,0,1,8.38-3.48h0a6.42,6.42,0,0,1,3.48,8.35h0a6.4,6.4,0,0,1-5.94,4h0A6.39,6.39,0,0,1,170.65,443.27Z" transform="translate(-64.41 -386.12)"/><path class="cls-1" d="M180.81,430.39a6.38,6.38,0,0,1-6.4-6.4,6.34,6.34,0,0,1,1.87-4.51,6.06,6.06,0,0,1,1-.8,7.07,7.07,0,0,1,1.11-.61,6.93,6.93,0,0,1,1.2-.36,7.06,7.06,0,0,1,2.51,0,6.93,6.93,0,0,1,1.2.36,6.75,6.75,0,0,1,2.08,1.41,6.55,6.55,0,0,1,1.38,2.07,7.31,7.31,0,0,1,.36,1.21,6,6,0,0,1,0,2.48,7.31,7.31,0,0,1-.36,1.21,5.83,5.83,0,0,1-.59,1.1,6.3,6.3,0,0,1-.79,1A6.44,6.44,0,0,1,180.81,430.39Z" transform="translate(-64.41 -386.12)"/><path class="cls-1" d="M95.76,502.38a6.35,6.35,0,0,1-4.51-1.87,5,5,0,0,1-.79-1,5.53,5.53,0,0,1-.59-1.1,5.46,5.46,0,0,1-.49-2.46,7.7,7.7,0,0,1,.1-1.25,7.2,7.2,0,0,1,.39-1.19,6.68,6.68,0,0,1,.59-1.12,6,6,0,0,1,.79-.95,6.08,6.08,0,0,1,1-.82,5.17,5.17,0,0,1,1.1-.56,5.1,5.1,0,0,1,1.2-.39,6.5,6.5,0,0,1,5.76,1.77,5.52,5.52,0,0,1,.8.95,7.51,7.51,0,0,1,.59,1.12,4.63,4.63,0,0,1,.35,1.19,4.92,4.92,0,0,1,.13,1.25,6.38,6.38,0,0,1-6.4,6.4Z" transform="translate(-64.41 -386.12)"/><path class="cls-1" d="M101.06,488.55a6.4,6.4,0,0,1-3.48-8.37h0a6.42,6.42,0,0,1,8.35-3.49h0a6.38,6.38,0,0,1,3.48,8.35v0a6.43,6.43,0,0,1-5.92,4h0A6.71,6.71,0,0,1,101.06,488.55Zm5.56-14.49a6.4,6.4,0,0,1-5.53-7.17h0a6.39,6.39,0,0,1,7.17-5.54h0a6.41,6.41,0,0,1,5.53,7.17h0a6.43,6.43,0,0,1-6.35,5.59h0C107.18,474.11,106.9,474.08,106.62,474.06Zm-5.53-21h0a6.37,6.37,0,0,1,5.53-7.15h0a6.41,6.41,0,0,1,7.17,5.54h0a6.41,6.41,0,0,1-5.53,7.17h0c-.28,0-.56.05-.85.05h0A6.38,6.38,0,0,1,101.09,453.08Zm-3.51-13.29a6.37,6.37,0,0,1,3.48-8.35h0a6.4,6.4,0,0,1,8.35,3.48h0a6.36,6.36,0,0,1-3.48,8.35h0a6.36,6.36,0,0,1-2.44.49h0A6.37,6.37,0,0,1,97.58,439.79Z" transform="translate(-64.41 -386.12)"/><path class="cls-1" d="M95.76,430.39a6.39,6.39,0,0,1-4.51-1.87,5.32,5.32,0,0,1-.79-1,5.83,5.83,0,0,1-.59-1.1,5.86,5.86,0,0,1-.51-2.46,7.32,7.32,0,0,1,.12-1.23,7.42,7.42,0,0,1,.39-1.21,5.83,5.83,0,0,1,.59-1.1,5,5,0,0,1,.79-1,4.76,4.76,0,0,1,1-.8,5.86,5.86,0,0,1,1.1-.61,6.43,6.43,0,0,1,3.68-.36,7.31,7.31,0,0,1,1.21.36,6.19,6.19,0,0,1,1.1.61,4.7,4.7,0,0,1,1,.8,6.39,6.39,0,0,1-4.53,10.91Z" transform="translate(-64.41 -386.12)"/></svg>