<svg id="レイヤー_1" data-name="レイヤー 1" xmlns="http://www.w3.org/2000/svg" viewBox="0 0 147.75 106.58"><defs><style>.cls-1{fill:#0e357f;}</style></defs><title>icon-golf</title><path class="cls-1" d="M665.48,508.1a4.73,4.73,0,0,1-.27-9.45c21-1.21,37.38-10.89,45-26.53L732,427.39a4.73,4.73,0,1,1,8.5,4.14l-21.78,44.73c-9.17,18.81-28.47,30.41-53,31.83Z" transform="translate(-593.22 -414.05)"/><path class="cls-1" d="M642,506.7a4.29,4.29,0,0,1-.79-.07A121.38,121.38,0,0,1,621,501.41c-14.22-5-23.73-16.93-26.78-33.56-2.69-14.69.26-31.52,6.45-36.75,5.74-4.86,16.23-6.34,29.54-4.19a4.73,4.73,0,1,1-1.51,9.33c-12.05-1.95-19.23-.2-21.92,2.08-2.22,1.86-5.73,14.31-3.26,27.82,1.71,9.31,6.67,21.43,20.63,26.35a111.75,111.75,0,0,0,18.65,4.82,4.73,4.73,0,0,1-.78,9.39Z" transform="translate(-593.22 -414.05)"/><path class="cls-1" d="M697.59,466.8a14.66,14.66,0,0,1-6.52-1.66,4.73,4.73,0,0,1,4.24-8.46,4.4,4.4,0,0,0,2.88.57,4.75,4.75,0,0,0,2.16-2.51L717.77,419a4.73,4.73,0,0,1,8.5,4.14l-17.42,35.77c-1.83,3.77-4.4,6.23-7.63,7.33A11.36,11.36,0,0,1,697.59,466.8Z" transform="translate(-593.22 -414.05)"/><path class="cls-1" d="M653.6,481.83a33.89,33.89,0,1,1,22.3-8.38,4.73,4.73,0,0,1-6.23-7.12,24.29,24.29,0,1,0-8.49,4.84,4.73,4.73,0,1,1,2.94,9A33.66,33.66,0,0,1,653.6,481.83Z" transform="translate(-593.22 -414.05)"/><path class="cls-1" d="M641.85,446.78a6.38,6.38,0,0,1-6.4-6.41,7.29,7.29,0,0,1,.1-1.23,7,7,0,0,1,.39-1.2,5.53,5.53,0,0,1,.59-1.1,4.66,4.66,0,0,1,.79-1,6.6,6.6,0,0,1,9,0,6.34,6.34,0,0,1,1.9,4.5,6.48,6.48,0,0,1-.13,1.26,6.23,6.23,0,0,1-.39,1.2,5.24,5.24,0,0,1-.58,1.1,5,5,0,0,1-.8,1A6.37,6.37,0,0,1,641.85,446.78Z" transform="translate(-593.22 -414.05)"/><path class="cls-1" d="M660.11,442.14a6.38,6.38,0,0,1-6.4-6.4,5.4,5.4,0,0,1,.13-1.26,6.15,6.15,0,0,1,.36-1.2,6.51,6.51,0,0,1,.59-1.1,7.53,7.53,0,0,1,.79-1,6.62,6.62,0,0,1,9,0,5.84,5.84,0,0,1,.82,1,9.71,9.71,0,0,1,.59,1.1,6.93,6.93,0,0,1,.36,1.2,6.74,6.74,0,0,1,.13,1.26,6.44,6.44,0,0,1-6.41,6.4Z" transform="translate(-593.22 -414.05)"/><path class="cls-1" d="M637.83,467.16a6.38,6.38,0,0,1-6.4-6.4,6.74,6.74,0,0,1,.13-1.26,6.24,6.24,0,0,1,1-2.3,9,9,0,0,1,.79-1,10.28,10.28,0,0,1,1-.8,7.31,7.31,0,0,1,1.1-.59,7.93,7.93,0,0,1,1.21-.36,7.06,7.06,0,0,1,2.51,0,6.24,6.24,0,0,1,2.3.95,9.26,9.26,0,0,1,1,.8,9,9,0,0,1,.79,1,7.31,7.31,0,0,1,.59,1.1,7.5,7.5,0,0,1,.36,1.2,5.38,5.38,0,0,1,.12,1.26,6.54,6.54,0,0,1-1.86,4.53,9.26,9.26,0,0,1-1,.8,6.86,6.86,0,0,1-1.1.59,6.13,6.13,0,0,1-1.2.35A6.74,6.74,0,0,1,637.83,467.16Z" transform="translate(-593.22 -414.05)"/><path class="cls-1" d="M649.77,457.71a6.4,6.4,0,0,1,4.63-7.78h0a6.43,6.43,0,0,1,7.79,4.63h0a6.41,6.41,0,0,1-4.64,7.79h0a6.6,6.6,0,0,1-1.59.2h0A6.42,6.42,0,0,1,649.77,457.71Z" transform="translate(-593.22 -414.05)"/><path class="cls-1" d="M674.13,457.92a6.38,6.38,0,0,1-6.41-6.41,5.31,5.31,0,0,1,.13-1.25,6.15,6.15,0,0,1,.36-1.2,6.23,6.23,0,0,1,.59-1.11,7,7,0,0,1,.79-1,6.65,6.65,0,0,1,9.07,0,10.16,10.16,0,0,1,.79,1,9.06,9.06,0,0,1,.59,1.11,6.93,6.93,0,0,1,.36,1.2,6.63,6.63,0,0,1,.13,1.25,6.38,6.38,0,0,1-6.4,6.41Z" transform="translate(-593.22 -414.05)"/><path class="cls-1" d="M653.6,520.64a4.73,4.73,0,0,1-4.73-4.73V488.7a4.73,4.73,0,0,1,9.46,0v27.21A4.73,4.73,0,0,1,653.6,520.64Z" transform="translate(-593.22 -414.05)"/><path class="cls-1" d="M660.79,493.43H646.4a4.73,4.73,0,0,1,0-9.46h14.39a4.73,4.73,0,1,1,0,9.46Z" transform="translate(-593.22 -414.05)"/></svg>