<svg xmlns="http://www.w3.org/2000/svg" viewBox="0 0 13 15.01"><defs><style>.cls-1{fill:none;stroke:#555;stroke-miterlimit:10;}.cls-1,.cls-2{fill-rule:evenodd;}.cls-2{fill:#555;}</style></defs><title>icon-info</title><g id="レイヤー_2" data-name="レイヤー 2"><g id="common"><g id="icon-info"><path class="cls-1" d="M11.76,10.49a46.85,46.85,0,0,0-5.26-.31,46.71,46.71,0,0,0-5.26.31C0,10.64.67,9.11.67,9.11S1.94,6.69,2,6.53C2.18,3.07,4.23,1.94,5.5,1.58V1.41A1,1,0,0,1,6.5.5a1,1,0,0,1,1,.91v.17c1.27.36,3.32,1.49,3.55,5,0,.16,1.27,2.58,1.27,2.58S13,10.64,11.76,10.49Z"/><path class="cls-2" d="M6.5.5A1.08,1.08,0,0,1,7.57,1.6a1.08,1.08,0,1,1-2.15,0A1.09,1.09,0,0,1,6.5.5Z"/><path class="cls-1" d="M6.53,11.51a14.53,14.53,0,0,1,2.92.56,1.74,1.74,0,0,1,.05.39c0,1.16-1.41,2.08-3.06,2s-3-1-2.93-2.17A1.34,1.34,0,0,1,3.58,12,12.89,12.89,0,0,1,6.53,11.51Z"/></g></g></g></svg>
