<svg xmlns="http://www.w3.org/2000/svg" viewBox="0 0 147.76 131.26"><defs><style>.cls-1{fill:#0e357f;}</style></defs><title>icon-cup</title><g id="レイヤー_2" data-name="レイヤー 2"><g id="icon-cup"><path class="cls-1" d="M73.88,80.86C41.56,80.86,34.42,50.79,31.37,38,27.4,21.2,23.23,21.2,21.22,21.2a4.73,4.73,0,0,1,0-9.46c12,0,16.54,12.15,19.35,24C45,54.28,52,71.41,73.88,71.41s28.91-17.13,33.31-35.65c4-17.06,9.64-24,19.34-24a4.73,4.73,0,0,1,0,9.46c-2.31,0-6.18,0-10.14,16.75C113.34,50.79,106.2,80.86,73.88,80.86Z"/><path class="cls-1" d="M94.48,93.86h-.33c-7.26-.51-9.86-4.75-11.57-7.56S80,82,73.87,82s-7.06,1.62-8.69,4.3-4.31,7-11.58,7.56A4.73,4.73,0,0,1,53,84.41c2.39-.17,2.77-.78,4.15-3,2.73-4.47,6.27-8.82,16.77-8.82s14,4.35,16.78,8.82c1.39,2.27,1.76,2.88,4.16,3a4.73,4.73,0,0,1-.33,9.45Z"/><path class="cls-1" d="M111.75,77.66a4.73,4.73,0,0,1-4.39-3c-1.63-4-.42-10.24,8.35-14.47,18-8.66,23.36-17.84,22.51-23.07-.33-2-1.54-3.08-2.54-3.21a4.9,4.9,0,0,0-4,1.26A8.12,8.12,0,0,0,129,40a4.78,4.78,0,0,1-4.84,4.61,4.72,4.72,0,0,1-4.61-4.84c.09-4,2.5-8.75,6-11.75a14.19,14.19,0,0,1,11.33-3.47c5.42.69,9.71,5.14,10.68,11.07.89,5.51,0,19.75-27.74,33.11-2.47,1.19-3.37,2.3-3.57,2.74a4.73,4.73,0,0,1-4.5,6.17Z"/><path class="cls-1" d="M36,77.66a4.61,4.61,0,0,1-1.77-.35,4.72,4.72,0,0,1-2.73-5.82c-.2-.45-1.11-1.55-3.58-2.74C.22,55.39-.69,41.15.2,35.64c1-5.93,5.26-10.38,10.68-11.07a14.31,14.31,0,0,1,11.35,3.48c3.48,3,5.87,7.73,6,11.75a4.73,4.73,0,0,1-4.62,4.83h-.11A4.72,4.72,0,0,1,18.74,40a8.05,8.05,0,0,0-2.69-4.79,4.89,4.89,0,0,0-4-1.27c-1,.13-2.2,1.19-2.53,3.21C8.69,42.39,14.07,51.57,32,60.23c8.78,4.23,10,10.44,8.35,14.48A4.71,4.71,0,0,1,36,77.66Z"/><path class="cls-1" d="M126.53,9.46H21.22a4.73,4.73,0,0,1,0-9.46H126.53a4.73,4.73,0,0,1,0,9.46Z"/><path class="cls-1" d="M98.64,119.88a4.73,4.73,0,0,1-4.51-3.3l-3.54-11.24H57.16l-3.53,11.23a4.73,4.73,0,0,1-9-2.83l4.57-14.55a4.73,4.73,0,0,1,4.51-3.31H94.06a4.73,4.73,0,0,1,4.51,3.31l4.58,14.54a4.73,4.73,0,0,1-3.09,5.93A4.67,4.67,0,0,1,98.64,119.88Z"/><path class="cls-1" d="M102.32,131.26H45.44a4.73,4.73,0,1,1,0-9.45h56.88a4.73,4.73,0,1,1,0,9.45Z"/><path class="cls-1" d="M73.87,65.69A25.93,25.93,0,1,1,99.8,39.77,26,26,0,0,1,73.87,65.69Zm0-42.39A16.47,16.47,0,1,0,90.35,39.77,16.49,16.49,0,0,0,73.87,23.3Z"/></g></g></svg>