<svg xmlns="http://www.w3.org/2000/svg" viewBox="0 0 22 22"><defs><style>.cls-1{fill:#cc141d;fill-rule:evenodd;}.cls-2{fill:#fff;}</style></defs><title>icon-search-heading</title><g id="レイヤー_2" data-name="レイヤー 2"><g id="common"><g id="icon-search-heading"><path class="cls-1" d="M11,0A11,11,0,1,1,0,11,11,11,0,0,1,11,0Z"/><path class="cls-2" d="M9,8.09a4.16,4.16,0,0,1,2.13-.68c.8,0,1.52.34,1.52,1.26,0,.66-.37,1.08-1.18,1.73a3.17,3.17,0,0,0-1.08,2.8h1.79a2.13,2.13,0,0,1,1.1-2.1,3,3,0,0,0,1.41-2.64c0-1.75-1.16-2.84-3.15-2.84a5.88,5.88,0,0,0-3,.74Zm1.25,6.23v2.27h2.17V14.32Z"/></g></g></g></svg>