<svg xmlns="http://www.w3.org/2000/svg" viewBox="0 0 124.25 147.56"><defs><style>.cls-1{fill:#0e357f;}</style></defs><title>icon-time</title><g id="レイヤー_2" data-name="レイヤー 2"><g id="icon-time"><path class="cls-1" d="M62.12,147.56a62.13,62.13,0,1,1,62.13-62.12A62.19,62.19,0,0,1,62.12,147.56Zm0-114.81A52.69,52.69,0,1,0,114.8,85.44,52.75,52.75,0,0,0,62.12,32.75Z"/><path class="cls-1" d="M62.12,90.16a4.72,4.72,0,0,1-3.34-8.06L80,60.93a4.72,4.72,0,1,1,6.68,6.68L65.46,88.78A4.71,4.71,0,0,1,62.12,90.16Z"/><path class="cls-1" d="M119.52,90.16H104.37a4.72,4.72,0,0,1,0-9.44h15.15a4.72,4.72,0,1,1,0,9.44Z"/><path class="cls-1" d="M19.87,90.16H4.72a4.72,4.72,0,0,1,0-9.44H19.87a4.72,4.72,0,1,1,0,9.44Z"/><path class="cls-1" d="M62.12,147.56a4.72,4.72,0,0,1-4.72-4.72V127.68a4.72,4.72,0,0,1,9.44,0v15.16A4.72,4.72,0,0,1,62.12,147.56Z"/><path class="cls-1" d="M62.12,47.91a4.72,4.72,0,0,1-4.72-4.73V28a4.72,4.72,0,0,1,9.44,0V43.18A4.72,4.72,0,0,1,62.12,47.91Z"/><path class="cls-1" d="M102.71,130.75a4.71,4.71,0,0,1-3.34-1.38L88.65,118.65A4.72,4.72,0,0,1,95.33,112l10.72,10.72a4.72,4.72,0,0,1-3.34,8.06Z"/><path class="cls-1" d="M32.24,60.29a4.71,4.71,0,0,1-3.34-1.38L18.19,48.19a4.72,4.72,0,1,1,6.68-6.68L35.58,52.23a4.72,4.72,0,0,1-3.34,8.06Z"/><path class="cls-1" d="M21.53,130.75a4.72,4.72,0,0,1-3.34-8.06L28.91,112a4.72,4.72,0,0,1,6.68,6.68L24.87,129.37A4.71,4.71,0,0,1,21.53,130.75Z"/><path class="cls-1" d="M92,60.28a4.72,4.72,0,0,1-3.34-8.06L99.37,41.51a4.72,4.72,0,1,1,6.68,6.67L95.34,58.9A4.73,4.73,0,0,1,92,60.28Z"/><path class="cls-1" d="M76,22.74A4.73,4.73,0,0,1,71.27,18V12.29c-.3-.71-3.51-2.85-9.15-2.85s-8.84,2.14-9.16,3V18a4.72,4.72,0,0,1-9.44,0V12.29c0-7,8-12.29,18.59-12.29S80.71,5.28,80.71,12.29V18A4.72,4.72,0,0,1,76,22.74Z"/><path class="cls-1" d="M62.12,21.33a4.72,4.72,0,0,1-4.72-4.72V4.72a4.72,4.72,0,0,1,9.44,0V16.61A4.72,4.72,0,0,1,62.12,21.33Z"/><path class="cls-1" d="M110.7,26.65a6.39,6.39,0,1,1-7.3-5.33A6.39,6.39,0,0,1,110.7,26.65Z"/><path class="cls-1" d="M13.54,26.65a6.4,6.4,0,1,0,7.3-5.33A6.4,6.4,0,0,0,13.54,26.65Z"/></g></g></svg>