<svg xmlns="http://www.w3.org/2000/svg" viewBox="0 0 141.82 141.81"><defs><style>.cls-1{fill:#0e357f;}</style></defs><title>icon-skateboard</title><g id="レイヤー_2" data-name="レイヤー 2"><g id="icon-skateboard"><path class="cls-1" d="M4.53,131.42a4.53,4.53,0,0,1-.84-9c.12,0,13-2.6,20.14-9.73L112.7,23.83c7.13-7.13,9.71-20,9.73-20.15a4.54,4.54,0,0,1,8.92,1.71c-.13.64-3.1,15.73-12.23,24.86L30.25,119.12C21.13,128.25,6,131.22,5.39,131.34A4.17,4.17,0,0,1,4.53,131.42Z"/><path class="cls-1" d="M51.2,141.81a16.57,16.57,0,1,1,11.72-28.28h0A16.56,16.56,0,0,1,51.2,141.81Zm0-24.06a7.5,7.5,0,0,0-5.3,12.8,7.5,7.5,0,1,0,5.3-12.8Z"/><path class="cls-1" d="M125.25,67.77a16.54,16.54,0,0,1-11.72-4.85h0a16.59,16.59,0,1,1,11.72,4.85ZM119.94,56.5a7.51,7.51,0,1,0-2.19-5.3,7.51,7.51,0,0,0,2.19,5.3Z"/></g></g></svg>