<svg id="レイヤー_1" data-name="レイヤー 1" xmlns="http://www.w3.org/2000/svg" viewBox="0 0 147.76 147.75"><defs><style>.cls-1{fill:#0e357f;}</style></defs><title>icon-soccer</title><path class="cls-1" d="M336.82,489.65h-35.3a4.73,4.73,0,0,1-4.49-3.27l-10.91-33.56a4.72,4.72,0,0,1,1.72-5.28l28.55-20.74a4.71,4.71,0,0,1,5.56,0l28.55,20.74a4.73,4.73,0,0,1,1.72,5.28l-10.91,33.56A4.72,4.72,0,0,1,336.82,489.65ZM305,480.19h28.42l8.78-27-23-16.71-23,16.71Z" transform="translate(-245.29 -386.12)"/><path class="cls-1" d="M319.17,415.88a4.69,4.69,0,0,1-1.73-.32l-16.27-6.39a4.73,4.73,0,1,1,3.45-8.8l14.55,5.71,14.4-5.65a4.73,4.73,0,1,1,3.46,8.8l-16.13,6.33A4.69,4.69,0,0,1,319.17,415.88Z" transform="translate(-245.29 -386.12)"/><path class="cls-1" d="M376.66,467.67a4.73,4.73,0,0,1-3.84-2L363,452.06a4.72,4.72,0,0,1-.84-3.49l2.48-16A4.73,4.73,0,1,1,374,434l-2.18,14.12,8.7,12.07a4.74,4.74,0,0,1-3.83,7.5Z" transform="translate(-245.29 -386.12)"/><path class="cls-1" d="M335.79,519.65a4.73,4.73,0,0,1-3.85-7.48l10-14a4.71,4.71,0,0,1,2.89-1.89L362,492.79a4.73,4.73,0,1,1,1.9,9.26l-15.35,3.15-8.91,12.47A4.73,4.73,0,0,1,335.79,519.65Z" transform="translate(-245.29 -386.12)"/><path class="cls-1" d="M301.71,518.47a4.7,4.7,0,0,1-3.85-2l-8.07-11.29-14.28-2.93a4.73,4.73,0,1,1,1.9-9.26l16.1,3.3a4.71,4.71,0,0,1,2.89,1.89L305.55,511a4.72,4.72,0,0,1-3.84,7.48Z" transform="translate(-245.29 -386.12)"/><path class="cls-1" d="M261.6,468.68a4.73,4.73,0,0,1-3.91-7.38l8.86-13.11-2.45-15.35a4.72,4.72,0,1,1,9.33-1.5l2.76,17.2a4.71,4.71,0,0,1-.76,3.4l-9.91,14.66A4.74,4.74,0,0,1,261.6,468.68Z" transform="translate(-245.29 -386.12)"/><path class="cls-1" d="M319.17,435.35a4.73,4.73,0,0,1-4.73-4.73V411.16a4.73,4.73,0,1,1,9.46,0v19.46A4.73,4.73,0,0,1,319.17,435.35Z" transform="translate(-245.29 -386.12)"/><path class="cls-1" d="M347.71,456.09a4.73,4.73,0,0,1-.5-9.43l19.1-2.06a4.72,4.72,0,1,1,1,9.39l-19.1,2.07Z" transform="translate(-245.29 -386.12)"/><path class="cls-1" d="M345.79,505.68a4.72,4.72,0,0,1-4.13-2.43l-9-16a4.73,4.73,0,1,1,8.25-4.62l9,16a4.74,4.74,0,0,1-4.12,7Z" transform="translate(-245.29 -386.12)"/><path class="cls-1" d="M292.55,505.68a4.74,4.74,0,0,1-4.12-7l9-16a4.73,4.73,0,1,1,8.25,4.62l-9,16A4.72,4.72,0,0,1,292.55,505.68Z" transform="translate(-245.29 -386.12)"/><path class="cls-1" d="M290.63,456.09a4.53,4.53,0,0,1-.52,0L271,454a4.73,4.73,0,1,1,1-9.4l19.1,2.07a4.73,4.73,0,0,1-.5,9.43Z" transform="translate(-245.29 -386.12)"/><path class="cls-1" d="M319.17,533.87A73.88,73.88,0,1,1,393.05,460,74,74,0,0,1,319.17,533.87Zm0-138.3A64.43,64.43,0,1,0,383.59,460,64.5,64.5,0,0,0,319.17,395.57Z" transform="translate(-245.29 -386.12)"/></svg>