<svg xmlns="http://www.w3.org/2000/svg" viewBox="0 0 143.02 143.02"><defs><style>.cls-1{fill:#0e357f;}</style></defs><title>icon-winter</title><g id="レイヤー_2" data-name="レイヤー 2"><g id="icon-winter"><path class="cls-1" d="M35,143a35.05,35.05,0,0,1-24.71-10.24C-1,121.52-3.27,103.84,4.87,90.74c3-4.82,6.93-7.15,10.4-9.21a32.17,32.17,0,0,0,6.9-5L76.55,22.17a32.37,32.37,0,0,0,5-6.89c2-3.47,4.38-7.41,9.21-10.41,13.1-8.14,30.78-5.89,42,5.37s13.51,28.94,5.36,42c-3,4.82-6.93,7.15-10.39,9.2a31.89,31.89,0,0,0-6.9,5L82.37,105l-15.91,15.9a32.16,32.16,0,0,0-5,6.89c-2.06,3.47-4.38,7.4-9.22,10.41A32.78,32.78,0,0,1,35,143ZM108.09,9.14a23.71,23.71,0,0,0-12.52,3.51c-2.92,1.81-4.35,4.23-6.16,7.29A40.62,40.62,0,0,1,83,28.65L28.64,83a41.11,41.11,0,0,1-8.7,6.39c-3.06,1.8-5.47,3.23-7.29,6.16C6.73,105.1,8.44,118,16.71,126.3s21.2,10,30.73,4.07c2.93-1.82,4.36-4.24,6.17-7.29A40.38,40.38,0,0,1,60,114.37l15.9-15.9L114.37,60a40.7,40.7,0,0,1,8.71-6.39c3.06-1.81,5.47-3.24,7.29-6.16,5.92-9.53,4.21-22.45-4.07-30.72A25.82,25.82,0,0,0,108.09,9.14Z"/><path class="cls-1" d="M57.7,102.09A12.83,12.83,0,0,1,45,90.8L43.46,78a4.59,4.59,0,0,1,3.94-5.08l6.45-.86a4.58,4.58,0,1,1,1.22,9.07l-2,.27,1,8.32a3.66,3.66,0,0,0,7.26-.87L59.08,69.47a4.58,4.58,0,0,1,9.1-1l2.25,19.36A12.83,12.83,0,0,1,59.23,102,13.08,13.08,0,0,1,57.7,102.09Z"/><path class="cls-1" d="M83.93,75.84A12.83,12.83,0,0,1,71.24,64.55L69.72,51.74a4.56,4.56,0,0,1,3.94-5.07l6.45-.87a4.58,4.58,0,1,1,1.21,9.08l-2,.27,1,8.31a3.66,3.66,0,0,0,7.26-.87L85.34,43.22a4.58,4.58,0,1,1,9.1-1.06l2.25,19.36A12.83,12.83,0,0,1,85.48,75.74,11.53,11.53,0,0,1,83.93,75.84Z"/></g></g></svg>