<svg xmlns="http://www.w3.org/2000/svg" viewBox="0 0 147.7 147.7"><defs><style>.cls-1{fill:#0e357f;}</style></defs><title>icon-fitness</title><g id="レイヤー_2" data-name="レイヤー 2"><g id="icon-fitness"><path class="cls-1" d="M125.78,90a15.7,15.7,0,0,1-11.18-4.62L62.29,33.1a15.83,15.83,0,0,1,0-22.37l.61-.61a15.85,15.85,0,0,1,22.37,0L97.1,22A5,5,0,0,1,90,29L78.2,17.18a6,6,0,0,0-8.24,0l-.61.61a5.85,5.85,0,0,0,0,8.25l52.32,52.31a5.78,5.78,0,0,0,4.11,1.7h0a5.78,5.78,0,0,0,4.11-1.7l.63-.62a5.83,5.83,0,0,0,0-8.23l-30.2-30.21a5,5,0,0,1,7.06-7.06l30.2,30.2a15.84,15.84,0,0,1,0,22.37l-.63.62A15.74,15.74,0,0,1,125.79,90Z"/><path class="cls-1" d="M133.47,70.38a5,5,0,0,1-3.53-8.53l6.71-6.72c1.73-1.73,1.3-5.08-.93-7.31L99.88,12C97.64,9.75,94.3,9.32,92.57,11l-6.72,6.72a5,5,0,1,1-7.06-7.06L85.5,4c5.66-5.65,15.27-5.23,21.44.93l35.84,35.85c6.17,6.16,6.59,15.78.94,21.43L137,68.91A5,5,0,0,1,133.47,70.38Z"/><path class="cls-1" d="M116.74,26.78a5,5,0,0,1-3.53-8.53l9.57-9.57a5,5,0,0,1,7.07,0L139,17.85A5,5,0,1,1,132,24.91l-5.64-5.64-6,6A5,5,0,0,1,116.74,26.78Z"/><path class="cls-1" d="M73.62,142.21a15.75,15.75,0,0,1-11.19-4.63l-30.2-30.2a5,5,0,0,1,7.06-7.06l30.21,30.2a6,6,0,0,0,8.24,0l.61-.61a5.84,5.84,0,0,0,0-8.24L26,69.35a5.84,5.84,0,0,0-8.24,0l-.62.61a5.87,5.87,0,0,0,0,8.24L29,90A5,5,0,0,1,22,97.1L10.12,85.27a15.85,15.85,0,0,1,0-22.37l.61-.61a15.83,15.83,0,0,1,22.37,0L85.42,114.6a15.85,15.85,0,0,1,0,22.37l-.62.61A15.73,15.73,0,0,1,73.62,142.21Z"/><path class="cls-1" d="M52.34,147.7a16.45,16.45,0,0,1-11.58-4.91L4.91,106.94C-1.25,100.78-1.67,91.16,4,85.51l6.72-6.72a5,5,0,1,1,7.06,7.06l-6.71,6.72c-1.73,1.73-1.31,5.07.93,7.31l35.84,35.84c2.23,2.24,5.59,2.66,7.31.93l6.72-6.71A5,5,0,1,1,68.92,137l-6.73,6.72A13.81,13.81,0,0,1,52.34,147.7Z"/><path class="cls-1" d="M21.38,140.48A5,5,0,0,1,17.85,139l-9.17-9.17a5,5,0,0,1,0-7.07l9.57-9.57a5,5,0,0,1,7.06,7.07l-6,6L24.91,132a5,5,0,0,1-3.53,8.53Z"/><path class="cls-1" d="M49.41,90.66a5,5,0,0,1-3.53-8.53L72.41,55.6a5,5,0,0,1,7.07,7.06L53,89.2A5,5,0,0,1,49.41,90.66Z"/><path class="cls-1" d="M62,103.29a5,5,0,0,1-3.53-8.53L85,68.23a5,5,0,0,1,7.07,7.06L65.57,101.83A5,5,0,0,1,62,103.29Z"/></g></g></svg>