<svg xmlns="http://www.w3.org/2000/svg" viewBox="0 0 80 26"><defs><style>.cls-1{fill:#fa0;fill-rule:evenodd;}.cls-2{fill:#fff;}</style></defs><title>icon-recommend</title><g id="レイヤー_2" data-name="レイヤー 2"><g id="common"><g id="icon-recommend"><path class="cls-1" d="M4,0H76a4,4,0,0,1,4,4V22a4,4,0,0,1-4,4H4a4,4,0,0,1-4-4V4A4,4,0,0,1,4,0Z"/><path class="cls-2" d="M19.49,13.14l.05,4.79v.28a9.43,9.43,0,0,1-.1,1.54h2.18c-.05-.45-.08-1.06-.09-1.84l-.08-7.43h1.64a15.5,15.5,0,0,1,1.84.07V8.61a8.78,8.78,0,0,1-1.88.11H21.43l0-1.29v-.1A10,10,0,0,1,21.46,6H19.35a13.29,13.29,0,0,1,.08,1.47V8.72H13.91a9.5,9.5,0,0,1-2-.11v2a18.81,18.81,0,0,1,2-.08h4.38a14.59,14.59,0,0,1-2.14,2.64,17.07,17.07,0,0,1-5,3.48,4.72,4.72,0,0,1,1.33,1.66,23.15,23.15,0,0,0,2.36-1.47A21.75,21.75,0,0,0,17.91,14a10,10,0,0,0,1.63-2.25c0,.26-.05,1.08-.05,1.16Z"/><path class="cls-2" d="M40,17.77c-1.94-1.88-1.94-1.88-2.34-2.23a25.22,25.22,0,0,0-3-2.32,21,21,0,0,0,2.5-4.42,2.87,2.87,0,0,1,.51-.86L36.66,6.85A3.59,3.59,0,0,1,35.24,7l-5.64.08h-.38A7,7,0,0,1,27.81,7l.06,2.05a13.38,13.38,0,0,1,1.75-.13l5.3-.09-.18.41a15.42,15.42,0,0,1-5.38,6.52,13.53,13.53,0,0,1-3.2,1.76,6.28,6.28,0,0,1,1.3,1.77,19.1,19.1,0,0,0,6.1-4.62,31.16,31.16,0,0,1,4.91,4.75Z"/><path class="cls-2" d="M54.94,17.77C53,15.89,53,15.89,52.6,15.54a25.22,25.22,0,0,0-3-2.32A21,21,0,0,0,52.13,8.8a3.1,3.1,0,0,1,.52-.86L51.59,6.85A3.59,3.59,0,0,1,50.17,7l-5.64.08h-.38A7,7,0,0,1,42.74,7l.06,2.05a13.38,13.38,0,0,1,1.75-.13l5.3-.09-.18.41a15.42,15.42,0,0,1-5.38,6.52,13.53,13.53,0,0,1-3.2,1.76,6.28,6.28,0,0,1,1.3,1.77,19,19,0,0,0,6.09-4.62,30.81,30.81,0,0,1,4.92,4.75Z"/><path class="cls-2" d="M65.64,6.08a19.52,19.52,0,0,1-2.26,5.16c-.13-.08-.13-.08-1.33-1-.78-.56-1.47-1-2.64-1.7L58,10a29.31,29.31,0,0,1,4.24,2.88,16,16,0,0,1-2,2.18,16.35,16.35,0,0,1-4.14,2.77,4.93,4.93,0,0,1,1.4,1.67,20.3,20.3,0,0,0,3.81-2.65,18.16,18.16,0,0,0,2.5-2.67A23.6,23.6,0,0,1,67,17.56l1.54-1.65A39.33,39.33,0,0,0,65,12.52,26.73,26.73,0,0,0,67.25,8a12,12,0,0,1,.56-1.16Z"/></g></g></g></svg>