<svg xmlns="http://www.w3.org/2000/svg" viewBox="0 0 130.03 154.89"><defs><style>.cls-1{fill:#0e357f;}</style></defs><title>icon-map</title><g id="レイヤー_2" data-name="レイヤー 2"><g id="icon-map"><path class="cls-1" d="M65,154.89a5,5,0,0,1-3.54-1.46L19,111a65,65,0,0,1,92-92h0a65.09,65.09,0,0,1,0,92L68.56,153.43A5,5,0,0,1,65,154.89ZM65,10a55,55,0,0,0-38.91,93.91L65,142.82l38.91-38.91A55,55,0,0,0,65,10Zm0,83A28,28,0,1,1,93,65,28,28,0,0,1,65,93ZM65,47A18,18,0,1,0,83,65,18,18,0,0,0,65,47Z"/></g></g></svg>