<svg id="レイヤー_1" data-name="レイヤー 1" xmlns="http://www.w3.org/2000/svg" viewBox="0 0 131.21 131.19"><defs><style>.cls-1{fill:#0e357f;}</style></defs><title>icon-sumo</title><path class="cls-1" d="M455.31,144.89c-6.14-6.15-13.82-17.19-8.84-30.95A23.07,23.07,0,0,1,457,102.2c3.71-1.77,7.64-4.19,8.58-5.29.77-1.89,1.78-7.14,2.39-10.33.19-1,.37-1.89.53-2.69l0-.18c.95-4.73,3.84-19.12,15.56-25.84,6.9-4,18.13-6.66,32.48,2.94,11.77,7.87,14.87,21.61,15,22.19a4.9,4.9,0,0,1-1.34,4.53L475.52,142a4.93,4.93,0,0,1-6.95,0h0a4.92,4.92,0,0,1,0-6.95l52.64-52.35C520,79.21,517,72.92,511.13,69,503,63.53,495.52,62.66,489,66.4c-7.85,4.5-10,15.22-10.82,19.25l0,.18c-.16.78-.33,1.66-.51,2.61-1.08,5.65-2,10.18-3.19,12.76-1.74,3.79-8.14,7.46-13.21,9.88a13.51,13.51,0,0,0-5.56,6.29c-5,13.69,11.21,24.51,11.37,24.61a4.44,4.44,0,0,1,.78.64,4.92,4.92,0,0,1-6.44,7.4A45.62,45.62,0,0,1,455.31,144.89Z" transform="translate(-444.87 -54.26)"/><path class="cls-1" d="M485.43,175a43.78,43.78,0,0,1-5.3-6.33,4.93,4.93,0,0,1,.63-6.17l53.54-53.89a4.92,4.92,0,0,1,7,0h0a4.91,4.91,0,0,1,0,6.94L490.8,166.35a35.46,35.46,0,0,0,5.26,4.87c5.71,4.27,11.43,5.41,17,3.4a13.58,13.58,0,0,0,6.2-5.54c2.41-5.06,6.08-11.46,9.88-13.2,2.58-1.19,7.1-2.11,12.75-3.19l2.61-.51.19,0c4-.81,14.74-3,19.25-10.81,3.74-6.52,2.87-14-2.59-22.12-5.21-7.78-14.56-10.46-15.94-10.81a4.92,4.92,0,1,1,1.93-9.65c.58.12,14.31,3.23,22.18,15,9.6,14.36,6.9,25.59,3,32.48-6.73,11.72-21.12,14.61-25.84,15.56l-.18,0-2.71.52c-3.18.61-8.42,1.62-10.31,2.39-1.1,1-3.53,4.88-5.3,8.59a23,23,0,0,1-11.64,10.51C502.64,188.84,491.57,181.14,485.43,175Z" transform="translate(-444.87 -54.26)"/><circle class="cls-1" cx="101.7" cy="78.39" r="12.26"/><path class="cls-1" d="M510.12,85a12.26,12.26,0,0,0-9.05-12.89,12.58,12.58,0,0,1,.38,4.22,12.26,12.26,0,0,1-13.27,11.16,12.09,12.09,0,0,1-2.11-.38A12.25,12.25,0,0,0,510.12,85Z" transform="translate(-444.87 -54.26)"/><path class="cls-1" d="M448.9,181.44a4.91,4.91,0,0,1,0-6.95L541.48,81.9a4.91,4.91,0,0,1,6.95,6.95l-92.58,92.59A4.91,4.91,0,0,1,448.9,181.44Z" transform="translate(-444.87 -54.26)"/></svg>