<svg id="レイヤー_1" data-name="レイヤー 1" xmlns="http://www.w3.org/2000/svg" viewBox="0 0 145.95 120.83"><defs><style>.cls-1{fill:#0e357f;}</style></defs><title>icon-motorsports</title><path class="cls-1" d="M585.33,342.18c-1.09,0-2.47-.05-4.27-.12-3.32-.12-8.06-.32-13.74-.57-10-.45-24-1.1-41.49-1.94-30.14-1.45-60.25-3-60.25-3a4.34,4.34,0,0,1-3.47-2,138.28,138.28,0,0,1-12.4-27.87c-6.8-21.35-6.43-40.13,1.08-54.3,17.55-33.1,54.75-31.2,58.69-30.9,3.71-.09,37,0,54.86,30,19,31.8,23.93,60.1,26.45,85.95a4.23,4.23,0,0,1-.68,2.78C589.09,341.78,588.35,342.18,585.33,342.18Zm-117-14.09c40.25,2,96.88,4.76,113.32,5.36-2.6-23.53-7.84-49.16-24.78-77.55-16-26.77-47.06-25.81-47.36-25.8a3.72,3.72,0,0,1-.58,0c-1.41-.13-35.12-2.76-50.53,26.32-8.06,15.2-4.75,34.21-.55,47.48A135.29,135.29,0,0,0,468.37,328.09Z" transform="translate(-444.87 -221.35)"/><path class="cls-1" d="M502.64,308a28.49,28.49,0,0,1-15.94-4.44,23.68,23.68,0,0,1-10.22-15.38c-2.33-12.11,4.4-26.47,21.77-30.5,10.76-2.5,27.87-6.45,35.73-8.26a4.33,4.33,0,0,1,5.18,3.23h0a4.32,4.32,0,0,1-3.24,5.18L500.21,266c-9.12,2.12-17.29,9.83-15.24,20.47,1.37,7.11,8.07,14.64,22.44,12.45,26.47-4,68.16-11.07,68.57-11.14a4.31,4.31,0,1,1,1.45,8.5c-.42.07-42.17,7.13-68.72,11.17A39.93,39.93,0,0,1,502.64,308Z" transform="translate(-444.87 -221.35)"/><path class="cls-1" d="M503.58,284.53a5.88,5.88,0,0,1-7.07,7.05,5.87,5.87,0,1,1,7.07-7.05Z" transform="translate(-444.87 -221.35)"/><path class="cls-1" d="M517.06,303.9A4.33,4.33,0,0,1,513,301L503.7,273.7a4.44,4.44,0,0,1,1.83-5.27,4.33,4.33,0,0,1,6.3,2.33L521.1,298a4.44,4.44,0,0,1-1.8,5.25A4.34,4.34,0,0,1,517.06,303.9Z" transform="translate(-444.87 -221.35)"/><path class="cls-1" d="M584.64,326.75h-.21l-108.94-5.14a4.31,4.31,0,1,1,.29-8.62l108.91,5.13a4.4,4.4,0,0,1,4.2,3.56A4.31,4.31,0,0,1,584.64,326.75Z" transform="translate(-444.87 -221.35)"/></svg>