<svg xmlns="http://www.w3.org/2000/svg" viewBox="0 0 62 26"><defs><style>.cls-1{fill:#fa0;fill-rule:evenodd;}.cls-2{fill:#fff;}</style></defs><title>icon-new</title><g id="レイヤー_2" data-name="レイヤー 2"><g id="common"><g id="icon-new"><path class="cls-1" d="M4,0H58a4,4,0,0,1,4,4V22a4,4,0,0,1-4,4H4a4,4,0,0,1-4-4V4A4,4,0,0,1,4,0Z"/><path class="cls-2" d="M22.58,19.1A12.82,12.82,0,0,1,22.45,17V8.56a14.8,14.8,0,0,1,.13-2.21H20.24a13.56,13.56,0,0,1,.13,2.21v5.38c0,.67.05,1.63.11,2.26-.35-.64-.86-1.47-1.24-2l-4-6.1a8.44,8.44,0,0,1-1-1.7h-2.5a13,13,0,0,1,.13,2.07v8.26a17.31,17.31,0,0,1-.13,2.42h2.34a17.77,17.77,0,0,1-.13-2.41V11.44c0-.36,0-1.08-.05-1.39,0-.59,0-.59-.06-.81.38.75.78,1.44,1.09,1.92L19,17.38a16.18,16.18,0,0,1,1,1.72Z"/><path class="cls-2" d="M33.94,17.08a15.35,15.35,0,0,1-2,.11h-4.8V13.41H31a13.31,13.31,0,0,1,2.08.11V11.43a16.76,16.76,0,0,1-2.08.11H27.11V8.24h4.61a14.37,14.37,0,0,1,2.06.11V6.24a17.08,17.08,0,0,1-2.06.11H26.88c-1,0-1.39,0-2,0A15,15,0,0,1,25,8.37V17a13.63,13.63,0,0,1-.13,2.11c.64,0,1.07,0,2,0h5a13.83,13.83,0,0,1,2.06.11Z"/><path class="cls-2" d="M47.85,19.1a3.32,3.32,0,0,1,.17-.79c0-.14.11-.43.23-.88l2.56-9.17a14.87,14.87,0,0,1,.62-1.91H48.87a8.87,8.87,0,0,1-.27,1.72l-1.49,6c0,.15-.16.77-.21,1-.09.56-.09.56-.17.92-.26-1.2-.34-1.52-.45-1.93L44.48,8a10.71,10.71,0,0,1-.36-1.6h-2A10.66,10.66,0,0,1,41.8,8L40,14.17c-.13.44-.24.89-.45,1.88-.1-.56-.27-1.37-.38-1.87L37.7,8.08a8.31,8.31,0,0,1-.29-1.73H34.85a15.3,15.3,0,0,1,.64,1.91L38,17.45a14.63,14.63,0,0,1,.44,1.65h2.12A14.25,14.25,0,0,1,41,17.48l1.7-6c.14-.51.3-1.13.48-2a20.44,20.44,0,0,0,.46,2l1.72,6a14.55,14.55,0,0,1,.38,1.62Z"/></g></g></g></svg>