<svg id="レイヤー_1" data-name="レイヤー 1" xmlns="http://www.w3.org/2000/svg" viewBox="0 0 147.71 147.95"><defs><style>.cls-1{fill:#0e357f;}</style></defs><title>icon-rugby</title><path class="cls-1" d="M620.62,363c-3.65,0-7.33-.18-11-.55-5-.49-14.11-2.06-19.13-7.09s-6.6-14.15-7.09-19.13q-.3-3-.44-6.06a4.73,4.73,0,1,1,9.46-.42c.08,1.85.22,3.7.4,5.55.6,6.06,2.31,11.31,4.37,13.37s7.3,3.76,13.36,4.36a100.77,100.77,0,0,0,109.52-84.38A150.09,150.09,0,0,0,675.7,224.8a4.73,4.73,0,1,1,5-8A159.72,159.72,0,0,1,729,265a4.67,4.67,0,0,1,.68,3.18A110.23,110.23,0,0,1,620.62,363Z" transform="translate(-582.94 -215.01)"/><path class="cls-1" d="M635.39,361.91a4.77,4.77,0,0,1-2.52-.73,159.78,159.78,0,0,1-48.26-48.25,4.67,4.67,0,0,1-.68-3.18A110.24,110.24,0,0,1,704,215.55c5,.5,14.12,2.09,19.13,7.1s6.6,14.14,7.09,19.13c.19,1.85.32,3.7.41,5.55a4.74,4.74,0,0,1-9.46.45c-.08-1.69-.2-3.38-.37-5.07-.6-6.07-2.32-11.32-4.37-13.37s-7.29-3.76-13.37-4.36a100.75,100.75,0,0,0-109.51,84.37,150.27,150.27,0,0,0,44.36,43.82,4.73,4.73,0,0,1-2.53,8.74Z" transform="translate(-582.94 -215.01)"/><path class="cls-1" d="M631.12,319.41a4.74,4.74,0,0,1-3.35-8.08L679.14,260a4.73,4.73,0,1,1,6.7,6.69L634.47,318A4.72,4.72,0,0,1,631.12,319.41Z" transform="translate(-582.94 -215.01)"/><path class="cls-1" d="M680.91,287a4.73,4.73,0,0,1-3.35-1.38l-17.42-17.43a4.73,4.73,0,0,1,6.69-6.7L684.26,279a4.73,4.73,0,0,1-3.35,8.08Z" transform="translate(-582.94 -215.01)"/><path class="cls-1" d="M650.13,317.82a4.72,4.72,0,0,1-3.35-1.39L629.35,299a4.74,4.74,0,0,1,6.7-6.7l17.43,17.43a4.74,4.74,0,0,1-3.35,8.08Z" transform="translate(-582.94 -215.01)"/><path class="cls-1" d="M665.52,302.43a4.68,4.68,0,0,1-3.35-1.39l-17.43-17.42a4.74,4.74,0,1,1,6.7-6.7l17.42,17.43a4.73,4.73,0,0,1,0,6.69A4.68,4.68,0,0,1,665.52,302.43Z" transform="translate(-582.94 -215.01)"/><path class="cls-1" d="M719.21,294.9a4.75,4.75,0,0,1-4.25-2.64c-12.36-24.95-36.48-49.06-61.43-61.44a4.73,4.73,0,0,1,4.2-8.48c26.69,13.24,52.49,39,65.72,65.72a4.73,4.73,0,0,1-2.14,6.34A4.66,4.66,0,0,1,719.21,294.9Z" transform="translate(-582.94 -215.01)"/><path class="cls-1" d="M658,356.12a4.78,4.78,0,0,1-2.1-.49c-26.68-13.23-52.48-39-65.71-65.72a4.73,4.73,0,1,1,8.48-4.2c12.37,25,36.49,49.06,61.44,61.43a4.74,4.74,0,0,1-2.11,9Z" transform="translate(-582.94 -215.01)"/></svg>