<svg xmlns="http://www.w3.org/2000/svg" viewBox="0 0 149.93 149.95"><defs><style>.cls-1{fill:#0e357f;}</style></defs><title>icon-pingpong</title><g id="レイヤー_2" data-name="レイヤー 2"><g id="icon-pingpong"><path class="cls-1" d="M81.43,128.29a60.29,60.29,0,0,1-33.29-9.76,4.8,4.8,0,1,1,5.27-8,51,51,0,0,0,29.47,8.16,4.9,4.9,0,0,1,4.92,4.68,4.8,4.8,0,0,1-4.68,4.92Z"/><path class="cls-1" d="M95.34,126.68a4.8,4.8,0,0,1-1.09-9.47,59.76,59.76,0,0,0,28.56-16.06c22.11-22.1,23.49-56.69,3.09-77.09A50,50,0,0,0,88.17,9.63,58.73,58.73,0,0,0,48.81,27.15C27,49,25.15,82.29,44.58,103.06a4.8,4.8,0,1,1-7,6.56c-23-24.57-21-63.78,4.45-89.26A68.3,68.3,0,0,1,87.82,0C105-.56,121,5.53,132.69,17.27c24.14,24.15,22.76,64.82-3.09,90.67a69.39,69.39,0,0,1-33.16,18.61A4.53,4.53,0,0,1,95.34,126.68Z"/><path class="cls-1" d="M83,128.27a4.78,4.78,0,0,1-3.39-1.4L23.09,70.34a4.8,4.8,0,0,1,6.79-6.78l56.51,56.52A4.8,4.8,0,0,1,83,128.27Z"/><path class="cls-1" d="M18.6,150a12.56,12.56,0,0,1-4.05-.72,23,23,0,0,1-8.35-5.48C2.32,139.87,0,135.24,0,131.36a8,8,0,0,1,2.27-5.79L32,95.79a4.8,4.8,0,1,1,6.79,6.79L9.65,131.76A12,12,0,0,0,13,137a12,12,0,0,0,5.21,3.35l29.18-29.18a4.8,4.8,0,0,1,6.79,6.79L24.39,147.69A8,8,0,0,1,18.6,150Zm-9.54-17.6h0Z"/><path class="cls-1" d="M83.52,63.29A23.46,23.46,0,1,1,107,39.83,23.49,23.49,0,0,1,83.52,63.29Zm0-37.31A13.86,13.86,0,1,0,97.38,39.83,13.86,13.86,0,0,0,83.52,26Z"/></g></g></svg>