<svg xmlns="http://www.w3.org/2000/svg" viewBox="0 0 145.25 147.76"><defs><style>.cls-1{fill:#0e357f;}</style></defs><title>icon-medal</title><g id="レイヤー_2" data-name="レイヤー 2"><g id="icon-medal"><path class="cls-1" d="M72.63,147.76A52.74,52.74,0,1,1,125.37,95a4.73,4.73,0,0,1-9.46,0,43.2,43.2,0,1,0-2.57,14.76,4.73,4.73,0,1,1,8.89,3.22A52.91,52.91,0,0,1,72.63,147.76Z"/><path class="cls-1" d="M124,64.71a4.66,4.66,0,0,1-3-1.09A4.74,4.74,0,0,1,120.4,57c0-.05,5-6,12.59-16.13,2.81-3.76,2.81-7.09,2.81-10.62V18.47c-10.66,13.3-23.53,28.48-24.22,29.3a4.73,4.73,0,1,1-7.21-6.11c.21-.26,22.07-26,32.37-39.77a4.73,4.73,0,0,1,8.51,2.84V30.21c0,4.23,0,10-4.7,16.29C132.78,56.86,127.88,62.76,127.68,63A4.73,4.73,0,0,1,124,64.71Z"/><path class="cls-1" d="M21.21,64.71A4.73,4.73,0,0,1,17.57,63c-.2-.25-5.1-6.15-12.87-16.51C0,40.22,0,34.44,0,30.21V4.73A4.73,4.73,0,0,1,8.51,1.89C18.81,15.62,40.67,41.4,40.88,41.66a4.72,4.72,0,1,1-7.2,6.11c-.7-.82-13.57-16-24.23-29.3V30.21c0,3.53,0,6.86,2.82,10.62C19.88,51,24.8,56.91,24.85,57a4.74,4.74,0,0,1-.62,6.66A4.66,4.66,0,0,1,21.21,64.71Z"/><path class="cls-1" d="M74.56,113.32a4.72,4.72,0,0,1-4.73-4.72V90L65,92.39a4.73,4.73,0,0,1-4.16-8.49l11.63-5.69a4.73,4.73,0,0,1,6.81,4.25V108.6A4.72,4.72,0,0,1,74.56,113.32Z"/><path class="cls-1" d="M72.63,130.13A35.11,35.11,0,1,1,107.74,95,35.15,35.15,0,0,1,72.63,130.13Zm0-60.76A25.66,25.66,0,1,0,98.28,95,25.68,25.68,0,0,0,72.63,69.37Z"/></g></g></svg>