<svg xmlns="http://www.w3.org/2000/svg" viewBox="0 0 147.43 117.34"><defs><style>.cls-1{fill:#0e357f;}</style></defs><title>icon-figure</title><g id="レイヤー_2" data-name="レイヤー 2"><g id="icon-figure"><path class="cls-1" d="M119.68,87.32h-.25a4.72,4.72,0,0,1-4.46-5c0-.81-.3-8.84-14.14-12.27C63.77,60.87,54.12,34.78,50.44,9.44H11.26a4.72,4.72,0,0,1,0-9.44H54.57a4.72,4.72,0,0,1,4.69,4.15c3.47,28.4,12.26,48.92,43.84,56.77,21.91,5.44,21.33,21.26,21.29,21.93A4.72,4.72,0,0,1,119.68,87.32Z"/><path class="cls-1" d="M7.36,74.8H7.11a4.71,4.71,0,0,1-4.46-5L5.46,16.75a4.72,4.72,0,0,1,9.43.5L12.07,70.33A4.73,4.73,0,0,1,7.36,74.8Z"/><path class="cls-1" d="M105.24,99.63c-30,0-43.77-5.52-54.25-9.72-5.81-2.33-10-4-15.45-4H6.27a4.72,4.72,0,0,1,0-9.43H35.54c7.25,0,12.68,2.17,19,4.69,11.44,4.57,27.09,10.85,67,8.54a4.71,4.71,0,1,1,.54,9.41C115.93,99.47,110.35,99.63,105.24,99.63Z"/><path class="cls-1" d="M42.65,99.12H11.73a4.72,4.72,0,0,1,0-9.43H42.65a4.72,4.72,0,1,1,0,9.43Z"/><path class="cls-1" d="M114.87,117.34H4.72a4.72,4.72,0,1,1,0-9.43H114.87c16.79,0,21.31-7.07,23.37-13.24a4.72,4.72,0,0,1,8.95,3C142.82,110.73,132,117.34,114.87,117.34Z"/><path class="cls-1" d="M27.61,105.81a4.71,4.71,0,0,1-4.72-4.71V94.4a4.72,4.72,0,0,1,9.43,0v6.7A4.71,4.71,0,0,1,27.61,105.81Z"/><path class="cls-1" d="M100.41,105.81a4.71,4.71,0,0,1-4.71-4.71V95.6a4.72,4.72,0,1,1,9.43,0v5.5A4.71,4.71,0,0,1,100.41,105.81Z"/><path class="cls-1" d="M42.19,27.19a6.33,6.33,0,0,1-4.5-1.87,7.57,7.57,0,0,1-.81-1,9.71,9.71,0,0,1-.59-1.1,6.93,6.93,0,0,1-.36-1.2,6.31,6.31,0,0,1,1.76-5.78,6.63,6.63,0,0,1,9,0,6.39,6.39,0,0,1,1.87,4.53,6.38,6.38,0,0,1-6.39,6.39Z"/><path class="cls-1" d="M61.36,69.2a6.39,6.39,0,0,1-.67-9h0a6.38,6.38,0,0,1,9-.69h0a6.41,6.41,0,0,1,.69,9h0a6.32,6.32,0,0,1-4.86,2.19h0A6.35,6.35,0,0,1,61.36,69.2ZM49.14,55.45a6.42,6.42,0,0,1,1.64-8.89h0a6.39,6.39,0,0,1,8.89,1.66h0A6.41,6.41,0,0,1,58,57.11h0a6.42,6.42,0,0,1-3.6,1.1h0A6.41,6.41,0,0,1,49.14,55.45ZM40.61,39.38a6.39,6.39,0,0,1,3.6-8.31h0a6.39,6.39,0,0,1,8.28,3.6h0A6.36,6.36,0,0,1,48.89,43h0a6.24,6.24,0,0,1-2.33.46h0A6.4,6.4,0,0,1,40.61,39.38Z"/><path class="cls-1" d="M79.86,79.37a6.4,6.4,0,0,1-4.52-1.87,5.9,5.9,0,0,1-.8-1A6,6,0,0,1,74,75.44a5.79,5.79,0,0,1-.36-1.21A6.38,6.38,0,0,1,73.47,73a6.63,6.63,0,0,1,.13-1.25A5.54,5.54,0,0,1,74,70.55a5.66,5.66,0,0,1,.58-1.12,9.15,9.15,0,0,1,.8-1,6.49,6.49,0,0,1,5.77-1.74,6.15,6.15,0,0,1,1.2.36,8.93,8.93,0,0,1,1.1.59,6.82,6.82,0,0,1,1,.79,9,9,0,0,1,.79,1,5.7,5.7,0,0,1,.59,1.12,6.18,6.18,0,0,1,.36,1.18A6.63,6.63,0,0,1,86.25,73a6.38,6.38,0,0,1-.13,1.25,6.46,6.46,0,0,1-.36,1.21,6.07,6.07,0,0,1-.59,1.09,5.86,5.86,0,0,1-.79,1,6.25,6.25,0,0,1-1,.8,6.1,6.1,0,0,1-1.1.58,5.54,5.54,0,0,1-1.2.36A5.31,5.31,0,0,1,79.86,79.37Z"/></g></g></svg>