<svg xmlns="http://www.w3.org/2000/svg" viewBox="0 0 147.36 147.76"><defs><style>.cls-1{fill:#cc141d;}.cls-2{fill:#0e357f;}</style></defs><title>icon-picks</title><g id="レイヤー_2" data-name="レイヤー 2"><g id="icon-picks"><rect class="cls-1" x="27.92" y="30.74" width="40.19" height="47"/><rect class="cls-1" x="76.11" y="51.41" width="43.33" height="6"/><rect class="cls-1" x="76.11" y="30.61" width="43.33" height="6"/><rect class="cls-1" x="76.11" y="71.74" width="43.33" height="6"/><rect class="cls-1" x="27.92" y="92.08" width="91.52" height="6"/><rect class="cls-1" x="27.92" y="111.15" width="91.52" height="6"/><path class="cls-2" d="M143.61,0H0V147.76H147.36V0Zm-3.75,135.53a4.73,4.73,0,0,1-4.73,4.73H12.23a4.73,4.73,0,0,1-4.73-4.73V12.23A4.73,4.73,0,0,1,12.23,7.5h122.9a4.73,4.73,0,0,1,4.73,4.73Z"/></g></g></svg>