<svg xmlns="http://www.w3.org/2000/svg" viewBox="0 0 147.76 147.45"><defs><style>.cls-1{fill:#0e357f;}</style></defs><title>icon-vollyball</title><g id="レイヤー_2" data-name="レイヤー 2"><g id="icon-vollyball"><path class="cls-1" d="M73.88,147.45a73.73,73.73,0,1,1,73.88-73.73A73.88,73.88,0,0,1,73.88,147.45Zm0-138A64.29,64.29,0,1,0,138.3,73.72,64.43,64.43,0,0,0,73.88,9.44Z"/><path class="cls-1" d="M73.88,78.44a4.73,4.73,0,0,1-4.48-6.23c14-41.38,50-51.92,51.55-52.34A4.72,4.72,0,1,1,123.52,29c-1.33.38-32.8,9.76-45.16,46.28A4.73,4.73,0,0,1,73.88,78.44Z"/><path class="cls-1" d="M39.33,64.26A4.88,4.88,0,0,1,37.88,64a4.72,4.72,0,0,1-3.05-5.94c15.23-47.2,63-52.61,65-52.82a4.72,4.72,0,1,1,1,9.39c-1.77.18-43.71,5.09-57,46.32A4.73,4.73,0,0,1,39.33,64.26Z"/><path class="cls-1" d="M63.37,117.08c-38.52,0-60.85-30.14-61.9-31.59A4.73,4.73,0,0,1,9.14,80c1,1.44,26.25,35.24,68.7,26.11a4.72,4.72,0,1,1,2,9.22A78.17,78.17,0,0,1,63.37,117.08Z"/><path class="cls-1" d="M57.51,80.09C24.71,80.09,4.57,60.92,3.6,60a4.72,4.72,0,1,1,6.6-6.75c1,1,24.87,23.45,62.75,15.88a4.72,4.72,0,1,1,1.86,9.25A87.91,87.91,0,0,1,57.51,80.09Z"/><path class="cls-1" d="M92.5,144.89A4.74,4.74,0,0,1,87.91,139c.34-1.34,7.94-33.22-17.58-62.17a4.72,4.72,0,1,1,7.1-6.23c28.91,32.79,20,69.2,19.65,70.73A4.74,4.74,0,0,1,92.5,144.89Z"/><path class="cls-1" d="M116,133.21a4.78,4.78,0,0,1-1.94-.42,4.72,4.72,0,0,1-2.38-6.23c.73-1.63,17.44-40.32-11.7-72.43a4.72,4.72,0,0,1,7-6.33c33.35,36.75,14.15,80.76,13.32,82.62A4.72,4.72,0,0,1,116,133.21Z"/></g></g></svg>