<svg xmlns="http://www.w3.org/2000/svg" viewBox="0 0 14.01 14.01"><defs><style>.cls-1{fill:#ccc;fill-rule:evenodd;}</style></defs><title>icon-config</title><g id="icon-config" data-name="icon-config"><g id="common"><g id="icon-config"><path class="cls-1" d="M12.14,8.42a5.54,5.54,0,0,1-.52,1.23l0,0s1.18,1.46.48,2.17l-.35.34c-.53.53-1.84-.3-2.15-.5a5,5,0,0,1-1.27.51h.09S8.19,14,7.19,14H6.85c-.77,0-1.19-1.6-1.26-1.9a4.65,4.65,0,0,1-1.27-.55l.07.08s-1.48,1.17-2.18.46l-.32-.26c-.55-.56.4-2.07.52-2.25a4.76,4.76,0,0,1-.49-1.16C1.66,8.37,0,7.94,0,7.17V6.82c0-.9,1.59-1.19,1.91-1.24a5.43,5.43,0,0,1,.48-1.17c-.09-.14-1.1-1.67-.53-2.24l.33-.27c.63-.63,1.91.26,2.2.48a5.1,5.1,0,0,1,1.2-.51C5.69,1.49,6.11,0,6.85,0h.34c.86,0,1.16,1.45,1.23,1.86a5.25,5.25,0,0,1,1.22.51c.31-.21,1.65-1,2.18-.51l.31.33c.62.62-.26,1.88-.49,2.19a5.63,5.63,0,0,1,.51,1.21v0S14,5.82,14,6.82v.35C14,7.91,12.5,8.33,12.14,8.42ZM7,4.49A2.5,2.5,0,0,0,4.49,7,2.53,2.53,0,0,0,7,9.53,2.57,2.57,0,0,0,9.55,7,2.55,2.55,0,0,0,7,4.49ZM7,8.4A1.41,1.41,0,1,1,8.44,7,1.41,1.41,0,0,1,7,8.4Z"/></g></g></g></svg>
