<svg xmlns="http://www.w3.org/2000/svg" viewBox="0 0 20 20"><defs><style>.cls-1{fill:#333;fill-rule:evenodd;}.cls-2{fill:#fff;}</style></defs><title>ranking-icon-num5</title><g id="レイヤー_2" data-name="レイヤー 2"><g id="sidebar"><g id="ranking-icon-num5"><path class="cls-1" d="M0,0H20V20H0Z"/><path class="cls-2" d="M12,5.33H8.18v5H9.35A.72.72,0,0,1,10,9.82a.63.63,0,0,1,.62.66v2.17a.6.6,0,0,1-.62.69.65.65,0,0,1-.68-.71v-.34H8v.39a1.93,1.93,0,0,0,2,2,1.93,1.93,0,0,0,2-2V10.29a1.47,1.47,0,0,0-1.53-1.64,1.6,1.6,0,0,0-1.1.43V6.58H12Z"/></g></g></g></svg>