<svg xmlns="http://www.w3.org/2000/svg" viewBox="0 0 30 30"><defs><style>.cls-1{fill:#86644f;fill-rule:evenodd;}.cls-2{fill:#fff;}</style></defs><title>ranking-icon-num3</title><g id="レイヤー_2" data-name="レイヤー 2"><g id="sidebar"><g id="ranking-icon-num3"><path class="cls-1" d="M0,0H30V30H0Z"/><path class="cls-2" d="M14.26,15.52c1.32,0,1.62.24,1.62,1.34v2c0,.7-.38,1.14-1,1.14a1,1,0,0,1-1-1.1V17.88h-2V19a2.9,2.9,0,0,0,3,3,2.86,2.86,0,0,0,2.52-1.3c.42-.62.54-1,.54-2.92s0-2.48-1.26-3.26c1.16-.7,1.26-1,1.26-3s-.24-2.38-.78-3a2.88,2.88,0,0,0-2.22-1,3.06,3.06,0,0,0-3.09,3V11.8h2V10.64a1,1,0,0,1,1-1,.94.94,0,0,1,1,1v1.84c0,1.06-.4,1.24-1.62,1.24Z"/></g></g></g></svg>