<svg xmlns="http://www.w3.org/2000/svg" viewBox="0 0 78.89 17.38"><defs><style>.cls-1{fill:#333;}</style></defs>><g id="side-ranking-headin" data-name="side-ranking-headin"><g id="sidebar"><g id="side-ranking-heading"><path class="cls-1" d="M2.45,2.45H3.72c1.8,0,2.09.93,2.09,2.66s-.27,2.67-2,2.67H2.45ZM0,17.23H2.45V9.94H3.91l2.28,7.29H8.78L6.14,9.43c1.56-.86,2.12-2.3,2.12-4.27,0-3.31-1.42-5-4.32-5H0Z"/><path class="cls-1" d="M17.57,11.26H15.12l1.2-6.2h.05Zm-6.05,6H14l.72-3.67H18l.72,3.67h2.45L17.38.14h-2Z"/><path class="cls-1" d="M24.7,17.23h2.44V7h.05l3.75,10.27h2.3V.14H30.79v10.3h-.05L27.05.14H24.7Z"/><path class="cls-1" d="M37.85,17.23H40.3V12.12l1.32-2.47,2.78,7.58H47L43,7,46.37.14H43.92l-3.58,7.8h0V.14H37.85Z"/><path class="cls-1" d="M50.54,17.23H53V.14H50.54Z"/><path class="cls-1" d="M57.67,17.23h2.45V7h.05l3.74,10.27h2.31V.14H63.77v10.3h-.05L60,.14H57.67Z"/><path class="cls-1" d="M70.68,13.2a4.11,4.11,0,1,0,8.21,0V7.82H74.5V10h1.94V13.2a1.66,1.66,0,1,1-3.31,0v-9a1.66,1.66,0,1,1,3.31,0V5h2.45V4.18a4.11,4.11,0,1,0-8.21,0Z"/></g></g></g></svg>
