<svg xmlns="http://www.w3.org/2000/svg" width="28" height="30.031" viewBox="0 0 28 30.031"><defs><style>.cls-1{fill:#999;fill-rule:evenodd}</style></defs><path id="btn_reload" class="cls-1" d="M1887.3 592.5c-7.74 0-14.29 6.175-14.29 13.791s6.55 13.7 14.29 13.7a13.936 13.936 0 0 0 12.56-7.6c.92-1.838-2.87-2.629-3.74-1.046-1.78 3.139-5.09 4.223-8.82 4.223-5.64 0-9.91-4-9.91-9.275a9.579 9.579 0 0 1 9.91-9.547c4.56 0 4.64 1.295 4.75 1.174l-3.9 3.932c-1.61 1.591.21 1.568.21 1.568h11.7a.677.677 0 0 0 .9-.863l.02-11.827c-.02-1.645-1.64-.038-1.64-.038l-3.92 3.985s-2.58-2.269-8.12-2.177z" transform="translate(-1873 -589.969)"/></svg>