<?xml version="1.0" encoding="iso-8859-1"?>
<!-- Generator: Adobe Illustrator 16.0.4, SVG Export Plug-In . SVG Version: 6.00 Build 0)  -->
<!DOCTYPE svg PUBLIC "-//W3C//DTD SVG 1.1//EN" "http://www.w3.org/Graphics/SVG/1.1/DTD/svg11.dtd">
<svg version="1.1" id="&#x30EC;&#x30A4;&#x30E4;&#x30FC;_1"
	 xmlns="http://www.w3.org/2000/svg" xmlns:xlink="http://www.w3.org/1999/xlink" x="0px" y="0px" width="49.103px"
	 height="16.345px" viewBox="0 0 49.103 16.345" style="enable-background:new 0 0 49.103 16.345;" xml:space="preserve">
<path d="M2.391,2.263h0.646c0.086,0,0.155-0.07,0.155-0.155V0.792c0-0.051,0.042-0.093,0.094-0.093h4.67
	c0.051,0,0.093,0.042,0.093,0.093v1.317c0,0.085,0.07,0.155,0.156,0.155h0.646c0.085,0,0.155-0.07,0.155-0.155V0.556
	c0-0.079-0.07-0.143-0.155-0.143h-6.46c-0.086,0-0.155,0.064-0.155,0.143v1.553C2.236,2.193,2.305,2.263,2.391,2.263"/>
<path d="M1.217,3.161c0.019,0.041,0.051,0.066,0.086,0.066c0.032,0,0.063-0.021,0.084-0.059l0.397-0.68
	c0.042-0.07,0.032-0.175-0.022-0.236L0.281,0.483C0.279,0.481,0.276,0.479,0.271,0.477C0.24,0.458,0.202,0.448,0.166,0.448
	c-0.042,0-0.077,0.013-0.099,0.037C0.024,0.531,0.035,0.613,0.093,0.674L1.217,3.161z"/>
<path d="M42.24,0.413h-0.646c-0.083,0-0.166,0.063-0.188,0.143c-0.656,2.367-1.757,6.342-1.757,6.372
	c0,0.029,0.02,0.048,0.049,0.048c0.032,0,0.07-0.026,0.098-0.048c0.004-0.004,0.007-0.008,0.009-0.012l1.309-3.087
	c0.007-0.008,0.012-0.013,0.015-0.016c0.002,0.006,0.003,0.014,0.003,0.026v5.425c0,0.085,0.07,0.155,0.155,0.155h0.646
	c0.086,0,0.156-0.069,0.156-0.155V2.449c0-0.067,0.01-0.174,0.024-0.241l0.273-1.639c0.003-0.041-0.01-0.081-0.038-0.111
	C42.32,0.428,42.282,0.413,42.24,0.413"/>
<path d="M17.941,7.544c0-0.031-0.024-0.064-0.094-0.064c-0.02,0-0.042,0.003-0.065,0.009l-1.547,0.383
	c-0.026,0.006-0.05,0-0.065-0.015c-0.012-0.012-0.017-0.03-0.017-0.05V7.052c0-0.051,0.041-0.093,0.093-0.093h1.541
	c0.085,0,0.154-0.064,0.154-0.143V6.593c0-0.079-0.069-0.143-0.154-0.143H17.27c-0.086,0-0.155,0.064-0.155,0.143
	c0,0.044-0.042,0.08-0.093,0.08h-0.776c-0.052,0-0.093-0.041-0.093-0.093V5.934c0-0.051,0.041-0.093,0.093-0.093h1.54
	c0.086,0,0.155-0.064,0.155-0.143V3.239c0-0.079-0.069-0.143-0.155-0.143h-1.54c-0.052,0-0.093-0.042-0.093-0.093V2.468
	c0-0.051,0.041-0.093,0.093-0.093h1.541c0.085,0,0.154-0.064,0.154-0.143V2.009c0-0.079-0.069-0.143-0.154-0.143H17.27
	c-0.086,0-0.155,0.064-0.155,0.143c0,0.044-0.042,0.081-0.093,0.081h-0.776c-0.052,0-0.093-0.042-0.093-0.093V1.291
	c0-0.053,0.044-0.106,0.096-0.115l1.236-0.231c0.082-0.016,0.148-0.096,0.148-0.178V0.121C17.633,0.05,17.587,0,17.522,0
	c-0.016,0-0.032,0.003-0.048,0.009l-3.925,1.406c-0.07,0.02-0.142,0.067-0.142,0.118c0,0.052,0.063,0.083,0.159,0.07l1.543-0.236
	c0.049-0.007,0.087,0.027,0.087,0.075v0.555c0,0.051-0.041,0.093-0.093,0.093h-1.541c-0.085,0-0.155,0.064-0.155,0.142
	c0,0.079,0.07,0.143,0.155,0.143h1.541c0.052,0,0.093,0.042,0.093,0.093v0.535c0,0.051-0.041,0.093-0.093,0.093h-1.541
	c-0.086,0-0.155,0.064-0.155,0.143v2.459c0,0.079,0.069,0.143,0.155,0.143h1.541c0.052,0,0.093,0.042,0.093,0.093V6.58
	c0,0.052-0.041,0.093-0.093,0.093h-1.541c-0.085,0-0.155,0.064-0.155,0.143c0,0.079,0.07,0.143,0.155,0.143h1.541
	c0.052,0,0.093,0.042,0.093,0.093v0.97c0,0.054-0.044,0.11-0.096,0.122l-1.547,0.351c-0.08,0.018-0.146,0.099-0.146,0.181v0.646
	c0,0.069,0.043,0.117,0.105,0.117c0.017,0,0.035-0.004,0.053-0.011l4.244-1.75C17.875,7.649,17.941,7.593,17.941,7.544
	 M16.892,4.384h-0.646c-0.052,0-0.093-0.042-0.093-0.093V3.475c0-0.052,0.041-0.093,0.093-0.093h0.646
	c0.051,0,0.093,0.041,0.093,0.093v0.816C16.985,4.342,16.943,4.384,16.892,4.384 M16.246,4.67h0.646
	c0.051,0,0.093,0.042,0.093,0.093v0.699c0,0.052-0.042,0.093-0.093,0.093h-0.646c-0.052,0-0.093-0.041-0.093-0.093V4.763
	C16.153,4.712,16.194,4.67,16.246,4.67 M14.456,4.67h0.647c0.052,0,0.093,0.042,0.093,0.093v0.699c0,0.052-0.041,0.093-0.093,0.093
	h-0.647c-0.051,0-0.093-0.041-0.093-0.093V4.763C14.363,4.712,14.405,4.67,14.456,4.67 M15.103,4.384h-0.647
	c-0.051,0-0.093-0.042-0.093-0.093V3.475c0-0.052,0.042-0.093,0.093-0.093h0.647c0.052,0,0.093,0.041,0.093,0.093v0.816
	C15.196,4.342,15.155,4.384,15.103,4.384"/>
<path d="M48.356,6.673h-4.83c-0.086,0-0.155,0.064-0.155,0.143v2.459c0,0.079,0.069,0.143,0.155,0.143h4.83
	c0.087,0,0.155-0.064,0.155-0.143V6.816C48.512,6.737,48.443,6.673,48.356,6.673 M47.556,7.052V9.04
	c0,0.051-0.042,0.093-0.093,0.093h-3.042c-0.052,0-0.094-0.042-0.094-0.093V7.052c0-0.051,0.042-0.093,0.094-0.093h3.042
	C47.514,6.959,47.556,7.001,47.556,7.052"/>
<path d="M6.193,5.841h2.211c0.086,0,0.155-0.064,0.155-0.143V3.239c0-0.079-0.069-0.143-0.155-0.143H6.193
	C6.141,3.096,6.1,3.054,6.1,3.003V2.469c0-0.052,0.041-0.094,0.093-0.094H7.51c0.085,0,0.155-0.064,0.155-0.143V2.009
	c0-0.079-0.07-0.143-0.155-0.143H6.993c-0.085,0-0.155,0.064-0.155,0.143c0,0.044-0.042,0.081-0.093,0.081H6.193
	C6.141,2.09,6.1,2.048,6.1,1.997V1.218c0-0.086-0.07-0.156-0.156-0.156H5.298c-0.085,0-0.155,0.07-0.155,0.156v0.779
	c0,0.051-0.042,0.093-0.093,0.093H3.733c-0.086,0-0.155,0.064-0.155,0.142c0,0.079,0.069,0.143,0.155,0.143H5.05
	c0.051,0,0.093,0.042,0.093,0.094v0.534c0,0.051-0.042,0.093-0.093,0.093H2.839c-0.086,0-0.156,0.064-0.156,0.143v2.459
	c0,0.079,0.07,0.143,0.156,0.143H5.05c0.051,0,0.093,0.042,0.093,0.093V6.58c0,0.052-0.042,0.093-0.093,0.093H2.839
	c-0.086,0-0.156,0.064-0.156,0.143c0,0.079,0.07,0.143,0.156,0.143H5.05c0.051,0,0.093,0.042,0.093,0.093v1.094
	c0,0.085,0.07,0.155,0.155,0.155h0.646c0.086,0,0.156-0.07,0.156-0.155V7.052C6.1,7,6.141,6.958,6.193,6.958h2.211
	c0.086,0,0.155-0.064,0.155-0.143V6.593c0-0.079-0.069-0.143-0.155-0.143h-0.85c-0.086,0-0.155,0.064-0.155,0.143
	c0,0.044-0.042,0.08-0.094,0.08H6.193C6.141,6.673,6.1,6.632,6.1,6.58V5.934C6.1,5.883,6.141,5.841,6.193,5.841 M7.51,4.384H6.193
	C6.141,4.384,6.1,4.342,6.1,4.291V3.475c0-0.052,0.041-0.093,0.093-0.093H7.51c0.051,0,0.093,0.041,0.093,0.093v0.816
	C7.603,4.342,7.561,4.384,7.51,4.384 M6.193,4.67H7.51c0.051,0,0.093,0.042,0.093,0.093v0.699c0,0.052-0.042,0.093-0.093,0.093
	H6.193C6.141,5.555,6.1,5.514,6.1,5.462V4.763C6.1,4.712,6.141,4.67,6.193,4.67 M3.733,4.67H5.05c0.051,0,0.093,0.042,0.093,0.093
	v0.699c0,0.052-0.042,0.093-0.093,0.093H3.733c-0.051,0-0.093-0.041-0.093-0.093V4.763C3.64,4.712,3.682,4.67,3.733,4.67
	 M5.05,4.384H3.733c-0.051,0-0.093-0.042-0.093-0.093V3.475c0-0.052,0.042-0.093,0.093-0.093H5.05c0.051,0,0.093,0.041,0.093,0.093
	v0.816C5.143,4.342,5.101,4.384,5.05,4.384"/>
<path d="M9.164,8.015c-0.071,0-0.164,0.05-0.21,0.114L8.67,8.52C8.636,8.567,8.557,8.607,8.499,8.607H2.742
	c-0.058,0-0.133-0.042-0.163-0.091L1.912,7.442C1.878,7.39,1.851,7.292,1.851,7.229V4.527c0-0.079-0.069-0.143-0.155-0.143h-1.54
	C0.07,4.384,0,4.448,0,4.527c0,0.079,0.07,0.143,0.156,0.143h0.646c0.051,0,0.093,0.042,0.093,0.093v3.202
	c0,0.06-0.034,0.151-0.074,0.197L0.09,8.992C0.04,9.049,0,9.154,0,9.229v0.033c0,0.069,0.034,0.094,0.064,0.094
	c0.024,0,0.049-0.014,0.073-0.042l1.409-1.602c0.03-0.035,0.074-0.031,0.098,0.008l0.999,1.61c0.019,0.03,0.034,0.054,0.041,0.066
	c0.001,0.022,0.017,0.022,0.155,0.022h5.342h0.123c0.011,0,0.02-0.005,0.026-0.015c0.001-0.001,0.015-0.021,0.036-0.05l0.862-1.19
	c0.028-0.038,0.035-0.077,0.019-0.107C9.239,8.042,9.218,8.015,9.164,8.015"/>
<path d="M28.731,3.161c0.02,0.041,0.051,0.066,0.085,0.066c0.033,0,0.063-0.021,0.085-0.059l0.397-0.68
	c0.042-0.071,0.032-0.175-0.022-0.236l-1.48-1.768c-0.002-0.002-0.005-0.005-0.01-0.007c-0.031-0.018-0.069-0.028-0.105-0.028
	c-0.042,0-0.077,0.013-0.099,0.037c-0.043,0.046-0.032,0.128,0.025,0.189L28.731,3.161z"/>
<path d="M36.076,8.015c-0.071,0-0.163,0.05-0.21,0.114L35.583,8.52c-0.034,0.048-0.113,0.088-0.172,0.088h-6.554
	c-0.053,0-0.094-0.042-0.094-0.093V7.478V7.354h-0.001c0.001-0.014,0.001-0.045,0.001-0.124V4.527c0-0.079-0.069-0.143-0.154-0.143
	h-1.541c-0.086,0-0.155,0.064-0.155,0.143c0,0.079,0.069,0.143,0.155,0.143h0.646c0.051,0,0.093,0.042,0.093,0.093v3.202
	c0,0.06-0.033,0.151-0.073,0.197l-0.73,0.83c-0.051,0.057-0.09,0.162-0.09,0.238v0.033c0,0.069,0.033,0.094,0.063,0.094
	c0.024,0,0.049-0.014,0.072-0.042l1.401-1.593c0.012-0.013,0.02-0.018,0.022-0.02c0.002,0.004,0.005,0.013,0.005,0.03v1.656
	c0,0.017,0.015,0.031,0.031,0.031h6.584h0.124c0.011,0,0.021-0.005,0.025-0.015c0.001-0.001,0.016-0.021,0.037-0.05l0.86-1.19
	c0.028-0.038,0.035-0.077,0.021-0.107C36.151,8.042,36.13,8.015,36.076,8.015"/>
<path d="M22.257,2.071h-1.976c-0.051,0-0.093-0.042-0.093-0.093V0.68c0-0.086-0.07-0.155-0.156-0.155h-0.646
	c-0.085,0-0.155,0.069-0.155,0.155v1.299c0,0.051-0.041,0.093-0.093,0.093h-0.657c-0.086,0-0.156,0.064-0.156,0.143
	c0,0.079,0.07,0.143,0.156,0.143h0.657c0.052,0,0.093,0.042,0.093,0.093v3.548c0,0.064-0.023,0.165-0.051,0.223
	c0,0-1.723,3.151-1.717,3.169c0.002,0.007,0.012,0.028,0.043,0.028c0.042,0,0.122-0.036,0.177-0.069
	c0.004-0.003,0.008-0.006,0.01-0.009l2.418-3.098c0.043-0.062,0.077-0.169,0.077-0.244V2.451c0-0.051,0.042-0.093,0.093-0.093h1.082
	c0.051,0,0.093,0.042,0.093,0.093v5.903c0,0.059-0.04,0.139-0.087,0.174l-0.962,0.714c-0.021,0.015-0.089,0.068-0.093,0.111
	c-0.001,0.012,0.003,0.024,0.01,0.032c0.01,0.01,0.023,0.016,0.043,0.016c0.03,0,0.08-0.014,0.128-0.036l1.786-0.807
	c0.074-0.033,0.132-0.123,0.132-0.204V2.214C22.414,2.136,22.343,2.071,22.257,2.071"/>
<path d="M43.83,1.033h4.223c0.086,0,0.155-0.064,0.155-0.143V0.667c0-0.079-0.069-0.143-0.155-0.143h-0.85
	c-0.085,0-0.155,0.064-0.155,0.143c0,0.044-0.042,0.08-0.093,0.08H43.83c-0.085,0-0.155,0.064-0.155,0.143
	C43.675,0.969,43.745,1.033,43.83,1.033"/>
<path d="M48.948,2.071h-0.851c-0.086,0-0.156,0.064-0.156,0.143c0,0.045-0.041,0.081-0.093,0.081h-4.913
	c-0.086,0-0.155,0.064-0.155,0.142c0,0.079,0.069,0.143,0.155,0.143h6.013c0.085,0,0.154-0.064,0.154-0.143V2.214
	C49.103,2.136,49.033,2.071,48.948,2.071"/>
<path d="M48.054,3.554h-0.851c-0.086,0-0.155,0.064-0.155,0.143c0,0.044-0.042,0.081-0.094,0.081H43.83
	c-0.086,0-0.156,0.064-0.156,0.142c0,0.079,0.07,0.143,0.156,0.143h4.224c0.086,0,0.154-0.064,0.154-0.143V3.697
	C48.208,3.618,48.14,3.554,48.054,3.554"/>
<path d="M48.054,5.037h-0.851c-0.086,0-0.155,0.064-0.155,0.143c0,0.044-0.042,0.081-0.094,0.081H43.83
	c-0.086,0-0.156,0.064-0.156,0.142c0,0.079,0.07,0.143,0.156,0.143h4.224c0.086,0,0.154-0.064,0.154-0.143V5.18
	C48.208,5.101,48.14,5.037,48.054,5.037"/>
<path d="M29.475,8.26c0.043,0,0.122-0.04,0.175-0.078c0.004-0.002,0.007-0.005,0.009-0.009l0.835-1.439
	c0.039-0.063,0.07-0.171,0.07-0.246V6.203c0-0.051,0.042-0.093,0.094-0.093h1.332c0.051,0,0.093,0.042,0.093,0.093v1.901
	c0,0.086,0.069,0.156,0.155,0.156h0.646c0.086,0,0.154-0.07,0.154-0.156V6.203c0-0.051,0.042-0.093,0.094-0.093h1.302
	c0.051,0,0.093,0.042,0.093,0.093v0.992c0,0.062-0.033,0.153-0.072,0.201l-0.546,0.67c-0.028,0.035-0.092,0.121-0.056,0.16
	c0.008,0.01,0.021,0.014,0.037,0.014c0.036,0,0.091-0.024,0.131-0.047l1.34-0.784c0.069-0.04,0.122-0.134,0.122-0.214V2.791
	c0-0.079-0.069-0.143-0.155-0.143h-2.25c0.009-0.008,0.021-0.017,0.031-0.027l0.063-0.055c0.031-0.028,0.049-0.065,0.048-0.104
	c-0.002-0.039-0.021-0.074-0.058-0.1L32.84,2.146c-0.021-0.011-0.027-0.022-0.026-0.026c0-0.005,0.009-0.014,0.03-0.022
	c0.002-0.001,0.003-0.001,0.004-0.002l2.058-1.136c0.036-0.023,0.059-0.058,0.062-0.095c0.003-0.038-0.015-0.075-0.047-0.103
	l-0.482-0.423c-0.027-0.024-0.061-0.037-0.095-0.037c-0.046,0-0.09,0.022-0.116,0.06l-0.234,0.301
	c-0.037,0.046-0.12,0.084-0.179,0.084h-3.604c-0.085,0-0.154,0.064-0.154,0.143s0.069,0.143,0.154,0.143h3.396
	c0.016,0,0.025,0.002,0.029,0.004c-0.002,0.004-0.008,0.011-0.019,0.021l-1.06,0.844c-0.033,0.022-0.087,0.035-0.138,0.035
	c-0.021,0-0.043-0.002-0.059-0.008l-0.657-0.22c-0.001,0-0.002-0.001-0.004-0.001C31.672,1.703,31.644,1.7,31.616,1.7
	c-0.072,0-0.09,0.019-0.095,0.026c-0.006,0.006-0.014,0.018-0.013,0.036c0.003,0.049,0.062,0.103,0.08,0.116l0.705,0.734
	c0.018,0.017,0.02,0.027,0.02,0.029c-0.001,0.001-0.01,0.007-0.034,0.007h-2.641c-0.031,0-0.031,0-0.031,0.155v3.685
	c0,0.067-0.008,0.176-0.016,0.244l-0.161,1.372c-0.02,0.056-0.02,0.106,0,0.133C29.441,8.252,29.457,8.26,29.475,8.26 M31.989,4.236
	h-1.332c-0.052,0-0.094-0.042-0.094-0.093V3.027c0-0.052,0.042-0.094,0.094-0.094h1.332c0.051,0,0.093,0.042,0.093,0.094v1.116
	C32.082,4.194,32.04,4.236,31.989,4.236 M30.657,4.522h1.332c0.051,0,0.093,0.042,0.093,0.093v1.116
	c0,0.051-0.042,0.093-0.093,0.093h-1.332c-0.052,0-0.094-0.042-0.094-0.093V4.615C30.563,4.564,30.605,4.522,30.657,4.522
	 M33.132,4.522h1.302c0.051,0,0.093,0.042,0.093,0.093v1.116c0,0.051-0.042,0.093-0.093,0.093h-1.302
	c-0.052,0-0.094-0.042-0.094-0.093V4.615C33.038,4.564,33.08,4.522,33.132,4.522 M34.434,4.236h-1.302
	c-0.052,0-0.094-0.042-0.094-0.093V3.027c0-0.052,0.042-0.094,0.094-0.094h1.302c0.051,0,0.093,0.042,0.093,0.094v1.116
	C34.526,4.194,34.484,4.236,34.434,4.236"/>
<path d="M0.006,14.649c0-0.918,0.02-1.054,0.063-1.189c0.102-0.316,0.345-0.505,0.748-0.505c0.471,0,0.768,0.242,0.797,0.792
	c0.005,0.028-0.005,0.053-0.034,0.058l-0.394,0.068c-0.029,0.005-0.053-0.011-0.053-0.044c-0.015-0.281-0.112-0.403-0.301-0.403
	c-0.146,0-0.224,0.062-0.262,0.185c-0.025,0.077-0.035,0.146-0.035,1.039c0,0.895,0.01,0.962,0.035,1.039
	c0.038,0.122,0.116,0.186,0.262,0.186c0.189,0,0.286-0.121,0.301-0.403c0-0.034,0.024-0.049,0.053-0.044l0.394,0.068
	c0.029,0.005,0.039,0.028,0.034,0.058c-0.029,0.549-0.326,0.792-0.797,0.792c-0.403,0-0.646-0.189-0.748-0.505
	C0.026,15.704,0.006,15.567,0.006,14.649"/>
<path d="M4.492,16.301c-0.029,0-0.044-0.009-0.054-0.034L4.035,14.95H3.952H3.788c-0.02,0-0.03,0.011-0.03,0.029v1.273
	c0,0.028-0.019,0.048-0.048,0.048H3.287c-0.029,0-0.048-0.02-0.048-0.048v-3.205c0-0.03,0.019-0.049,0.048-0.049h0.665
	c0.588,0,0.943,0.257,0.943,0.98c0,0.433-0.146,0.704-0.393,0.845l0.466,1.429c0.009,0.023,0,0.048-0.025,0.048H4.492z
	 M4.375,13.979c0-0.389-0.126-0.51-0.417-0.51h-0.17c-0.02,0-0.03,0.01-0.03,0.029v0.962c0,0.019,0.01,0.028,0.03,0.028h0.17
	C4.249,14.489,4.375,14.373,4.375,13.979"/>
<path d="M7.241,13.047c0.01-0.029,0.024-0.048,0.053-0.048h0.408c0.029,0,0.049,0.019,0.054,0.048l0.699,3.205
	c0.005,0.03-0.01,0.049-0.039,0.049H8.003c-0.034,0-0.048-0.019-0.053-0.049l-0.131-0.665H7.163l-0.131,0.665
	c-0.005,0.03-0.02,0.049-0.053,0.049H6.566c-0.029,0-0.044-0.019-0.039-0.049L7.241,13.047z M7.736,15.15l-0.233-1.229H7.488
	L7.246,15.15H7.736z"/>
<path d="M10.08,16.301c-0.029,0-0.049-0.019-0.049-0.049v-0.349c0-0.021,0.005-0.034,0.01-0.049l0.908-2.375v-0.01h-0.82
	c-0.029,0-0.049-0.02-0.049-0.049v-0.374c0-0.029,0.02-0.048,0.049-0.048h1.316c0.029,0,0.048,0.019,0.048,0.048v0.359
	c0,0.02-0.004,0.034-0.009,0.049l-0.894,2.365v0.01h0.855c0.029,0,0.048,0.019,0.048,0.048v0.374c0,0.03-0.019,0.049-0.048,0.049
	H10.08z"/>
<path d="M13.743,16.301c-0.029,0-0.049-0.019-0.049-0.049v-1.306l-0.631-1.899c-0.01-0.029,0-0.048,0.039-0.048h0.427
	c0.034,0,0.049,0.014,0.058,0.048l0.37,1.277h0.014l0.36-1.277c0.009-0.034,0.024-0.048,0.058-0.048h0.417
	c0.039,0,0.049,0.019,0.039,0.048l-0.631,1.899v1.306c0,0.03-0.019,0.049-0.048,0.049H13.743z"/>
<path d="M18.621,13.047c0-0.028,0.02-0.049,0.049-0.049h1.355c0.029,0,0.048,0.021,0.048,0.049v0.374
	c0,0.029-0.019,0.049-0.048,0.049H19.17c-0.019,0-0.029,0.01-0.029,0.029v0.894c0,0.02,0.01,0.028,0.029,0.028h0.738
	c0.029,0,0.049,0.021,0.049,0.049v0.374c0,0.029-0.02,0.049-0.049,0.049H19.17c-0.019,0-0.029,0.01-0.029,0.029v1.33
	c0,0.029-0.02,0.049-0.049,0.049H18.67c-0.029,0-0.049-0.02-0.049-0.049V13.047z"/>
<path d="M21.727,15.83c-0.049-0.146-0.063-0.262-0.063-1.18s0.014-1.035,0.063-1.181c0.107-0.325,0.374-0.515,0.782-0.515
	c0.403,0,0.67,0.189,0.777,0.515c0.049,0.146,0.063,0.263,0.063,1.181s-0.014,1.034-0.063,1.18
	c-0.107,0.325-0.374,0.515-0.777,0.515C22.101,16.345,21.834,16.155,21.727,15.83 M22.786,15.689
	c0.029-0.093,0.034-0.131,0.034-1.039c0-0.909-0.005-0.947-0.034-1.04c-0.034-0.111-0.141-0.185-0.277-0.185
	c-0.141,0-0.247,0.073-0.282,0.185c-0.029,0.093-0.034,0.131-0.034,1.04c0,0.908,0.005,0.946,0.034,1.039
	c0.035,0.111,0.141,0.184,0.282,0.184C22.645,15.873,22.752,15.801,22.786,15.689"/>
<path d="M26.302,16.301c-0.029,0-0.043-0.009-0.053-0.034l-0.403-1.316h-0.083h-0.165c-0.019,0-0.028,0.011-0.028,0.029v1.273
	c0,0.028-0.02,0.048-0.049,0.048h-0.423c-0.028,0-0.048-0.02-0.048-0.048v-3.205c0-0.03,0.02-0.049,0.048-0.049h0.665
	c0.588,0,0.943,0.257,0.943,0.98c0,0.433-0.146,0.704-0.394,0.845l0.467,1.429c0.009,0.023,0,0.048-0.025,0.048H26.302z
	 M26.186,13.979c0-0.389-0.126-0.51-0.417-0.51h-0.171c-0.019,0-0.028,0.01-0.028,0.029v0.962c0,0.019,0.01,0.028,0.028,0.028h0.171
	C26.06,14.489,26.186,14.373,26.186,13.979"/>
<path d="M31.361,16.345c-0.535,0-0.812-0.287-0.826-0.864c0-0.029,0.01-0.049,0.039-0.054l0.407-0.068
	c0.034-0.005,0.055,0.016,0.055,0.044c0.014,0.351,0.116,0.486,0.339,0.486c0.209,0,0.311-0.112,0.311-0.472
	c0-0.354-0.067-0.472-0.324-0.573l-0.199-0.077c-0.457-0.18-0.593-0.418-0.593-0.933c0-0.568,0.257-0.879,0.801-0.879
	s0.782,0.292,0.812,0.806c0,0.029-0.015,0.044-0.044,0.054l-0.389,0.059c-0.029,0.005-0.053-0.011-0.053-0.039
	c-0.011-0.272-0.098-0.422-0.312-0.422c-0.204,0-0.301,0.126-0.301,0.397c0,0.307,0.058,0.398,0.321,0.5l0.198,0.078
	c0.433,0.17,0.603,0.403,0.603,0.966C32.206,16.005,31.987,16.345,31.361,16.345"/>
<path d="M33.913,16.301c-0.029,0-0.049-0.02-0.049-0.048v-3.205c0-0.03,0.02-0.05,0.049-0.05h0.665c0.588,0,0.938,0.263,0.938,1.016
	c0,0.732-0.35,1.015-0.938,1.015h-0.165c-0.02,0-0.029,0.01-0.029,0.029v1.195c0,0.028-0.019,0.048-0.048,0.048H33.913z
	 M34.996,14.014c0-0.418-0.121-0.544-0.418-0.544h-0.165c-0.02,0-0.029,0.01-0.029,0.028v1.03c0,0.02,0.01,0.029,0.029,0.029h0.165
	C34.875,14.558,34.996,14.432,34.996,14.014"/>
<path d="M37.215,15.83c-0.049-0.146-0.062-0.262-0.062-1.18s0.014-1.035,0.062-1.181c0.107-0.325,0.374-0.515,0.782-0.515
	c0.403,0,0.67,0.189,0.777,0.515c0.049,0.146,0.062,0.263,0.062,1.181s-0.014,1.034-0.062,1.18
	c-0.107,0.325-0.374,0.515-0.777,0.515C37.589,16.345,37.322,16.155,37.215,15.83 M38.274,15.689
	c0.029-0.093,0.034-0.131,0.034-1.039c0-0.909-0.005-0.947-0.034-1.04c-0.034-0.111-0.142-0.185-0.277-0.185
	c-0.141,0-0.247,0.073-0.282,0.185c-0.028,0.093-0.033,0.131-0.033,1.04c0,0.908,0.005,0.946,0.033,1.039
	c0.035,0.111,0.142,0.184,0.282,0.184C38.133,15.873,38.24,15.801,38.274,15.689"/>
<path d="M41.79,16.301c-0.028,0-0.043-0.009-0.053-0.034l-0.403-1.316h-0.083h-0.165c-0.019,0-0.028,0.011-0.028,0.029v1.273
	c0,0.028-0.02,0.048-0.048,0.048h-0.424c-0.028,0-0.048-0.02-0.048-0.048v-3.205c0-0.03,0.02-0.049,0.048-0.049h0.665
	c0.589,0,0.943,0.257,0.943,0.98c0,0.433-0.146,0.704-0.393,0.845l0.466,1.429c0.009,0.023,0,0.048-0.025,0.048H41.79z
	 M41.675,13.979c0-0.389-0.126-0.51-0.417-0.51h-0.172c-0.019,0-0.028,0.01-0.028,0.029v0.962c0,0.019,0.01,0.028,0.028,0.028h0.172
	C41.549,14.489,41.675,14.373,41.675,13.979"/>
<path d="M44.39,16.301c-0.029,0-0.049-0.019-0.049-0.049v-2.753c0-0.02-0.01-0.029-0.029-0.029h-0.505
	c-0.029,0-0.048-0.02-0.048-0.049v-0.374c0-0.029,0.019-0.048,0.048-0.048h1.588c0.029,0,0.049,0.019,0.049,0.048v0.374
	c0,0.029-0.02,0.049-0.049,0.049H44.89c-0.02,0-0.029,0.01-0.029,0.029v2.753c0,0.03-0.019,0.049-0.048,0.049H44.39z"/>
<path d="M47.805,16.345c-0.534,0-0.812-0.287-0.826-0.864c0-0.029,0.01-0.049,0.039-0.054l0.408-0.068
	c0.033-0.005,0.054,0.016,0.054,0.044c0.014,0.351,0.116,0.486,0.34,0.486c0.208,0,0.311-0.112,0.311-0.472
	c0-0.354-0.068-0.472-0.325-0.573l-0.199-0.077c-0.457-0.18-0.592-0.418-0.592-0.933c0-0.568,0.257-0.879,0.801-0.879
	s0.781,0.292,0.811,0.806c0,0.029-0.015,0.044-0.044,0.054l-0.389,0.059c-0.029,0.005-0.053-0.011-0.053-0.039
	c-0.01-0.272-0.098-0.422-0.312-0.422c-0.204,0-0.301,0.126-0.301,0.397c0,0.307,0.059,0.398,0.321,0.5l0.199,0.078
	c0.432,0.17,0.602,0.403,0.602,0.966C48.649,16.005,48.432,16.345,47.805,16.345"/>
</svg>
