<svg xmlns="http://www.w3.org/2000/svg" width="28" height="30.031" viewBox="0 0 28 30.031">
  <metadata><?xpacket begin="﻿" id="W5M0MpCehiHzreSzNTczkc9d"?>
<x:xmpmeta xmlns:x="adobe:ns:meta/" x:xmptk="Adobe XMP Core 5.6-c138 79.159824, 2016/09/14-01:09:01        ">
   <rdf:RDF xmlns:rdf="http://www.w3.org/1999/02/22-rdf-syntax-ns#">
      <rdf:Description rdf:about=""/>
   </rdf:RDF>
</x:xmpmeta>
                                                                                                    
                                                                                                    
                                                                                                    
                                                                                                    
                                                                                                    
                                                                                                    
                                                                                                    
                                                                                                    
                                                                                                    
                                                                                                    
                                                                                                    
                                                                                                    
                                                                                                    
                                                                                                    
                                                                                                    
                                                                                                    
                                                                                                    
                                                                                                    
                                                                                                    
                                                                                                    
                           
<?xpacket end="w"?></metadata>
<defs>
    <style>
      .cls-1 {
        fill: #999;
        fill-rule: evenodd;
      }
    </style>
  </defs>
  <path id="btn_reload" class="cls-1" d="M1887.3,592.5c-7.74,0-14.29,6.175-14.29,13.791s6.55,13.7,14.29,13.7a13.936,13.936,0,0,0,12.56-7.6c0.92-1.838-2.87-2.629-3.74-1.046-1.78,3.139-5.09,4.223-8.82,4.223-5.64,0-9.91-4-9.91-9.275a9.579,9.579,0,0,1,9.91-9.547c4.56,0,4.64,1.295,4.75,1.174-1.18,1.191-3.9,3.932-3.9,3.932-1.61,1.591.21,1.568,0.21,1.568l11.7,0a0.677,0.677,0,0,0,.9-0.863l0.02-11.827c-0.02-1.645-1.64-.038-1.64-0.038l-3.92,3.985S1892.84,592.408,1887.3,592.5Z" transform="translate(-1873 -589.969)"/>
</svg>
